%TF.GenerationSoftware,KiCad,Pcbnew,9.0.7*%
%TF.CreationDate,2026-02-25T14:22:50+08:00*%
%TF.ProjectId,Rover2.0,526f7665-7232-42e3-902e-6b696361645f,rev?*%
%TF.SameCoordinates,Original*%
%TF.FileFunction,Legend,Top*%
%TF.FilePolarity,Positive*%
%FSLAX46Y46*%
G04 Gerber Fmt 4.6, Leading zero omitted, Abs format (unit mm)*
G04 Created by KiCad (PCBNEW 9.0.7) date 2026-02-25 14:22:50*
%MOMM*%
%LPD*%
G01*
G04 APERTURE LIST*
%ADD10C,0.300000*%
%ADD11C,0.100000*%
%ADD12C,0.150000*%
%ADD13C,0.120000*%
G04 APERTURE END LIST*
D10*
X108369510Y-111410114D02*
X107869510Y-111410114D01*
X107869510Y-112195828D02*
X107869510Y-110695828D01*
X107869510Y-110695828D02*
X108583796Y-110695828D01*
X110012367Y-112195828D02*
X109512367Y-111481542D01*
X109155224Y-112195828D02*
X109155224Y-110695828D01*
X109155224Y-110695828D02*
X109726653Y-110695828D01*
X109726653Y-110695828D02*
X109869510Y-110767257D01*
X109869510Y-110767257D02*
X109940939Y-110838685D01*
X109940939Y-110838685D02*
X110012367Y-110981542D01*
X110012367Y-110981542D02*
X110012367Y-111195828D01*
X110012367Y-111195828D02*
X109940939Y-111338685D01*
X109940939Y-111338685D02*
X109869510Y-111410114D01*
X109869510Y-111410114D02*
X109726653Y-111481542D01*
X109726653Y-111481542D02*
X109155224Y-111481542D01*
X110940939Y-110695828D02*
X111226653Y-110695828D01*
X111226653Y-110695828D02*
X111369510Y-110767257D01*
X111369510Y-110767257D02*
X111512367Y-110910114D01*
X111512367Y-110910114D02*
X111583796Y-111195828D01*
X111583796Y-111195828D02*
X111583796Y-111695828D01*
X111583796Y-111695828D02*
X111512367Y-111981542D01*
X111512367Y-111981542D02*
X111369510Y-112124400D01*
X111369510Y-112124400D02*
X111226653Y-112195828D01*
X111226653Y-112195828D02*
X110940939Y-112195828D01*
X110940939Y-112195828D02*
X110798082Y-112124400D01*
X110798082Y-112124400D02*
X110655224Y-111981542D01*
X110655224Y-111981542D02*
X110583796Y-111695828D01*
X110583796Y-111695828D02*
X110583796Y-111195828D01*
X110583796Y-111195828D02*
X110655224Y-110910114D01*
X110655224Y-110910114D02*
X110798082Y-110767257D01*
X110798082Y-110767257D02*
X110940939Y-110695828D01*
X112226653Y-112195828D02*
X112226653Y-110695828D01*
X112226653Y-110695828D02*
X113083796Y-112195828D01*
X113083796Y-112195828D02*
X113083796Y-110695828D01*
X113583797Y-110695828D02*
X114440940Y-110695828D01*
X114012368Y-112195828D02*
X114012368Y-110695828D01*
D11*
X105586884Y-88213619D02*
X105586884Y-87213619D01*
X106539264Y-88213619D02*
X106063074Y-88213619D01*
X106063074Y-88213619D02*
X106063074Y-87213619D01*
X106872598Y-88213619D02*
X106872598Y-87213619D01*
X107396407Y-88213619D02*
X107586883Y-88213619D01*
X107586883Y-88213619D02*
X107682121Y-88166000D01*
X107682121Y-88166000D02*
X107729740Y-88118380D01*
X107729740Y-88118380D02*
X107824978Y-87975523D01*
X107824978Y-87975523D02*
X107872597Y-87785047D01*
X107872597Y-87785047D02*
X107872597Y-87404095D01*
X107872597Y-87404095D02*
X107824978Y-87308857D01*
X107824978Y-87308857D02*
X107777359Y-87261238D01*
X107777359Y-87261238D02*
X107682121Y-87213619D01*
X107682121Y-87213619D02*
X107491645Y-87213619D01*
X107491645Y-87213619D02*
X107396407Y-87261238D01*
X107396407Y-87261238D02*
X107348788Y-87308857D01*
X107348788Y-87308857D02*
X107301169Y-87404095D01*
X107301169Y-87404095D02*
X107301169Y-87642190D01*
X107301169Y-87642190D02*
X107348788Y-87737428D01*
X107348788Y-87737428D02*
X107396407Y-87785047D01*
X107396407Y-87785047D02*
X107491645Y-87832666D01*
X107491645Y-87832666D02*
X107682121Y-87832666D01*
X107682121Y-87832666D02*
X107777359Y-87785047D01*
X107777359Y-87785047D02*
X107824978Y-87737428D01*
X107824978Y-87737428D02*
X107872597Y-87642190D01*
X108729740Y-87546952D02*
X108729740Y-88213619D01*
X108491645Y-87166000D02*
X108253550Y-87880285D01*
X108253550Y-87880285D02*
X108872597Y-87880285D01*
X109396407Y-87642190D02*
X109301169Y-87594571D01*
X109301169Y-87594571D02*
X109253550Y-87546952D01*
X109253550Y-87546952D02*
X109205931Y-87451714D01*
X109205931Y-87451714D02*
X109205931Y-87404095D01*
X109205931Y-87404095D02*
X109253550Y-87308857D01*
X109253550Y-87308857D02*
X109301169Y-87261238D01*
X109301169Y-87261238D02*
X109396407Y-87213619D01*
X109396407Y-87213619D02*
X109586883Y-87213619D01*
X109586883Y-87213619D02*
X109682121Y-87261238D01*
X109682121Y-87261238D02*
X109729740Y-87308857D01*
X109729740Y-87308857D02*
X109777359Y-87404095D01*
X109777359Y-87404095D02*
X109777359Y-87451714D01*
X109777359Y-87451714D02*
X109729740Y-87546952D01*
X109729740Y-87546952D02*
X109682121Y-87594571D01*
X109682121Y-87594571D02*
X109586883Y-87642190D01*
X109586883Y-87642190D02*
X109396407Y-87642190D01*
X109396407Y-87642190D02*
X109301169Y-87689809D01*
X109301169Y-87689809D02*
X109253550Y-87737428D01*
X109253550Y-87737428D02*
X109205931Y-87832666D01*
X109205931Y-87832666D02*
X109205931Y-88023142D01*
X109205931Y-88023142D02*
X109253550Y-88118380D01*
X109253550Y-88118380D02*
X109301169Y-88166000D01*
X109301169Y-88166000D02*
X109396407Y-88213619D01*
X109396407Y-88213619D02*
X109586883Y-88213619D01*
X109586883Y-88213619D02*
X109682121Y-88166000D01*
X109682121Y-88166000D02*
X109729740Y-88118380D01*
X109729740Y-88118380D02*
X109777359Y-88023142D01*
X109777359Y-88023142D02*
X109777359Y-87832666D01*
X109777359Y-87832666D02*
X109729740Y-87737428D01*
X109729740Y-87737428D02*
X109682121Y-87689809D01*
X109682121Y-87689809D02*
X109586883Y-87642190D01*
X110348788Y-87642190D02*
X110253550Y-87594571D01*
X110253550Y-87594571D02*
X110205931Y-87546952D01*
X110205931Y-87546952D02*
X110158312Y-87451714D01*
X110158312Y-87451714D02*
X110158312Y-87404095D01*
X110158312Y-87404095D02*
X110205931Y-87308857D01*
X110205931Y-87308857D02*
X110253550Y-87261238D01*
X110253550Y-87261238D02*
X110348788Y-87213619D01*
X110348788Y-87213619D02*
X110539264Y-87213619D01*
X110539264Y-87213619D02*
X110634502Y-87261238D01*
X110634502Y-87261238D02*
X110682121Y-87308857D01*
X110682121Y-87308857D02*
X110729740Y-87404095D01*
X110729740Y-87404095D02*
X110729740Y-87451714D01*
X110729740Y-87451714D02*
X110682121Y-87546952D01*
X110682121Y-87546952D02*
X110634502Y-87594571D01*
X110634502Y-87594571D02*
X110539264Y-87642190D01*
X110539264Y-87642190D02*
X110348788Y-87642190D01*
X110348788Y-87642190D02*
X110253550Y-87689809D01*
X110253550Y-87689809D02*
X110205931Y-87737428D01*
X110205931Y-87737428D02*
X110158312Y-87832666D01*
X110158312Y-87832666D02*
X110158312Y-88023142D01*
X110158312Y-88023142D02*
X110205931Y-88118380D01*
X110205931Y-88118380D02*
X110253550Y-88166000D01*
X110253550Y-88166000D02*
X110348788Y-88213619D01*
X110348788Y-88213619D02*
X110539264Y-88213619D01*
X110539264Y-88213619D02*
X110634502Y-88166000D01*
X110634502Y-88166000D02*
X110682121Y-88118380D01*
X110682121Y-88118380D02*
X110729740Y-88023142D01*
X110729740Y-88023142D02*
X110729740Y-87832666D01*
X110729740Y-87832666D02*
X110682121Y-87737428D01*
X110682121Y-87737428D02*
X110634502Y-87689809D01*
X110634502Y-87689809D02*
X110539264Y-87642190D01*
X111777360Y-87213619D02*
X112348788Y-87213619D01*
X112063074Y-88213619D02*
X112063074Y-87213619D01*
X113015455Y-87689809D02*
X112682122Y-87689809D01*
X112682122Y-88213619D02*
X112682122Y-87213619D01*
X112682122Y-87213619D02*
X113158312Y-87213619D01*
X113396408Y-87213619D02*
X113967836Y-87213619D01*
X113682122Y-88213619D02*
X113682122Y-87213619D01*
X115539265Y-88213619D02*
X115063075Y-88213619D01*
X115063075Y-88213619D02*
X115063075Y-87213619D01*
X116444027Y-88118380D02*
X116396408Y-88166000D01*
X116396408Y-88166000D02*
X116253551Y-88213619D01*
X116253551Y-88213619D02*
X116158313Y-88213619D01*
X116158313Y-88213619D02*
X116015456Y-88166000D01*
X116015456Y-88166000D02*
X115920218Y-88070761D01*
X115920218Y-88070761D02*
X115872599Y-87975523D01*
X115872599Y-87975523D02*
X115824980Y-87785047D01*
X115824980Y-87785047D02*
X115824980Y-87642190D01*
X115824980Y-87642190D02*
X115872599Y-87451714D01*
X115872599Y-87451714D02*
X115920218Y-87356476D01*
X115920218Y-87356476D02*
X116015456Y-87261238D01*
X116015456Y-87261238D02*
X116158313Y-87213619D01*
X116158313Y-87213619D02*
X116253551Y-87213619D01*
X116253551Y-87213619D02*
X116396408Y-87261238D01*
X116396408Y-87261238D02*
X116444027Y-87308857D01*
X116872599Y-88213619D02*
X116872599Y-87213619D01*
X116872599Y-87213619D02*
X117110694Y-87213619D01*
X117110694Y-87213619D02*
X117253551Y-87261238D01*
X117253551Y-87261238D02*
X117348789Y-87356476D01*
X117348789Y-87356476D02*
X117396408Y-87451714D01*
X117396408Y-87451714D02*
X117444027Y-87642190D01*
X117444027Y-87642190D02*
X117444027Y-87785047D01*
X117444027Y-87785047D02*
X117396408Y-87975523D01*
X117396408Y-87975523D02*
X117348789Y-88070761D01*
X117348789Y-88070761D02*
X117253551Y-88166000D01*
X117253551Y-88166000D02*
X117110694Y-88213619D01*
X117110694Y-88213619D02*
X116872599Y-88213619D01*
D12*
X67878066Y-58989419D02*
X67878066Y-59703704D01*
X67878066Y-59703704D02*
X67830447Y-59846561D01*
X67830447Y-59846561D02*
X67735209Y-59941800D01*
X67735209Y-59941800D02*
X67592352Y-59989419D01*
X67592352Y-59989419D02*
X67497114Y-59989419D01*
X68259019Y-58989419D02*
X68878066Y-58989419D01*
X68878066Y-58989419D02*
X68544733Y-59370371D01*
X68544733Y-59370371D02*
X68687590Y-59370371D01*
X68687590Y-59370371D02*
X68782828Y-59417990D01*
X68782828Y-59417990D02*
X68830447Y-59465609D01*
X68830447Y-59465609D02*
X68878066Y-59560847D01*
X68878066Y-59560847D02*
X68878066Y-59798942D01*
X68878066Y-59798942D02*
X68830447Y-59894180D01*
X68830447Y-59894180D02*
X68782828Y-59941800D01*
X68782828Y-59941800D02*
X68687590Y-59989419D01*
X68687590Y-59989419D02*
X68401876Y-59989419D01*
X68401876Y-59989419D02*
X68306638Y-59941800D01*
X68306638Y-59941800D02*
X68259019Y-59894180D01*
X141052779Y-64893819D02*
X141052779Y-63893819D01*
X141052779Y-63893819D02*
X141624207Y-64893819D01*
X141624207Y-64893819D02*
X141624207Y-63893819D01*
X142100398Y-64370009D02*
X142433731Y-64370009D01*
X142576588Y-64893819D02*
X142100398Y-64893819D01*
X142100398Y-64893819D02*
X142100398Y-63893819D01*
X142100398Y-63893819D02*
X142576588Y-63893819D01*
X143195636Y-63893819D02*
X143386112Y-63893819D01*
X143386112Y-63893819D02*
X143481350Y-63941438D01*
X143481350Y-63941438D02*
X143576588Y-64036676D01*
X143576588Y-64036676D02*
X143624207Y-64227152D01*
X143624207Y-64227152D02*
X143624207Y-64560485D01*
X143624207Y-64560485D02*
X143576588Y-64750961D01*
X143576588Y-64750961D02*
X143481350Y-64846200D01*
X143481350Y-64846200D02*
X143386112Y-64893819D01*
X143386112Y-64893819D02*
X143195636Y-64893819D01*
X143195636Y-64893819D02*
X143100398Y-64846200D01*
X143100398Y-64846200D02*
X143005160Y-64750961D01*
X143005160Y-64750961D02*
X142957541Y-64560485D01*
X142957541Y-64560485D02*
X142957541Y-64227152D01*
X142957541Y-64227152D02*
X143005160Y-64036676D01*
X143005160Y-64036676D02*
X143100398Y-63941438D01*
X143100398Y-63941438D02*
X143195636Y-63893819D01*
X144814684Y-64893819D02*
X144814684Y-63893819D01*
X144814684Y-63893819D02*
X145148017Y-64608104D01*
X145148017Y-64608104D02*
X145481350Y-63893819D01*
X145481350Y-63893819D02*
X145481350Y-64893819D01*
X146100398Y-64322390D02*
X146005160Y-64274771D01*
X146005160Y-64274771D02*
X145957541Y-64227152D01*
X145957541Y-64227152D02*
X145909922Y-64131914D01*
X145909922Y-64131914D02*
X145909922Y-64084295D01*
X145909922Y-64084295D02*
X145957541Y-63989057D01*
X145957541Y-63989057D02*
X146005160Y-63941438D01*
X146005160Y-63941438D02*
X146100398Y-63893819D01*
X146100398Y-63893819D02*
X146290874Y-63893819D01*
X146290874Y-63893819D02*
X146386112Y-63941438D01*
X146386112Y-63941438D02*
X146433731Y-63989057D01*
X146433731Y-63989057D02*
X146481350Y-64084295D01*
X146481350Y-64084295D02*
X146481350Y-64131914D01*
X146481350Y-64131914D02*
X146433731Y-64227152D01*
X146433731Y-64227152D02*
X146386112Y-64274771D01*
X146386112Y-64274771D02*
X146290874Y-64322390D01*
X146290874Y-64322390D02*
X146100398Y-64322390D01*
X146100398Y-64322390D02*
X146005160Y-64370009D01*
X146005160Y-64370009D02*
X145957541Y-64417628D01*
X145957541Y-64417628D02*
X145909922Y-64512866D01*
X145909922Y-64512866D02*
X145909922Y-64703342D01*
X145909922Y-64703342D02*
X145957541Y-64798580D01*
X145957541Y-64798580D02*
X146005160Y-64846200D01*
X146005160Y-64846200D02*
X146100398Y-64893819D01*
X146100398Y-64893819D02*
X146290874Y-64893819D01*
X146290874Y-64893819D02*
X146386112Y-64846200D01*
X146386112Y-64846200D02*
X146433731Y-64798580D01*
X146433731Y-64798580D02*
X146481350Y-64703342D01*
X146481350Y-64703342D02*
X146481350Y-64512866D01*
X146481350Y-64512866D02*
X146433731Y-64417628D01*
X146433731Y-64417628D02*
X146386112Y-64370009D01*
X146386112Y-64370009D02*
X146290874Y-64322390D01*
X146909922Y-64893819D02*
X146909922Y-63893819D01*
X146909922Y-63893819D02*
X147481350Y-64893819D01*
X147481350Y-64893819D02*
X147481350Y-63893819D01*
D11*
X71762817Y-92534209D02*
X71905674Y-92581828D01*
X71905674Y-92581828D02*
X71953293Y-92629447D01*
X71953293Y-92629447D02*
X72000912Y-92724685D01*
X72000912Y-92724685D02*
X72000912Y-92867542D01*
X72000912Y-92867542D02*
X71953293Y-92962780D01*
X71953293Y-92962780D02*
X71905674Y-93010400D01*
X71905674Y-93010400D02*
X71810436Y-93058019D01*
X71810436Y-93058019D02*
X71429484Y-93058019D01*
X71429484Y-93058019D02*
X71429484Y-92058019D01*
X71429484Y-92058019D02*
X71762817Y-92058019D01*
X71762817Y-92058019D02*
X71858055Y-92105638D01*
X71858055Y-92105638D02*
X71905674Y-92153257D01*
X71905674Y-92153257D02*
X71953293Y-92248495D01*
X71953293Y-92248495D02*
X71953293Y-92343733D01*
X71953293Y-92343733D02*
X71905674Y-92438971D01*
X71905674Y-92438971D02*
X71858055Y-92486590D01*
X71858055Y-92486590D02*
X71762817Y-92534209D01*
X71762817Y-92534209D02*
X71429484Y-92534209D01*
X72429484Y-93058019D02*
X72429484Y-92058019D01*
X72429484Y-92058019D02*
X72762817Y-92772304D01*
X72762817Y-92772304D02*
X73096150Y-92058019D01*
X73096150Y-92058019D02*
X73096150Y-93058019D01*
X73572341Y-93058019D02*
X73572341Y-92058019D01*
X73572341Y-92058019D02*
X73953293Y-92058019D01*
X73953293Y-92058019D02*
X74048531Y-92105638D01*
X74048531Y-92105638D02*
X74096150Y-92153257D01*
X74096150Y-92153257D02*
X74143769Y-92248495D01*
X74143769Y-92248495D02*
X74143769Y-92391352D01*
X74143769Y-92391352D02*
X74096150Y-92486590D01*
X74096150Y-92486590D02*
X74048531Y-92534209D01*
X74048531Y-92534209D02*
X73953293Y-92581828D01*
X73953293Y-92581828D02*
X73572341Y-92581828D01*
X74524722Y-92153257D02*
X74572341Y-92105638D01*
X74572341Y-92105638D02*
X74667579Y-92058019D01*
X74667579Y-92058019D02*
X74905674Y-92058019D01*
X74905674Y-92058019D02*
X75000912Y-92105638D01*
X75000912Y-92105638D02*
X75048531Y-92153257D01*
X75048531Y-92153257D02*
X75096150Y-92248495D01*
X75096150Y-92248495D02*
X75096150Y-92343733D01*
X75096150Y-92343733D02*
X75048531Y-92486590D01*
X75048531Y-92486590D02*
X74477103Y-93058019D01*
X74477103Y-93058019D02*
X75096150Y-93058019D01*
X75667579Y-92486590D02*
X75572341Y-92438971D01*
X75572341Y-92438971D02*
X75524722Y-92391352D01*
X75524722Y-92391352D02*
X75477103Y-92296114D01*
X75477103Y-92296114D02*
X75477103Y-92248495D01*
X75477103Y-92248495D02*
X75524722Y-92153257D01*
X75524722Y-92153257D02*
X75572341Y-92105638D01*
X75572341Y-92105638D02*
X75667579Y-92058019D01*
X75667579Y-92058019D02*
X75858055Y-92058019D01*
X75858055Y-92058019D02*
X75953293Y-92105638D01*
X75953293Y-92105638D02*
X76000912Y-92153257D01*
X76000912Y-92153257D02*
X76048531Y-92248495D01*
X76048531Y-92248495D02*
X76048531Y-92296114D01*
X76048531Y-92296114D02*
X76000912Y-92391352D01*
X76000912Y-92391352D02*
X75953293Y-92438971D01*
X75953293Y-92438971D02*
X75858055Y-92486590D01*
X75858055Y-92486590D02*
X75667579Y-92486590D01*
X75667579Y-92486590D02*
X75572341Y-92534209D01*
X75572341Y-92534209D02*
X75524722Y-92581828D01*
X75524722Y-92581828D02*
X75477103Y-92677066D01*
X75477103Y-92677066D02*
X75477103Y-92867542D01*
X75477103Y-92867542D02*
X75524722Y-92962780D01*
X75524722Y-92962780D02*
X75572341Y-93010400D01*
X75572341Y-93010400D02*
X75667579Y-93058019D01*
X75667579Y-93058019D02*
X75858055Y-93058019D01*
X75858055Y-93058019D02*
X75953293Y-93010400D01*
X75953293Y-93010400D02*
X76000912Y-92962780D01*
X76000912Y-92962780D02*
X76048531Y-92867542D01*
X76048531Y-92867542D02*
X76048531Y-92677066D01*
X76048531Y-92677066D02*
X76000912Y-92581828D01*
X76000912Y-92581828D02*
X75953293Y-92534209D01*
X75953293Y-92534209D02*
X75858055Y-92486590D01*
X76667579Y-92058019D02*
X76762817Y-92058019D01*
X76762817Y-92058019D02*
X76858055Y-92105638D01*
X76858055Y-92105638D02*
X76905674Y-92153257D01*
X76905674Y-92153257D02*
X76953293Y-92248495D01*
X76953293Y-92248495D02*
X77000912Y-92438971D01*
X77000912Y-92438971D02*
X77000912Y-92677066D01*
X77000912Y-92677066D02*
X76953293Y-92867542D01*
X76953293Y-92867542D02*
X76905674Y-92962780D01*
X76905674Y-92962780D02*
X76858055Y-93010400D01*
X76858055Y-93010400D02*
X76762817Y-93058019D01*
X76762817Y-93058019D02*
X76667579Y-93058019D01*
X76667579Y-93058019D02*
X76572341Y-93010400D01*
X76572341Y-93010400D02*
X76524722Y-92962780D01*
X76524722Y-92962780D02*
X76477103Y-92867542D01*
X76477103Y-92867542D02*
X76429484Y-92677066D01*
X76429484Y-92677066D02*
X76429484Y-92438971D01*
X76429484Y-92438971D02*
X76477103Y-92248495D01*
X76477103Y-92248495D02*
X76524722Y-92153257D01*
X76524722Y-92153257D02*
X76572341Y-92105638D01*
X76572341Y-92105638D02*
X76667579Y-92058019D01*
X105205884Y-118474609D02*
X105539217Y-118474609D01*
X105682074Y-118998419D02*
X105205884Y-118998419D01*
X105205884Y-118998419D02*
X105205884Y-117998419D01*
X105205884Y-117998419D02*
X105682074Y-117998419D01*
X106063027Y-118950800D02*
X106205884Y-118998419D01*
X106205884Y-118998419D02*
X106443979Y-118998419D01*
X106443979Y-118998419D02*
X106539217Y-118950800D01*
X106539217Y-118950800D02*
X106586836Y-118903180D01*
X106586836Y-118903180D02*
X106634455Y-118807942D01*
X106634455Y-118807942D02*
X106634455Y-118712704D01*
X106634455Y-118712704D02*
X106586836Y-118617466D01*
X106586836Y-118617466D02*
X106539217Y-118569847D01*
X106539217Y-118569847D02*
X106443979Y-118522228D01*
X106443979Y-118522228D02*
X106253503Y-118474609D01*
X106253503Y-118474609D02*
X106158265Y-118426990D01*
X106158265Y-118426990D02*
X106110646Y-118379371D01*
X106110646Y-118379371D02*
X106063027Y-118284133D01*
X106063027Y-118284133D02*
X106063027Y-118188895D01*
X106063027Y-118188895D02*
X106110646Y-118093657D01*
X106110646Y-118093657D02*
X106158265Y-118046038D01*
X106158265Y-118046038D02*
X106253503Y-117998419D01*
X106253503Y-117998419D02*
X106491598Y-117998419D01*
X106491598Y-117998419D02*
X106634455Y-118046038D01*
X107063027Y-118998419D02*
X107063027Y-117998419D01*
X107063027Y-117998419D02*
X107443979Y-117998419D01*
X107443979Y-117998419D02*
X107539217Y-118046038D01*
X107539217Y-118046038D02*
X107586836Y-118093657D01*
X107586836Y-118093657D02*
X107634455Y-118188895D01*
X107634455Y-118188895D02*
X107634455Y-118331752D01*
X107634455Y-118331752D02*
X107586836Y-118426990D01*
X107586836Y-118426990D02*
X107539217Y-118474609D01*
X107539217Y-118474609D02*
X107443979Y-118522228D01*
X107443979Y-118522228D02*
X107063027Y-118522228D01*
X107967789Y-117998419D02*
X108586836Y-117998419D01*
X108586836Y-117998419D02*
X108253503Y-118379371D01*
X108253503Y-118379371D02*
X108396360Y-118379371D01*
X108396360Y-118379371D02*
X108491598Y-118426990D01*
X108491598Y-118426990D02*
X108539217Y-118474609D01*
X108539217Y-118474609D02*
X108586836Y-118569847D01*
X108586836Y-118569847D02*
X108586836Y-118807942D01*
X108586836Y-118807942D02*
X108539217Y-118903180D01*
X108539217Y-118903180D02*
X108491598Y-118950800D01*
X108491598Y-118950800D02*
X108396360Y-118998419D01*
X108396360Y-118998419D02*
X108110646Y-118998419D01*
X108110646Y-118998419D02*
X108015408Y-118950800D01*
X108015408Y-118950800D02*
X107967789Y-118903180D01*
X108967789Y-118093657D02*
X109015408Y-118046038D01*
X109015408Y-118046038D02*
X109110646Y-117998419D01*
X109110646Y-117998419D02*
X109348741Y-117998419D01*
X109348741Y-117998419D02*
X109443979Y-118046038D01*
X109443979Y-118046038D02*
X109491598Y-118093657D01*
X109491598Y-118093657D02*
X109539217Y-118188895D01*
X109539217Y-118188895D02*
X109539217Y-118284133D01*
X109539217Y-118284133D02*
X109491598Y-118426990D01*
X109491598Y-118426990D02*
X108920170Y-118998419D01*
X108920170Y-118998419D02*
X109539217Y-118998419D01*
X110682075Y-118950800D02*
X110824932Y-118998419D01*
X110824932Y-118998419D02*
X111063027Y-118998419D01*
X111063027Y-118998419D02*
X111158265Y-118950800D01*
X111158265Y-118950800D02*
X111205884Y-118903180D01*
X111205884Y-118903180D02*
X111253503Y-118807942D01*
X111253503Y-118807942D02*
X111253503Y-118712704D01*
X111253503Y-118712704D02*
X111205884Y-118617466D01*
X111205884Y-118617466D02*
X111158265Y-118569847D01*
X111158265Y-118569847D02*
X111063027Y-118522228D01*
X111063027Y-118522228D02*
X110872551Y-118474609D01*
X110872551Y-118474609D02*
X110777313Y-118426990D01*
X110777313Y-118426990D02*
X110729694Y-118379371D01*
X110729694Y-118379371D02*
X110682075Y-118284133D01*
X110682075Y-118284133D02*
X110682075Y-118188895D01*
X110682075Y-118188895D02*
X110729694Y-118093657D01*
X110729694Y-118093657D02*
X110777313Y-118046038D01*
X110777313Y-118046038D02*
X110872551Y-117998419D01*
X110872551Y-117998419D02*
X111110646Y-117998419D01*
X111110646Y-117998419D02*
X111253503Y-118046038D01*
X111586837Y-117998419D02*
X112205884Y-117998419D01*
X112205884Y-117998419D02*
X111872551Y-118379371D01*
X111872551Y-118379371D02*
X112015408Y-118379371D01*
X112015408Y-118379371D02*
X112110646Y-118426990D01*
X112110646Y-118426990D02*
X112158265Y-118474609D01*
X112158265Y-118474609D02*
X112205884Y-118569847D01*
X112205884Y-118569847D02*
X112205884Y-118807942D01*
X112205884Y-118807942D02*
X112158265Y-118903180D01*
X112158265Y-118903180D02*
X112110646Y-118950800D01*
X112110646Y-118950800D02*
X112015408Y-118998419D01*
X112015408Y-118998419D02*
X111729694Y-118998419D01*
X111729694Y-118998419D02*
X111634456Y-118950800D01*
X111634456Y-118950800D02*
X111586837Y-118903180D01*
X113396361Y-118998419D02*
X113396361Y-117998419D01*
X113396361Y-117998419D02*
X113967789Y-118998419D01*
X113967789Y-118998419D02*
X113967789Y-117998419D01*
X114967789Y-118998419D02*
X114396361Y-118998419D01*
X114682075Y-118998419D02*
X114682075Y-117998419D01*
X114682075Y-117998419D02*
X114586837Y-118141276D01*
X114586837Y-118141276D02*
X114491599Y-118236514D01*
X114491599Y-118236514D02*
X114396361Y-118284133D01*
X115824932Y-117998419D02*
X115634456Y-117998419D01*
X115634456Y-117998419D02*
X115539218Y-118046038D01*
X115539218Y-118046038D02*
X115491599Y-118093657D01*
X115491599Y-118093657D02*
X115396361Y-118236514D01*
X115396361Y-118236514D02*
X115348742Y-118426990D01*
X115348742Y-118426990D02*
X115348742Y-118807942D01*
X115348742Y-118807942D02*
X115396361Y-118903180D01*
X115396361Y-118903180D02*
X115443980Y-118950800D01*
X115443980Y-118950800D02*
X115539218Y-118998419D01*
X115539218Y-118998419D02*
X115729694Y-118998419D01*
X115729694Y-118998419D02*
X115824932Y-118950800D01*
X115824932Y-118950800D02*
X115872551Y-118903180D01*
X115872551Y-118903180D02*
X115920170Y-118807942D01*
X115920170Y-118807942D02*
X115920170Y-118569847D01*
X115920170Y-118569847D02*
X115872551Y-118474609D01*
X115872551Y-118474609D02*
X115824932Y-118426990D01*
X115824932Y-118426990D02*
X115729694Y-118379371D01*
X115729694Y-118379371D02*
X115539218Y-118379371D01*
X115539218Y-118379371D02*
X115443980Y-118426990D01*
X115443980Y-118426990D02*
X115396361Y-118474609D01*
X115396361Y-118474609D02*
X115348742Y-118569847D01*
X116920170Y-118998419D02*
X116586837Y-118522228D01*
X116348742Y-118998419D02*
X116348742Y-117998419D01*
X116348742Y-117998419D02*
X116729694Y-117998419D01*
X116729694Y-117998419D02*
X116824932Y-118046038D01*
X116824932Y-118046038D02*
X116872551Y-118093657D01*
X116872551Y-118093657D02*
X116920170Y-118188895D01*
X116920170Y-118188895D02*
X116920170Y-118331752D01*
X116920170Y-118331752D02*
X116872551Y-118426990D01*
X116872551Y-118426990D02*
X116824932Y-118474609D01*
X116824932Y-118474609D02*
X116729694Y-118522228D01*
X116729694Y-118522228D02*
X116348742Y-118522228D01*
X117491599Y-118426990D02*
X117396361Y-118379371D01*
X117396361Y-118379371D02*
X117348742Y-118331752D01*
X117348742Y-118331752D02*
X117301123Y-118236514D01*
X117301123Y-118236514D02*
X117301123Y-118188895D01*
X117301123Y-118188895D02*
X117348742Y-118093657D01*
X117348742Y-118093657D02*
X117396361Y-118046038D01*
X117396361Y-118046038D02*
X117491599Y-117998419D01*
X117491599Y-117998419D02*
X117682075Y-117998419D01*
X117682075Y-117998419D02*
X117777313Y-118046038D01*
X117777313Y-118046038D02*
X117824932Y-118093657D01*
X117824932Y-118093657D02*
X117872551Y-118188895D01*
X117872551Y-118188895D02*
X117872551Y-118236514D01*
X117872551Y-118236514D02*
X117824932Y-118331752D01*
X117824932Y-118331752D02*
X117777313Y-118379371D01*
X117777313Y-118379371D02*
X117682075Y-118426990D01*
X117682075Y-118426990D02*
X117491599Y-118426990D01*
X117491599Y-118426990D02*
X117396361Y-118474609D01*
X117396361Y-118474609D02*
X117348742Y-118522228D01*
X117348742Y-118522228D02*
X117301123Y-118617466D01*
X117301123Y-118617466D02*
X117301123Y-118807942D01*
X117301123Y-118807942D02*
X117348742Y-118903180D01*
X117348742Y-118903180D02*
X117396361Y-118950800D01*
X117396361Y-118950800D02*
X117491599Y-118998419D01*
X117491599Y-118998419D02*
X117682075Y-118998419D01*
X117682075Y-118998419D02*
X117777313Y-118950800D01*
X117777313Y-118950800D02*
X117824932Y-118903180D01*
X117824932Y-118903180D02*
X117872551Y-118807942D01*
X117872551Y-118807942D02*
X117872551Y-118617466D01*
X117872551Y-118617466D02*
X117824932Y-118522228D01*
X117824932Y-118522228D02*
X117777313Y-118474609D01*
X117777313Y-118474609D02*
X117682075Y-118426990D01*
X133319217Y-95618609D02*
X133462074Y-95666228D01*
X133462074Y-95666228D02*
X133509693Y-95713847D01*
X133509693Y-95713847D02*
X133557312Y-95809085D01*
X133557312Y-95809085D02*
X133557312Y-95951942D01*
X133557312Y-95951942D02*
X133509693Y-96047180D01*
X133509693Y-96047180D02*
X133462074Y-96094800D01*
X133462074Y-96094800D02*
X133366836Y-96142419D01*
X133366836Y-96142419D02*
X132985884Y-96142419D01*
X132985884Y-96142419D02*
X132985884Y-95142419D01*
X132985884Y-95142419D02*
X133319217Y-95142419D01*
X133319217Y-95142419D02*
X133414455Y-95190038D01*
X133414455Y-95190038D02*
X133462074Y-95237657D01*
X133462074Y-95237657D02*
X133509693Y-95332895D01*
X133509693Y-95332895D02*
X133509693Y-95428133D01*
X133509693Y-95428133D02*
X133462074Y-95523371D01*
X133462074Y-95523371D02*
X133414455Y-95570990D01*
X133414455Y-95570990D02*
X133319217Y-95618609D01*
X133319217Y-95618609D02*
X132985884Y-95618609D01*
X133985884Y-95142419D02*
X133985884Y-95951942D01*
X133985884Y-95951942D02*
X134033503Y-96047180D01*
X134033503Y-96047180D02*
X134081122Y-96094800D01*
X134081122Y-96094800D02*
X134176360Y-96142419D01*
X134176360Y-96142419D02*
X134366836Y-96142419D01*
X134366836Y-96142419D02*
X134462074Y-96094800D01*
X134462074Y-96094800D02*
X134509693Y-96047180D01*
X134509693Y-96047180D02*
X134557312Y-95951942D01*
X134557312Y-95951942D02*
X134557312Y-95142419D01*
X135604931Y-96047180D02*
X135557312Y-96094800D01*
X135557312Y-96094800D02*
X135414455Y-96142419D01*
X135414455Y-96142419D02*
X135319217Y-96142419D01*
X135319217Y-96142419D02*
X135176360Y-96094800D01*
X135176360Y-96094800D02*
X135081122Y-95999561D01*
X135081122Y-95999561D02*
X135033503Y-95904323D01*
X135033503Y-95904323D02*
X134985884Y-95713847D01*
X134985884Y-95713847D02*
X134985884Y-95570990D01*
X134985884Y-95570990D02*
X135033503Y-95380514D01*
X135033503Y-95380514D02*
X135081122Y-95285276D01*
X135081122Y-95285276D02*
X135176360Y-95190038D01*
X135176360Y-95190038D02*
X135319217Y-95142419D01*
X135319217Y-95142419D02*
X135414455Y-95142419D01*
X135414455Y-95142419D02*
X135557312Y-95190038D01*
X135557312Y-95190038D02*
X135604931Y-95237657D01*
X136033503Y-96142419D02*
X136033503Y-95142419D01*
X136604931Y-96142419D02*
X136176360Y-95570990D01*
X136604931Y-95142419D02*
X136033503Y-95713847D01*
X138366836Y-96047180D02*
X138319217Y-96094800D01*
X138319217Y-96094800D02*
X138176360Y-96142419D01*
X138176360Y-96142419D02*
X138081122Y-96142419D01*
X138081122Y-96142419D02*
X137938265Y-96094800D01*
X137938265Y-96094800D02*
X137843027Y-95999561D01*
X137843027Y-95999561D02*
X137795408Y-95904323D01*
X137795408Y-95904323D02*
X137747789Y-95713847D01*
X137747789Y-95713847D02*
X137747789Y-95570990D01*
X137747789Y-95570990D02*
X137795408Y-95380514D01*
X137795408Y-95380514D02*
X137843027Y-95285276D01*
X137843027Y-95285276D02*
X137938265Y-95190038D01*
X137938265Y-95190038D02*
X138081122Y-95142419D01*
X138081122Y-95142419D02*
X138176360Y-95142419D01*
X138176360Y-95142419D02*
X138319217Y-95190038D01*
X138319217Y-95190038D02*
X138366836Y-95237657D01*
X138985884Y-95142419D02*
X139176360Y-95142419D01*
X139176360Y-95142419D02*
X139271598Y-95190038D01*
X139271598Y-95190038D02*
X139366836Y-95285276D01*
X139366836Y-95285276D02*
X139414455Y-95475752D01*
X139414455Y-95475752D02*
X139414455Y-95809085D01*
X139414455Y-95809085D02*
X139366836Y-95999561D01*
X139366836Y-95999561D02*
X139271598Y-96094800D01*
X139271598Y-96094800D02*
X139176360Y-96142419D01*
X139176360Y-96142419D02*
X138985884Y-96142419D01*
X138985884Y-96142419D02*
X138890646Y-96094800D01*
X138890646Y-96094800D02*
X138795408Y-95999561D01*
X138795408Y-95999561D02*
X138747789Y-95809085D01*
X138747789Y-95809085D02*
X138747789Y-95475752D01*
X138747789Y-95475752D02*
X138795408Y-95285276D01*
X138795408Y-95285276D02*
X138890646Y-95190038D01*
X138890646Y-95190038D02*
X138985884Y-95142419D01*
X139843027Y-96142419D02*
X139843027Y-95142419D01*
X139843027Y-95142419D02*
X140414455Y-96142419D01*
X140414455Y-96142419D02*
X140414455Y-95142419D01*
X140747789Y-95142419D02*
X141081122Y-96142419D01*
X141081122Y-96142419D02*
X141414455Y-95142419D01*
X141747789Y-95618609D02*
X142081122Y-95618609D01*
X142223979Y-96142419D02*
X141747789Y-96142419D01*
X141747789Y-96142419D02*
X141747789Y-95142419D01*
X141747789Y-95142419D02*
X142223979Y-95142419D01*
X143223979Y-96142419D02*
X142890646Y-95666228D01*
X142652551Y-96142419D02*
X142652551Y-95142419D01*
X142652551Y-95142419D02*
X143033503Y-95142419D01*
X143033503Y-95142419D02*
X143128741Y-95190038D01*
X143128741Y-95190038D02*
X143176360Y-95237657D01*
X143176360Y-95237657D02*
X143223979Y-95332895D01*
X143223979Y-95332895D02*
X143223979Y-95475752D01*
X143223979Y-95475752D02*
X143176360Y-95570990D01*
X143176360Y-95570990D02*
X143128741Y-95618609D01*
X143128741Y-95618609D02*
X143033503Y-95666228D01*
X143033503Y-95666228D02*
X142652551Y-95666228D01*
X143509694Y-95142419D02*
X144081122Y-95142419D01*
X143795408Y-96142419D02*
X143795408Y-95142419D01*
X144414456Y-95618609D02*
X144747789Y-95618609D01*
X144890646Y-96142419D02*
X144414456Y-96142419D01*
X144414456Y-96142419D02*
X144414456Y-95142419D01*
X144414456Y-95142419D02*
X144890646Y-95142419D01*
X145890646Y-96142419D02*
X145557313Y-95666228D01*
X145319218Y-96142419D02*
X145319218Y-95142419D01*
X145319218Y-95142419D02*
X145700170Y-95142419D01*
X145700170Y-95142419D02*
X145795408Y-95190038D01*
X145795408Y-95190038D02*
X145843027Y-95237657D01*
X145843027Y-95237657D02*
X145890646Y-95332895D01*
X145890646Y-95332895D02*
X145890646Y-95475752D01*
X145890646Y-95475752D02*
X145843027Y-95570990D01*
X145843027Y-95570990D02*
X145795408Y-95618609D01*
X145795408Y-95618609D02*
X145700170Y-95666228D01*
X145700170Y-95666228D02*
X145319218Y-95666228D01*
D12*
X67143333Y-114319580D02*
X67095714Y-114367200D01*
X67095714Y-114367200D02*
X66952857Y-114414819D01*
X66952857Y-114414819D02*
X66857619Y-114414819D01*
X66857619Y-114414819D02*
X66714762Y-114367200D01*
X66714762Y-114367200D02*
X66619524Y-114271961D01*
X66619524Y-114271961D02*
X66571905Y-114176723D01*
X66571905Y-114176723D02*
X66524286Y-113986247D01*
X66524286Y-113986247D02*
X66524286Y-113843390D01*
X66524286Y-113843390D02*
X66571905Y-113652914D01*
X66571905Y-113652914D02*
X66619524Y-113557676D01*
X66619524Y-113557676D02*
X66714762Y-113462438D01*
X66714762Y-113462438D02*
X66857619Y-113414819D01*
X66857619Y-113414819D02*
X66952857Y-113414819D01*
X66952857Y-113414819D02*
X67095714Y-113462438D01*
X67095714Y-113462438D02*
X67143333Y-113510057D01*
X67524286Y-113510057D02*
X67571905Y-113462438D01*
X67571905Y-113462438D02*
X67667143Y-113414819D01*
X67667143Y-113414819D02*
X67905238Y-113414819D01*
X67905238Y-113414819D02*
X68000476Y-113462438D01*
X68000476Y-113462438D02*
X68048095Y-113510057D01*
X68048095Y-113510057D02*
X68095714Y-113605295D01*
X68095714Y-113605295D02*
X68095714Y-113700533D01*
X68095714Y-113700533D02*
X68048095Y-113843390D01*
X68048095Y-113843390D02*
X67476667Y-114414819D01*
X67476667Y-114414819D02*
X68095714Y-114414819D01*
X81851667Y-120041200D02*
X81994524Y-120088819D01*
X81994524Y-120088819D02*
X82232619Y-120088819D01*
X82232619Y-120088819D02*
X82327857Y-120041200D01*
X82327857Y-120041200D02*
X82375476Y-119993580D01*
X82375476Y-119993580D02*
X82423095Y-119898342D01*
X82423095Y-119898342D02*
X82423095Y-119803104D01*
X82423095Y-119803104D02*
X82375476Y-119707866D01*
X82375476Y-119707866D02*
X82327857Y-119660247D01*
X82327857Y-119660247D02*
X82232619Y-119612628D01*
X82232619Y-119612628D02*
X82042143Y-119565009D01*
X82042143Y-119565009D02*
X81946905Y-119517390D01*
X81946905Y-119517390D02*
X81899286Y-119469771D01*
X81899286Y-119469771D02*
X81851667Y-119374533D01*
X81851667Y-119374533D02*
X81851667Y-119279295D01*
X81851667Y-119279295D02*
X81899286Y-119184057D01*
X81899286Y-119184057D02*
X81946905Y-119136438D01*
X81946905Y-119136438D02*
X82042143Y-119088819D01*
X82042143Y-119088819D02*
X82280238Y-119088819D01*
X82280238Y-119088819D02*
X82423095Y-119136438D01*
X82756429Y-119088819D02*
X82994524Y-120088819D01*
X82994524Y-120088819D02*
X83185000Y-119374533D01*
X83185000Y-119374533D02*
X83375476Y-120088819D01*
X83375476Y-120088819D02*
X83613572Y-119088819D01*
X84518333Y-120088819D02*
X83946905Y-120088819D01*
X84232619Y-120088819D02*
X84232619Y-119088819D01*
X84232619Y-119088819D02*
X84137381Y-119231676D01*
X84137381Y-119231676D02*
X84042143Y-119326914D01*
X84042143Y-119326914D02*
X83946905Y-119374533D01*
D11*
X78916265Y-69864800D02*
X79059122Y-69912419D01*
X79059122Y-69912419D02*
X79297217Y-69912419D01*
X79297217Y-69912419D02*
X79392455Y-69864800D01*
X79392455Y-69864800D02*
X79440074Y-69817180D01*
X79440074Y-69817180D02*
X79487693Y-69721942D01*
X79487693Y-69721942D02*
X79487693Y-69626704D01*
X79487693Y-69626704D02*
X79440074Y-69531466D01*
X79440074Y-69531466D02*
X79392455Y-69483847D01*
X79392455Y-69483847D02*
X79297217Y-69436228D01*
X79297217Y-69436228D02*
X79106741Y-69388609D01*
X79106741Y-69388609D02*
X79011503Y-69340990D01*
X79011503Y-69340990D02*
X78963884Y-69293371D01*
X78963884Y-69293371D02*
X78916265Y-69198133D01*
X78916265Y-69198133D02*
X78916265Y-69102895D01*
X78916265Y-69102895D02*
X78963884Y-69007657D01*
X78963884Y-69007657D02*
X79011503Y-68960038D01*
X79011503Y-68960038D02*
X79106741Y-68912419D01*
X79106741Y-68912419D02*
X79344836Y-68912419D01*
X79344836Y-68912419D02*
X79487693Y-68960038D01*
X79821027Y-68912419D02*
X80487693Y-69912419D01*
X80487693Y-68912419D02*
X79821027Y-69912419D01*
X81392455Y-69912419D02*
X80821027Y-69912419D01*
X81106741Y-69912419D02*
X81106741Y-68912419D01*
X81106741Y-68912419D02*
X81011503Y-69055276D01*
X81011503Y-69055276D02*
X80916265Y-69150514D01*
X80916265Y-69150514D02*
X80821027Y-69198133D01*
X81773408Y-69007657D02*
X81821027Y-68960038D01*
X81821027Y-68960038D02*
X81916265Y-68912419D01*
X81916265Y-68912419D02*
X82154360Y-68912419D01*
X82154360Y-68912419D02*
X82249598Y-68960038D01*
X82249598Y-68960038D02*
X82297217Y-69007657D01*
X82297217Y-69007657D02*
X82344836Y-69102895D01*
X82344836Y-69102895D02*
X82344836Y-69198133D01*
X82344836Y-69198133D02*
X82297217Y-69340990D01*
X82297217Y-69340990D02*
X81725789Y-69912419D01*
X81725789Y-69912419D02*
X82344836Y-69912419D01*
X82678170Y-68912419D02*
X83344836Y-68912419D01*
X83344836Y-68912419D02*
X82916265Y-69912419D01*
X84154360Y-68912419D02*
X83963884Y-68912419D01*
X83963884Y-68912419D02*
X83868646Y-68960038D01*
X83868646Y-68960038D02*
X83821027Y-69007657D01*
X83821027Y-69007657D02*
X83725789Y-69150514D01*
X83725789Y-69150514D02*
X83678170Y-69340990D01*
X83678170Y-69340990D02*
X83678170Y-69721942D01*
X83678170Y-69721942D02*
X83725789Y-69817180D01*
X83725789Y-69817180D02*
X83773408Y-69864800D01*
X83773408Y-69864800D02*
X83868646Y-69912419D01*
X83868646Y-69912419D02*
X84059122Y-69912419D01*
X84059122Y-69912419D02*
X84154360Y-69864800D01*
X84154360Y-69864800D02*
X84201979Y-69817180D01*
X84201979Y-69817180D02*
X84249598Y-69721942D01*
X84249598Y-69721942D02*
X84249598Y-69483847D01*
X84249598Y-69483847D02*
X84201979Y-69388609D01*
X84201979Y-69388609D02*
X84154360Y-69340990D01*
X84154360Y-69340990D02*
X84059122Y-69293371D01*
X84059122Y-69293371D02*
X83868646Y-69293371D01*
X83868646Y-69293371D02*
X83773408Y-69340990D01*
X83773408Y-69340990D02*
X83725789Y-69388609D01*
X83725789Y-69388609D02*
X83678170Y-69483847D01*
X133573217Y-107972609D02*
X133716074Y-108020228D01*
X133716074Y-108020228D02*
X133763693Y-108067847D01*
X133763693Y-108067847D02*
X133811312Y-108163085D01*
X133811312Y-108163085D02*
X133811312Y-108305942D01*
X133811312Y-108305942D02*
X133763693Y-108401180D01*
X133763693Y-108401180D02*
X133716074Y-108448800D01*
X133716074Y-108448800D02*
X133620836Y-108496419D01*
X133620836Y-108496419D02*
X133239884Y-108496419D01*
X133239884Y-108496419D02*
X133239884Y-107496419D01*
X133239884Y-107496419D02*
X133573217Y-107496419D01*
X133573217Y-107496419D02*
X133668455Y-107544038D01*
X133668455Y-107544038D02*
X133716074Y-107591657D01*
X133716074Y-107591657D02*
X133763693Y-107686895D01*
X133763693Y-107686895D02*
X133763693Y-107782133D01*
X133763693Y-107782133D02*
X133716074Y-107877371D01*
X133716074Y-107877371D02*
X133668455Y-107924990D01*
X133668455Y-107924990D02*
X133573217Y-107972609D01*
X133573217Y-107972609D02*
X133239884Y-107972609D01*
X134239884Y-107496419D02*
X134239884Y-108305942D01*
X134239884Y-108305942D02*
X134287503Y-108401180D01*
X134287503Y-108401180D02*
X134335122Y-108448800D01*
X134335122Y-108448800D02*
X134430360Y-108496419D01*
X134430360Y-108496419D02*
X134620836Y-108496419D01*
X134620836Y-108496419D02*
X134716074Y-108448800D01*
X134716074Y-108448800D02*
X134763693Y-108401180D01*
X134763693Y-108401180D02*
X134811312Y-108305942D01*
X134811312Y-108305942D02*
X134811312Y-107496419D01*
X135858931Y-108401180D02*
X135811312Y-108448800D01*
X135811312Y-108448800D02*
X135668455Y-108496419D01*
X135668455Y-108496419D02*
X135573217Y-108496419D01*
X135573217Y-108496419D02*
X135430360Y-108448800D01*
X135430360Y-108448800D02*
X135335122Y-108353561D01*
X135335122Y-108353561D02*
X135287503Y-108258323D01*
X135287503Y-108258323D02*
X135239884Y-108067847D01*
X135239884Y-108067847D02*
X135239884Y-107924990D01*
X135239884Y-107924990D02*
X135287503Y-107734514D01*
X135287503Y-107734514D02*
X135335122Y-107639276D01*
X135335122Y-107639276D02*
X135430360Y-107544038D01*
X135430360Y-107544038D02*
X135573217Y-107496419D01*
X135573217Y-107496419D02*
X135668455Y-107496419D01*
X135668455Y-107496419D02*
X135811312Y-107544038D01*
X135811312Y-107544038D02*
X135858931Y-107591657D01*
X136287503Y-108496419D02*
X136287503Y-107496419D01*
X136858931Y-108496419D02*
X136430360Y-107924990D01*
X136858931Y-107496419D02*
X136287503Y-108067847D01*
X138620836Y-108401180D02*
X138573217Y-108448800D01*
X138573217Y-108448800D02*
X138430360Y-108496419D01*
X138430360Y-108496419D02*
X138335122Y-108496419D01*
X138335122Y-108496419D02*
X138192265Y-108448800D01*
X138192265Y-108448800D02*
X138097027Y-108353561D01*
X138097027Y-108353561D02*
X138049408Y-108258323D01*
X138049408Y-108258323D02*
X138001789Y-108067847D01*
X138001789Y-108067847D02*
X138001789Y-107924990D01*
X138001789Y-107924990D02*
X138049408Y-107734514D01*
X138049408Y-107734514D02*
X138097027Y-107639276D01*
X138097027Y-107639276D02*
X138192265Y-107544038D01*
X138192265Y-107544038D02*
X138335122Y-107496419D01*
X138335122Y-107496419D02*
X138430360Y-107496419D01*
X138430360Y-107496419D02*
X138573217Y-107544038D01*
X138573217Y-107544038D02*
X138620836Y-107591657D01*
X139239884Y-107496419D02*
X139430360Y-107496419D01*
X139430360Y-107496419D02*
X139525598Y-107544038D01*
X139525598Y-107544038D02*
X139620836Y-107639276D01*
X139620836Y-107639276D02*
X139668455Y-107829752D01*
X139668455Y-107829752D02*
X139668455Y-108163085D01*
X139668455Y-108163085D02*
X139620836Y-108353561D01*
X139620836Y-108353561D02*
X139525598Y-108448800D01*
X139525598Y-108448800D02*
X139430360Y-108496419D01*
X139430360Y-108496419D02*
X139239884Y-108496419D01*
X139239884Y-108496419D02*
X139144646Y-108448800D01*
X139144646Y-108448800D02*
X139049408Y-108353561D01*
X139049408Y-108353561D02*
X139001789Y-108163085D01*
X139001789Y-108163085D02*
X139001789Y-107829752D01*
X139001789Y-107829752D02*
X139049408Y-107639276D01*
X139049408Y-107639276D02*
X139144646Y-107544038D01*
X139144646Y-107544038D02*
X139239884Y-107496419D01*
X140097027Y-108496419D02*
X140097027Y-107496419D01*
X140097027Y-107496419D02*
X140668455Y-108496419D01*
X140668455Y-108496419D02*
X140668455Y-107496419D01*
X141001789Y-107496419D02*
X141335122Y-108496419D01*
X141335122Y-108496419D02*
X141668455Y-107496419D01*
X142001789Y-107972609D02*
X142335122Y-107972609D01*
X142477979Y-108496419D02*
X142001789Y-108496419D01*
X142001789Y-108496419D02*
X142001789Y-107496419D01*
X142001789Y-107496419D02*
X142477979Y-107496419D01*
X143477979Y-108496419D02*
X143144646Y-108020228D01*
X142906551Y-108496419D02*
X142906551Y-107496419D01*
X142906551Y-107496419D02*
X143287503Y-107496419D01*
X143287503Y-107496419D02*
X143382741Y-107544038D01*
X143382741Y-107544038D02*
X143430360Y-107591657D01*
X143430360Y-107591657D02*
X143477979Y-107686895D01*
X143477979Y-107686895D02*
X143477979Y-107829752D01*
X143477979Y-107829752D02*
X143430360Y-107924990D01*
X143430360Y-107924990D02*
X143382741Y-107972609D01*
X143382741Y-107972609D02*
X143287503Y-108020228D01*
X143287503Y-108020228D02*
X142906551Y-108020228D01*
X143763694Y-107496419D02*
X144335122Y-107496419D01*
X144049408Y-108496419D02*
X144049408Y-107496419D01*
X144668456Y-107972609D02*
X145001789Y-107972609D01*
X145144646Y-108496419D02*
X144668456Y-108496419D01*
X144668456Y-108496419D02*
X144668456Y-107496419D01*
X144668456Y-107496419D02*
X145144646Y-107496419D01*
X146144646Y-108496419D02*
X145811313Y-108020228D01*
X145573218Y-108496419D02*
X145573218Y-107496419D01*
X145573218Y-107496419D02*
X145954170Y-107496419D01*
X145954170Y-107496419D02*
X146049408Y-107544038D01*
X146049408Y-107544038D02*
X146097027Y-107591657D01*
X146097027Y-107591657D02*
X146144646Y-107686895D01*
X146144646Y-107686895D02*
X146144646Y-107829752D01*
X146144646Y-107829752D02*
X146097027Y-107924990D01*
X146097027Y-107924990D02*
X146049408Y-107972609D01*
X146049408Y-107972609D02*
X145954170Y-108020228D01*
X145954170Y-108020228D02*
X145573218Y-108020228D01*
D12*
X85710733Y-112265619D02*
X85377400Y-111789428D01*
X85139305Y-112265619D02*
X85139305Y-111265619D01*
X85139305Y-111265619D02*
X85520257Y-111265619D01*
X85520257Y-111265619D02*
X85615495Y-111313238D01*
X85615495Y-111313238D02*
X85663114Y-111360857D01*
X85663114Y-111360857D02*
X85710733Y-111456095D01*
X85710733Y-111456095D02*
X85710733Y-111598952D01*
X85710733Y-111598952D02*
X85663114Y-111694190D01*
X85663114Y-111694190D02*
X85615495Y-111741809D01*
X85615495Y-111741809D02*
X85520257Y-111789428D01*
X85520257Y-111789428D02*
X85139305Y-111789428D01*
X86091686Y-111360857D02*
X86139305Y-111313238D01*
X86139305Y-111313238D02*
X86234543Y-111265619D01*
X86234543Y-111265619D02*
X86472638Y-111265619D01*
X86472638Y-111265619D02*
X86567876Y-111313238D01*
X86567876Y-111313238D02*
X86615495Y-111360857D01*
X86615495Y-111360857D02*
X86663114Y-111456095D01*
X86663114Y-111456095D02*
X86663114Y-111551333D01*
X86663114Y-111551333D02*
X86615495Y-111694190D01*
X86615495Y-111694190D02*
X86044067Y-112265619D01*
X86044067Y-112265619D02*
X86663114Y-112265619D01*
D11*
X85823284Y-93877819D02*
X85823284Y-92877819D01*
X85823284Y-93354009D02*
X86394712Y-93354009D01*
X86394712Y-93877819D02*
X86394712Y-92877819D01*
X86870903Y-93877819D02*
X86870903Y-92877819D01*
X86870903Y-92877819D02*
X87204236Y-93592104D01*
X87204236Y-93592104D02*
X87537569Y-92877819D01*
X87537569Y-92877819D02*
X87537569Y-93877819D01*
X88585188Y-93782580D02*
X88537569Y-93830200D01*
X88537569Y-93830200D02*
X88394712Y-93877819D01*
X88394712Y-93877819D02*
X88299474Y-93877819D01*
X88299474Y-93877819D02*
X88156617Y-93830200D01*
X88156617Y-93830200D02*
X88061379Y-93734961D01*
X88061379Y-93734961D02*
X88013760Y-93639723D01*
X88013760Y-93639723D02*
X87966141Y-93449247D01*
X87966141Y-93449247D02*
X87966141Y-93306390D01*
X87966141Y-93306390D02*
X88013760Y-93115914D01*
X88013760Y-93115914D02*
X88061379Y-93020676D01*
X88061379Y-93020676D02*
X88156617Y-92925438D01*
X88156617Y-92925438D02*
X88299474Y-92877819D01*
X88299474Y-92877819D02*
X88394712Y-92877819D01*
X88394712Y-92877819D02*
X88537569Y-92925438D01*
X88537569Y-92925438D02*
X88585188Y-92973057D01*
X89489950Y-92877819D02*
X89013760Y-92877819D01*
X89013760Y-92877819D02*
X88966141Y-93354009D01*
X88966141Y-93354009D02*
X89013760Y-93306390D01*
X89013760Y-93306390D02*
X89108998Y-93258771D01*
X89108998Y-93258771D02*
X89347093Y-93258771D01*
X89347093Y-93258771D02*
X89442331Y-93306390D01*
X89442331Y-93306390D02*
X89489950Y-93354009D01*
X89489950Y-93354009D02*
X89537569Y-93449247D01*
X89537569Y-93449247D02*
X89537569Y-93687342D01*
X89537569Y-93687342D02*
X89489950Y-93782580D01*
X89489950Y-93782580D02*
X89442331Y-93830200D01*
X89442331Y-93830200D02*
X89347093Y-93877819D01*
X89347093Y-93877819D02*
X89108998Y-93877819D01*
X89108998Y-93877819D02*
X89013760Y-93830200D01*
X89013760Y-93830200D02*
X88966141Y-93782580D01*
X90108998Y-93306390D02*
X90013760Y-93258771D01*
X90013760Y-93258771D02*
X89966141Y-93211152D01*
X89966141Y-93211152D02*
X89918522Y-93115914D01*
X89918522Y-93115914D02*
X89918522Y-93068295D01*
X89918522Y-93068295D02*
X89966141Y-92973057D01*
X89966141Y-92973057D02*
X90013760Y-92925438D01*
X90013760Y-92925438D02*
X90108998Y-92877819D01*
X90108998Y-92877819D02*
X90299474Y-92877819D01*
X90299474Y-92877819D02*
X90394712Y-92925438D01*
X90394712Y-92925438D02*
X90442331Y-92973057D01*
X90442331Y-92973057D02*
X90489950Y-93068295D01*
X90489950Y-93068295D02*
X90489950Y-93115914D01*
X90489950Y-93115914D02*
X90442331Y-93211152D01*
X90442331Y-93211152D02*
X90394712Y-93258771D01*
X90394712Y-93258771D02*
X90299474Y-93306390D01*
X90299474Y-93306390D02*
X90108998Y-93306390D01*
X90108998Y-93306390D02*
X90013760Y-93354009D01*
X90013760Y-93354009D02*
X89966141Y-93401628D01*
X89966141Y-93401628D02*
X89918522Y-93496866D01*
X89918522Y-93496866D02*
X89918522Y-93687342D01*
X89918522Y-93687342D02*
X89966141Y-93782580D01*
X89966141Y-93782580D02*
X90013760Y-93830200D01*
X90013760Y-93830200D02*
X90108998Y-93877819D01*
X90108998Y-93877819D02*
X90299474Y-93877819D01*
X90299474Y-93877819D02*
X90394712Y-93830200D01*
X90394712Y-93830200D02*
X90442331Y-93782580D01*
X90442331Y-93782580D02*
X90489950Y-93687342D01*
X90489950Y-93687342D02*
X90489950Y-93496866D01*
X90489950Y-93496866D02*
X90442331Y-93401628D01*
X90442331Y-93401628D02*
X90394712Y-93354009D01*
X90394712Y-93354009D02*
X90299474Y-93306390D01*
X91061379Y-93306390D02*
X90966141Y-93258771D01*
X90966141Y-93258771D02*
X90918522Y-93211152D01*
X90918522Y-93211152D02*
X90870903Y-93115914D01*
X90870903Y-93115914D02*
X90870903Y-93068295D01*
X90870903Y-93068295D02*
X90918522Y-92973057D01*
X90918522Y-92973057D02*
X90966141Y-92925438D01*
X90966141Y-92925438D02*
X91061379Y-92877819D01*
X91061379Y-92877819D02*
X91251855Y-92877819D01*
X91251855Y-92877819D02*
X91347093Y-92925438D01*
X91347093Y-92925438D02*
X91394712Y-92973057D01*
X91394712Y-92973057D02*
X91442331Y-93068295D01*
X91442331Y-93068295D02*
X91442331Y-93115914D01*
X91442331Y-93115914D02*
X91394712Y-93211152D01*
X91394712Y-93211152D02*
X91347093Y-93258771D01*
X91347093Y-93258771D02*
X91251855Y-93306390D01*
X91251855Y-93306390D02*
X91061379Y-93306390D01*
X91061379Y-93306390D02*
X90966141Y-93354009D01*
X90966141Y-93354009D02*
X90918522Y-93401628D01*
X90918522Y-93401628D02*
X90870903Y-93496866D01*
X90870903Y-93496866D02*
X90870903Y-93687342D01*
X90870903Y-93687342D02*
X90918522Y-93782580D01*
X90918522Y-93782580D02*
X90966141Y-93830200D01*
X90966141Y-93830200D02*
X91061379Y-93877819D01*
X91061379Y-93877819D02*
X91251855Y-93877819D01*
X91251855Y-93877819D02*
X91347093Y-93830200D01*
X91347093Y-93830200D02*
X91394712Y-93782580D01*
X91394712Y-93782580D02*
X91442331Y-93687342D01*
X91442331Y-93687342D02*
X91442331Y-93496866D01*
X91442331Y-93496866D02*
X91394712Y-93401628D01*
X91394712Y-93401628D02*
X91347093Y-93354009D01*
X91347093Y-93354009D02*
X91251855Y-93306390D01*
X91775665Y-92877819D02*
X92394712Y-92877819D01*
X92394712Y-92877819D02*
X92061379Y-93258771D01*
X92061379Y-93258771D02*
X92204236Y-93258771D01*
X92204236Y-93258771D02*
X92299474Y-93306390D01*
X92299474Y-93306390D02*
X92347093Y-93354009D01*
X92347093Y-93354009D02*
X92394712Y-93449247D01*
X92394712Y-93449247D02*
X92394712Y-93687342D01*
X92394712Y-93687342D02*
X92347093Y-93782580D01*
X92347093Y-93782580D02*
X92299474Y-93830200D01*
X92299474Y-93830200D02*
X92204236Y-93877819D01*
X92204236Y-93877819D02*
X91918522Y-93877819D01*
X91918522Y-93877819D02*
X91823284Y-93830200D01*
X91823284Y-93830200D02*
X91775665Y-93782580D01*
D12*
X70445333Y-108912819D02*
X70112000Y-108436628D01*
X69873905Y-108912819D02*
X69873905Y-107912819D01*
X69873905Y-107912819D02*
X70254857Y-107912819D01*
X70254857Y-107912819D02*
X70350095Y-107960438D01*
X70350095Y-107960438D02*
X70397714Y-108008057D01*
X70397714Y-108008057D02*
X70445333Y-108103295D01*
X70445333Y-108103295D02*
X70445333Y-108246152D01*
X70445333Y-108246152D02*
X70397714Y-108341390D01*
X70397714Y-108341390D02*
X70350095Y-108389009D01*
X70350095Y-108389009D02*
X70254857Y-108436628D01*
X70254857Y-108436628D02*
X69873905Y-108436628D01*
X71397714Y-108912819D02*
X70826286Y-108912819D01*
X71112000Y-108912819D02*
X71112000Y-107912819D01*
X71112000Y-107912819D02*
X71016762Y-108055676D01*
X71016762Y-108055676D02*
X70921524Y-108150914D01*
X70921524Y-108150914D02*
X70826286Y-108198533D01*
%TO.C,ILI1*%
D11*
X62760000Y-58420000D02*
X160760000Y-58420000D01*
X160760000Y-114760000D01*
X62760000Y-114760000D01*
X62760000Y-58420000D01*
D13*
%TO.C,J3*%
X73350000Y-57322500D02*
X72240000Y-57322500D01*
X73350000Y-60572500D02*
X72240000Y-60572500D01*
X73940000Y-61622500D02*
X74440000Y-61622500D01*
X74190000Y-61122500D02*
X73940000Y-61622500D01*
X74440000Y-61622500D02*
X74190000Y-61122500D01*
X76140000Y-57322500D02*
X75030000Y-57322500D01*
X76140000Y-60572500D02*
X75030000Y-60572500D01*
%TO.C,NEO-M8N1*%
D11*
X135382000Y-79502000D02*
X152582000Y-79502000D01*
X152582000Y-56964000D01*
X135382000Y-56964000D01*
X135382000Y-79502000D01*
%TO.C,BMP1*%
X80422000Y-100210000D02*
X68422000Y-100210000D01*
X68422000Y-85210000D01*
X80422000Y-85210000D01*
X80422000Y-100210000D01*
%TO.C,ESP32-S3-N16R1*%
X97760000Y-57350000D02*
X125760000Y-57350000D01*
X125760000Y-120650000D01*
X97760000Y-120650000D01*
X97760000Y-57350000D01*
%TO.C,BUCK-CONVERTER2*%
X150462000Y-101350000D02*
X130462000Y-101350000D01*
X130462000Y-90350000D01*
X150462000Y-90350000D01*
X150462000Y-101350000D01*
D13*
%TO.C,C2*%
X65040000Y-110690000D02*
X69580000Y-110690000D01*
X65040000Y-110746000D02*
X65040000Y-110690000D01*
X69580000Y-112774000D02*
X69580000Y-112830000D01*
X69580000Y-112830000D02*
X65040000Y-112830000D01*
%TO.C,SW1*%
X71990000Y-118666000D02*
X71990000Y-120166000D01*
X73240000Y-122666000D02*
X77740000Y-122666000D01*
X77740000Y-116166000D02*
X73240000Y-116166000D01*
X78990000Y-120166000D02*
X78990000Y-118666000D01*
%TO.C,SX1*%
D11*
X73660000Y-65040000D02*
X89660000Y-65040000D01*
X89660000Y-81040000D01*
X73660000Y-81040000D01*
X73660000Y-65040000D01*
X79660000Y-73040000D02*
X85660000Y-73040000D01*
X85660000Y-79040000D01*
X79660000Y-79040000D01*
X79660000Y-73040000D01*
%TO.C,BUCK-CONVERTER1*%
X150462000Y-113450000D02*
X130462000Y-113450000D01*
X130462000Y-102450000D01*
X150462000Y-102450000D01*
X150462000Y-113450000D01*
D13*
%TO.C,R2*%
X74192000Y-111760000D02*
X74962000Y-111760000D01*
X82272000Y-111760000D02*
X81502000Y-111760000D01*
X81502000Y-113130000D02*
X74962000Y-113130000D01*
X74962000Y-110390000D01*
X81502000Y-110390000D01*
X81502000Y-113130000D01*
%TO.C,HMC1*%
D11*
X95400000Y-85202000D02*
X82400000Y-85202000D01*
X82400000Y-99202000D01*
X95400000Y-99202000D01*
X95400000Y-85202000D01*
D13*
%TO.C,R1*%
X74192000Y-108458000D02*
X74962000Y-108458000D01*
X82272000Y-108458000D02*
X81502000Y-108458000D01*
X74962000Y-107088000D02*
X81502000Y-107088000D01*
X81502000Y-109828000D01*
X74962000Y-109828000D01*
X74962000Y-107088000D01*
%TD*%
M02*
