%TF.GenerationSoftware,KiCad,Pcbnew,9.0.7*%
%TF.CreationDate,2026-02-25T14:22:50+08:00*%
%TF.ProjectId,Rover2.0,526f7665-7232-42e3-902e-6b696361645f,rev?*%
%TF.SameCoordinates,Original*%
%TF.FileFunction,Legend,Bot*%
%TF.FilePolarity,Positive*%
%FSLAX46Y46*%
G04 Gerber Fmt 4.6, Leading zero omitted, Abs format (unit mm)*
G04 Created by KiCad (PCBNEW 9.0.7) date 2026-02-25 14:22:50*
%MOMM*%
%LPD*%
G01*
G04 APERTURE LIST*
%ADD10C,0.125000*%
%ADD11C,0.300000*%
%ADD12C,0.100000*%
%ADD13C,0.150000*%
%ADD14C,0.120000*%
G04 APERTURE END LIST*
D10*
X156577685Y-67785912D02*
X155777685Y-67785912D01*
X155777685Y-67785912D02*
X155777685Y-67976388D01*
X155777685Y-67976388D02*
X155815780Y-68090674D01*
X155815780Y-68090674D02*
X155891970Y-68166864D01*
X155891970Y-68166864D02*
X155968161Y-68204959D01*
X155968161Y-68204959D02*
X156120542Y-68243055D01*
X156120542Y-68243055D02*
X156234828Y-68243055D01*
X156234828Y-68243055D02*
X156387209Y-68204959D01*
X156387209Y-68204959D02*
X156463399Y-68166864D01*
X156463399Y-68166864D02*
X156539590Y-68090674D01*
X156539590Y-68090674D02*
X156577685Y-67976388D01*
X156577685Y-67976388D02*
X156577685Y-67785912D01*
X156539590Y-68890674D02*
X156577685Y-68814483D01*
X156577685Y-68814483D02*
X156577685Y-68662102D01*
X156577685Y-68662102D02*
X156539590Y-68585912D01*
X156539590Y-68585912D02*
X156463399Y-68547816D01*
X156463399Y-68547816D02*
X156158637Y-68547816D01*
X156158637Y-68547816D02*
X156082447Y-68585912D01*
X156082447Y-68585912D02*
X156044351Y-68662102D01*
X156044351Y-68662102D02*
X156044351Y-68814483D01*
X156044351Y-68814483D02*
X156082447Y-68890674D01*
X156082447Y-68890674D02*
X156158637Y-68928769D01*
X156158637Y-68928769D02*
X156234828Y-68928769D01*
X156234828Y-68928769D02*
X156311018Y-68547816D01*
X156539590Y-69233530D02*
X156577685Y-69309721D01*
X156577685Y-69309721D02*
X156577685Y-69462102D01*
X156577685Y-69462102D02*
X156539590Y-69538292D01*
X156539590Y-69538292D02*
X156463399Y-69576388D01*
X156463399Y-69576388D02*
X156425304Y-69576388D01*
X156425304Y-69576388D02*
X156349113Y-69538292D01*
X156349113Y-69538292D02*
X156311018Y-69462102D01*
X156311018Y-69462102D02*
X156311018Y-69347816D01*
X156311018Y-69347816D02*
X156272923Y-69271626D01*
X156272923Y-69271626D02*
X156196732Y-69233530D01*
X156196732Y-69233530D02*
X156158637Y-69233530D01*
X156158637Y-69233530D02*
X156082447Y-69271626D01*
X156082447Y-69271626D02*
X156044351Y-69347816D01*
X156044351Y-69347816D02*
X156044351Y-69462102D01*
X156044351Y-69462102D02*
X156082447Y-69538292D01*
X156577685Y-69919245D02*
X156044351Y-69919245D01*
X155777685Y-69919245D02*
X155815780Y-69881149D01*
X155815780Y-69881149D02*
X155853875Y-69919245D01*
X155853875Y-69919245D02*
X155815780Y-69957340D01*
X155815780Y-69957340D02*
X155777685Y-69919245D01*
X155777685Y-69919245D02*
X155853875Y-69919245D01*
X156044351Y-70643054D02*
X156691970Y-70643054D01*
X156691970Y-70643054D02*
X156768161Y-70604959D01*
X156768161Y-70604959D02*
X156806256Y-70566863D01*
X156806256Y-70566863D02*
X156844351Y-70490673D01*
X156844351Y-70490673D02*
X156844351Y-70376387D01*
X156844351Y-70376387D02*
X156806256Y-70300197D01*
X156539590Y-70643054D02*
X156577685Y-70566863D01*
X156577685Y-70566863D02*
X156577685Y-70414482D01*
X156577685Y-70414482D02*
X156539590Y-70338292D01*
X156539590Y-70338292D02*
X156501494Y-70300197D01*
X156501494Y-70300197D02*
X156425304Y-70262101D01*
X156425304Y-70262101D02*
X156196732Y-70262101D01*
X156196732Y-70262101D02*
X156120542Y-70300197D01*
X156120542Y-70300197D02*
X156082447Y-70338292D01*
X156082447Y-70338292D02*
X156044351Y-70414482D01*
X156044351Y-70414482D02*
X156044351Y-70566863D01*
X156044351Y-70566863D02*
X156082447Y-70643054D01*
X156044351Y-71024007D02*
X156577685Y-71024007D01*
X156120542Y-71024007D02*
X156082447Y-71062102D01*
X156082447Y-71062102D02*
X156044351Y-71138292D01*
X156044351Y-71138292D02*
X156044351Y-71252578D01*
X156044351Y-71252578D02*
X156082447Y-71328769D01*
X156082447Y-71328769D02*
X156158637Y-71366864D01*
X156158637Y-71366864D02*
X156577685Y-71366864D01*
X156539590Y-72052579D02*
X156577685Y-71976388D01*
X156577685Y-71976388D02*
X156577685Y-71824007D01*
X156577685Y-71824007D02*
X156539590Y-71747817D01*
X156539590Y-71747817D02*
X156463399Y-71709721D01*
X156463399Y-71709721D02*
X156158637Y-71709721D01*
X156158637Y-71709721D02*
X156082447Y-71747817D01*
X156082447Y-71747817D02*
X156044351Y-71824007D01*
X156044351Y-71824007D02*
X156044351Y-71976388D01*
X156044351Y-71976388D02*
X156082447Y-72052579D01*
X156082447Y-72052579D02*
X156158637Y-72090674D01*
X156158637Y-72090674D02*
X156234828Y-72090674D01*
X156234828Y-72090674D02*
X156311018Y-71709721D01*
X156577685Y-72776388D02*
X155777685Y-72776388D01*
X156539590Y-72776388D02*
X156577685Y-72700197D01*
X156577685Y-72700197D02*
X156577685Y-72547816D01*
X156577685Y-72547816D02*
X156539590Y-72471626D01*
X156539590Y-72471626D02*
X156501494Y-72433531D01*
X156501494Y-72433531D02*
X156425304Y-72395435D01*
X156425304Y-72395435D02*
X156196732Y-72395435D01*
X156196732Y-72395435D02*
X156120542Y-72433531D01*
X156120542Y-72433531D02*
X156082447Y-72471626D01*
X156082447Y-72471626D02*
X156044351Y-72547816D01*
X156044351Y-72547816D02*
X156044351Y-72700197D01*
X156044351Y-72700197D02*
X156082447Y-72776388D01*
X156158637Y-74033531D02*
X156196732Y-74147817D01*
X156196732Y-74147817D02*
X156234828Y-74185912D01*
X156234828Y-74185912D02*
X156311018Y-74224008D01*
X156311018Y-74224008D02*
X156425304Y-74224008D01*
X156425304Y-74224008D02*
X156501494Y-74185912D01*
X156501494Y-74185912D02*
X156539590Y-74147817D01*
X156539590Y-74147817D02*
X156577685Y-74071627D01*
X156577685Y-74071627D02*
X156577685Y-73766865D01*
X156577685Y-73766865D02*
X155777685Y-73766865D01*
X155777685Y-73766865D02*
X155777685Y-74033531D01*
X155777685Y-74033531D02*
X155815780Y-74109722D01*
X155815780Y-74109722D02*
X155853875Y-74147817D01*
X155853875Y-74147817D02*
X155930066Y-74185912D01*
X155930066Y-74185912D02*
X156006256Y-74185912D01*
X156006256Y-74185912D02*
X156082447Y-74147817D01*
X156082447Y-74147817D02*
X156120542Y-74109722D01*
X156120542Y-74109722D02*
X156158637Y-74033531D01*
X156158637Y-74033531D02*
X156158637Y-73766865D01*
X156044351Y-74490674D02*
X156577685Y-74681150D01*
X156044351Y-74871627D02*
X156577685Y-74681150D01*
X156577685Y-74681150D02*
X156768161Y-74604960D01*
X156768161Y-74604960D02*
X156806256Y-74566865D01*
X156806256Y-74566865D02*
X156844351Y-74490674D01*
X156577685Y-75785913D02*
X155777685Y-75785913D01*
X156158637Y-75785913D02*
X156158637Y-76243056D01*
X156577685Y-76243056D02*
X155777685Y-76243056D01*
X156577685Y-76966865D02*
X156158637Y-76966865D01*
X156158637Y-76966865D02*
X156082447Y-76928770D01*
X156082447Y-76928770D02*
X156044351Y-76852579D01*
X156044351Y-76852579D02*
X156044351Y-76700198D01*
X156044351Y-76700198D02*
X156082447Y-76624008D01*
X156539590Y-76966865D02*
X156577685Y-76890674D01*
X156577685Y-76890674D02*
X156577685Y-76700198D01*
X156577685Y-76700198D02*
X156539590Y-76624008D01*
X156539590Y-76624008D02*
X156463399Y-76585912D01*
X156463399Y-76585912D02*
X156387209Y-76585912D01*
X156387209Y-76585912D02*
X156311018Y-76624008D01*
X156311018Y-76624008D02*
X156272923Y-76700198D01*
X156272923Y-76700198D02*
X156272923Y-76890674D01*
X156272923Y-76890674D02*
X156234828Y-76966865D01*
X156577685Y-77347818D02*
X155777685Y-77347818D01*
X156577685Y-77690675D02*
X156158637Y-77690675D01*
X156158637Y-77690675D02*
X156082447Y-77652580D01*
X156082447Y-77652580D02*
X156044351Y-77576389D01*
X156044351Y-77576389D02*
X156044351Y-77462103D01*
X156044351Y-77462103D02*
X156082447Y-77385913D01*
X156082447Y-77385913D02*
X156120542Y-77347818D01*
X156577685Y-78414485D02*
X156158637Y-78414485D01*
X156158637Y-78414485D02*
X156082447Y-78376390D01*
X156082447Y-78376390D02*
X156044351Y-78300199D01*
X156044351Y-78300199D02*
X156044351Y-78147818D01*
X156044351Y-78147818D02*
X156082447Y-78071628D01*
X156539590Y-78414485D02*
X156577685Y-78338294D01*
X156577685Y-78338294D02*
X156577685Y-78147818D01*
X156577685Y-78147818D02*
X156539590Y-78071628D01*
X156539590Y-78071628D02*
X156463399Y-78033532D01*
X156463399Y-78033532D02*
X156387209Y-78033532D01*
X156387209Y-78033532D02*
X156311018Y-78071628D01*
X156311018Y-78071628D02*
X156272923Y-78147818D01*
X156272923Y-78147818D02*
X156272923Y-78338294D01*
X156272923Y-78338294D02*
X156234828Y-78414485D01*
X156044351Y-78681152D02*
X156044351Y-78985914D01*
X156577685Y-78795438D02*
X155891970Y-78795438D01*
X155891970Y-78795438D02*
X155815780Y-78833533D01*
X155815780Y-78833533D02*
X155777685Y-78909723D01*
X155777685Y-78909723D02*
X155777685Y-78985914D01*
X156577685Y-79252581D02*
X156044351Y-79252581D01*
X155777685Y-79252581D02*
X155815780Y-79214485D01*
X155815780Y-79214485D02*
X155853875Y-79252581D01*
X155853875Y-79252581D02*
X155815780Y-79290676D01*
X155815780Y-79290676D02*
X155777685Y-79252581D01*
X155777685Y-79252581D02*
X155853875Y-79252581D01*
X156044351Y-79557342D02*
X156044351Y-79976390D01*
X156044351Y-79976390D02*
X156577685Y-79557342D01*
X156577685Y-79557342D02*
X156577685Y-79976390D01*
X156577685Y-80281152D02*
X156044351Y-80281152D01*
X155777685Y-80281152D02*
X155815780Y-80243056D01*
X155815780Y-80243056D02*
X155853875Y-80281152D01*
X155853875Y-80281152D02*
X155815780Y-80319247D01*
X155815780Y-80319247D02*
X155777685Y-80281152D01*
X155777685Y-80281152D02*
X155853875Y-80281152D01*
X156044351Y-80662104D02*
X156577685Y-80662104D01*
X156120542Y-80662104D02*
X156082447Y-80700199D01*
X156082447Y-80700199D02*
X156044351Y-80776389D01*
X156044351Y-80776389D02*
X156044351Y-80890675D01*
X156044351Y-80890675D02*
X156082447Y-80966866D01*
X156082447Y-80966866D02*
X156158637Y-81004961D01*
X156158637Y-81004961D02*
X156577685Y-81004961D01*
X157141830Y-67747816D02*
X157103735Y-67785912D01*
X157103735Y-67785912D02*
X157065640Y-67862102D01*
X157065640Y-67862102D02*
X157065640Y-68052578D01*
X157065640Y-68052578D02*
X157103735Y-68128769D01*
X157103735Y-68128769D02*
X157141830Y-68166864D01*
X157141830Y-68166864D02*
X157218021Y-68204959D01*
X157218021Y-68204959D02*
X157294211Y-68204959D01*
X157294211Y-68204959D02*
X157408497Y-68166864D01*
X157408497Y-68166864D02*
X157865640Y-67709721D01*
X157865640Y-67709721D02*
X157865640Y-68204959D01*
X157332306Y-68890674D02*
X157865640Y-68890674D01*
X157027545Y-68700198D02*
X157598973Y-68509721D01*
X157598973Y-68509721D02*
X157598973Y-69004960D01*
X157027545Y-69881150D02*
X158056116Y-69195436D01*
X157141830Y-70109721D02*
X157103735Y-70147817D01*
X157103735Y-70147817D02*
X157065640Y-70224007D01*
X157065640Y-70224007D02*
X157065640Y-70414483D01*
X157065640Y-70414483D02*
X157103735Y-70490674D01*
X157103735Y-70490674D02*
X157141830Y-70528769D01*
X157141830Y-70528769D02*
X157218021Y-70566864D01*
X157218021Y-70566864D02*
X157294211Y-70566864D01*
X157294211Y-70566864D02*
X157408497Y-70528769D01*
X157408497Y-70528769D02*
X157865640Y-70071626D01*
X157865640Y-70071626D02*
X157865640Y-70566864D01*
X157027545Y-71481150D02*
X158056116Y-70795436D01*
X157141830Y-71709721D02*
X157103735Y-71747817D01*
X157103735Y-71747817D02*
X157065640Y-71824007D01*
X157065640Y-71824007D02*
X157065640Y-72014483D01*
X157065640Y-72014483D02*
X157103735Y-72090674D01*
X157103735Y-72090674D02*
X157141830Y-72128769D01*
X157141830Y-72128769D02*
X157218021Y-72166864D01*
X157218021Y-72166864D02*
X157294211Y-72166864D01*
X157294211Y-72166864D02*
X157408497Y-72128769D01*
X157408497Y-72128769D02*
X157865640Y-71671626D01*
X157865640Y-71671626D02*
X157865640Y-72166864D01*
X157065640Y-72662103D02*
X157065640Y-72738293D01*
X157065640Y-72738293D02*
X157103735Y-72814484D01*
X157103735Y-72814484D02*
X157141830Y-72852579D01*
X157141830Y-72852579D02*
X157218021Y-72890674D01*
X157218021Y-72890674D02*
X157370402Y-72928769D01*
X157370402Y-72928769D02*
X157560878Y-72928769D01*
X157560878Y-72928769D02*
X157713259Y-72890674D01*
X157713259Y-72890674D02*
X157789449Y-72852579D01*
X157789449Y-72852579D02*
X157827545Y-72814484D01*
X157827545Y-72814484D02*
X157865640Y-72738293D01*
X157865640Y-72738293D02*
X157865640Y-72662103D01*
X157865640Y-72662103D02*
X157827545Y-72585912D01*
X157827545Y-72585912D02*
X157789449Y-72547817D01*
X157789449Y-72547817D02*
X157713259Y-72509722D01*
X157713259Y-72509722D02*
X157560878Y-72471626D01*
X157560878Y-72471626D02*
X157370402Y-72471626D01*
X157370402Y-72471626D02*
X157218021Y-72509722D01*
X157218021Y-72509722D02*
X157141830Y-72547817D01*
X157141830Y-72547817D02*
X157103735Y-72585912D01*
X157103735Y-72585912D02*
X157065640Y-72662103D01*
X157141830Y-73233531D02*
X157103735Y-73271627D01*
X157103735Y-73271627D02*
X157065640Y-73347817D01*
X157065640Y-73347817D02*
X157065640Y-73538293D01*
X157065640Y-73538293D02*
X157103735Y-73614484D01*
X157103735Y-73614484D02*
X157141830Y-73652579D01*
X157141830Y-73652579D02*
X157218021Y-73690674D01*
X157218021Y-73690674D02*
X157294211Y-73690674D01*
X157294211Y-73690674D02*
X157408497Y-73652579D01*
X157408497Y-73652579D02*
X157865640Y-73195436D01*
X157865640Y-73195436D02*
X157865640Y-73690674D01*
X157065640Y-74376389D02*
X157065640Y-74224008D01*
X157065640Y-74224008D02*
X157103735Y-74147817D01*
X157103735Y-74147817D02*
X157141830Y-74109722D01*
X157141830Y-74109722D02*
X157256116Y-74033532D01*
X157256116Y-74033532D02*
X157408497Y-73995436D01*
X157408497Y-73995436D02*
X157713259Y-73995436D01*
X157713259Y-73995436D02*
X157789449Y-74033532D01*
X157789449Y-74033532D02*
X157827545Y-74071627D01*
X157827545Y-74071627D02*
X157865640Y-74147817D01*
X157865640Y-74147817D02*
X157865640Y-74300198D01*
X157865640Y-74300198D02*
X157827545Y-74376389D01*
X157827545Y-74376389D02*
X157789449Y-74414484D01*
X157789449Y-74414484D02*
X157713259Y-74452579D01*
X157713259Y-74452579D02*
X157522783Y-74452579D01*
X157522783Y-74452579D02*
X157446592Y-74414484D01*
X157446592Y-74414484D02*
X157408497Y-74376389D01*
X157408497Y-74376389D02*
X157370402Y-74300198D01*
X157370402Y-74300198D02*
X157370402Y-74147817D01*
X157370402Y-74147817D02*
X157408497Y-74071627D01*
X157408497Y-74071627D02*
X157446592Y-74033532D01*
X157446592Y-74033532D02*
X157522783Y-73995436D01*
X159153595Y-68243055D02*
X158772642Y-67976388D01*
X159153595Y-67785912D02*
X158353595Y-67785912D01*
X158353595Y-67785912D02*
X158353595Y-68090674D01*
X158353595Y-68090674D02*
X158391690Y-68166864D01*
X158391690Y-68166864D02*
X158429785Y-68204959D01*
X158429785Y-68204959D02*
X158505976Y-68243055D01*
X158505976Y-68243055D02*
X158620261Y-68243055D01*
X158620261Y-68243055D02*
X158696452Y-68204959D01*
X158696452Y-68204959D02*
X158734547Y-68166864D01*
X158734547Y-68166864D02*
X158772642Y-68090674D01*
X158772642Y-68090674D02*
X158772642Y-67785912D01*
X159153595Y-68700197D02*
X159115500Y-68624007D01*
X159115500Y-68624007D02*
X159077404Y-68585912D01*
X159077404Y-68585912D02*
X159001214Y-68547816D01*
X159001214Y-68547816D02*
X158772642Y-68547816D01*
X158772642Y-68547816D02*
X158696452Y-68585912D01*
X158696452Y-68585912D02*
X158658357Y-68624007D01*
X158658357Y-68624007D02*
X158620261Y-68700197D01*
X158620261Y-68700197D02*
X158620261Y-68814483D01*
X158620261Y-68814483D02*
X158658357Y-68890674D01*
X158658357Y-68890674D02*
X158696452Y-68928769D01*
X158696452Y-68928769D02*
X158772642Y-68966864D01*
X158772642Y-68966864D02*
X159001214Y-68966864D01*
X159001214Y-68966864D02*
X159077404Y-68928769D01*
X159077404Y-68928769D02*
X159115500Y-68890674D01*
X159115500Y-68890674D02*
X159153595Y-68814483D01*
X159153595Y-68814483D02*
X159153595Y-68700197D01*
X158620261Y-69233531D02*
X159153595Y-69424007D01*
X159153595Y-69424007D02*
X158620261Y-69614484D01*
X159115500Y-70224008D02*
X159153595Y-70147817D01*
X159153595Y-70147817D02*
X159153595Y-69995436D01*
X159153595Y-69995436D02*
X159115500Y-69919246D01*
X159115500Y-69919246D02*
X159039309Y-69881150D01*
X159039309Y-69881150D02*
X158734547Y-69881150D01*
X158734547Y-69881150D02*
X158658357Y-69919246D01*
X158658357Y-69919246D02*
X158620261Y-69995436D01*
X158620261Y-69995436D02*
X158620261Y-70147817D01*
X158620261Y-70147817D02*
X158658357Y-70224008D01*
X158658357Y-70224008D02*
X158734547Y-70262103D01*
X158734547Y-70262103D02*
X158810738Y-70262103D01*
X158810738Y-70262103D02*
X158886928Y-69881150D01*
X159153595Y-70604960D02*
X158620261Y-70604960D01*
X158772642Y-70604960D02*
X158696452Y-70643055D01*
X158696452Y-70643055D02*
X158658357Y-70681150D01*
X158658357Y-70681150D02*
X158620261Y-70757341D01*
X158620261Y-70757341D02*
X158620261Y-70833531D01*
X158620261Y-71633531D02*
X159153595Y-71824007D01*
X159153595Y-71824007D02*
X158620261Y-72014484D01*
X159153595Y-72738293D02*
X159153595Y-72281150D01*
X159153595Y-72509722D02*
X158353595Y-72509722D01*
X158353595Y-72509722D02*
X158467880Y-72433531D01*
X158467880Y-72433531D02*
X158544071Y-72357341D01*
X158544071Y-72357341D02*
X158582166Y-72281150D01*
X159077404Y-73081151D02*
X159115500Y-73119246D01*
X159115500Y-73119246D02*
X159153595Y-73081151D01*
X159153595Y-73081151D02*
X159115500Y-73043055D01*
X159115500Y-73043055D02*
X159077404Y-73081151D01*
X159077404Y-73081151D02*
X159153595Y-73081151D01*
X158353595Y-73614484D02*
X158353595Y-73690674D01*
X158353595Y-73690674D02*
X158391690Y-73766865D01*
X158391690Y-73766865D02*
X158429785Y-73804960D01*
X158429785Y-73804960D02*
X158505976Y-73843055D01*
X158505976Y-73843055D02*
X158658357Y-73881150D01*
X158658357Y-73881150D02*
X158848833Y-73881150D01*
X158848833Y-73881150D02*
X159001214Y-73843055D01*
X159001214Y-73843055D02*
X159077404Y-73804960D01*
X159077404Y-73804960D02*
X159115500Y-73766865D01*
X159115500Y-73766865D02*
X159153595Y-73690674D01*
X159153595Y-73690674D02*
X159153595Y-73614484D01*
X159153595Y-73614484D02*
X159115500Y-73538293D01*
X159115500Y-73538293D02*
X159077404Y-73500198D01*
X159077404Y-73500198D02*
X159001214Y-73462103D01*
X159001214Y-73462103D02*
X158848833Y-73424007D01*
X158848833Y-73424007D02*
X158658357Y-73424007D01*
X158658357Y-73424007D02*
X158505976Y-73462103D01*
X158505976Y-73462103D02*
X158429785Y-73500198D01*
X158429785Y-73500198D02*
X158391690Y-73538293D01*
X158391690Y-73538293D02*
X158353595Y-73614484D01*
D11*
X113245489Y-108870114D02*
X113031203Y-108941542D01*
X113031203Y-108941542D02*
X112959774Y-109012971D01*
X112959774Y-109012971D02*
X112888346Y-109155828D01*
X112888346Y-109155828D02*
X112888346Y-109370114D01*
X112888346Y-109370114D02*
X112959774Y-109512971D01*
X112959774Y-109512971D02*
X113031203Y-109584400D01*
X113031203Y-109584400D02*
X113174060Y-109655828D01*
X113174060Y-109655828D02*
X113745489Y-109655828D01*
X113745489Y-109655828D02*
X113745489Y-108155828D01*
X113745489Y-108155828D02*
X113245489Y-108155828D01*
X113245489Y-108155828D02*
X113102632Y-108227257D01*
X113102632Y-108227257D02*
X113031203Y-108298685D01*
X113031203Y-108298685D02*
X112959774Y-108441542D01*
X112959774Y-108441542D02*
X112959774Y-108584400D01*
X112959774Y-108584400D02*
X113031203Y-108727257D01*
X113031203Y-108727257D02*
X113102632Y-108798685D01*
X113102632Y-108798685D02*
X113245489Y-108870114D01*
X113245489Y-108870114D02*
X113745489Y-108870114D01*
X112316917Y-109227257D02*
X111602632Y-109227257D01*
X112459774Y-109655828D02*
X111959774Y-108155828D01*
X111959774Y-108155828D02*
X111459774Y-109655828D01*
X110102632Y-109512971D02*
X110174060Y-109584400D01*
X110174060Y-109584400D02*
X110388346Y-109655828D01*
X110388346Y-109655828D02*
X110531203Y-109655828D01*
X110531203Y-109655828D02*
X110745489Y-109584400D01*
X110745489Y-109584400D02*
X110888346Y-109441542D01*
X110888346Y-109441542D02*
X110959775Y-109298685D01*
X110959775Y-109298685D02*
X111031203Y-109012971D01*
X111031203Y-109012971D02*
X111031203Y-108798685D01*
X111031203Y-108798685D02*
X110959775Y-108512971D01*
X110959775Y-108512971D02*
X110888346Y-108370114D01*
X110888346Y-108370114D02*
X110745489Y-108227257D01*
X110745489Y-108227257D02*
X110531203Y-108155828D01*
X110531203Y-108155828D02*
X110388346Y-108155828D01*
X110388346Y-108155828D02*
X110174060Y-108227257D01*
X110174060Y-108227257D02*
X110102632Y-108298685D01*
X109459775Y-109655828D02*
X109459775Y-108155828D01*
X108602632Y-109655828D02*
X109245489Y-108798685D01*
X108602632Y-108155828D02*
X109459775Y-109012971D01*
D12*
X139078687Y-105783180D02*
X139126306Y-105830800D01*
X139126306Y-105830800D02*
X139269163Y-105878419D01*
X139269163Y-105878419D02*
X139364401Y-105878419D01*
X139364401Y-105878419D02*
X139507258Y-105830800D01*
X139507258Y-105830800D02*
X139602496Y-105735561D01*
X139602496Y-105735561D02*
X139650115Y-105640323D01*
X139650115Y-105640323D02*
X139697734Y-105449847D01*
X139697734Y-105449847D02*
X139697734Y-105306990D01*
X139697734Y-105306990D02*
X139650115Y-105116514D01*
X139650115Y-105116514D02*
X139602496Y-105021276D01*
X139602496Y-105021276D02*
X139507258Y-104926038D01*
X139507258Y-104926038D02*
X139364401Y-104878419D01*
X139364401Y-104878419D02*
X139269163Y-104878419D01*
X139269163Y-104878419D02*
X139126306Y-104926038D01*
X139126306Y-104926038D02*
X139078687Y-104973657D01*
X138650115Y-105878419D02*
X138650115Y-104878419D01*
X138650115Y-104878419D02*
X138078687Y-105878419D01*
X138078687Y-105878419D02*
X138078687Y-104878419D01*
X137697734Y-104878419D02*
X137078687Y-104878419D01*
X137078687Y-104878419D02*
X137412020Y-105259371D01*
X137412020Y-105259371D02*
X137269163Y-105259371D01*
X137269163Y-105259371D02*
X137173925Y-105306990D01*
X137173925Y-105306990D02*
X137126306Y-105354609D01*
X137126306Y-105354609D02*
X137078687Y-105449847D01*
X137078687Y-105449847D02*
X137078687Y-105687942D01*
X137078687Y-105687942D02*
X137126306Y-105783180D01*
X137126306Y-105783180D02*
X137173925Y-105830800D01*
X137173925Y-105830800D02*
X137269163Y-105878419D01*
X137269163Y-105878419D02*
X137554877Y-105878419D01*
X137554877Y-105878419D02*
X137650115Y-105830800D01*
X137650115Y-105830800D02*
X137697734Y-105783180D01*
X136745353Y-104878419D02*
X136126306Y-104878419D01*
X136126306Y-104878419D02*
X136459639Y-105259371D01*
X136459639Y-105259371D02*
X136316782Y-105259371D01*
X136316782Y-105259371D02*
X136221544Y-105306990D01*
X136221544Y-105306990D02*
X136173925Y-105354609D01*
X136173925Y-105354609D02*
X136126306Y-105449847D01*
X136126306Y-105449847D02*
X136126306Y-105687942D01*
X136126306Y-105687942D02*
X136173925Y-105783180D01*
X136173925Y-105783180D02*
X136221544Y-105830800D01*
X136221544Y-105830800D02*
X136316782Y-105878419D01*
X136316782Y-105878419D02*
X136602496Y-105878419D01*
X136602496Y-105878419D02*
X136697734Y-105830800D01*
X136697734Y-105830800D02*
X136745353Y-105783180D01*
X135507258Y-104878419D02*
X135412020Y-104878419D01*
X135412020Y-104878419D02*
X135316782Y-104926038D01*
X135316782Y-104926038D02*
X135269163Y-104973657D01*
X135269163Y-104973657D02*
X135221544Y-105068895D01*
X135221544Y-105068895D02*
X135173925Y-105259371D01*
X135173925Y-105259371D02*
X135173925Y-105497466D01*
X135173925Y-105497466D02*
X135221544Y-105687942D01*
X135221544Y-105687942D02*
X135269163Y-105783180D01*
X135269163Y-105783180D02*
X135316782Y-105830800D01*
X135316782Y-105830800D02*
X135412020Y-105878419D01*
X135412020Y-105878419D02*
X135507258Y-105878419D01*
X135507258Y-105878419D02*
X135602496Y-105830800D01*
X135602496Y-105830800D02*
X135650115Y-105783180D01*
X135650115Y-105783180D02*
X135697734Y-105687942D01*
X135697734Y-105687942D02*
X135745353Y-105497466D01*
X135745353Y-105497466D02*
X135745353Y-105259371D01*
X135745353Y-105259371D02*
X135697734Y-105068895D01*
X135697734Y-105068895D02*
X135650115Y-104973657D01*
X135650115Y-104973657D02*
X135602496Y-104926038D01*
X135602496Y-104926038D02*
X135507258Y-104878419D01*
X134792972Y-104973657D02*
X134745353Y-104926038D01*
X134745353Y-104926038D02*
X134650115Y-104878419D01*
X134650115Y-104878419D02*
X134412020Y-104878419D01*
X134412020Y-104878419D02*
X134316782Y-104926038D01*
X134316782Y-104926038D02*
X134269163Y-104973657D01*
X134269163Y-104973657D02*
X134221544Y-105068895D01*
X134221544Y-105068895D02*
X134221544Y-105164133D01*
X134221544Y-105164133D02*
X134269163Y-105306990D01*
X134269163Y-105306990D02*
X134840591Y-105878419D01*
X134840591Y-105878419D02*
X134221544Y-105878419D01*
D13*
X152912609Y-97109599D02*
X152960228Y-97252456D01*
X152960228Y-97252456D02*
X153007847Y-97300075D01*
X153007847Y-97300075D02*
X153103085Y-97347694D01*
X153103085Y-97347694D02*
X153245942Y-97347694D01*
X153245942Y-97347694D02*
X153341180Y-97300075D01*
X153341180Y-97300075D02*
X153388800Y-97252456D01*
X153388800Y-97252456D02*
X153436419Y-97157218D01*
X153436419Y-97157218D02*
X153436419Y-96776266D01*
X153436419Y-96776266D02*
X152436419Y-96776266D01*
X152436419Y-96776266D02*
X152436419Y-97109599D01*
X152436419Y-97109599D02*
X152484038Y-97204837D01*
X152484038Y-97204837D02*
X152531657Y-97252456D01*
X152531657Y-97252456D02*
X152626895Y-97300075D01*
X152626895Y-97300075D02*
X152722133Y-97300075D01*
X152722133Y-97300075D02*
X152817371Y-97252456D01*
X152817371Y-97252456D02*
X152864990Y-97204837D01*
X152864990Y-97204837D02*
X152912609Y-97109599D01*
X152912609Y-97109599D02*
X152912609Y-96776266D01*
X153150704Y-97728647D02*
X153150704Y-98204837D01*
X153436419Y-97633409D02*
X152436419Y-97966742D01*
X152436419Y-97966742D02*
X153436419Y-98300075D01*
X152436419Y-98490552D02*
X152436419Y-99061980D01*
X153436419Y-98776266D02*
X152436419Y-98776266D01*
X152436419Y-99252457D02*
X152436419Y-99823885D01*
X153436419Y-99538171D02*
X152436419Y-99538171D01*
X152912609Y-100157219D02*
X152912609Y-100490552D01*
X153436419Y-100633409D02*
X153436419Y-100157219D01*
X153436419Y-100157219D02*
X152436419Y-100157219D01*
X152436419Y-100157219D02*
X152436419Y-100633409D01*
X153436419Y-101633409D02*
X152960228Y-101300076D01*
X153436419Y-101061981D02*
X152436419Y-101061981D01*
X152436419Y-101061981D02*
X152436419Y-101442933D01*
X152436419Y-101442933D02*
X152484038Y-101538171D01*
X152484038Y-101538171D02*
X152531657Y-101585790D01*
X152531657Y-101585790D02*
X152626895Y-101633409D01*
X152626895Y-101633409D02*
X152769752Y-101633409D01*
X152769752Y-101633409D02*
X152864990Y-101585790D01*
X152864990Y-101585790D02*
X152912609Y-101538171D01*
X152912609Y-101538171D02*
X152960228Y-101442933D01*
X152960228Y-101442933D02*
X152960228Y-101061981D01*
X152960228Y-102252457D02*
X153436419Y-102252457D01*
X152436419Y-101919124D02*
X152960228Y-102252457D01*
X152960228Y-102252457D02*
X152436419Y-102585790D01*
X152436419Y-108327143D02*
X153245942Y-108327143D01*
X153245942Y-108327143D02*
X153341180Y-108374762D01*
X153341180Y-108374762D02*
X153388800Y-108422381D01*
X153388800Y-108422381D02*
X153436419Y-108517619D01*
X153436419Y-108517619D02*
X153436419Y-108708095D01*
X153436419Y-108708095D02*
X153388800Y-108803333D01*
X153388800Y-108803333D02*
X153341180Y-108850952D01*
X153341180Y-108850952D02*
X153245942Y-108898571D01*
X153245942Y-108898571D02*
X152436419Y-108898571D01*
X153388800Y-109327143D02*
X153436419Y-109470000D01*
X153436419Y-109470000D02*
X153436419Y-109708095D01*
X153436419Y-109708095D02*
X153388800Y-109803333D01*
X153388800Y-109803333D02*
X153341180Y-109850952D01*
X153341180Y-109850952D02*
X153245942Y-109898571D01*
X153245942Y-109898571D02*
X153150704Y-109898571D01*
X153150704Y-109898571D02*
X153055466Y-109850952D01*
X153055466Y-109850952D02*
X153007847Y-109803333D01*
X153007847Y-109803333D02*
X152960228Y-109708095D01*
X152960228Y-109708095D02*
X152912609Y-109517619D01*
X152912609Y-109517619D02*
X152864990Y-109422381D01*
X152864990Y-109422381D02*
X152817371Y-109374762D01*
X152817371Y-109374762D02*
X152722133Y-109327143D01*
X152722133Y-109327143D02*
X152626895Y-109327143D01*
X152626895Y-109327143D02*
X152531657Y-109374762D01*
X152531657Y-109374762D02*
X152484038Y-109422381D01*
X152484038Y-109422381D02*
X152436419Y-109517619D01*
X152436419Y-109517619D02*
X152436419Y-109755714D01*
X152436419Y-109755714D02*
X152484038Y-109898571D01*
X152912609Y-110660476D02*
X152960228Y-110803333D01*
X152960228Y-110803333D02*
X153007847Y-110850952D01*
X153007847Y-110850952D02*
X153103085Y-110898571D01*
X153103085Y-110898571D02*
X153245942Y-110898571D01*
X153245942Y-110898571D02*
X153341180Y-110850952D01*
X153341180Y-110850952D02*
X153388800Y-110803333D01*
X153388800Y-110803333D02*
X153436419Y-110708095D01*
X153436419Y-110708095D02*
X153436419Y-110327143D01*
X153436419Y-110327143D02*
X152436419Y-110327143D01*
X152436419Y-110327143D02*
X152436419Y-110660476D01*
X152436419Y-110660476D02*
X152484038Y-110755714D01*
X152484038Y-110755714D02*
X152531657Y-110803333D01*
X152531657Y-110803333D02*
X152626895Y-110850952D01*
X152626895Y-110850952D02*
X152722133Y-110850952D01*
X152722133Y-110850952D02*
X152817371Y-110803333D01*
X152817371Y-110803333D02*
X152864990Y-110755714D01*
X152864990Y-110755714D02*
X152912609Y-110660476D01*
X152912609Y-110660476D02*
X152912609Y-110327143D01*
X153341180Y-112660476D02*
X153388800Y-112612857D01*
X153388800Y-112612857D02*
X153436419Y-112470000D01*
X153436419Y-112470000D02*
X153436419Y-112374762D01*
X153436419Y-112374762D02*
X153388800Y-112231905D01*
X153388800Y-112231905D02*
X153293561Y-112136667D01*
X153293561Y-112136667D02*
X153198323Y-112089048D01*
X153198323Y-112089048D02*
X153007847Y-112041429D01*
X153007847Y-112041429D02*
X152864990Y-112041429D01*
X152864990Y-112041429D02*
X152674514Y-112089048D01*
X152674514Y-112089048D02*
X152579276Y-112136667D01*
X152579276Y-112136667D02*
X152484038Y-112231905D01*
X152484038Y-112231905D02*
X152436419Y-112374762D01*
X152436419Y-112374762D02*
X152436419Y-112470000D01*
X152436419Y-112470000D02*
X152484038Y-112612857D01*
X152484038Y-112612857D02*
X152531657Y-112660476D01*
X112376952Y-65121009D02*
X112234095Y-65168628D01*
X112234095Y-65168628D02*
X112186476Y-65216247D01*
X112186476Y-65216247D02*
X112138857Y-65311485D01*
X112138857Y-65311485D02*
X112138857Y-65454342D01*
X112138857Y-65454342D02*
X112186476Y-65549580D01*
X112186476Y-65549580D02*
X112234095Y-65597200D01*
X112234095Y-65597200D02*
X112329333Y-65644819D01*
X112329333Y-65644819D02*
X112710285Y-65644819D01*
X112710285Y-65644819D02*
X112710285Y-64644819D01*
X112710285Y-64644819D02*
X112376952Y-64644819D01*
X112376952Y-64644819D02*
X112281714Y-64692438D01*
X112281714Y-64692438D02*
X112234095Y-64740057D01*
X112234095Y-64740057D02*
X112186476Y-64835295D01*
X112186476Y-64835295D02*
X112186476Y-64930533D01*
X112186476Y-64930533D02*
X112234095Y-65025771D01*
X112234095Y-65025771D02*
X112281714Y-65073390D01*
X112281714Y-65073390D02*
X112376952Y-65121009D01*
X112376952Y-65121009D02*
X112710285Y-65121009D01*
X111805523Y-64644819D02*
X111138857Y-64644819D01*
X111138857Y-64644819D02*
X111805523Y-65644819D01*
X111805523Y-65644819D02*
X111138857Y-65644819D01*
X110234095Y-65644819D02*
X110805523Y-65644819D01*
X110519809Y-65644819D02*
X110519809Y-64644819D01*
X110519809Y-64644819D02*
X110615047Y-64787676D01*
X110615047Y-64787676D02*
X110710285Y-64882914D01*
X110710285Y-64882914D02*
X110805523Y-64930533D01*
X115686951Y-69923866D02*
X114925047Y-69923866D01*
X115305999Y-70304819D02*
X115305999Y-69542914D01*
X82231580Y-60701333D02*
X82279200Y-60653714D01*
X82279200Y-60653714D02*
X82326819Y-60510857D01*
X82326819Y-60510857D02*
X82326819Y-60415619D01*
X82326819Y-60415619D02*
X82279200Y-60272762D01*
X82279200Y-60272762D02*
X82183961Y-60177524D01*
X82183961Y-60177524D02*
X82088723Y-60129905D01*
X82088723Y-60129905D02*
X81898247Y-60082286D01*
X81898247Y-60082286D02*
X81755390Y-60082286D01*
X81755390Y-60082286D02*
X81564914Y-60129905D01*
X81564914Y-60129905D02*
X81469676Y-60177524D01*
X81469676Y-60177524D02*
X81374438Y-60272762D01*
X81374438Y-60272762D02*
X81326819Y-60415619D01*
X81326819Y-60415619D02*
X81326819Y-60510857D01*
X81326819Y-60510857D02*
X81374438Y-60653714D01*
X81374438Y-60653714D02*
X81422057Y-60701333D01*
X82326819Y-61653714D02*
X82326819Y-61082286D01*
X82326819Y-61368000D02*
X81326819Y-61368000D01*
X81326819Y-61368000D02*
X81469676Y-61272762D01*
X81469676Y-61272762D02*
X81564914Y-61177524D01*
X81564914Y-61177524D02*
X81612533Y-61082286D01*
D12*
X143409315Y-73532419D02*
X143409315Y-72532419D01*
X142933125Y-73532419D02*
X142933125Y-72532419D01*
X142933125Y-72532419D02*
X142361697Y-73532419D01*
X142361697Y-73532419D02*
X142361697Y-72532419D01*
X141933125Y-73246704D02*
X141456935Y-73246704D01*
X142028363Y-73532419D02*
X141695030Y-72532419D01*
X141695030Y-72532419D02*
X141361697Y-73532419D01*
X141075982Y-72627657D02*
X141028363Y-72580038D01*
X141028363Y-72580038D02*
X140933125Y-72532419D01*
X140933125Y-72532419D02*
X140695030Y-72532419D01*
X140695030Y-72532419D02*
X140599792Y-72580038D01*
X140599792Y-72580038D02*
X140552173Y-72627657D01*
X140552173Y-72627657D02*
X140504554Y-72722895D01*
X140504554Y-72722895D02*
X140504554Y-72818133D01*
X140504554Y-72818133D02*
X140552173Y-72960990D01*
X140552173Y-72960990D02*
X141123601Y-73532419D01*
X141123601Y-73532419D02*
X140504554Y-73532419D01*
X139552173Y-73532419D02*
X140123601Y-73532419D01*
X139837887Y-73532419D02*
X139837887Y-72532419D01*
X139837887Y-72532419D02*
X139933125Y-72675276D01*
X139933125Y-72675276D02*
X140028363Y-72770514D01*
X140028363Y-72770514D02*
X140123601Y-72818133D01*
X139075982Y-73532419D02*
X138885506Y-73532419D01*
X138885506Y-73532419D02*
X138790268Y-73484800D01*
X138790268Y-73484800D02*
X138742649Y-73437180D01*
X138742649Y-73437180D02*
X138647411Y-73294323D01*
X138647411Y-73294323D02*
X138599792Y-73103847D01*
X138599792Y-73103847D02*
X138599792Y-72722895D01*
X138599792Y-72722895D02*
X138647411Y-72627657D01*
X138647411Y-72627657D02*
X138695030Y-72580038D01*
X138695030Y-72580038D02*
X138790268Y-72532419D01*
X138790268Y-72532419D02*
X138980744Y-72532419D01*
X138980744Y-72532419D02*
X139075982Y-72580038D01*
X139075982Y-72580038D02*
X139123601Y-72627657D01*
X139123601Y-72627657D02*
X139171220Y-72722895D01*
X139171220Y-72722895D02*
X139171220Y-72960990D01*
X139171220Y-72960990D02*
X139123601Y-73056228D01*
X139123601Y-73056228D02*
X139075982Y-73103847D01*
X139075982Y-73103847D02*
X138980744Y-73151466D01*
X138980744Y-73151466D02*
X138790268Y-73151466D01*
X138790268Y-73151466D02*
X138695030Y-73103847D01*
X138695030Y-73103847D02*
X138647411Y-73056228D01*
X138647411Y-73056228D02*
X138599792Y-72960990D01*
%TO.C,CN1*%
X146177000Y-122160400D02*
X128177000Y-122160400D01*
X128177000Y-85160400D01*
X146177000Y-85160400D01*
X146177000Y-122160400D01*
D14*
%TO.C,J1*%
X154071600Y-95799600D02*
X160041600Y-95799600D01*
X154071600Y-103419600D02*
X154071600Y-95799600D01*
X154831600Y-96559600D02*
X154831600Y-99609600D01*
X154831600Y-102659600D02*
X154831600Y-99609600D01*
X157781600Y-95809600D02*
X157781600Y-96559600D01*
X157781600Y-96559600D02*
X154831600Y-96559600D01*
X157781600Y-102659600D02*
X154831600Y-102659600D01*
X157781600Y-103409600D02*
X157781600Y-102659600D01*
X159281600Y-95809600D02*
X160031600Y-95809600D01*
X159281600Y-97609600D02*
X159281600Y-95809600D01*
X159281600Y-99109600D02*
X160031600Y-99109600D01*
X159281600Y-100109600D02*
X159281600Y-99109600D01*
X159281600Y-101609600D02*
X160031600Y-101609600D01*
X159281600Y-103409600D02*
X159281600Y-101609600D01*
X160031600Y-95809600D02*
X160031600Y-97609600D01*
X160031600Y-97609600D02*
X159281600Y-97609600D01*
X160031600Y-99109600D02*
X160031600Y-100109600D01*
X160031600Y-100109600D02*
X159281600Y-100109600D01*
X160031600Y-101609600D02*
X160031600Y-103409600D01*
X160031600Y-103409600D02*
X159281600Y-103409600D01*
X160041600Y-95799600D02*
X160041600Y-103419600D01*
X160041600Y-103419600D02*
X154071600Y-103419600D01*
X160331600Y-102459600D02*
X160331600Y-103709600D01*
X160331600Y-103709600D02*
X159081600Y-103709600D01*
%TO.C,J2*%
X154071600Y-106660000D02*
X160041600Y-106660000D01*
X154071600Y-114280000D02*
X154071600Y-106660000D01*
X154831600Y-107420000D02*
X154831600Y-110470000D01*
X154831600Y-113520000D02*
X154831600Y-110470000D01*
X157781600Y-106670000D02*
X157781600Y-107420000D01*
X157781600Y-107420000D02*
X154831600Y-107420000D01*
X157781600Y-113520000D02*
X154831600Y-113520000D01*
X157781600Y-114270000D02*
X157781600Y-113520000D01*
X159281600Y-106670000D02*
X160031600Y-106670000D01*
X159281600Y-108470000D02*
X159281600Y-106670000D01*
X159281600Y-109970000D02*
X160031600Y-109970000D01*
X159281600Y-110970000D02*
X159281600Y-109970000D01*
X159281600Y-112470000D02*
X160031600Y-112470000D01*
X159281600Y-114270000D02*
X159281600Y-112470000D01*
X160031600Y-106670000D02*
X160031600Y-108470000D01*
X160031600Y-108470000D02*
X159281600Y-108470000D01*
X160031600Y-109970000D02*
X160031600Y-110970000D01*
X160031600Y-110970000D02*
X159281600Y-110970000D01*
X160031600Y-112470000D02*
X160031600Y-114270000D01*
X160031600Y-114270000D02*
X159281600Y-114270000D01*
X160041600Y-106660000D02*
X160041600Y-114280000D01*
X160041600Y-114280000D02*
X154071600Y-114280000D01*
X160331600Y-113320000D02*
X160331600Y-114570000D01*
X160331600Y-114570000D02*
X159081600Y-114570000D01*
%TO.C,BZ1*%
X117596000Y-72390000D02*
G75*
G02*
X105396000Y-72390000I-6100000J0D01*
G01*
X105396000Y-72390000D02*
G75*
G02*
X117596000Y-72390000I6100000J0D01*
G01*
%TO.C,C1*%
X83042000Y-60868000D02*
X91202000Y-60868000D01*
X83042000Y-60908000D02*
X91202000Y-60908000D01*
X83043000Y-60948000D02*
X91201000Y-60948000D01*
X83044000Y-60988000D02*
X91200000Y-60988000D01*
X83045000Y-61028000D02*
X91199000Y-61028000D01*
X83047000Y-61068000D02*
X91197000Y-61068000D01*
X83049000Y-61108000D02*
X91195000Y-61108000D01*
X83052000Y-61148000D02*
X91192000Y-61148000D01*
X83054000Y-61188000D02*
X91190000Y-61188000D01*
X83058000Y-61228000D02*
X91186000Y-61228000D01*
X83061000Y-61268000D02*
X91183000Y-61268000D01*
X83066000Y-61308000D02*
X91178000Y-61308000D01*
X83070000Y-61348000D02*
X91174000Y-61348000D01*
X83075000Y-61388000D02*
X91169000Y-61388000D01*
X83080000Y-61428000D02*
X91164000Y-61428000D01*
X83086000Y-61468000D02*
X91158000Y-61468000D01*
X83092000Y-61508000D02*
X91152000Y-61508000D01*
X83099000Y-61548000D02*
X91145000Y-61548000D01*
X83105000Y-61588000D02*
X91139000Y-61588000D01*
X83113000Y-61628000D02*
X91131000Y-61628000D01*
X83120000Y-61668000D02*
X91124000Y-61668000D01*
X83129000Y-61708000D02*
X91115000Y-61708000D01*
X83137000Y-61748000D02*
X86082000Y-61748000D01*
X83146000Y-61788000D02*
X86082000Y-61788000D01*
X83155000Y-61828000D02*
X86082000Y-61828000D01*
X83165000Y-61868000D02*
X86082000Y-61868000D01*
X83175000Y-61908000D02*
X86082000Y-61908000D01*
X83186000Y-61948000D02*
X86082000Y-61948000D01*
X83197000Y-61988000D02*
X86082000Y-61988000D01*
X83209000Y-62028000D02*
X86082000Y-62028000D01*
X83221000Y-62068000D02*
X86082000Y-62068000D01*
X83233000Y-62108000D02*
X86082000Y-62108000D01*
X83246000Y-62148000D02*
X86082000Y-62148000D01*
X83259000Y-62188000D02*
X86082000Y-62188000D01*
X83273000Y-62228000D02*
X86082000Y-62228000D01*
X83287000Y-62268000D02*
X86082000Y-62268000D01*
X83302000Y-62308000D02*
X86082000Y-62308000D01*
X83317000Y-62348000D02*
X86082000Y-62348000D01*
X83333000Y-62388000D02*
X86082000Y-62388000D01*
X83349000Y-62428000D02*
X86082000Y-62428000D01*
X83365000Y-62468000D02*
X86082000Y-62468000D01*
X83382000Y-62508000D02*
X86082000Y-62508000D01*
X83400000Y-62548000D02*
X86082000Y-62548000D01*
X83418000Y-62588000D02*
X86082000Y-62588000D01*
X83437000Y-62628000D02*
X86082000Y-62628000D01*
X83456000Y-62668000D02*
X86082000Y-62668000D01*
X83476000Y-62708000D02*
X86082000Y-62708000D01*
X83496000Y-62748000D02*
X86082000Y-62748000D01*
X83517000Y-62788000D02*
X86082000Y-62788000D01*
X83538000Y-62828000D02*
X86082000Y-62828000D01*
X83560000Y-62868000D02*
X86082000Y-62868000D01*
X83583000Y-62908000D02*
X86082000Y-62908000D01*
X83606000Y-62948000D02*
X86082000Y-62948000D01*
X83629000Y-62988000D02*
X86082000Y-62988000D01*
X83654000Y-63028000D02*
X86082000Y-63028000D01*
X83679000Y-63068000D02*
X86082000Y-63068000D01*
X83704000Y-63108000D02*
X86082000Y-63108000D01*
X83730000Y-63148000D02*
X86082000Y-63148000D01*
X83757000Y-63188000D02*
X86082000Y-63188000D01*
X83785000Y-63228000D02*
X86082000Y-63228000D01*
X83813000Y-63268000D02*
X86082000Y-63268000D01*
X83842000Y-63308000D02*
X86082000Y-63308000D01*
X83872000Y-63348000D02*
X86082000Y-63348000D01*
X83903000Y-63388000D02*
X86082000Y-63388000D01*
X83934000Y-63428000D02*
X86082000Y-63428000D01*
X83966000Y-63468000D02*
X86082000Y-63468000D01*
X83999000Y-63508000D02*
X86082000Y-63508000D01*
X84033000Y-63548000D02*
X86082000Y-63548000D01*
X84067000Y-63588000D02*
X86082000Y-63588000D01*
X84103000Y-63628000D02*
X86082000Y-63628000D01*
X84140000Y-63668000D02*
X86082000Y-63668000D01*
X84177000Y-63708000D02*
X86082000Y-63708000D01*
X84216000Y-63748000D02*
X86082000Y-63748000D01*
X84255000Y-63788000D02*
X86082000Y-63788000D01*
X84296000Y-63828000D02*
X89948000Y-63828000D01*
X84338000Y-63868000D02*
X89906000Y-63868000D01*
X84381000Y-63908000D02*
X89863000Y-63908000D01*
X84407000Y-56858302D02*
X85207000Y-56858302D01*
X84426000Y-63948000D02*
X89818000Y-63948000D01*
X84471000Y-63988000D02*
X89773000Y-63988000D01*
X84518000Y-64028000D02*
X89726000Y-64028000D01*
X84567000Y-64068000D02*
X89677000Y-64068000D01*
X84617000Y-64108000D02*
X89627000Y-64108000D01*
X84669000Y-64148000D02*
X89575000Y-64148000D01*
X84722000Y-64188000D02*
X89522000Y-64188000D01*
X84778000Y-64228000D02*
X89466000Y-64228000D01*
X84807000Y-56458302D02*
X84807000Y-57258302D01*
X84835000Y-64268000D02*
X89409000Y-64268000D01*
X84895000Y-64308000D02*
X89349000Y-64308000D01*
X84957000Y-64348000D02*
X89287000Y-64348000D01*
X85021000Y-64388000D02*
X89223000Y-64388000D01*
X85088000Y-64428000D02*
X89156000Y-64428000D01*
X85158000Y-64468000D02*
X89086000Y-64468000D01*
X85232000Y-64508000D02*
X89012000Y-64508000D01*
X85309000Y-64548000D02*
X88935000Y-64548000D01*
X85391000Y-64588000D02*
X88853000Y-64588000D01*
X85478000Y-64628000D02*
X88766000Y-64628000D01*
X85570000Y-64668000D02*
X88674000Y-64668000D01*
X85669000Y-64708000D02*
X88575000Y-64708000D01*
X85776000Y-64748000D02*
X88468000Y-64748000D01*
X85894000Y-64788000D02*
X88350000Y-64788000D01*
X86025000Y-64828000D02*
X88219000Y-64828000D01*
X86175000Y-64868000D02*
X88069000Y-64868000D01*
X86354000Y-64908000D02*
X87890000Y-64908000D01*
X86589000Y-64948000D02*
X87655000Y-64948000D01*
X88162000Y-61748000D02*
X91107000Y-61748000D01*
X88162000Y-61788000D02*
X91098000Y-61788000D01*
X88162000Y-61828000D02*
X91089000Y-61828000D01*
X88162000Y-61868000D02*
X91079000Y-61868000D01*
X88162000Y-61908000D02*
X91069000Y-61908000D01*
X88162000Y-61948000D02*
X91058000Y-61948000D01*
X88162000Y-61988000D02*
X91047000Y-61988000D01*
X88162000Y-62028000D02*
X91035000Y-62028000D01*
X88162000Y-62068000D02*
X91023000Y-62068000D01*
X88162000Y-62108000D02*
X91011000Y-62108000D01*
X88162000Y-62148000D02*
X90998000Y-62148000D01*
X88162000Y-62188000D02*
X90985000Y-62188000D01*
X88162000Y-62228000D02*
X90971000Y-62228000D01*
X88162000Y-62268000D02*
X90957000Y-62268000D01*
X88162000Y-62308000D02*
X90942000Y-62308000D01*
X88162000Y-62348000D02*
X90927000Y-62348000D01*
X88162000Y-62388000D02*
X90911000Y-62388000D01*
X88162000Y-62428000D02*
X90895000Y-62428000D01*
X88162000Y-62468000D02*
X90879000Y-62468000D01*
X88162000Y-62508000D02*
X90862000Y-62508000D01*
X88162000Y-62548000D02*
X90844000Y-62548000D01*
X88162000Y-62588000D02*
X90826000Y-62588000D01*
X88162000Y-62628000D02*
X90807000Y-62628000D01*
X88162000Y-62668000D02*
X90788000Y-62668000D01*
X88162000Y-62708000D02*
X90768000Y-62708000D01*
X88162000Y-62748000D02*
X90748000Y-62748000D01*
X88162000Y-62788000D02*
X90727000Y-62788000D01*
X88162000Y-62828000D02*
X90706000Y-62828000D01*
X88162000Y-62868000D02*
X90684000Y-62868000D01*
X88162000Y-62908000D02*
X90661000Y-62908000D01*
X88162000Y-62948000D02*
X90638000Y-62948000D01*
X88162000Y-62988000D02*
X90615000Y-62988000D01*
X88162000Y-63028000D02*
X90590000Y-63028000D01*
X88162000Y-63068000D02*
X90565000Y-63068000D01*
X88162000Y-63108000D02*
X90540000Y-63108000D01*
X88162000Y-63148000D02*
X90514000Y-63148000D01*
X88162000Y-63188000D02*
X90487000Y-63188000D01*
X88162000Y-63228000D02*
X90459000Y-63228000D01*
X88162000Y-63268000D02*
X90431000Y-63268000D01*
X88162000Y-63308000D02*
X90402000Y-63308000D01*
X88162000Y-63348000D02*
X90372000Y-63348000D01*
X88162000Y-63388000D02*
X90341000Y-63388000D01*
X88162000Y-63428000D02*
X90310000Y-63428000D01*
X88162000Y-63468000D02*
X90278000Y-63468000D01*
X88162000Y-63508000D02*
X90245000Y-63508000D01*
X88162000Y-63548000D02*
X90211000Y-63548000D01*
X88162000Y-63588000D02*
X90177000Y-63588000D01*
X88162000Y-63628000D02*
X90141000Y-63628000D01*
X88162000Y-63668000D02*
X90104000Y-63668000D01*
X88162000Y-63708000D02*
X90067000Y-63708000D01*
X88162000Y-63748000D02*
X90028000Y-63748000D01*
X88162000Y-63788000D02*
X89989000Y-63788000D01*
X91242000Y-60868000D02*
G75*
G02*
X83002000Y-60868000I-4120000J0D01*
G01*
X83002000Y-60868000D02*
G75*
G02*
X91242000Y-60868000I4120000J0D01*
G01*
%TO.C,INA1*%
D12*
X128219200Y-84402000D02*
X153619200Y-84402000D01*
X153619200Y-61902000D01*
X128219200Y-61902000D01*
X128219200Y-84402000D01*
%TD*%
M02*
