%TF.GenerationSoftware,KiCad,Pcbnew,9.0.7*%
%TF.CreationDate,2026-02-25T14:22:50+08:00*%
%TF.ProjectId,Rover2.0,526f7665-7232-42e3-902e-6b696361645f,rev?*%
%TF.SameCoordinates,Original*%
%TF.FileFunction,Soldermask,Top*%
%TF.FilePolarity,Negative*%
%FSLAX46Y46*%
G04 Gerber Fmt 4.6, Leading zero omitted, Abs format (unit mm)*
G04 Created by KiCad (PCBNEW 9.0.7) date 2026-02-25 14:22:50*
%MOMM*%
%LPD*%
G01*
G04 APERTURE LIST*
G04 Aperture macros list*
%AMRoundRect*
0 Rectangle with rounded corners*
0 $1 Rounding radius*
0 $2 $3 $4 $5 $6 $7 $8 $9 X,Y pos of 4 corners*
0 Add a 4 corners polygon primitive as box body*
4,1,4,$2,$3,$4,$5,$6,$7,$8,$9,$2,$3,0*
0 Add four circle primitives for the rounded corners*
1,1,$1+$1,$2,$3*
1,1,$1+$1,$4,$5*
1,1,$1+$1,$6,$7*
1,1,$1+$1,$8,$9*
0 Add four rect primitives between the rounded corners*
20,1,$1+$1,$2,$3,$4,$5,0*
20,1,$1+$1,$4,$5,$6,$7,0*
20,1,$1+$1,$6,$7,$8,$9,0*
20,1,$1+$1,$8,$9,$2,$3,0*%
G04 Aperture macros list end*
%ADD10C,2.200000*%
%ADD11R,1.800000X1.800000*%
%ADD12C,1.800000*%
%ADD13RoundRect,0.250000X0.385000X1.350000X-0.385000X1.350000X-0.385000X-1.350000X0.385000X-1.350000X0*%
%ADD14RoundRect,0.250000X0.425000X1.600000X-0.425000X1.600000X-0.425000X-1.600000X0.425000X-1.600000X0*%
%ADD15C,1.600000*%
%ADD16C,2.000000*%
%ADD17R,3.000000X1.000000*%
%ADD18RoundRect,0.250000X0.750000X-0.600000X0.750000X0.600000X-0.750000X0.600000X-0.750000X-0.600000X0*%
%ADD19O,2.000000X1.700000*%
%ADD20R,2.000000X2.000000*%
%ADD21RoundRect,0.250000X-0.550000X0.550000X-0.550000X-0.550000X0.550000X-0.550000X0.550000X0.550000X0*%
G04 APERTURE END LIST*
D10*
%TO.C,H1*%
X66040000Y-60960000D03*
%TD*%
D11*
%TO.C,ILI1*%
X64770000Y-71120000D03*
D12*
X64770000Y-73660000D03*
X64770000Y-76200000D03*
X64770000Y-78740000D03*
X64770000Y-81280000D03*
X64770000Y-83820000D03*
X64770000Y-86360000D03*
X64770000Y-88900000D03*
X64770000Y-91440000D03*
X64770000Y-93980000D03*
X64770000Y-96520000D03*
X64770000Y-99060000D03*
X64770000Y-101600000D03*
X64770000Y-104140000D03*
X158750000Y-83820000D03*
X158750000Y-86360000D03*
X158750000Y-88900000D03*
X158750000Y-91440000D03*
%TD*%
D13*
%TO.C,J3*%
X74190000Y-58862500D03*
D14*
X71365000Y-59112500D03*
X77015000Y-59112500D03*
%TD*%
D11*
%TO.C,NEO-M8N1*%
X138938000Y-76962000D03*
D12*
X141478000Y-76962000D03*
X144018000Y-76962000D03*
X146558000Y-76962000D03*
X149098000Y-76962000D03*
%TD*%
D11*
%TO.C,BMP1*%
X79253600Y-99027600D03*
D12*
X79253600Y-96487600D03*
X79253600Y-93947600D03*
X79253600Y-91407600D03*
X79253600Y-88867600D03*
X79253600Y-86327600D03*
%TD*%
D11*
%TO.C,ESP32-S3-N16R1*%
X99060000Y-66040000D03*
D12*
X99060000Y-68580000D03*
X99060000Y-71120000D03*
X99060000Y-73660000D03*
X99060000Y-76200000D03*
X99060000Y-78740000D03*
X99060000Y-81280000D03*
X99060000Y-83820000D03*
X99060000Y-86360000D03*
X99060000Y-88900000D03*
X99060000Y-91440000D03*
X99060000Y-93980000D03*
X99060000Y-96520000D03*
X99060000Y-99060000D03*
X99060000Y-101600000D03*
X99060000Y-104140000D03*
X99060000Y-106680000D03*
X99060000Y-109220000D03*
X99060000Y-111760000D03*
X99060000Y-114300000D03*
X99060000Y-116840000D03*
X99060000Y-119380000D03*
X124460000Y-66040000D03*
X124460000Y-68580000D03*
X124460000Y-71120000D03*
X124460000Y-73660000D03*
X124460000Y-76200000D03*
X124460000Y-78740000D03*
X124460000Y-81280000D03*
X124460000Y-83820000D03*
X124460000Y-86360000D03*
X124460000Y-88900000D03*
X124460000Y-91440000D03*
X124460000Y-93980000D03*
X124460000Y-96520000D03*
X124460000Y-99060000D03*
X124460000Y-101600000D03*
X124460000Y-104140000D03*
X124460000Y-106680000D03*
X124460000Y-109220000D03*
X124460000Y-111760000D03*
X124460000Y-114300000D03*
X124460000Y-116840000D03*
X124460000Y-119380000D03*
%TD*%
D11*
%TO.C,BUCK-CONVERTER2*%
X148684000Y-99572000D03*
D12*
X148684000Y-97032000D03*
X148684000Y-94492000D03*
X148684000Y-91952000D03*
%TD*%
D15*
%TO.C,C2*%
X69810000Y-111760000D03*
X64810000Y-111760000D03*
%TD*%
D16*
%TO.C,SW1*%
X72240000Y-117166000D03*
X78740000Y-117166000D03*
X72240000Y-121666000D03*
X78740000Y-121666000D03*
%TD*%
D17*
%TO.C,SX1*%
X74168000Y-66040000D03*
X74168000Y-68040000D03*
X74168000Y-70040000D03*
X74168000Y-72040000D03*
X74168000Y-74040000D03*
X74168000Y-76040000D03*
X74168000Y-78040000D03*
X74168000Y-80040000D03*
X89154000Y-66040000D03*
X89154000Y-68040000D03*
X89154000Y-70040000D03*
X89154000Y-72040000D03*
X89154000Y-74040000D03*
X89154000Y-76040000D03*
X89154000Y-78040000D03*
X89154000Y-80040000D03*
%TD*%
D10*
%TO.C,H4*%
X157480000Y-119380000D03*
%TD*%
D11*
%TO.C,BUCK-CONVERTER1*%
X148684000Y-111672000D03*
D12*
X148684000Y-109132000D03*
X148684000Y-106592000D03*
X148684000Y-104052000D03*
%TD*%
D10*
%TO.C,H3*%
X157480000Y-60960000D03*
%TD*%
D15*
%TO.C,R2*%
X83312000Y-111760000D03*
X73152000Y-111760000D03*
%TD*%
D11*
%TO.C,HMC1*%
X93901400Y-86639400D03*
D12*
X91361400Y-86639400D03*
X88821400Y-86639400D03*
X86281400Y-86639400D03*
X83741400Y-86639400D03*
%TD*%
D10*
%TO.C,H2*%
X66040000Y-119380000D03*
%TD*%
D15*
%TO.C,R1*%
X73152000Y-108458000D03*
X83312000Y-108458000D03*
%TD*%
D11*
%TO.C,CN1*%
X144780000Y-120738000D03*
X129540000Y-120738000D03*
X139700000Y-87338000D03*
X134620000Y-87338000D03*
%TD*%
D18*
%TO.C,J1*%
X157581600Y-100859600D03*
D19*
X157581600Y-98359600D03*
%TD*%
D18*
%TO.C,J2*%
X157581600Y-111720000D03*
D19*
X157581600Y-109220000D03*
%TD*%
D20*
%TO.C,BZ1*%
X115296000Y-72390000D03*
D16*
X107696000Y-72390000D03*
%TD*%
D21*
%TO.C,C1*%
X87122000Y-58968000D03*
D15*
X87122000Y-62768000D03*
%TD*%
D11*
%TO.C,INA1*%
X131013200Y-79502000D03*
D12*
X131013200Y-76962000D03*
X131013200Y-74422000D03*
X131013200Y-71882000D03*
X131013200Y-69342000D03*
X131013200Y-66802000D03*
%TD*%
M02*
