M48
; DRILL file {KiCad 9.0.7} date 2026-02-25T14:22:46+0800
; FORMAT={-:-/ absolute / metric / decimal}
; #@! TF.CreationDate,2026-02-25T14:22:46+08:00
; #@! TF.GenerationSoftware,Kicad,Pcbnew,9.0.7
; #@! TF.FileFunction,Plated,1,2,PTH
FMAT,2
METRIC
; #@! TA.AperFunction,Plated,PTH,ViaDrill
T1C0.300
; #@! TA.AperFunction,Plated,PTH,ComponentDrill
T2C0.800
; #@! TA.AperFunction,Plated,PTH,ComponentDrill
T3C1.000
; #@! TA.AperFunction,Plated,PTH,ComponentDrill
T4C1.100
%
G90
G05
T1
X69.7Y-57.82
X69.7Y-59.09
X69.7Y-60.36
X69.85Y-102.87
X69.85Y-104.14
X69.91Y-61.75
X71.12Y-102.87
X71.12Y-104.14
X71.32Y-61.98
X77.01Y-62.0
X78.46Y-61.73
X78.7Y-57.8
X78.7Y-59.07
X78.7Y-60.34
X81.28Y-92.71
X90.16Y-74.04
X90.16Y-76.04
X90.16Y-78.04
X90.17Y-103.886
X91.415Y-102.616
X91.425Y-103.886
X91.425Y-105.156
X91.425Y-106.426
X91.463Y-100.838
X92.177Y-116.84
X92.913Y-81.331
X96.52Y-107.95
X96.52Y-109.22
X97.155Y-87.63
X101.6Y-64.77
X101.6Y-72.39
X102.87Y-64.77
X102.87Y-83.82
X103.505Y-88.9
X103.505Y-91.44
X104.14Y-64.77
X105.41Y-64.77
X105.41Y-114.3
X106.68Y-64.77
X107.95Y-64.77
X109.22Y-64.77
X110.49Y-64.77
X110.49Y-102.87
X110.49Y-104.14
X111.76Y-64.77
X111.76Y-102.87
X111.76Y-104.14
X111.76Y-114.3
X113.03Y-64.77
X114.3Y-64.77
X115.57Y-64.77
X116.84Y-64.77
X118.11Y-64.77
X118.11Y-114.3
X118.745Y-86.36
X118.745Y-88.9
X119.38Y-64.77
X119.38Y-95.25
X120.65Y-64.77
X121.92Y-64.77
X127.102Y-114.605
X133.35Y-91.44
X145.415Y-86.36
T2
X64.81Y-111.76
X69.81Y-111.76
X73.152Y-108.458
X73.152Y-111.76
X83.312Y-108.458
X83.312Y-111.76
X87.122Y-58.968
X87.122Y-62.768
T3
X64.77Y-71.12
X64.77Y-73.66
X64.77Y-76.2
X64.77Y-78.74
X64.77Y-81.28
X64.77Y-83.82
X64.77Y-86.36
X64.77Y-88.9
X64.77Y-91.44
X64.77Y-93.98
X64.77Y-96.52
X64.77Y-99.06
X64.77Y-101.6
X64.77Y-104.14
X79.254Y-86.328
X79.254Y-88.868
X79.254Y-91.408
X79.254Y-93.948
X79.254Y-96.488
X79.254Y-99.028
X83.741Y-86.639
X86.281Y-86.639
X88.821Y-86.639
X91.361Y-86.639
X93.901Y-86.639
X99.06Y-66.04
X99.06Y-68.58
X99.06Y-71.12
X99.06Y-73.66
X99.06Y-76.2
X99.06Y-78.74
X99.06Y-81.28
X99.06Y-83.82
X99.06Y-86.36
X99.06Y-88.9
X99.06Y-91.44
X99.06Y-93.98
X99.06Y-96.52
X99.06Y-99.06
X99.06Y-101.6
X99.06Y-104.14
X99.06Y-106.68
X99.06Y-109.22
X99.06Y-111.76
X99.06Y-114.3
X99.06Y-116.84
X99.06Y-119.38
X107.696Y-72.39
X115.296Y-72.39
X124.46Y-66.04
X124.46Y-68.58
X124.46Y-71.12
X124.46Y-73.66
X124.46Y-76.2
X124.46Y-78.74
X124.46Y-81.28
X124.46Y-83.82
X124.46Y-86.36
X124.46Y-88.9
X124.46Y-91.44
X124.46Y-93.98
X124.46Y-96.52
X124.46Y-99.06
X124.46Y-101.6
X124.46Y-104.14
X124.46Y-106.68
X124.46Y-109.22
X124.46Y-111.76
X124.46Y-114.3
X124.46Y-116.84
X124.46Y-119.38
X129.54Y-120.738
X131.013Y-66.802
X131.013Y-69.342
X131.013Y-71.882
X131.013Y-74.422
X131.013Y-76.962
X131.013Y-79.502
X134.62Y-87.338
X138.938Y-76.962
X139.7Y-87.338
X141.478Y-76.962
X144.018Y-76.962
X144.78Y-120.738
X146.558Y-76.962
X148.684Y-91.952
X148.684Y-94.492
X148.684Y-97.032
X148.684Y-99.572
X148.684Y-104.052
X148.684Y-106.592
X148.684Y-109.132
X148.684Y-111.672
X149.098Y-76.962
X157.582Y-98.36
X157.582Y-100.86
X157.582Y-109.22
X157.582Y-111.72
X158.75Y-83.82
X158.75Y-86.36
X158.75Y-88.9
X158.75Y-91.44
T4
X72.24Y-117.166
X72.24Y-121.666
X78.74Y-117.166
X78.74Y-121.666
M30
