%TF.GenerationSoftware,KiCad,Pcbnew,9.0.7*%
%TF.CreationDate,2026-02-25T14:22:50+08:00*%
%TF.ProjectId,Rover2.0,526f7665-7232-42e3-902e-6b696361645f,rev?*%
%TF.SameCoordinates,Original*%
%TF.FileFunction,Copper,L2,Bot*%
%TF.FilePolarity,Positive*%
%FSLAX46Y46*%
G04 Gerber Fmt 4.6, Leading zero omitted, Abs format (unit mm)*
G04 Created by KiCad (PCBNEW 9.0.7) date 2026-02-25 14:22:50*
%MOMM*%
%LPD*%
G01*
G04 APERTURE LIST*
G04 Aperture macros list*
%AMRoundRect*
0 Rectangle with rounded corners*
0 $1 Rounding radius*
0 $2 $3 $4 $5 $6 $7 $8 $9 X,Y pos of 4 corners*
0 Add a 4 corners polygon primitive as box body*
4,1,4,$2,$3,$4,$5,$6,$7,$8,$9,$2,$3,0*
0 Add four circle primitives for the rounded corners*
1,1,$1+$1,$2,$3*
1,1,$1+$1,$4,$5*
1,1,$1+$1,$6,$7*
1,1,$1+$1,$8,$9*
0 Add four rect primitives between the rounded corners*
20,1,$1+$1,$2,$3,$4,$5,0*
20,1,$1+$1,$4,$5,$6,$7,0*
20,1,$1+$1,$6,$7,$8,$9,0*
20,1,$1+$1,$8,$9,$2,$3,0*%
G04 Aperture macros list end*
%TA.AperFunction,ComponentPad*%
%ADD10R,1.800000X1.800000*%
%TD*%
%TA.AperFunction,ComponentPad*%
%ADD11C,1.800000*%
%TD*%
%TA.AperFunction,SMDPad,CuDef*%
%ADD12RoundRect,0.250000X0.425000X1.600000X-0.425000X1.600000X-0.425000X-1.600000X0.425000X-1.600000X0*%
%TD*%
%TA.AperFunction,ComponentPad*%
%ADD13C,1.600000*%
%TD*%
%TA.AperFunction,ComponentPad*%
%ADD14C,2.000000*%
%TD*%
%TA.AperFunction,ComponentPad*%
%ADD15RoundRect,0.250000X0.750000X-0.600000X0.750000X0.600000X-0.750000X0.600000X-0.750000X-0.600000X0*%
%TD*%
%TA.AperFunction,ComponentPad*%
%ADD16O,2.000000X1.700000*%
%TD*%
%TA.AperFunction,ComponentPad*%
%ADD17R,2.000000X2.000000*%
%TD*%
%TA.AperFunction,ComponentPad*%
%ADD18RoundRect,0.250000X-0.550000X0.550000X-0.550000X-0.550000X0.550000X-0.550000X0.550000X0.550000X0*%
%TD*%
%TA.AperFunction,ViaPad*%
%ADD19C,0.600000*%
%TD*%
%TA.AperFunction,Conductor*%
%ADD20C,0.250000*%
%TD*%
%TA.AperFunction,Conductor*%
%ADD21C,0.500000*%
%TD*%
%TA.AperFunction,Conductor*%
%ADD22C,1.000000*%
%TD*%
G04 APERTURE END LIST*
D10*
%TO.P,ILI1,1,VCC*%
%TO.N,+5VA*%
X64770000Y-71120000D03*
D11*
%TO.P,ILI1,2,GND*%
%TO.N,GND*%
X64770000Y-73660000D03*
%TO.P,ILI1,3,CS*%
%TO.N,/10*%
X64770000Y-76200000D03*
%TO.P,ILI1,4,RESET*%
%TO.N,/14*%
X64770000Y-78740000D03*
%TO.P,ILI1,5,DC/RS*%
%TO.N,/9*%
X64770000Y-81280000D03*
%TO.P,ILI1,6,SDI(MOSI)*%
%TO.N,/11*%
X64770000Y-83820000D03*
%TO.P,ILI1,7,SCK*%
%TO.N,/12*%
X64770000Y-86360000D03*
%TO.P,ILI1,8,LED*%
%TO.N,/2*%
X64770000Y-88900000D03*
%TO.P,ILI1,9,SDO(MISO)*%
%TO.N,unconnected-(ILI1-SDO(MISO)-Pad9)*%
X64770000Y-91440000D03*
%TO.P,ILI1,10,T_CLK*%
%TO.N,/36*%
X64770000Y-93980000D03*
%TO.P,ILI1,11,T_CS*%
%TO.N,/5*%
X64770000Y-96520000D03*
%TO.P,ILI1,12,T_DIN*%
%TO.N,/35*%
X64770000Y-99060000D03*
%TO.P,ILI1,13,T_DO*%
%TO.N,/37*%
X64770000Y-101600000D03*
%TO.P,ILI1,14,T_IRQ*%
%TO.N,/4*%
X64770000Y-104140000D03*
%TO.P,ILI1,15*%
%TO.N,N/C*%
X158750000Y-83820000D03*
%TO.P,ILI1,16*%
X158750000Y-86360000D03*
%TO.P,ILI1,17*%
X158750000Y-88900000D03*
%TO.P,ILI1,18*%
X158750000Y-91440000D03*
%TD*%
D12*
%TO.P,J3,2,Ext*%
%TO.N,GND*%
X71365000Y-59112500D03*
X77015000Y-59112500D03*
%TD*%
D10*
%TO.P,NEO-M8N1,1,VCC*%
%TO.N,+5V*%
X138938000Y-76962000D03*
D11*
%TO.P,NEO-M8N1,2,GND*%
%TO.N,GND*%
X141478000Y-76962000D03*
%TO.P,NEO-M8N1,3,TXD*%
%TO.N,/17*%
X144018000Y-76962000D03*
%TO.P,NEO-M8N1,4,RXD*%
%TO.N,/18*%
X146558000Y-76962000D03*
%TO.P,NEO-M8N1,5,PPS*%
%TO.N,unconnected-(NEO-M8N1-PPS-Pad5)*%
X149098000Y-76962000D03*
%TD*%
D10*
%TO.P,BMP1,1,VCC*%
%TO.N,+5V*%
X79253600Y-99027600D03*
D11*
%TO.P,BMP1,2,GND*%
%TO.N,GND*%
X79253600Y-96487600D03*
%TO.P,BMP1,3,SCL*%
%TO.N,/16*%
X79253600Y-93947600D03*
%TO.P,BMP1,4,SDA*%
%TO.N,/15*%
X79253600Y-91407600D03*
%TO.P,BMP1,5,CSE*%
%TO.N,unconnected-(BMP1-CSE-Pad5)*%
X79253600Y-88867600D03*
%TO.P,BMP1,6,SDO*%
%TO.N,unconnected-(BMP1-SDO-Pad6)*%
X79253600Y-86327600D03*
%TD*%
D10*
%TO.P,ESP32-S3-N16R1,1,3V3*%
%TO.N,+3V3*%
X99060000Y-66040000D03*
D11*
%TO.P,ESP32-S3-N16R1,2,3V3*%
X99060000Y-68580000D03*
%TO.P,ESP32-S3-N16R1,3,RST*%
%TO.N,Net-(ESP32-S3-N16R1-RST)*%
X99060000Y-71120000D03*
%TO.P,ESP32-S3-N16R1,4,GPIO4*%
%TO.N,/4*%
X99060000Y-73660000D03*
%TO.P,ESP32-S3-N16R1,5,GPIO5*%
%TO.N,/5*%
X99060000Y-76200000D03*
%TO.P,ESP32-S3-N16R1,6,GPIO6*%
%TO.N,/6*%
X99060000Y-78740000D03*
%TO.P,ESP32-S3-N16R1,7,GPIO7*%
%TO.N,/7*%
X99060000Y-81280000D03*
%TO.P,ESP32-S3-N16R1,8,GPIO15*%
%TO.N,/15*%
X99060000Y-83820000D03*
%TO.P,ESP32-S3-N16R1,9,GPIO16*%
%TO.N,/16*%
X99060000Y-86360000D03*
%TO.P,ESP32-S3-N16R1,10,GPIO17*%
%TO.N,/17*%
X99060000Y-88900000D03*
%TO.P,ESP32-S3-N16R1,11,GPIO18*%
%TO.N,/18*%
X99060000Y-91440000D03*
%TO.P,ESP32-S3-N16R1,12,GPIO8*%
%TO.N,/8*%
X99060000Y-93980000D03*
%TO.P,ESP32-S3-N16R1,13,GPIO3*%
%TO.N,unconnected-(ESP32-S3-N16R1-GPIO3-Pad13)*%
X99060000Y-96520000D03*
%TO.P,ESP32-S3-N16R1,14,GPIO46*%
%TO.N,unconnected-(ESP32-S3-N16R1-GPIO46-Pad14)*%
X99060000Y-99060000D03*
%TO.P,ESP32-S3-N16R1,15,GPIO9*%
%TO.N,/9*%
X99060000Y-101600000D03*
%TO.P,ESP32-S3-N16R1,16,GPIO10*%
%TO.N,/10*%
X99060000Y-104140000D03*
%TO.P,ESP32-S3-N16R1,17,GPIO11*%
%TO.N,/11*%
X99060000Y-106680000D03*
%TO.P,ESP32-S3-N16R1,18,GPIO12*%
%TO.N,/12*%
X99060000Y-109220000D03*
%TO.P,ESP32-S3-N16R1,19,GPIO13*%
%TO.N,/13*%
X99060000Y-111760000D03*
%TO.P,ESP32-S3-N16R1,20,GPIO14*%
%TO.N,/14*%
X99060000Y-114300000D03*
%TO.P,ESP32-S3-N16R1,21,5V*%
%TO.N,+5VA*%
X99060000Y-116840000D03*
%TO.P,ESP32-S3-N16R1,22,GND*%
%TO.N,GND*%
X99060000Y-119380000D03*
%TO.P,ESP32-S3-N16R1,23,GND*%
X124460000Y-66040000D03*
%TO.P,ESP32-S3-N16R1,24,GPIO43*%
%TO.N,unconnected-(ESP32-S3-N16R1-GPIO43-Pad24)*%
X124460000Y-68580000D03*
%TO.P,ESP32-S3-N16R1,25,GPIO44*%
%TO.N,unconnected-(ESP32-S3-N16R1-GPIO44-Pad25)*%
X124460000Y-71120000D03*
%TO.P,ESP32-S3-N16R1,26,GPIO1*%
%TO.N,/1*%
X124460000Y-73660000D03*
%TO.P,ESP32-S3-N16R1,27,GPIO2*%
%TO.N,/2*%
X124460000Y-76200000D03*
%TO.P,ESP32-S3-N16R1,28,GPIO42*%
%TO.N,unconnected-(ESP32-S3-N16R1-GPIO42-Pad28)*%
X124460000Y-78740000D03*
%TO.P,ESP32-S3-N16R1,29,GPIO41*%
%TO.N,unconnected-(ESP32-S3-N16R1-GPIO41-Pad29)*%
X124460000Y-81280000D03*
%TO.P,ESP32-S3-N16R1,30,GPIO40*%
%TO.N,unconnected-(ESP32-S3-N16R1-GPIO40-Pad30)*%
X124460000Y-83820000D03*
%TO.P,ESP32-S3-N16R1,31,GPIO39*%
%TO.N,unconnected-(ESP32-S3-N16R1-GPIO39-Pad31)*%
X124460000Y-86360000D03*
%TO.P,ESP32-S3-N16R1,32,GPIO38*%
%TO.N,unconnected-(ESP32-S3-N16R1-GPIO38-Pad32)*%
X124460000Y-88900000D03*
%TO.P,ESP32-S3-N16R1,33,GPIO37*%
%TO.N,/37*%
X124460000Y-91440000D03*
%TO.P,ESP32-S3-N16R1,34,GPIO36*%
%TO.N,/36*%
X124460000Y-93980000D03*
%TO.P,ESP32-S3-N16R1,35,GPIO35*%
%TO.N,/35*%
X124460000Y-96520000D03*
%TO.P,ESP32-S3-N16R1,36,GPIO0*%
%TO.N,unconnected-(ESP32-S3-N16R1-GPIO0-Pad36)*%
X124460000Y-99060000D03*
%TO.P,ESP32-S3-N16R1,37,GPIO45*%
%TO.N,unconnected-(ESP32-S3-N16R1-GPIO45-Pad37)*%
X124460000Y-101600000D03*
%TO.P,ESP32-S3-N16R1,38,GPIO48*%
%TO.N,unconnected-(ESP32-S3-N16R1-GPIO48-Pad38)*%
X124460000Y-104140000D03*
%TO.P,ESP32-S3-N16R1,39,GPIO47*%
%TO.N,unconnected-(ESP32-S3-N16R1-GPIO47-Pad39)*%
X124460000Y-106680000D03*
%TO.P,ESP32-S3-N16R1,40,GPIO21*%
%TO.N,unconnected-(ESP32-S3-N16R1-GPIO21-Pad40)*%
X124460000Y-109220000D03*
%TO.P,ESP32-S3-N16R1,41,GPIO20*%
%TO.N,unconnected-(ESP32-S3-N16R1-GPIO20-Pad41)*%
X124460000Y-111760000D03*
%TO.P,ESP32-S3-N16R1,42,GPIO19*%
%TO.N,unconnected-(ESP32-S3-N16R1-GPIO19-Pad42)*%
X124460000Y-114300000D03*
%TO.P,ESP32-S3-N16R1,43,GND*%
%TO.N,GND*%
X124460000Y-116840000D03*
%TO.P,ESP32-S3-N16R1,44,GND*%
X124460000Y-119380000D03*
%TD*%
D10*
%TO.P,BUCK-CONVERTER2,1,EN*%
%TO.N,/13*%
X148684000Y-99572000D03*
D11*
%TO.P,BUCK-CONVERTER2,2,IN+*%
%TO.N,Net-(BUCK-CONVERTER1-IN+)*%
X148684000Y-97032000D03*
%TO.P,BUCK-CONVERTER2,3,GND*%
%TO.N,GND*%
X148684000Y-94492000D03*
%TO.P,BUCK-CONVERTER2,4,VO+*%
%TO.N,+5V*%
X148684000Y-91952000D03*
%TD*%
D13*
%TO.P,C2,1*%
%TO.N,Net-(ESP32-S3-N16R1-RST)*%
X69810000Y-111760000D03*
%TO.P,C2,2*%
%TO.N,GND*%
X64810000Y-111760000D03*
%TD*%
D14*
%TO.P,SW1,1,1*%
%TO.N,GND*%
X72240000Y-117166000D03*
X78740000Y-117166000D03*
%TO.P,SW1,2,2*%
%TO.N,Net-(ESP32-S3-N16R1-RST)*%
X72240000Y-121666000D03*
X78740000Y-121666000D03*
%TD*%
D10*
%TO.P,BUCK-CONVERTER1,1,EN*%
%TO.N,unconnected-(BUCK-CONVERTER1-EN-Pad1)*%
X148684000Y-111672000D03*
D11*
%TO.P,BUCK-CONVERTER1,2,IN+*%
%TO.N,Net-(BUCK-CONVERTER1-IN+)*%
X148684000Y-109132000D03*
%TO.P,BUCK-CONVERTER1,3,GND*%
%TO.N,GND*%
X148684000Y-106592000D03*
%TO.P,BUCK-CONVERTER1,4,VO+*%
%TO.N,+5VA*%
X148684000Y-104052000D03*
%TD*%
D13*
%TO.P,R2,1*%
%TO.N,+3V3*%
X83312000Y-111760000D03*
%TO.P,R2,2*%
%TO.N,Net-(ESP32-S3-N16R1-RST)*%
X73152000Y-111760000D03*
%TD*%
D10*
%TO.P,HMC1,1,VCC*%
%TO.N,+5V*%
X93901400Y-86639400D03*
D11*
%TO.P,HMC1,2,GND*%
%TO.N,GND*%
X91361400Y-86639400D03*
%TO.P,HMC1,3,SCL*%
%TO.N,/16*%
X88821400Y-86639400D03*
%TO.P,HMC1,4,SDA*%
%TO.N,/15*%
X86281400Y-86639400D03*
%TO.P,HMC1,5,DRDY*%
%TO.N,unconnected-(HMC1-DRDY-Pad5)*%
X83741400Y-86639400D03*
%TD*%
D13*
%TO.P,R1,1*%
%TO.N,/4*%
X73152000Y-108458000D03*
%TO.P,R1,2*%
%TO.N,+3V3*%
X83312000Y-108458000D03*
%TD*%
D10*
%TO.P,CN1,1,VIN*%
%TO.N,Net-(CN1-VIN)*%
X144780000Y-120738000D03*
%TO.P,CN1,2,GND*%
%TO.N,GND*%
X129540000Y-120738000D03*
%TO.P,CN1,3,GND*%
X139700000Y-87338000D03*
%TO.P,CN1,4,BAT*%
%TO.N,Net-(BUCK-CONVERTER1-IN+)*%
X134620000Y-87338000D03*
%TD*%
D15*
%TO.P,J1,1,Pin_1*%
%TO.N,Net-(INA1-VIN+)*%
X157581600Y-100859600D03*
D16*
%TO.P,J1,2,Pin_2*%
%TO.N,GND*%
X157581600Y-98359600D03*
%TD*%
D15*
%TO.P,J2,1,Pin_1*%
%TO.N,Net-(CN1-VIN)*%
X157581600Y-111720000D03*
D16*
%TO.P,J2,2,Pin_2*%
%TO.N,GND*%
X157581600Y-109220000D03*
%TD*%
D17*
%TO.P,BZ1,1,+*%
%TO.N,/1*%
X115296000Y-72390000D03*
D14*
%TO.P,BZ1,2,-*%
%TO.N,GND*%
X107696000Y-72390000D03*
%TD*%
D18*
%TO.P,C1,1*%
%TO.N,+3V3*%
X87122000Y-58968000D03*
D13*
%TO.P,C1,2*%
%TO.N,GND*%
X87122000Y-62768000D03*
%TD*%
D10*
%TO.P,INA1,1,VCC*%
%TO.N,+5V*%
X131013200Y-79502000D03*
D11*
%TO.P,INA1,2,GND*%
%TO.N,GND*%
X131013200Y-76962000D03*
%TO.P,INA1,3,SCL*%
%TO.N,/16*%
X131013200Y-74422000D03*
%TO.P,INA1,4,SDA*%
%TO.N,/15*%
X131013200Y-71882000D03*
%TO.P,INA1,5,VIN-*%
%TO.N,Net-(BUCK-CONVERTER1-IN+)*%
X131013200Y-69342000D03*
%TO.P,INA1,6,VIN+*%
%TO.N,Net-(INA1-VIN+)*%
X131013200Y-66802000D03*
%TD*%
D19*
%TO.N,GND*%
X71120000Y-102870000D03*
X118745000Y-86360000D03*
X110490000Y-64770000D03*
X105410000Y-64770000D03*
X111760000Y-114300000D03*
X69910000Y-61750000D03*
X96520000Y-109220000D03*
X103505000Y-88900000D03*
X78700000Y-59070000D03*
X119380000Y-64770000D03*
X97155000Y-87630000D03*
X77010000Y-62000000D03*
X71320000Y-61980000D03*
X104140000Y-64770000D03*
X113030000Y-64770000D03*
X110490000Y-104140000D03*
X69700000Y-57820000D03*
X118110000Y-114300000D03*
X106680000Y-64770000D03*
X119380000Y-95250000D03*
X69850000Y-104140000D03*
X105410000Y-114300000D03*
X111760000Y-64770000D03*
X78700000Y-60340000D03*
X118745000Y-88900000D03*
X103505000Y-91440000D03*
X116840000Y-64770000D03*
X71120000Y-104140000D03*
X101600000Y-64770000D03*
X118110000Y-64770000D03*
X81280000Y-92710000D03*
X92913200Y-81330800D03*
X145415000Y-86360000D03*
X111760000Y-104140000D03*
X102870000Y-83820000D03*
X120650000Y-64770000D03*
X69700000Y-60360000D03*
X110490000Y-102870000D03*
X109220000Y-64770000D03*
X78700000Y-57800000D03*
X107950000Y-64770000D03*
X133350000Y-91440000D03*
X121920000Y-64770000D03*
X78460000Y-61730000D03*
X115570000Y-64770000D03*
X69850000Y-102870000D03*
X101600000Y-72390000D03*
X102870000Y-64770000D03*
X96520000Y-107950000D03*
X111760000Y-102870000D03*
X114300000Y-64770000D03*
X69700000Y-59090000D03*
%TO.N,+5VA*%
X92176600Y-116840000D03*
%TO.N,/2*%
X91424600Y-106426000D03*
X127101600Y-114604800D03*
%TO.N,/10*%
X91462842Y-100838000D03*
%TO.N,/14*%
X91414600Y-102616000D03*
%TO.N,/9*%
X90170000Y-103886000D03*
%TO.N,/12*%
X91424600Y-105156000D03*
%TO.N,/35*%
X90160000Y-76040000D03*
%TO.N,/11*%
X91424600Y-103886000D03*
%TO.N,/37*%
X90160000Y-78040000D03*
%TO.N,/36*%
X90160000Y-74040000D03*
%TD*%
D20*
%TO.N,/18*%
X100330000Y-92710000D02*
X99060000Y-91440000D01*
X142265400Y-92710000D02*
X100330000Y-92710000D01*
X146558000Y-76962000D02*
X146558000Y-88417400D01*
X146558000Y-88417400D02*
X142265400Y-92710000D01*
%TO.N,/17*%
X141097000Y-90170000D02*
X100330000Y-90170000D01*
X100330000Y-90170000D02*
X99060000Y-88900000D01*
X144018000Y-76962000D02*
X144018000Y-87249000D01*
X144018000Y-87249000D02*
X141097000Y-90170000D01*
D21*
%TO.N,+5VA*%
X92176600Y-116840000D02*
X99060000Y-116840000D01*
D22*
%TO.N,Net-(BUCK-CONVERTER1-IN+)*%
X134620000Y-70332600D02*
X134620000Y-87338000D01*
X131013200Y-69342000D02*
X133629400Y-69342000D01*
X133629400Y-69342000D02*
X134620000Y-70332600D01*
D20*
%TO.N,/13*%
X129032000Y-113030000D02*
X142490000Y-99572000D01*
X142490000Y-99572000D02*
X148684000Y-99572000D01*
X99060000Y-111760000D02*
X100330000Y-113030000D01*
X100330000Y-113030000D02*
X129032000Y-113030000D01*
D21*
%TO.N,+3V3*%
X99060000Y-68580000D02*
X99060000Y-66040000D01*
X89371800Y-58968000D02*
X96469200Y-66065400D01*
X87122000Y-58968000D02*
X89371800Y-58968000D01*
X96469200Y-66065400D02*
X99034600Y-66065400D01*
X99034600Y-66065400D02*
X99060000Y-66040000D01*
D20*
%TO.N,Net-(ESP32-S3-N16R1-RST)*%
X69810000Y-111760000D02*
X73152000Y-111760000D01*
X67894200Y-90170000D02*
X63728600Y-90170000D01*
X62661800Y-104611800D02*
X62661800Y-91236800D01*
X87020400Y-71043800D02*
X67894200Y-90170000D01*
X75184000Y-118722000D02*
X75184000Y-113792000D01*
X63728600Y-90170000D02*
X62661800Y-91236800D01*
X98983800Y-71043800D02*
X87020400Y-71043800D01*
X69810000Y-111760000D02*
X62661800Y-104611800D01*
X75184000Y-113792000D02*
X73152000Y-111760000D01*
X99060000Y-71120000D02*
X98983800Y-71043800D01*
X72240000Y-121666000D02*
X75184000Y-118722000D01*
%TO.N,/2*%
X96799400Y-115570000D02*
X95980400Y-114751000D01*
X126136400Y-115570000D02*
X96799400Y-115570000D01*
X91424600Y-110195200D02*
X91424600Y-106426000D01*
X127101600Y-114604800D02*
X126136400Y-115570000D01*
X95980400Y-114751000D02*
X95977590Y-114751000D01*
X92690800Y-111461400D02*
X91424600Y-110195200D01*
X95977590Y-114751000D02*
X92690800Y-111464210D01*
X92690800Y-111464210D02*
X92690800Y-111461400D01*
%TO.N,/5*%
X97866200Y-75006200D02*
X99060000Y-76200000D01*
X84381610Y-75006200D02*
X97866200Y-75006200D01*
X71792800Y-87595010D02*
X84381610Y-75006200D01*
X64770000Y-96520000D02*
X71792800Y-89497200D01*
X71792800Y-89497200D02*
X71792800Y-87595010D01*
%TO.N,/10*%
X91462842Y-100838000D02*
X92710000Y-100838000D01*
X92710000Y-100838000D02*
X96012000Y-104140000D01*
X96012000Y-104140000D02*
X99060000Y-104140000D01*
%TO.N,/4*%
X100914200Y-73660000D02*
X99060000Y-73660000D01*
X102387400Y-75133200D02*
X100914200Y-73660000D01*
X81330800Y-80010000D02*
X100965000Y-80010000D01*
X69088000Y-108458000D02*
X64770000Y-104140000D01*
X73152000Y-95758000D02*
X73152000Y-88188800D01*
X73152000Y-108458000D02*
X69088000Y-108458000D01*
X64770000Y-104140000D02*
X73152000Y-95758000D01*
X73152000Y-88188800D02*
X81330800Y-80010000D01*
X102387400Y-78587600D02*
X102387400Y-75133200D01*
X100965000Y-80010000D02*
X102387400Y-78587600D01*
%TO.N,/14*%
X97282000Y-114300000D02*
X99060000Y-114300000D01*
X93141800Y-110159800D02*
X97282000Y-114300000D01*
X93141800Y-104419400D02*
X93141800Y-110159800D01*
X91414600Y-102616000D02*
X91414600Y-102692200D01*
X91414600Y-102692200D02*
X93141800Y-104419400D01*
%TO.N,/9*%
X93549605Y-100177600D02*
X91132390Y-100177600D01*
X90201600Y-101111200D02*
X90170000Y-101142800D01*
X90201600Y-101108390D02*
X90201600Y-101111200D01*
X94972005Y-101600000D02*
X93549605Y-100177600D01*
X91132390Y-100177600D02*
X90201600Y-101108390D01*
X99060000Y-101600000D02*
X94972005Y-101600000D01*
X90170000Y-101142800D02*
X90170000Y-103886000D01*
%TO.N,/12*%
X89382600Y-104419400D02*
X89382600Y-101289580D01*
X91424600Y-105156000D02*
X90119200Y-105156000D01*
X100253800Y-100330000D02*
X102362000Y-102438200D01*
X99720400Y-109220000D02*
X99060000Y-109220000D01*
X102362000Y-102438200D02*
X102362000Y-106578400D01*
X90119200Y-105156000D02*
X89382600Y-104419400D01*
X90945580Y-99726600D02*
X94220420Y-99726600D01*
X94823820Y-100330000D02*
X100253800Y-100330000D01*
X102362000Y-106578400D02*
X99720400Y-109220000D01*
X94220420Y-99726600D02*
X94823820Y-100330000D01*
X89382600Y-101289580D02*
X90945580Y-99726600D01*
%TO.N,/35*%
X83985620Y-76040000D02*
X72243800Y-87781820D01*
X72243800Y-91586200D02*
X64770000Y-99060000D01*
X72243800Y-87781820D02*
X72243800Y-91586200D01*
X90160000Y-76040000D02*
X83985620Y-76040000D01*
%TO.N,/15*%
X86281400Y-86639400D02*
X89100800Y-83820000D01*
X100330000Y-85090000D02*
X99060000Y-83820000D01*
X124923826Y-85090000D02*
X100330000Y-85090000D01*
X79253600Y-91407600D02*
X81513200Y-91407600D01*
X131013200Y-71882000D02*
X126669800Y-76225400D01*
X126669800Y-83344026D02*
X124923826Y-85090000D01*
X126669800Y-76225400D02*
X126669800Y-83344026D01*
X81513200Y-91407600D02*
X86281400Y-86639400D01*
X89100800Y-83820000D02*
X99060000Y-83820000D01*
%TO.N,/11*%
X91186000Y-101600000D02*
X91948000Y-101600000D01*
X99745800Y-106680000D02*
X99060000Y-106680000D01*
X91948000Y-101600000D02*
X97028000Y-106680000D01*
X97028000Y-106680000D02*
X99060000Y-106680000D01*
X90621000Y-102165000D02*
X91186000Y-101600000D01*
X90621000Y-103082400D02*
X90621000Y-102165000D01*
X91424600Y-103886000D02*
X90621000Y-103082400D01*
%TO.N,/16*%
X97434400Y-84734400D02*
X99060000Y-86360000D01*
X79253600Y-93947600D02*
X81513200Y-93947600D01*
X90726400Y-84734400D02*
X97434400Y-84734400D01*
X128219200Y-77216000D02*
X128219200Y-84334626D01*
X131013200Y-74422000D02*
X128219200Y-77216000D01*
X100330000Y-87630000D02*
X99060000Y-86360000D01*
X128219200Y-84334626D02*
X124923826Y-87630000D01*
X88821400Y-86639400D02*
X90726400Y-84734400D01*
X124923826Y-87630000D02*
X100330000Y-87630000D01*
X81513200Y-93947600D02*
X88821400Y-86639400D01*
%TO.N,/37*%
X72694800Y-93675200D02*
X64770000Y-101600000D01*
X90160000Y-78040000D02*
X82623430Y-78040000D01*
X72694800Y-87968630D02*
X72694800Y-93675200D01*
X82623430Y-78040000D02*
X72694800Y-87968630D01*
%TO.N,/36*%
X84710000Y-74040000D02*
X90160000Y-74040000D01*
X64770000Y-93980000D02*
X84710000Y-74040000D01*
%TD*%
%TA.AperFunction,Conductor*%
%TO.N,GND*%
G36*
X123093205Y-113675185D02*
G01*
X123138960Y-113727989D01*
X123148904Y-113797147D01*
X123144097Y-113817818D01*
X123093985Y-113972047D01*
X123059500Y-114189778D01*
X123059500Y-114410221D01*
X123093985Y-114627952D01*
X123144097Y-114782182D01*
X123146092Y-114852023D01*
X123110011Y-114911856D01*
X123047310Y-114942684D01*
X123026166Y-114944500D01*
X100493834Y-114944500D01*
X100426795Y-114924815D01*
X100381040Y-114872011D01*
X100371096Y-114802853D01*
X100375903Y-114782182D01*
X100426015Y-114627951D01*
X100460500Y-114410222D01*
X100460500Y-114189778D01*
X100426015Y-113972049D01*
X100375902Y-113817817D01*
X100373908Y-113747977D01*
X100409989Y-113688144D01*
X100472690Y-113657316D01*
X100493834Y-113655500D01*
X123026166Y-113655500D01*
X123093205Y-113675185D01*
G37*
%TD.AperFunction*%
%TA.AperFunction,Conductor*%
G36*
X93972503Y-104509539D02*
G01*
X93978981Y-104515571D01*
X96539016Y-107075606D01*
X96539045Y-107075637D01*
X96629264Y-107165856D01*
X96629267Y-107165858D01*
X96686201Y-107203900D01*
X96731715Y-107234312D01*
X96798397Y-107261932D01*
X96803376Y-107263994D01*
X96803383Y-107263998D01*
X96840164Y-107279233D01*
X96845548Y-107281463D01*
X96905971Y-107293481D01*
X96966393Y-107305500D01*
X96966394Y-107305500D01*
X97730903Y-107305500D01*
X97797942Y-107325185D01*
X97841387Y-107373203D01*
X97860399Y-107410517D01*
X97862187Y-107414026D01*
X97991752Y-107592358D01*
X97991756Y-107592363D01*
X98147636Y-107748243D01*
X98147641Y-107748247D01*
X98287254Y-107849682D01*
X98329920Y-107905012D01*
X98335899Y-107974625D01*
X98303293Y-108036420D01*
X98287254Y-108050318D01*
X98147641Y-108151752D01*
X98147636Y-108151756D01*
X97991756Y-108307636D01*
X97991752Y-108307641D01*
X97862187Y-108485974D01*
X97762104Y-108682393D01*
X97762103Y-108682396D01*
X97693985Y-108892047D01*
X97659500Y-109109778D01*
X97659500Y-109330221D01*
X97693985Y-109547952D01*
X97762103Y-109757603D01*
X97762104Y-109757606D01*
X97826888Y-109884748D01*
X97853058Y-109936110D01*
X97862187Y-109954025D01*
X97991752Y-110132358D01*
X97991756Y-110132363D01*
X98147634Y-110288241D01*
X98147641Y-110288247D01*
X98287254Y-110389682D01*
X98329920Y-110445012D01*
X98335899Y-110514625D01*
X98303293Y-110576420D01*
X98287254Y-110590318D01*
X98147641Y-110691752D01*
X98147636Y-110691756D01*
X97991756Y-110847636D01*
X97991752Y-110847641D01*
X97862187Y-111025974D01*
X97762104Y-111222393D01*
X97762103Y-111222396D01*
X97693985Y-111432047D01*
X97659500Y-111649778D01*
X97659500Y-111870221D01*
X97693985Y-112087952D01*
X97762103Y-112297603D01*
X97762104Y-112297606D01*
X97815127Y-112401666D01*
X97858057Y-112485921D01*
X97862187Y-112494025D01*
X97991752Y-112672358D01*
X97991756Y-112672363D01*
X98147636Y-112828243D01*
X98147641Y-112828247D01*
X98287254Y-112929682D01*
X98329920Y-112985012D01*
X98335899Y-113054625D01*
X98303293Y-113116420D01*
X98287254Y-113130318D01*
X98147641Y-113231752D01*
X98147636Y-113231756D01*
X97991756Y-113387636D01*
X97991752Y-113387641D01*
X97862187Y-113565973D01*
X97841388Y-113606795D01*
X97830938Y-113617859D01*
X97824616Y-113631703D01*
X97807436Y-113642743D01*
X97793414Y-113657591D01*
X97777732Y-113661832D01*
X97765838Y-113669477D01*
X97730903Y-113674500D01*
X97592452Y-113674500D01*
X97525413Y-113654815D01*
X97504771Y-113638181D01*
X93803619Y-109937029D01*
X93770134Y-109875706D01*
X93767300Y-109849348D01*
X93767300Y-104603252D01*
X93786985Y-104536213D01*
X93839789Y-104490458D01*
X93908947Y-104480514D01*
X93972503Y-104509539D01*
G37*
%TD.AperFunction*%
%TA.AperFunction,Conductor*%
G36*
X123053152Y-93343424D02*
G01*
X123080877Y-93348222D01*
X123086233Y-93353137D01*
X123093205Y-93355185D01*
X123111622Y-93376439D01*
X123132353Y-93395466D01*
X123134201Y-93402496D01*
X123138960Y-93407989D01*
X123142963Y-93435834D01*
X123150115Y-93463041D01*
X123148345Y-93473264D01*
X123148904Y-93477147D01*
X123144097Y-93497818D01*
X123093985Y-93652047D01*
X123059500Y-93869778D01*
X123059500Y-94090221D01*
X123093985Y-94307952D01*
X123162103Y-94517603D01*
X123162104Y-94517606D01*
X123262187Y-94714025D01*
X123391752Y-94892358D01*
X123391756Y-94892363D01*
X123547636Y-95048243D01*
X123547641Y-95048247D01*
X123687254Y-95149682D01*
X123729920Y-95205012D01*
X123735899Y-95274625D01*
X123703293Y-95336420D01*
X123687254Y-95350318D01*
X123547641Y-95451752D01*
X123547636Y-95451756D01*
X123391756Y-95607636D01*
X123391752Y-95607641D01*
X123262187Y-95785974D01*
X123162104Y-95982393D01*
X123162103Y-95982396D01*
X123093985Y-96192047D01*
X123059500Y-96409778D01*
X123059500Y-96630221D01*
X123093985Y-96847952D01*
X123162103Y-97057603D01*
X123162104Y-97057606D01*
X123262187Y-97254025D01*
X123391752Y-97432358D01*
X123391756Y-97432363D01*
X123547636Y-97588243D01*
X123547641Y-97588247D01*
X123687254Y-97689682D01*
X123729920Y-97745012D01*
X123735899Y-97814625D01*
X123703293Y-97876420D01*
X123687254Y-97890318D01*
X123547641Y-97991752D01*
X123547636Y-97991756D01*
X123391756Y-98147636D01*
X123391752Y-98147641D01*
X123262187Y-98325974D01*
X123162104Y-98522393D01*
X123162103Y-98522396D01*
X123093985Y-98732047D01*
X123069041Y-98889539D01*
X123059500Y-98949778D01*
X123059500Y-99170222D01*
X123059982Y-99173267D01*
X123093985Y-99387952D01*
X123162103Y-99597603D01*
X123162104Y-99597606D01*
X123215645Y-99702684D01*
X123252843Y-99775688D01*
X123262187Y-99794025D01*
X123391752Y-99972358D01*
X123391756Y-99972363D01*
X123547636Y-100128243D01*
X123547641Y-100128247D01*
X123687254Y-100229682D01*
X123729920Y-100285012D01*
X123735899Y-100354625D01*
X123703293Y-100416420D01*
X123687254Y-100430318D01*
X123547641Y-100531752D01*
X123547636Y-100531756D01*
X123391756Y-100687636D01*
X123391752Y-100687641D01*
X123262187Y-100865974D01*
X123162104Y-101062393D01*
X123162103Y-101062396D01*
X123093985Y-101272047D01*
X123072389Y-101408401D01*
X123059500Y-101489778D01*
X123059500Y-101710222D01*
X123070383Y-101778934D01*
X123093985Y-101927952D01*
X123162103Y-102137603D01*
X123162104Y-102137606D01*
X123226690Y-102264359D01*
X123241387Y-102293205D01*
X123262187Y-102334025D01*
X123391752Y-102512358D01*
X123391756Y-102512363D01*
X123547636Y-102668243D01*
X123547641Y-102668247D01*
X123687254Y-102769682D01*
X123729920Y-102825012D01*
X123735899Y-102894625D01*
X123703293Y-102956420D01*
X123687254Y-102970318D01*
X123547641Y-103071752D01*
X123547636Y-103071756D01*
X123391756Y-103227636D01*
X123391752Y-103227641D01*
X123262187Y-103405974D01*
X123162104Y-103602393D01*
X123162103Y-103602396D01*
X123093985Y-103812047D01*
X123059500Y-104029778D01*
X123059500Y-104250221D01*
X123093985Y-104467952D01*
X123162103Y-104677603D01*
X123162104Y-104677606D01*
X123212658Y-104776821D01*
X123241387Y-104833205D01*
X123262187Y-104874025D01*
X123391752Y-105052358D01*
X123391756Y-105052363D01*
X123547636Y-105208243D01*
X123547641Y-105208247D01*
X123687254Y-105309682D01*
X123729920Y-105365012D01*
X123735899Y-105434625D01*
X123703293Y-105496420D01*
X123687254Y-105510318D01*
X123547641Y-105611752D01*
X123547636Y-105611756D01*
X123391756Y-105767636D01*
X123391752Y-105767641D01*
X123262187Y-105945974D01*
X123162104Y-106142393D01*
X123162103Y-106142396D01*
X123093985Y-106352047D01*
X123059500Y-106569778D01*
X123059500Y-106790221D01*
X123093985Y-107007952D01*
X123162103Y-107217603D01*
X123162104Y-107217606D01*
X123216920Y-107325185D01*
X123249697Y-107389514D01*
X123262187Y-107414025D01*
X123391752Y-107592358D01*
X123391756Y-107592363D01*
X123547636Y-107748243D01*
X123547641Y-107748247D01*
X123687254Y-107849682D01*
X123729920Y-107905012D01*
X123735899Y-107974625D01*
X123703293Y-108036420D01*
X123687254Y-108050318D01*
X123547641Y-108151752D01*
X123547636Y-108151756D01*
X123391756Y-108307636D01*
X123391752Y-108307641D01*
X123262187Y-108485974D01*
X123162104Y-108682393D01*
X123162103Y-108682396D01*
X123093985Y-108892047D01*
X123059500Y-109109778D01*
X123059500Y-109330221D01*
X123093985Y-109547952D01*
X123162103Y-109757603D01*
X123162104Y-109757606D01*
X123226888Y-109884748D01*
X123253058Y-109936110D01*
X123262187Y-109954025D01*
X123391752Y-110132358D01*
X123391756Y-110132363D01*
X123547634Y-110288241D01*
X123547641Y-110288247D01*
X123687254Y-110389682D01*
X123729920Y-110445012D01*
X123735899Y-110514625D01*
X123703293Y-110576420D01*
X123687254Y-110590318D01*
X123547641Y-110691752D01*
X123547636Y-110691756D01*
X123391756Y-110847636D01*
X123391752Y-110847641D01*
X123262187Y-111025974D01*
X123162104Y-111222393D01*
X123162103Y-111222396D01*
X123093985Y-111432047D01*
X123059500Y-111649778D01*
X123059500Y-111870221D01*
X123093985Y-112087952D01*
X123144097Y-112242182D01*
X123146092Y-112312023D01*
X123110011Y-112371856D01*
X123047310Y-112402684D01*
X123026166Y-112404500D01*
X100640452Y-112404500D01*
X100611011Y-112395855D01*
X100581025Y-112389332D01*
X100576009Y-112385577D01*
X100573413Y-112384815D01*
X100552771Y-112368181D01*
X100442108Y-112257518D01*
X100408623Y-112196195D01*
X100411857Y-112131521D01*
X100426015Y-112087951D01*
X100460500Y-111870222D01*
X100460500Y-111649778D01*
X100426015Y-111432049D01*
X100357895Y-111222394D01*
X100357895Y-111222393D01*
X100303080Y-111114815D01*
X100257815Y-111025978D01*
X100241260Y-111003192D01*
X100128247Y-110847641D01*
X100128243Y-110847636D01*
X99972363Y-110691756D01*
X99972358Y-110691752D01*
X99832745Y-110590318D01*
X99790079Y-110534989D01*
X99784100Y-110465375D01*
X99816705Y-110403580D01*
X99832745Y-110389682D01*
X99972358Y-110288247D01*
X99972366Y-110288241D01*
X100044865Y-110215742D01*
X100128242Y-110132365D01*
X100257815Y-109954022D01*
X100357895Y-109757606D01*
X100386488Y-109669606D01*
X100426015Y-109547951D01*
X100439953Y-109459951D01*
X100447748Y-109410732D01*
X100477677Y-109347598D01*
X100482522Y-109342467D01*
X102847858Y-106977133D01*
X102916312Y-106874685D01*
X102963463Y-106760851D01*
X102983626Y-106659489D01*
X102987501Y-106640008D01*
X102987501Y-106511683D01*
X102987500Y-106511657D01*
X102987500Y-102376593D01*
X102987499Y-102376589D01*
X102970555Y-102291402D01*
X102963463Y-102255748D01*
X102944555Y-102210100D01*
X102916312Y-102141914D01*
X102882084Y-102090690D01*
X102847858Y-102039467D01*
X102847856Y-102039464D01*
X102757637Y-101949245D01*
X102757606Y-101949216D01*
X100746950Y-99938560D01*
X100739660Y-99931270D01*
X100739658Y-99931267D01*
X100652533Y-99844142D01*
X100601309Y-99809915D01*
X100550086Y-99775688D01*
X100550083Y-99775686D01*
X100550080Y-99775685D01*
X100469592Y-99742347D01*
X100435593Y-99728264D01*
X100381190Y-99684423D01*
X100381189Y-99684422D01*
X100362632Y-99628664D01*
X100359125Y-99618128D01*
X100365115Y-99575385D01*
X100383369Y-99519203D01*
X100426015Y-99387951D01*
X100460500Y-99170222D01*
X100460500Y-98949778D01*
X100426015Y-98732049D01*
X100386230Y-98609600D01*
X100357896Y-98522396D01*
X100357895Y-98522393D01*
X100308215Y-98424893D01*
X100257815Y-98325978D01*
X100234418Y-98293774D01*
X100128247Y-98147641D01*
X100128243Y-98147636D01*
X99972363Y-97991756D01*
X99972358Y-97991752D01*
X99832745Y-97890318D01*
X99790079Y-97834989D01*
X99784100Y-97765375D01*
X99816705Y-97703580D01*
X99832745Y-97689682D01*
X99972358Y-97588247D01*
X99972356Y-97588247D01*
X99972365Y-97588242D01*
X100128242Y-97432365D01*
X100257815Y-97254022D01*
X100357895Y-97057606D01*
X100426015Y-96847951D01*
X100460500Y-96630222D01*
X100460500Y-96409778D01*
X100426015Y-96192049D01*
X100388378Y-96076212D01*
X100357896Y-95982396D01*
X100357895Y-95982393D01*
X100308215Y-95884893D01*
X100257815Y-95785978D01*
X100188145Y-95690085D01*
X100128247Y-95607641D01*
X100128243Y-95607636D01*
X99972363Y-95451756D01*
X99972358Y-95451752D01*
X99832745Y-95350318D01*
X99790079Y-95294989D01*
X99784100Y-95225375D01*
X99816705Y-95163580D01*
X99832745Y-95149682D01*
X99972358Y-95048247D01*
X99972356Y-95048247D01*
X99972365Y-95048242D01*
X100128242Y-94892365D01*
X100257815Y-94714022D01*
X100357895Y-94517606D01*
X100426015Y-94307951D01*
X100460500Y-94090222D01*
X100460500Y-93869778D01*
X100426015Y-93652049D01*
X100375902Y-93497817D01*
X100373908Y-93427977D01*
X100409989Y-93368144D01*
X100472690Y-93337316D01*
X100493834Y-93335500D01*
X123026166Y-93335500D01*
X123053152Y-93343424D01*
G37*
%TD.AperFunction*%
%TA.AperFunction,Conductor*%
G36*
X85909878Y-87991257D02*
G01*
X85953449Y-88005415D01*
X86171178Y-88039900D01*
X86171179Y-88039900D01*
X86236947Y-88039900D01*
X86303986Y-88059585D01*
X86349741Y-88112389D01*
X86359685Y-88181547D01*
X86330660Y-88245103D01*
X86324628Y-88251581D01*
X81290429Y-93285781D01*
X81229106Y-93319266D01*
X81202748Y-93322100D01*
X80582697Y-93322100D01*
X80515658Y-93302415D01*
X80472212Y-93254395D01*
X80451415Y-93213578D01*
X80451413Y-93213575D01*
X80451412Y-93213573D01*
X80321847Y-93035241D01*
X80321843Y-93035236D01*
X80165963Y-92879356D01*
X80165958Y-92879352D01*
X80026345Y-92777918D01*
X79983679Y-92722589D01*
X79977700Y-92652975D01*
X80010305Y-92591180D01*
X80026345Y-92577282D01*
X80165958Y-92475847D01*
X80165956Y-92475847D01*
X80165965Y-92475842D01*
X80321842Y-92319965D01*
X80451415Y-92141622D01*
X80472212Y-92100804D01*
X80520186Y-92050009D01*
X80582697Y-92033100D01*
X81574807Y-92033100D01*
X81635229Y-92021081D01*
X81695652Y-92009063D01*
X81728992Y-91995252D01*
X81809486Y-91961912D01*
X81881318Y-91913914D01*
X81911933Y-91893458D01*
X81999058Y-91806333D01*
X81999059Y-91806331D01*
X82006125Y-91799265D01*
X82006128Y-91799261D01*
X85783882Y-88021506D01*
X85797237Y-88014214D01*
X85807528Y-88003002D01*
X85827278Y-87997810D01*
X85845203Y-87988023D01*
X85861427Y-87988834D01*
X85875102Y-87985240D01*
X85909878Y-87991257D01*
G37*
%TD.AperFunction*%
%TA.AperFunction,Conductor*%
G36*
X123093205Y-90815185D02*
G01*
X123138960Y-90867989D01*
X123148904Y-90937147D01*
X123144097Y-90957818D01*
X123093985Y-91112047D01*
X123059500Y-91329778D01*
X123059500Y-91550221D01*
X123093985Y-91767952D01*
X123144097Y-91922182D01*
X123146092Y-91992023D01*
X123110011Y-92051856D01*
X123047310Y-92082684D01*
X123026166Y-92084500D01*
X100640452Y-92084500D01*
X100611011Y-92075855D01*
X100581025Y-92069332D01*
X100576009Y-92065577D01*
X100573413Y-92064815D01*
X100552771Y-92048181D01*
X100442108Y-91937518D01*
X100408623Y-91876195D01*
X100411857Y-91811521D01*
X100426015Y-91767951D01*
X100460500Y-91550222D01*
X100460500Y-91329778D01*
X100426015Y-91112049D01*
X100375902Y-90957817D01*
X100373908Y-90887977D01*
X100409989Y-90828144D01*
X100472690Y-90797316D01*
X100493834Y-90795500D01*
X123026166Y-90795500D01*
X123093205Y-90815185D01*
G37*
%TD.AperFunction*%
%TA.AperFunction,Conductor*%
G36*
X145305384Y-77686721D02*
G01*
X145312625Y-77686100D01*
X145337503Y-77699226D01*
X145363721Y-77709434D01*
X145370952Y-77716875D01*
X145374420Y-77718705D01*
X145388318Y-77734745D01*
X145489752Y-77874358D01*
X145489756Y-77874363D01*
X145645636Y-78030243D01*
X145645641Y-78030247D01*
X145823973Y-78159812D01*
X145823975Y-78159813D01*
X145823978Y-78159815D01*
X145864795Y-78180612D01*
X145915591Y-78228586D01*
X145932500Y-78291097D01*
X145932500Y-88106948D01*
X145912815Y-88173987D01*
X145896181Y-88194629D01*
X142042629Y-92048181D01*
X141981306Y-92081666D01*
X141954948Y-92084500D01*
X125893834Y-92084500D01*
X125826795Y-92064815D01*
X125781040Y-92012011D01*
X125771096Y-91942853D01*
X125775903Y-91922182D01*
X125790845Y-91876195D01*
X125826015Y-91767951D01*
X125860500Y-91550222D01*
X125860500Y-91329778D01*
X125826015Y-91112049D01*
X125775902Y-90957817D01*
X125773908Y-90887977D01*
X125809989Y-90828144D01*
X125872690Y-90797316D01*
X125893834Y-90795500D01*
X141158608Y-90795500D01*
X141158608Y-90795499D01*
X141225974Y-90782100D01*
X141279452Y-90771463D01*
X141312792Y-90757652D01*
X141393286Y-90724312D01*
X141455877Y-90682489D01*
X141455878Y-90682489D01*
X141482265Y-90664856D01*
X141495733Y-90655858D01*
X141582858Y-90568733D01*
X141582859Y-90568730D01*
X141589925Y-90561665D01*
X141589928Y-90561661D01*
X144416729Y-87734860D01*
X144416733Y-87734858D01*
X144503858Y-87647733D01*
X144556871Y-87568393D01*
X144572312Y-87545285D01*
X144612795Y-87447549D01*
X144619463Y-87431452D01*
X144643500Y-87310606D01*
X144643500Y-78291097D01*
X144663185Y-78224058D01*
X144711203Y-78180612D01*
X144752022Y-78159815D01*
X144930365Y-78030242D01*
X145086242Y-77874365D01*
X145120189Y-77827641D01*
X145187682Y-77734745D01*
X145209960Y-77717564D01*
X145230134Y-77697960D01*
X145237255Y-77696516D01*
X145243011Y-77692079D01*
X145271039Y-77689671D01*
X145298612Y-77684085D01*
X145305384Y-77686721D01*
G37*
%TD.AperFunction*%
%TA.AperFunction,Conductor*%
G36*
X123053152Y-88263424D02*
G01*
X123080877Y-88268222D01*
X123086233Y-88273137D01*
X123093205Y-88275185D01*
X123111622Y-88296439D01*
X123132353Y-88315466D01*
X123134201Y-88322496D01*
X123138960Y-88327989D01*
X123142963Y-88355834D01*
X123150115Y-88383041D01*
X123148345Y-88393264D01*
X123148904Y-88397147D01*
X123144097Y-88417818D01*
X123093985Y-88572047D01*
X123059500Y-88789778D01*
X123059500Y-89010221D01*
X123093985Y-89227952D01*
X123144097Y-89382182D01*
X123146092Y-89452023D01*
X123110011Y-89511856D01*
X123047310Y-89542684D01*
X123026166Y-89544500D01*
X100640452Y-89544500D01*
X100611011Y-89535855D01*
X100581025Y-89529332D01*
X100576009Y-89525577D01*
X100573413Y-89524815D01*
X100552771Y-89508181D01*
X100442108Y-89397518D01*
X100408623Y-89336195D01*
X100411857Y-89271521D01*
X100426015Y-89227951D01*
X100460500Y-89010222D01*
X100460500Y-88789778D01*
X100426015Y-88572049D01*
X100375902Y-88417817D01*
X100373908Y-88347977D01*
X100409989Y-88288144D01*
X100472690Y-88257316D01*
X100493834Y-88255500D01*
X123026166Y-88255500D01*
X123053152Y-88263424D01*
G37*
%TD.AperFunction*%
%TA.AperFunction,Conductor*%
G36*
X123093205Y-85735185D02*
G01*
X123138960Y-85787989D01*
X123148904Y-85857147D01*
X123144097Y-85877817D01*
X123140213Y-85889772D01*
X123093985Y-86032047D01*
X123059500Y-86249778D01*
X123059500Y-86470221D01*
X123093985Y-86687952D01*
X123144097Y-86842182D01*
X123146092Y-86912023D01*
X123110011Y-86971856D01*
X123047310Y-87002684D01*
X123026166Y-87004500D01*
X100640452Y-87004500D01*
X100611011Y-86995855D01*
X100581025Y-86989332D01*
X100576009Y-86985577D01*
X100573413Y-86984815D01*
X100552771Y-86968181D01*
X100442108Y-86857518D01*
X100408623Y-86796195D01*
X100411857Y-86731521D01*
X100426015Y-86687951D01*
X100460500Y-86470222D01*
X100460500Y-86249778D01*
X100426015Y-86032049D01*
X100375902Y-85877817D01*
X100373908Y-85807977D01*
X100409989Y-85748144D01*
X100472690Y-85717316D01*
X100493834Y-85715500D01*
X123026166Y-85715500D01*
X123093205Y-85735185D01*
G37*
%TD.AperFunction*%
%TA.AperFunction,Conductor*%
G36*
X92497210Y-85379585D02*
G01*
X92542965Y-85432389D01*
X92552909Y-85501547D01*
X92546353Y-85527233D01*
X92507308Y-85631917D01*
X92500901Y-85691516D01*
X92500901Y-85691523D01*
X92500900Y-85691535D01*
X92500900Y-85802091D01*
X92481215Y-85869130D01*
X92464581Y-85889772D01*
X91844362Y-86509990D01*
X91827325Y-86446407D01*
X91761499Y-86332393D01*
X91668407Y-86239301D01*
X91554393Y-86173475D01*
X91490807Y-86156437D01*
X92160849Y-85486396D01*
X92162189Y-85480018D01*
X92160210Y-85466253D01*
X92169229Y-85446503D01*
X92173693Y-85425253D01*
X92183457Y-85415347D01*
X92189235Y-85402697D01*
X92207501Y-85390958D01*
X92222744Y-85375496D01*
X92237515Y-85371669D01*
X92248013Y-85364923D01*
X92282948Y-85359900D01*
X92430171Y-85359900D01*
X92497210Y-85379585D01*
G37*
%TD.AperFunction*%
%TA.AperFunction,Conductor*%
G36*
X96463039Y-56400185D02*
G01*
X96508794Y-56452989D01*
X96520000Y-56504500D01*
X96520000Y-63500000D01*
X127000000Y-63500000D01*
X127000000Y-60853713D01*
X156129500Y-60853713D01*
X156129500Y-61066287D01*
X156162754Y-61276243D01*
X156223272Y-61462498D01*
X156228444Y-61478414D01*
X156324951Y-61667820D01*
X156449890Y-61839786D01*
X156600213Y-61990109D01*
X156772179Y-62115048D01*
X156772181Y-62115049D01*
X156772184Y-62115051D01*
X156961588Y-62211557D01*
X157163757Y-62277246D01*
X157373713Y-62310500D01*
X157373714Y-62310500D01*
X157586286Y-62310500D01*
X157586287Y-62310500D01*
X157796243Y-62277246D01*
X157998412Y-62211557D01*
X158187816Y-62115051D01*
X158288257Y-62042077D01*
X158359786Y-61990109D01*
X158359788Y-61990106D01*
X158359792Y-61990104D01*
X158510104Y-61839792D01*
X158510106Y-61839788D01*
X158510109Y-61839786D01*
X158635048Y-61667820D01*
X158635047Y-61667820D01*
X158635051Y-61667816D01*
X158731557Y-61478412D01*
X158797246Y-61276243D01*
X158830500Y-61066287D01*
X158830500Y-60853713D01*
X158797246Y-60643757D01*
X158731557Y-60441588D01*
X158635051Y-60252184D01*
X158635049Y-60252181D01*
X158635048Y-60252179D01*
X158510109Y-60080213D01*
X158359786Y-59929890D01*
X158187820Y-59804951D01*
X157998414Y-59708444D01*
X157998413Y-59708443D01*
X157998412Y-59708443D01*
X157796243Y-59642754D01*
X157796241Y-59642753D01*
X157796240Y-59642753D01*
X157634957Y-59617208D01*
X157586287Y-59609500D01*
X157373713Y-59609500D01*
X157325042Y-59617208D01*
X157163760Y-59642753D01*
X156961585Y-59708444D01*
X156772179Y-59804951D01*
X156600213Y-59929890D01*
X156449890Y-60080213D01*
X156324951Y-60252179D01*
X156228444Y-60441585D01*
X156162753Y-60643760D01*
X156143951Y-60762473D01*
X156129500Y-60853713D01*
X127000000Y-60853713D01*
X127000000Y-56504500D01*
X127019685Y-56437461D01*
X127072489Y-56391706D01*
X127124000Y-56380500D01*
X161935500Y-56380500D01*
X162002539Y-56400185D01*
X162048294Y-56452989D01*
X162059500Y-56504500D01*
X162059500Y-123835500D01*
X162039815Y-123902539D01*
X161987011Y-123948294D01*
X161935500Y-123959500D01*
X61584500Y-123959500D01*
X61517461Y-123939815D01*
X61471706Y-123887011D01*
X61460500Y-123835500D01*
X61460500Y-119273713D01*
X64689500Y-119273713D01*
X64689500Y-119486286D01*
X64706824Y-119595669D01*
X64722754Y-119696243D01*
X64753259Y-119790128D01*
X64788444Y-119898414D01*
X64884951Y-120087820D01*
X65009890Y-120259786D01*
X65160213Y-120410109D01*
X65332179Y-120535048D01*
X65332181Y-120535049D01*
X65332184Y-120535051D01*
X65521588Y-120631557D01*
X65723757Y-120697246D01*
X65933713Y-120730500D01*
X65933714Y-120730500D01*
X66146286Y-120730500D01*
X66146287Y-120730500D01*
X66356243Y-120697246D01*
X66558412Y-120631557D01*
X66747816Y-120535051D01*
X66891041Y-120430993D01*
X66919786Y-120410109D01*
X66919788Y-120410106D01*
X66919792Y-120410104D01*
X67070104Y-120259792D01*
X67070106Y-120259788D01*
X67070109Y-120259786D01*
X67195048Y-120087820D01*
X67195047Y-120087820D01*
X67195051Y-120087816D01*
X67291557Y-119898412D01*
X67357246Y-119696243D01*
X67390500Y-119486287D01*
X67390500Y-119273713D01*
X67357246Y-119063757D01*
X67291557Y-118861588D01*
X67195051Y-118672184D01*
X67195049Y-118672181D01*
X67195048Y-118672179D01*
X67070109Y-118500213D01*
X66919786Y-118349890D01*
X66747820Y-118224951D01*
X66558414Y-118128444D01*
X66558413Y-118128443D01*
X66558412Y-118128443D01*
X66356243Y-118062754D01*
X66356241Y-118062753D01*
X66356240Y-118062753D01*
X66181669Y-118035104D01*
X66146287Y-118029500D01*
X65933713Y-118029500D01*
X65898331Y-118035104D01*
X65723760Y-118062753D01*
X65521585Y-118128444D01*
X65332179Y-118224951D01*
X65160213Y-118349890D01*
X65009890Y-118500213D01*
X64884951Y-118672179D01*
X64788444Y-118861585D01*
X64722753Y-119063760D01*
X64689500Y-119273713D01*
X61460500Y-119273713D01*
X61460500Y-117047947D01*
X70740000Y-117047947D01*
X70740000Y-117284052D01*
X70776934Y-117517247D01*
X70849897Y-117741802D01*
X70957087Y-117952174D01*
X71017338Y-118035104D01*
X71017340Y-118035105D01*
X71716212Y-117336233D01*
X71727482Y-117378292D01*
X71799890Y-117503708D01*
X71902292Y-117606110D01*
X72027708Y-117678518D01*
X72069765Y-117689787D01*
X71370893Y-118388658D01*
X71453828Y-118448914D01*
X71664197Y-118556102D01*
X71888752Y-118629065D01*
X71888751Y-118629065D01*
X72121948Y-118666000D01*
X72358052Y-118666000D01*
X72591247Y-118629065D01*
X72815802Y-118556102D01*
X73026163Y-118448918D01*
X73026169Y-118448914D01*
X73109104Y-118388658D01*
X73109105Y-118388658D01*
X72410233Y-117689787D01*
X72452292Y-117678518D01*
X72577708Y-117606110D01*
X72680110Y-117503708D01*
X72752518Y-117378292D01*
X72763787Y-117336234D01*
X73462658Y-118035105D01*
X73462658Y-118035104D01*
X73522914Y-117952169D01*
X73522918Y-117952163D01*
X73630102Y-117741802D01*
X73703065Y-117517247D01*
X73740000Y-117284052D01*
X73740000Y-117047947D01*
X73703065Y-116814752D01*
X73630102Y-116590197D01*
X73522914Y-116379828D01*
X73462658Y-116296894D01*
X73462658Y-116296893D01*
X72763787Y-116995765D01*
X72752518Y-116953708D01*
X72680110Y-116828292D01*
X72577708Y-116725890D01*
X72452292Y-116653482D01*
X72410234Y-116642212D01*
X73109105Y-115943340D01*
X73109104Y-115943338D01*
X73026174Y-115883087D01*
X72815802Y-115775897D01*
X72591247Y-115702934D01*
X72591248Y-115702934D01*
X72358052Y-115666000D01*
X72121948Y-115666000D01*
X71888752Y-115702934D01*
X71664197Y-115775897D01*
X71453830Y-115883084D01*
X71370894Y-115943340D01*
X72069766Y-116642212D01*
X72027708Y-116653482D01*
X71902292Y-116725890D01*
X71799890Y-116828292D01*
X71727482Y-116953708D01*
X71716212Y-116995766D01*
X71017340Y-116296894D01*
X70957084Y-116379830D01*
X70849897Y-116590197D01*
X70776934Y-116814752D01*
X70740000Y-117047947D01*
X61460500Y-117047947D01*
X61460500Y-111657682D01*
X63510000Y-111657682D01*
X63510000Y-111862317D01*
X63542009Y-112064417D01*
X63605244Y-112259031D01*
X63698141Y-112441350D01*
X63698147Y-112441359D01*
X63730523Y-112485921D01*
X63730524Y-112485922D01*
X64410000Y-111806446D01*
X64410000Y-111812661D01*
X64437259Y-111914394D01*
X64489920Y-112005606D01*
X64564394Y-112080080D01*
X64655606Y-112132741D01*
X64757339Y-112160000D01*
X64763553Y-112160000D01*
X64084076Y-112839474D01*
X64128650Y-112871859D01*
X64310968Y-112964755D01*
X64505582Y-113027990D01*
X64707683Y-113060000D01*
X64912317Y-113060000D01*
X65114417Y-113027990D01*
X65309031Y-112964755D01*
X65491349Y-112871859D01*
X65535921Y-112839474D01*
X64856447Y-112160000D01*
X64862661Y-112160000D01*
X64964394Y-112132741D01*
X65055606Y-112080080D01*
X65130080Y-112005606D01*
X65182741Y-111914394D01*
X65210000Y-111812661D01*
X65210000Y-111806447D01*
X65889474Y-112485921D01*
X65921859Y-112441349D01*
X66014755Y-112259031D01*
X66077990Y-112064417D01*
X66110000Y-111862317D01*
X66110000Y-111657682D01*
X66077990Y-111455582D01*
X66014755Y-111260968D01*
X65921859Y-111078650D01*
X65889474Y-111034077D01*
X65889474Y-111034076D01*
X65210000Y-111713551D01*
X65210000Y-111707339D01*
X65182741Y-111605606D01*
X65130080Y-111514394D01*
X65055606Y-111439920D01*
X64964394Y-111387259D01*
X64862661Y-111360000D01*
X64856446Y-111360000D01*
X65535922Y-110680524D01*
X65535921Y-110680523D01*
X65491359Y-110648147D01*
X65491350Y-110648141D01*
X65309031Y-110555244D01*
X65114417Y-110492009D01*
X64912317Y-110460000D01*
X64707683Y-110460000D01*
X64505582Y-110492009D01*
X64310968Y-110555244D01*
X64128644Y-110648143D01*
X64084077Y-110680523D01*
X64084077Y-110680524D01*
X64763554Y-111360000D01*
X64757339Y-111360000D01*
X64655606Y-111387259D01*
X64564394Y-111439920D01*
X64489920Y-111514394D01*
X64437259Y-111605606D01*
X64410000Y-111707339D01*
X64410000Y-111713553D01*
X63730524Y-111034077D01*
X63730523Y-111034077D01*
X63698143Y-111078644D01*
X63605244Y-111260968D01*
X63542009Y-111455582D01*
X63510000Y-111657682D01*
X61460500Y-111657682D01*
X61460500Y-91175194D01*
X62036300Y-91175194D01*
X62036300Y-104673406D01*
X62052980Y-104757267D01*
X62056870Y-104776821D01*
X62059537Y-104790233D01*
X62060337Y-104794251D01*
X62093379Y-104874022D01*
X62107488Y-104908086D01*
X62107490Y-104908090D01*
X62123859Y-104932587D01*
X62123862Y-104932590D01*
X62127899Y-104938632D01*
X62175942Y-105010533D01*
X62263067Y-105097658D01*
X62263069Y-105097659D01*
X62273624Y-105108214D01*
X68507781Y-111342371D01*
X68541266Y-111403694D01*
X68540785Y-111450416D01*
X68542285Y-111450654D01*
X68509500Y-111657648D01*
X68509500Y-111862351D01*
X68541522Y-112064534D01*
X68604781Y-112259223D01*
X68668691Y-112384653D01*
X68697585Y-112441359D01*
X68697715Y-112441613D01*
X68818028Y-112607213D01*
X68962786Y-112751971D01*
X69083226Y-112839474D01*
X69128390Y-112872287D01*
X69240763Y-112929544D01*
X69310776Y-112965218D01*
X69310778Y-112965218D01*
X69310781Y-112965220D01*
X69371695Y-112985012D01*
X69505465Y-113028477D01*
X69606557Y-113044488D01*
X69707648Y-113060500D01*
X69707649Y-113060500D01*
X69912351Y-113060500D01*
X69912352Y-113060500D01*
X70114534Y-113028477D01*
X70309219Y-112965220D01*
X70491610Y-112872287D01*
X70606719Y-112788656D01*
X70657213Y-112751971D01*
X70657215Y-112751968D01*
X70657219Y-112751966D01*
X70801966Y-112607219D01*
X70801968Y-112607215D01*
X70801971Y-112607213D01*
X70925151Y-112437669D01*
X70926823Y-112438884D01*
X70972208Y-112397831D01*
X71026115Y-112385500D01*
X71935885Y-112385500D01*
X72002924Y-112405185D01*
X72035606Y-112438571D01*
X72036849Y-112437669D01*
X72160028Y-112607213D01*
X72304786Y-112751971D01*
X72425226Y-112839474D01*
X72470390Y-112872287D01*
X72582763Y-112929544D01*
X72652776Y-112965218D01*
X72652778Y-112965218D01*
X72652781Y-112965220D01*
X72713695Y-112985012D01*
X72847465Y-113028477D01*
X72948557Y-113044488D01*
X73049648Y-113060500D01*
X73049649Y-113060500D01*
X73254351Y-113060500D01*
X73254352Y-113060500D01*
X73323371Y-113049568D01*
X73461347Y-113027715D01*
X73461672Y-113029767D01*
X73522743Y-113032802D01*
X73569628Y-113062218D01*
X74522181Y-114014771D01*
X74555666Y-114076094D01*
X74558500Y-114102452D01*
X74558500Y-118411546D01*
X74538815Y-118478585D01*
X74522181Y-118499227D01*
X72816878Y-120204529D01*
X72755555Y-120238014D01*
X72690880Y-120234779D01*
X72591370Y-120202447D01*
X72591371Y-120202447D01*
X72358097Y-120165500D01*
X72358092Y-120165500D01*
X72121908Y-120165500D01*
X72121903Y-120165500D01*
X71888631Y-120202446D01*
X71664003Y-120275433D01*
X71453566Y-120382657D01*
X71387038Y-120430993D01*
X71262490Y-120521483D01*
X71262488Y-120521485D01*
X71262487Y-120521485D01*
X71095485Y-120688487D01*
X71095485Y-120688488D01*
X71095483Y-120688490D01*
X71064961Y-120730500D01*
X70956657Y-120879566D01*
X70849433Y-121090003D01*
X70776446Y-121314631D01*
X70739500Y-121547902D01*
X70739500Y-121784097D01*
X70776446Y-122017368D01*
X70849433Y-122241996D01*
X70956657Y-122452433D01*
X71095483Y-122643510D01*
X71262490Y-122810517D01*
X71453567Y-122949343D01*
X71552991Y-123000002D01*
X71664003Y-123056566D01*
X71664005Y-123056566D01*
X71664008Y-123056568D01*
X71784412Y-123095689D01*
X71888631Y-123129553D01*
X72121903Y-123166500D01*
X72121908Y-123166500D01*
X72358097Y-123166500D01*
X72591368Y-123129553D01*
X72815992Y-123056568D01*
X73026433Y-122949343D01*
X73217510Y-122810517D01*
X73384517Y-122643510D01*
X73523343Y-122452433D01*
X73630568Y-122241992D01*
X73703553Y-122017368D01*
X73725257Y-121880335D01*
X73740500Y-121784097D01*
X73740500Y-121547902D01*
X77239500Y-121547902D01*
X77239500Y-121784097D01*
X77276446Y-122017368D01*
X77349433Y-122241996D01*
X77456657Y-122452433D01*
X77595483Y-122643510D01*
X77762490Y-122810517D01*
X77953567Y-122949343D01*
X78052991Y-123000002D01*
X78164003Y-123056566D01*
X78164005Y-123056566D01*
X78164008Y-123056568D01*
X78284412Y-123095689D01*
X78388631Y-123129553D01*
X78621903Y-123166500D01*
X78621908Y-123166500D01*
X78858097Y-123166500D01*
X79091368Y-123129553D01*
X79315992Y-123056568D01*
X79526433Y-122949343D01*
X79717510Y-122810517D01*
X79884517Y-122643510D01*
X80023343Y-122452433D01*
X80130568Y-122241992D01*
X80203553Y-122017368D01*
X80225257Y-121880335D01*
X80240500Y-121784097D01*
X80240500Y-121547902D01*
X80203553Y-121314631D01*
X80167582Y-121203925D01*
X80130568Y-121090008D01*
X80130566Y-121090005D01*
X80130566Y-121090003D01*
X80081106Y-120992933D01*
X80023342Y-120879566D01*
X79884517Y-120688490D01*
X79717510Y-120521483D01*
X79526433Y-120382657D01*
X79315996Y-120275433D01*
X79091368Y-120202446D01*
X78858097Y-120165500D01*
X78858092Y-120165500D01*
X78621908Y-120165500D01*
X78621903Y-120165500D01*
X78388631Y-120202446D01*
X78164003Y-120275433D01*
X77953566Y-120382657D01*
X77887038Y-120430993D01*
X77762490Y-120521483D01*
X77762488Y-120521485D01*
X77762487Y-120521485D01*
X77595485Y-120688487D01*
X77595485Y-120688488D01*
X77595483Y-120688490D01*
X77564961Y-120730500D01*
X77456657Y-120879566D01*
X77349433Y-121090003D01*
X77276446Y-121314631D01*
X77239500Y-121547902D01*
X73740500Y-121547902D01*
X73703553Y-121314631D01*
X73689459Y-121271257D01*
X73671218Y-121215118D01*
X73669224Y-121145279D01*
X73701467Y-121089122D01*
X75217598Y-119572993D01*
X75613327Y-119177265D01*
X75669855Y-119120736D01*
X75669855Y-119120735D01*
X75669858Y-119120733D01*
X75738312Y-119018285D01*
X75785463Y-118904451D01*
X75809500Y-118783606D01*
X75809500Y-118660393D01*
X75809500Y-117047947D01*
X77240000Y-117047947D01*
X77240000Y-117284052D01*
X77276934Y-117517247D01*
X77349897Y-117741802D01*
X77457087Y-117952174D01*
X77517338Y-118035104D01*
X77517340Y-118035105D01*
X78216212Y-117336233D01*
X78227482Y-117378292D01*
X78299890Y-117503708D01*
X78402292Y-117606110D01*
X78527708Y-117678518D01*
X78569765Y-117689787D01*
X77870893Y-118388658D01*
X77953828Y-118448914D01*
X78164197Y-118556102D01*
X78388752Y-118629065D01*
X78388751Y-118629065D01*
X78621948Y-118666000D01*
X78858052Y-118666000D01*
X79091247Y-118629065D01*
X79315802Y-118556102D01*
X79526163Y-118448918D01*
X79526169Y-118448914D01*
X79609104Y-118388658D01*
X79609105Y-118388658D01*
X78910233Y-117689787D01*
X78952292Y-117678518D01*
X79077708Y-117606110D01*
X79180110Y-117503708D01*
X79252518Y-117378292D01*
X79263787Y-117336233D01*
X79962658Y-118035105D01*
X79962658Y-118035104D01*
X80022914Y-117952169D01*
X80022918Y-117952163D01*
X80130102Y-117741802D01*
X80203065Y-117517247D01*
X80240000Y-117284052D01*
X80240000Y-117047947D01*
X80203065Y-116814752D01*
X80130102Y-116590197D01*
X80022914Y-116379828D01*
X79962658Y-116296894D01*
X79962658Y-116296893D01*
X79263787Y-116995765D01*
X79252518Y-116953708D01*
X79180110Y-116828292D01*
X79077708Y-116725890D01*
X78952292Y-116653482D01*
X78910234Y-116642212D01*
X79609105Y-115943340D01*
X79609104Y-115943338D01*
X79526174Y-115883087D01*
X79315802Y-115775897D01*
X79091247Y-115702934D01*
X79091248Y-115702934D01*
X78858052Y-115666000D01*
X78621948Y-115666000D01*
X78388752Y-115702934D01*
X78164197Y-115775897D01*
X77953830Y-115883084D01*
X77870894Y-115943340D01*
X78569766Y-116642212D01*
X78527708Y-116653482D01*
X78402292Y-116725890D01*
X78299890Y-116828292D01*
X78227482Y-116953708D01*
X78216212Y-116995766D01*
X77517340Y-116296894D01*
X77457084Y-116379830D01*
X77349897Y-116590197D01*
X77276934Y-116814752D01*
X77240000Y-117047947D01*
X75809500Y-117047947D01*
X75809500Y-113730394D01*
X75803163Y-113698537D01*
X75798518Y-113675185D01*
X75785463Y-113609549D01*
X75785459Y-113609538D01*
X75738314Y-113495719D01*
X75738309Y-113495710D01*
X75725134Y-113475993D01*
X75725132Y-113475990D01*
X75721256Y-113470190D01*
X75669858Y-113393267D01*
X75582733Y-113306142D01*
X75582729Y-113306139D01*
X74454218Y-112177628D01*
X74420733Y-112116305D01*
X74421241Y-112069588D01*
X74419715Y-112069347D01*
X74452500Y-111862351D01*
X74452500Y-111657648D01*
X82011500Y-111657648D01*
X82011500Y-111862351D01*
X82043522Y-112064534D01*
X82106781Y-112259223D01*
X82170691Y-112384653D01*
X82199585Y-112441359D01*
X82199715Y-112441613D01*
X82320028Y-112607213D01*
X82464786Y-112751971D01*
X82585226Y-112839474D01*
X82630390Y-112872287D01*
X82742763Y-112929544D01*
X82812776Y-112965218D01*
X82812778Y-112965218D01*
X82812781Y-112965220D01*
X82873695Y-112985012D01*
X83007465Y-113028477D01*
X83108557Y-113044488D01*
X83209648Y-113060500D01*
X83209649Y-113060500D01*
X83414351Y-113060500D01*
X83414352Y-113060500D01*
X83616534Y-113028477D01*
X83811219Y-112965220D01*
X83993610Y-112872287D01*
X84108719Y-112788656D01*
X84159213Y-112751971D01*
X84159215Y-112751968D01*
X84159219Y-112751966D01*
X84303966Y-112607219D01*
X84303968Y-112607215D01*
X84303971Y-112607213D01*
X84356732Y-112534590D01*
X84424287Y-112441610D01*
X84517220Y-112259219D01*
X84580477Y-112064534D01*
X84612500Y-111862352D01*
X84612500Y-111657648D01*
X84580477Y-111455465D01*
X84543730Y-111342371D01*
X84517220Y-111260781D01*
X84517218Y-111260778D01*
X84517218Y-111260776D01*
X84483503Y-111194607D01*
X84424287Y-111078390D01*
X84392092Y-111034077D01*
X84303971Y-110912786D01*
X84159213Y-110768028D01*
X83993613Y-110647715D01*
X83993612Y-110647714D01*
X83993610Y-110647713D01*
X83936653Y-110618691D01*
X83811223Y-110554781D01*
X83616534Y-110491522D01*
X83441995Y-110463878D01*
X83414352Y-110459500D01*
X83209648Y-110459500D01*
X83185329Y-110463351D01*
X83007465Y-110491522D01*
X82812776Y-110554781D01*
X82630386Y-110647715D01*
X82464786Y-110768028D01*
X82320028Y-110912786D01*
X82199715Y-111078386D01*
X82106781Y-111260776D01*
X82043522Y-111455465D01*
X82011500Y-111657648D01*
X74452500Y-111657648D01*
X74420477Y-111455465D01*
X74383730Y-111342371D01*
X74357220Y-111260781D01*
X74357218Y-111260778D01*
X74357218Y-111260776D01*
X74323503Y-111194607D01*
X74264287Y-111078390D01*
X74232092Y-111034077D01*
X74143971Y-110912786D01*
X73999213Y-110768028D01*
X73833613Y-110647715D01*
X73833612Y-110647714D01*
X73833610Y-110647713D01*
X73776653Y-110618691D01*
X73651223Y-110554781D01*
X73456534Y-110491522D01*
X73281995Y-110463878D01*
X73254352Y-110459500D01*
X73049648Y-110459500D01*
X73025329Y-110463351D01*
X72847465Y-110491522D01*
X72652776Y-110554781D01*
X72470386Y-110647715D01*
X72304786Y-110768028D01*
X72160028Y-110912786D01*
X72036849Y-111082331D01*
X72035176Y-111081115D01*
X71989792Y-111122169D01*
X71935885Y-111134500D01*
X71026115Y-111134500D01*
X70959076Y-111114815D01*
X70926393Y-111081428D01*
X70925151Y-111082331D01*
X70801971Y-110912786D01*
X70657213Y-110768028D01*
X70491613Y-110647715D01*
X70491612Y-110647714D01*
X70491610Y-110647713D01*
X70434653Y-110618691D01*
X70309223Y-110554781D01*
X70114534Y-110491522D01*
X69939995Y-110463878D01*
X69912352Y-110459500D01*
X69707648Y-110459500D01*
X69604101Y-110475900D01*
X69500654Y-110492285D01*
X69500333Y-110490262D01*
X69439120Y-110487149D01*
X69392371Y-110457781D01*
X64686771Y-105752181D01*
X64653286Y-105690858D01*
X64658270Y-105621166D01*
X64700142Y-105565233D01*
X64765606Y-105540816D01*
X64774452Y-105540500D01*
X64880221Y-105540500D01*
X64880222Y-105540500D01*
X65097951Y-105506015D01*
X65141521Y-105491857D01*
X65211359Y-105489862D01*
X65267518Y-105522108D01*
X68599016Y-108853606D01*
X68599045Y-108853637D01*
X68689263Y-108943855D01*
X68689267Y-108943858D01*
X68791707Y-109012307D01*
X68791713Y-109012310D01*
X68791714Y-109012311D01*
X68905548Y-109059463D01*
X68965971Y-109071481D01*
X69026393Y-109083500D01*
X69026394Y-109083500D01*
X71935885Y-109083500D01*
X72002924Y-109103185D01*
X72035606Y-109136571D01*
X72036849Y-109135669D01*
X72160028Y-109305213D01*
X72304786Y-109449971D01*
X72423371Y-109536126D01*
X72470390Y-109570287D01*
X72586607Y-109629503D01*
X72652776Y-109663218D01*
X72652778Y-109663218D01*
X72652781Y-109663220D01*
X72722660Y-109685925D01*
X72847465Y-109726477D01*
X72921588Y-109738217D01*
X73049648Y-109758500D01*
X73049649Y-109758500D01*
X73254351Y-109758500D01*
X73254352Y-109758500D01*
X73456534Y-109726477D01*
X73651219Y-109663220D01*
X73833610Y-109570287D01*
X73926590Y-109502732D01*
X73999213Y-109449971D01*
X73999215Y-109449968D01*
X73999219Y-109449966D01*
X74143966Y-109305219D01*
X74143968Y-109305215D01*
X74143971Y-109305213D01*
X74196732Y-109232590D01*
X74264287Y-109139610D01*
X74357220Y-108957219D01*
X74420477Y-108762534D01*
X74452500Y-108560352D01*
X74452500Y-108355648D01*
X82011500Y-108355648D01*
X82011500Y-108560351D01*
X82043522Y-108762534D01*
X82106781Y-108957223D01*
X82199715Y-109139613D01*
X82320028Y-109305213D01*
X82464786Y-109449971D01*
X82583371Y-109536126D01*
X82630390Y-109570287D01*
X82746607Y-109629503D01*
X82812776Y-109663218D01*
X82812778Y-109663218D01*
X82812781Y-109663220D01*
X82882660Y-109685925D01*
X83007465Y-109726477D01*
X83081588Y-109738217D01*
X83209648Y-109758500D01*
X83209649Y-109758500D01*
X83414351Y-109758500D01*
X83414352Y-109758500D01*
X83616534Y-109726477D01*
X83811219Y-109663220D01*
X83993610Y-109570287D01*
X84086590Y-109502732D01*
X84159213Y-109449971D01*
X84159215Y-109449968D01*
X84159219Y-109449966D01*
X84303966Y-109305219D01*
X84303968Y-109305215D01*
X84303971Y-109305213D01*
X84356732Y-109232590D01*
X84424287Y-109139610D01*
X84517220Y-108957219D01*
X84580477Y-108762534D01*
X84612500Y-108560352D01*
X84612500Y-108355648D01*
X84590958Y-108219641D01*
X84580477Y-108153465D01*
X84537821Y-108022185D01*
X84517220Y-107958781D01*
X84517218Y-107958778D01*
X84517218Y-107958776D01*
X84471984Y-107870000D01*
X84424287Y-107776390D01*
X84403837Y-107748243D01*
X84303971Y-107610786D01*
X84159213Y-107466028D01*
X83993613Y-107345715D01*
X83993612Y-107345714D01*
X83993610Y-107345713D01*
X83914688Y-107305500D01*
X83811223Y-107252781D01*
X83616534Y-107189522D01*
X83441995Y-107161878D01*
X83414352Y-107157500D01*
X83209648Y-107157500D01*
X83185329Y-107161351D01*
X83007465Y-107189522D01*
X82812776Y-107252781D01*
X82630386Y-107345715D01*
X82464786Y-107466028D01*
X82320028Y-107610786D01*
X82199715Y-107776386D01*
X82106781Y-107958776D01*
X82043522Y-108153465D01*
X82011500Y-108355648D01*
X74452500Y-108355648D01*
X74430958Y-108219641D01*
X74420477Y-108153465D01*
X74377821Y-108022185D01*
X74357220Y-107958781D01*
X74357218Y-107958778D01*
X74357218Y-107958776D01*
X74311984Y-107870000D01*
X74264287Y-107776390D01*
X74243837Y-107748243D01*
X74143971Y-107610786D01*
X73999213Y-107466028D01*
X73833613Y-107345715D01*
X73833612Y-107345714D01*
X73833610Y-107345713D01*
X73754688Y-107305500D01*
X73651223Y-107252781D01*
X73456534Y-107189522D01*
X73281995Y-107161878D01*
X73254352Y-107157500D01*
X73049648Y-107157500D01*
X73025329Y-107161351D01*
X72847465Y-107189522D01*
X72652776Y-107252781D01*
X72470386Y-107345715D01*
X72304786Y-107466028D01*
X72160028Y-107610786D01*
X72036849Y-107780331D01*
X72035176Y-107779115D01*
X71989792Y-107820169D01*
X71935885Y-107832500D01*
X69398452Y-107832500D01*
X69331413Y-107812815D01*
X69310771Y-107796181D01*
X66152108Y-104637518D01*
X66118623Y-104576195D01*
X66121857Y-104511521D01*
X66136015Y-104467951D01*
X66170500Y-104250222D01*
X66170500Y-104029778D01*
X66136015Y-103812049D01*
X66121857Y-103768478D01*
X66119863Y-103698638D01*
X66152106Y-103642482D01*
X73550729Y-96243860D01*
X73550733Y-96243858D01*
X73637858Y-96156733D01*
X73672084Y-96105509D01*
X73706312Y-96054286D01*
X73748479Y-95952483D01*
X73753459Y-95940461D01*
X73753459Y-95940459D01*
X73753463Y-95940451D01*
X73777500Y-95819607D01*
X73777500Y-95696393D01*
X73777500Y-88499252D01*
X73797185Y-88432213D01*
X73813819Y-88411571D01*
X81553571Y-80671819D01*
X81614894Y-80638334D01*
X81641252Y-80635500D01*
X97626166Y-80635500D01*
X97693205Y-80655185D01*
X97738960Y-80707989D01*
X97748904Y-80777147D01*
X97744097Y-80797818D01*
X97693985Y-80952047D01*
X97659500Y-81169778D01*
X97659500Y-81390221D01*
X97693985Y-81607952D01*
X97762103Y-81817603D01*
X97762104Y-81817606D01*
X97862187Y-82014025D01*
X97991752Y-82192358D01*
X97991756Y-82192363D01*
X98147636Y-82348243D01*
X98147641Y-82348247D01*
X98287254Y-82449682D01*
X98329920Y-82505012D01*
X98335899Y-82574625D01*
X98303293Y-82636420D01*
X98287254Y-82650318D01*
X98147641Y-82751752D01*
X98147636Y-82751756D01*
X97991756Y-82907636D01*
X97991752Y-82907641D01*
X97862187Y-83085973D01*
X97850233Y-83109433D01*
X97844211Y-83121255D01*
X97841388Y-83126795D01*
X97793414Y-83177591D01*
X97730903Y-83194500D01*
X89039189Y-83194500D01*
X88918353Y-83218535D01*
X88918341Y-83218539D01*
X88886062Y-83231909D01*
X88871197Y-83238067D01*
X88804519Y-83265685D01*
X88804517Y-83265686D01*
X88702066Y-83334141D01*
X88702063Y-83334144D01*
X86778918Y-85257290D01*
X86717595Y-85290775D01*
X86652921Y-85287541D01*
X86609350Y-85273384D01*
X86426106Y-85244361D01*
X86391622Y-85238900D01*
X86171178Y-85238900D01*
X86098601Y-85250395D01*
X85953447Y-85273385D01*
X85743796Y-85341503D01*
X85743793Y-85341504D01*
X85547374Y-85441587D01*
X85369041Y-85571152D01*
X85369036Y-85571156D01*
X85213156Y-85727036D01*
X85213152Y-85727041D01*
X85111718Y-85866654D01*
X85056388Y-85909320D01*
X84986775Y-85915299D01*
X84924980Y-85882693D01*
X84911082Y-85866654D01*
X84809647Y-85727041D01*
X84809643Y-85727036D01*
X84653763Y-85571156D01*
X84653758Y-85571152D01*
X84475425Y-85441587D01*
X84475424Y-85441586D01*
X84475422Y-85441585D01*
X84399101Y-85402697D01*
X84279006Y-85341504D01*
X84279003Y-85341503D01*
X84069352Y-85273385D01*
X83960486Y-85256142D01*
X83851622Y-85238900D01*
X83631178Y-85238900D01*
X83558601Y-85250395D01*
X83413447Y-85273385D01*
X83203796Y-85341503D01*
X83203793Y-85341504D01*
X83007374Y-85441587D01*
X82829041Y-85571152D01*
X82829036Y-85571156D01*
X82673156Y-85727036D01*
X82673152Y-85727041D01*
X82543587Y-85905374D01*
X82443504Y-86101793D01*
X82443503Y-86101796D01*
X82375385Y-86311447D01*
X82355369Y-86437822D01*
X82340900Y-86529178D01*
X82340900Y-86749622D01*
X82349479Y-86803787D01*
X82375385Y-86967352D01*
X82443503Y-87177003D01*
X82443504Y-87177006D01*
X82492092Y-87272363D01*
X82538312Y-87363074D01*
X82543587Y-87373425D01*
X82673152Y-87551758D01*
X82673156Y-87551763D01*
X82829036Y-87707643D01*
X82829041Y-87707647D01*
X82931006Y-87781728D01*
X83007378Y-87837215D01*
X83135775Y-87902637D01*
X83203793Y-87937295D01*
X83203796Y-87937296D01*
X83281805Y-87962642D01*
X83413449Y-88005415D01*
X83631178Y-88039900D01*
X83631179Y-88039900D01*
X83696947Y-88039900D01*
X83763986Y-88059585D01*
X83809741Y-88112389D01*
X83819685Y-88181547D01*
X83790660Y-88245103D01*
X83784628Y-88251581D01*
X81290429Y-90745781D01*
X81229106Y-90779266D01*
X81202748Y-90782100D01*
X80582697Y-90782100D01*
X80515658Y-90762415D01*
X80472212Y-90714395D01*
X80451415Y-90673578D01*
X80451413Y-90673575D01*
X80451412Y-90673573D01*
X80321847Y-90495241D01*
X80321843Y-90495236D01*
X80165963Y-90339356D01*
X80165958Y-90339352D01*
X80026345Y-90237918D01*
X79983679Y-90182589D01*
X79977700Y-90112975D01*
X80010305Y-90051180D01*
X80026345Y-90037282D01*
X80165958Y-89935847D01*
X80165956Y-89935847D01*
X80165965Y-89935842D01*
X80321842Y-89779965D01*
X80451415Y-89601622D01*
X80551495Y-89405206D01*
X80619615Y-89195551D01*
X80654100Y-88977822D01*
X80654100Y-88757378D01*
X80619615Y-88539649D01*
X80559891Y-88355834D01*
X80551496Y-88329996D01*
X80551495Y-88329993D01*
X80482522Y-88194629D01*
X80451415Y-88133578D01*
X80397656Y-88059585D01*
X80321847Y-87955241D01*
X80321843Y-87955236D01*
X80165963Y-87799356D01*
X80165958Y-87799352D01*
X80026345Y-87697918D01*
X79983679Y-87642589D01*
X79977700Y-87572975D01*
X80010305Y-87511180D01*
X80026345Y-87497282D01*
X80165958Y-87395847D01*
X80165956Y-87395847D01*
X80165965Y-87395842D01*
X80321842Y-87239965D01*
X80451415Y-87061622D01*
X80551495Y-86865206D01*
X80619615Y-86655551D01*
X80654100Y-86437822D01*
X80654100Y-86217378D01*
X80619615Y-85999649D01*
X80580030Y-85877818D01*
X80551496Y-85789996D01*
X80551495Y-85789993D01*
X80501324Y-85691529D01*
X80451415Y-85593578D01*
X80375034Y-85488448D01*
X80321847Y-85415241D01*
X80321843Y-85415236D01*
X80165963Y-85259356D01*
X80165958Y-85259352D01*
X79987625Y-85129787D01*
X79987624Y-85129786D01*
X79987622Y-85129785D01*
X79923775Y-85097253D01*
X79791206Y-85029704D01*
X79791203Y-85029703D01*
X79581552Y-84961585D01*
X79472686Y-84944342D01*
X79363822Y-84927100D01*
X79143378Y-84927100D01*
X79070801Y-84938595D01*
X78925647Y-84961585D01*
X78715996Y-85029703D01*
X78715993Y-85029704D01*
X78519574Y-85129787D01*
X78341241Y-85259352D01*
X78341236Y-85259356D01*
X78185356Y-85415236D01*
X78185352Y-85415241D01*
X78055787Y-85593574D01*
X77955704Y-85789993D01*
X77955703Y-85789996D01*
X77887585Y-85999647D01*
X77853100Y-86217378D01*
X77853100Y-86437821D01*
X77887585Y-86655552D01*
X77955703Y-86865203D01*
X77955704Y-86865206D01*
X78055787Y-87061625D01*
X78185352Y-87239958D01*
X78185356Y-87239963D01*
X78341236Y-87395843D01*
X78341241Y-87395847D01*
X78480854Y-87497282D01*
X78523520Y-87552612D01*
X78529499Y-87622225D01*
X78496893Y-87684020D01*
X78480854Y-87697918D01*
X78341241Y-87799352D01*
X78341236Y-87799356D01*
X78185356Y-87955236D01*
X78185352Y-87955241D01*
X78055787Y-88133574D01*
X77955704Y-88329993D01*
X77955703Y-88329996D01*
X77887585Y-88539647D01*
X77853100Y-88757378D01*
X77853100Y-88977821D01*
X77887585Y-89195552D01*
X77955703Y-89405203D01*
X77955704Y-89405206D01*
X78055787Y-89601625D01*
X78185352Y-89779958D01*
X78185356Y-89779963D01*
X78341236Y-89935843D01*
X78341241Y-89935847D01*
X78480854Y-90037282D01*
X78523520Y-90092612D01*
X78529499Y-90162225D01*
X78496893Y-90224020D01*
X78480854Y-90237918D01*
X78341241Y-90339352D01*
X78341236Y-90339356D01*
X78185356Y-90495236D01*
X78185352Y-90495241D01*
X78055787Y-90673574D01*
X77955705Y-90869993D01*
X77887585Y-91079647D01*
X77853100Y-91297378D01*
X77853100Y-91517821D01*
X77887585Y-91735552D01*
X77955703Y-91945203D01*
X77955704Y-91945206D01*
X78002828Y-92037689D01*
X78034987Y-92100805D01*
X78055787Y-92141625D01*
X78185352Y-92319958D01*
X78185356Y-92319963D01*
X78341236Y-92475843D01*
X78341241Y-92475847D01*
X78480854Y-92577282D01*
X78523520Y-92632612D01*
X78529499Y-92702225D01*
X78496893Y-92764020D01*
X78480854Y-92777918D01*
X78341241Y-92879352D01*
X78341236Y-92879356D01*
X78185356Y-93035236D01*
X78185352Y-93035241D01*
X78055787Y-93213574D01*
X77955704Y-93409993D01*
X77955703Y-93409996D01*
X77887585Y-93619647D01*
X77853100Y-93837378D01*
X77853100Y-94057821D01*
X77887585Y-94275552D01*
X77955703Y-94485203D01*
X77955704Y-94485206D01*
X78002828Y-94577689D01*
X78034987Y-94640805D01*
X78055787Y-94681625D01*
X78185352Y-94859958D01*
X78185356Y-94859963D01*
X78341240Y-95015847D01*
X78481279Y-95117590D01*
X78523945Y-95172919D01*
X78529924Y-95242533D01*
X78497319Y-95304328D01*
X78481279Y-95318226D01*
X78456085Y-95336530D01*
X78456085Y-95336532D01*
X79124190Y-96004637D01*
X79060607Y-96021675D01*
X78946593Y-96087501D01*
X78853501Y-96180593D01*
X78787675Y-96294607D01*
X78770637Y-96358190D01*
X78102532Y-95690085D01*
X78102531Y-95690085D01*
X78056216Y-95753833D01*
X77956167Y-95950189D01*
X77888073Y-96159764D01*
X77853600Y-96377418D01*
X77853600Y-96597781D01*
X77888073Y-96815435D01*
X77956167Y-97025010D01*
X78056211Y-97221356D01*
X78102532Y-97285113D01*
X78770637Y-96617008D01*
X78787675Y-96680593D01*
X78853501Y-96794607D01*
X78946593Y-96887699D01*
X79060607Y-96953525D01*
X79124190Y-96970562D01*
X78503970Y-97590781D01*
X78442647Y-97624266D01*
X78416290Y-97627100D01*
X78305730Y-97627100D01*
X78305723Y-97627101D01*
X78246116Y-97633508D01*
X78111271Y-97683802D01*
X78111264Y-97683806D01*
X77996055Y-97770052D01*
X77996052Y-97770055D01*
X77909806Y-97885264D01*
X77909802Y-97885271D01*
X77859508Y-98020117D01*
X77856017Y-98052593D01*
X77853101Y-98079723D01*
X77853100Y-98079735D01*
X77853100Y-99975470D01*
X77853101Y-99975476D01*
X77859508Y-100035083D01*
X77909802Y-100169928D01*
X77909806Y-100169935D01*
X77996052Y-100285144D01*
X77996055Y-100285147D01*
X78111264Y-100371393D01*
X78111271Y-100371397D01*
X78246117Y-100421691D01*
X78246116Y-100421691D01*
X78253044Y-100422435D01*
X78305727Y-100428100D01*
X80201472Y-100428099D01*
X80261083Y-100421691D01*
X80395931Y-100371396D01*
X80511146Y-100285146D01*
X80597396Y-100169931D01*
X80647691Y-100035083D01*
X80654100Y-99975473D01*
X80654099Y-98079728D01*
X80647691Y-98020117D01*
X80638149Y-97994534D01*
X80597397Y-97885271D01*
X80597393Y-97885264D01*
X80511147Y-97770055D01*
X80511144Y-97770052D01*
X80395935Y-97683806D01*
X80395928Y-97683802D01*
X80261082Y-97633508D01*
X80261083Y-97633508D01*
X80201483Y-97627101D01*
X80201481Y-97627100D01*
X80201473Y-97627100D01*
X80201465Y-97627100D01*
X80090908Y-97627100D01*
X80023869Y-97607415D01*
X80003227Y-97590781D01*
X79383010Y-96970562D01*
X79446593Y-96953525D01*
X79560607Y-96887699D01*
X79653699Y-96794607D01*
X79719525Y-96680593D01*
X79736562Y-96617010D01*
X80404666Y-97285114D01*
X80404666Y-97285113D01*
X80450986Y-97221360D01*
X80551032Y-97025010D01*
X80619126Y-96815435D01*
X80653600Y-96597781D01*
X80653600Y-96377418D01*
X80619126Y-96159764D01*
X80551032Y-95950189D01*
X80450988Y-95753843D01*
X80404666Y-95690085D01*
X80404665Y-95690085D01*
X79736562Y-96358189D01*
X79719525Y-96294607D01*
X79653699Y-96180593D01*
X79560607Y-96087501D01*
X79446593Y-96021675D01*
X79383007Y-96004637D01*
X80051113Y-95336532D01*
X80025919Y-95318228D01*
X79983253Y-95262898D01*
X79977274Y-95193285D01*
X80009879Y-95131489D01*
X80025913Y-95117594D01*
X80165965Y-95015842D01*
X80321842Y-94859965D01*
X80451415Y-94681622D01*
X80472212Y-94640804D01*
X80520186Y-94590009D01*
X80582697Y-94573100D01*
X81574807Y-94573100D01*
X81635229Y-94561081D01*
X81695652Y-94549063D01*
X81731264Y-94534312D01*
X81809486Y-94501912D01*
X81860709Y-94467684D01*
X81911933Y-94433458D01*
X81999058Y-94346333D01*
X81999058Y-94346331D01*
X82009266Y-94336124D01*
X82009267Y-94336121D01*
X88323883Y-88021506D01*
X88385204Y-87988023D01*
X88449880Y-87991258D01*
X88493449Y-88005415D01*
X88711178Y-88039900D01*
X88711179Y-88039900D01*
X88931621Y-88039900D01*
X88931622Y-88039900D01*
X89149351Y-88005415D01*
X89359006Y-87937295D01*
X89555422Y-87837215D01*
X89733765Y-87707642D01*
X89889642Y-87551765D01*
X89991391Y-87411717D01*
X90046720Y-87369053D01*
X90116333Y-87363074D01*
X90178129Y-87395679D01*
X90192028Y-87411719D01*
X90210332Y-87436913D01*
X90878437Y-86768807D01*
X90895475Y-86832393D01*
X90961301Y-86946407D01*
X91054393Y-87039499D01*
X91168407Y-87105325D01*
X91231990Y-87122362D01*
X90563885Y-87790465D01*
X90563885Y-87790466D01*
X90627643Y-87836788D01*
X90823989Y-87936832D01*
X91033564Y-88004926D01*
X91251219Y-88039400D01*
X91471581Y-88039400D01*
X91689235Y-88004926D01*
X91898810Y-87936832D01*
X92095160Y-87836786D01*
X92158913Y-87790466D01*
X92158914Y-87790466D01*
X91490809Y-87122362D01*
X91554393Y-87105325D01*
X91668407Y-87039499D01*
X91761499Y-86946407D01*
X91827325Y-86832393D01*
X91844362Y-86768809D01*
X92464581Y-87389028D01*
X92498066Y-87450351D01*
X92500900Y-87476708D01*
X92500900Y-87587269D01*
X92500901Y-87587276D01*
X92507308Y-87646883D01*
X92557602Y-87781728D01*
X92557606Y-87781735D01*
X92643852Y-87896944D01*
X92643855Y-87896947D01*
X92759064Y-87983193D01*
X92759071Y-87983197D01*
X92893917Y-88033491D01*
X92893916Y-88033491D01*
X92900844Y-88034235D01*
X92953527Y-88039900D01*
X94849272Y-88039899D01*
X94908883Y-88033491D01*
X95043731Y-87983196D01*
X95158946Y-87896946D01*
X95245196Y-87781731D01*
X95295491Y-87646883D01*
X95301900Y-87587273D01*
X95301899Y-85691528D01*
X95295491Y-85631917D01*
X95293276Y-85625978D01*
X95256447Y-85527233D01*
X95251463Y-85457541D01*
X95284948Y-85396218D01*
X95346272Y-85362734D01*
X95372629Y-85359900D01*
X97123948Y-85359900D01*
X97190987Y-85379585D01*
X97211629Y-85396219D01*
X97677891Y-85862481D01*
X97711376Y-85923804D01*
X97708141Y-85988480D01*
X97693985Y-86032047D01*
X97659500Y-86249778D01*
X97659500Y-86470221D01*
X97693985Y-86687952D01*
X97762103Y-86897603D01*
X97762104Y-86897606D01*
X97862187Y-87094025D01*
X97991752Y-87272358D01*
X97991756Y-87272363D01*
X98147636Y-87428243D01*
X98147641Y-87428247D01*
X98287254Y-87529682D01*
X98329920Y-87585012D01*
X98335899Y-87654625D01*
X98303293Y-87716420D01*
X98287254Y-87730318D01*
X98147641Y-87831752D01*
X98147636Y-87831756D01*
X97991756Y-87987636D01*
X97991752Y-87987641D01*
X97862187Y-88165974D01*
X97762104Y-88362393D01*
X97762103Y-88362396D01*
X97693985Y-88572047D01*
X97659500Y-88789778D01*
X97659500Y-89010221D01*
X97693985Y-89227952D01*
X97762103Y-89437603D01*
X97762104Y-89437606D01*
X97806929Y-89525577D01*
X97852843Y-89615688D01*
X97862187Y-89634025D01*
X97991752Y-89812358D01*
X97991756Y-89812363D01*
X98147636Y-89968243D01*
X98147641Y-89968247D01*
X98287254Y-90069682D01*
X98329920Y-90125012D01*
X98335899Y-90194625D01*
X98303293Y-90256420D01*
X98287254Y-90270318D01*
X98147641Y-90371752D01*
X98147636Y-90371756D01*
X97991756Y-90527636D01*
X97991752Y-90527641D01*
X97862187Y-90705974D01*
X97762104Y-90902393D01*
X97762103Y-90902396D01*
X97693985Y-91112047D01*
X97659500Y-91329778D01*
X97659500Y-91550221D01*
X97693985Y-91767952D01*
X97762103Y-91977603D01*
X97762104Y-91977606D01*
X97862187Y-92174025D01*
X97991752Y-92352358D01*
X97991756Y-92352363D01*
X98147636Y-92508243D01*
X98147641Y-92508247D01*
X98287254Y-92609682D01*
X98329920Y-92665012D01*
X98335899Y-92734625D01*
X98303293Y-92796420D01*
X98287254Y-92810318D01*
X98147641Y-92911752D01*
X98147636Y-92911756D01*
X97991756Y-93067636D01*
X97991752Y-93067641D01*
X97862187Y-93245974D01*
X97762104Y-93442393D01*
X97762103Y-93442396D01*
X97693985Y-93652047D01*
X97659500Y-93869778D01*
X97659500Y-94090221D01*
X97693985Y-94307952D01*
X97762103Y-94517603D01*
X97762104Y-94517606D01*
X97862187Y-94714025D01*
X97991752Y-94892358D01*
X97991756Y-94892363D01*
X98147636Y-95048243D01*
X98147641Y-95048247D01*
X98287254Y-95149682D01*
X98329920Y-95205012D01*
X98335899Y-95274625D01*
X98303293Y-95336420D01*
X98287254Y-95350318D01*
X98147641Y-95451752D01*
X98147636Y-95451756D01*
X97991756Y-95607636D01*
X97991752Y-95607641D01*
X97862187Y-95785974D01*
X97762104Y-95982393D01*
X97762103Y-95982396D01*
X97693985Y-96192047D01*
X97659500Y-96409778D01*
X97659500Y-96630221D01*
X97693985Y-96847952D01*
X97762103Y-97057603D01*
X97762104Y-97057606D01*
X97862187Y-97254025D01*
X97991752Y-97432358D01*
X97991756Y-97432363D01*
X98147636Y-97588243D01*
X98147641Y-97588247D01*
X98287254Y-97689682D01*
X98329920Y-97745012D01*
X98335899Y-97814625D01*
X98303293Y-97876420D01*
X98287254Y-97890318D01*
X98147641Y-97991752D01*
X98147636Y-97991756D01*
X97991756Y-98147636D01*
X97991752Y-98147641D01*
X97862187Y-98325974D01*
X97762104Y-98522393D01*
X97762103Y-98522396D01*
X97693985Y-98732047D01*
X97669041Y-98889539D01*
X97659500Y-98949778D01*
X97659500Y-99170222D01*
X97659982Y-99173267D01*
X97693985Y-99387952D01*
X97744097Y-99542182D01*
X97746092Y-99612023D01*
X97710011Y-99671856D01*
X97647310Y-99702684D01*
X97626166Y-99704500D01*
X95134273Y-99704500D01*
X95067234Y-99684815D01*
X95046592Y-99668181D01*
X94716242Y-99337832D01*
X94706279Y-99327869D01*
X94706278Y-99327867D01*
X94619153Y-99240742D01*
X94567929Y-99206515D01*
X94516706Y-99172288D01*
X94516703Y-99172286D01*
X94516700Y-99172285D01*
X94443023Y-99141768D01*
X94443021Y-99141767D01*
X94436212Y-99138947D01*
X94402872Y-99125137D01*
X94342449Y-99113118D01*
X94337726Y-99112178D01*
X94337724Y-99112178D01*
X94282030Y-99101100D01*
X94282027Y-99101100D01*
X94282026Y-99101100D01*
X91013321Y-99101100D01*
X91013301Y-99101099D01*
X91007187Y-99101099D01*
X90883974Y-99101099D01*
X90783177Y-99121148D01*
X90783172Y-99121148D01*
X90763129Y-99125136D01*
X90763127Y-99125136D01*
X90715977Y-99144667D01*
X90649299Y-99172285D01*
X90649297Y-99172286D01*
X90546846Y-99240741D01*
X90546843Y-99240744D01*
X89371169Y-100416420D01*
X88983869Y-100803720D01*
X88983867Y-100803722D01*
X88958045Y-100829544D01*
X88896742Y-100890846D01*
X88871416Y-100928750D01*
X88871415Y-100928751D01*
X88828290Y-100993289D01*
X88828285Y-100993298D01*
X88781140Y-101107118D01*
X88781135Y-101107134D01*
X88761787Y-101204408D01*
X88761787Y-101204409D01*
X88757100Y-101227971D01*
X88757100Y-104481010D01*
X88781135Y-104601846D01*
X88781139Y-104601859D01*
X88789227Y-104621385D01*
X88789230Y-104621392D01*
X88791080Y-104625857D01*
X88828288Y-104715686D01*
X88861574Y-104765500D01*
X88896742Y-104818133D01*
X88983867Y-104905258D01*
X88983868Y-104905258D01*
X88990935Y-104912325D01*
X88990934Y-104912325D01*
X88990938Y-104912328D01*
X89720463Y-105641855D01*
X89720467Y-105641858D01*
X89822910Y-105710309D01*
X89822911Y-105710309D01*
X89822915Y-105710312D01*
X89876398Y-105732465D01*
X89936748Y-105757463D01*
X90038937Y-105777789D01*
X90057589Y-105781499D01*
X90057593Y-105781500D01*
X90057594Y-105781500D01*
X90180807Y-105781500D01*
X90660500Y-105781500D01*
X90727539Y-105801185D01*
X90773294Y-105853989D01*
X90783238Y-105923147D01*
X90763602Y-105974391D01*
X90715209Y-106046814D01*
X90715202Y-106046827D01*
X90654864Y-106192498D01*
X90654861Y-106192510D01*
X90624100Y-106347153D01*
X90624100Y-106504846D01*
X90654861Y-106659489D01*
X90654864Y-106659501D01*
X90715202Y-106805172D01*
X90715209Y-106805184D01*
X90778202Y-106899459D01*
X90799080Y-106966136D01*
X90799100Y-106968350D01*
X90799100Y-110133593D01*
X90799100Y-110256807D01*
X90799100Y-110256809D01*
X90799099Y-110256809D01*
X90804597Y-110284444D01*
X90804599Y-110284451D01*
X90805353Y-110288242D01*
X90823137Y-110377652D01*
X90836947Y-110410992D01*
X90840128Y-110418672D01*
X90840129Y-110418675D01*
X90870285Y-110491481D01*
X90870288Y-110491486D01*
X90894209Y-110527285D01*
X90894210Y-110527288D01*
X90894211Y-110527288D01*
X90938741Y-110593933D01*
X91030186Y-110685378D01*
X91030208Y-110685398D01*
X92190644Y-111845834D01*
X92191786Y-111846991D01*
X92199736Y-111855152D01*
X92204942Y-111862943D01*
X92292067Y-111950068D01*
X92292070Y-111950070D01*
X92296985Y-111954985D01*
X95488606Y-115146606D01*
X95488620Y-115146621D01*
X95491731Y-115149732D01*
X95491732Y-115149733D01*
X95578857Y-115236858D01*
X95578860Y-115236860D01*
X95578862Y-115236862D01*
X95583572Y-115240728D01*
X95583446Y-115240881D01*
X95595967Y-115251157D01*
X96222629Y-115877819D01*
X96256114Y-115939142D01*
X96251130Y-116008834D01*
X96209258Y-116064767D01*
X96143794Y-116089184D01*
X96134948Y-116089500D01*
X92481204Y-116089500D01*
X92433755Y-116080062D01*
X92410097Y-116070263D01*
X92410093Y-116070262D01*
X92410088Y-116070260D01*
X92255445Y-116039500D01*
X92255442Y-116039500D01*
X92097758Y-116039500D01*
X92097755Y-116039500D01*
X91943110Y-116070261D01*
X91943098Y-116070264D01*
X91797427Y-116130602D01*
X91797414Y-116130609D01*
X91666311Y-116218210D01*
X91666307Y-116218213D01*
X91554813Y-116329707D01*
X91554810Y-116329711D01*
X91467209Y-116460814D01*
X91467202Y-116460827D01*
X91406864Y-116606498D01*
X91406861Y-116606510D01*
X91376100Y-116761153D01*
X91376100Y-116918846D01*
X91406861Y-117073489D01*
X91406864Y-117073501D01*
X91467202Y-117219172D01*
X91467209Y-117219185D01*
X91554810Y-117350288D01*
X91554813Y-117350292D01*
X91666307Y-117461786D01*
X91666311Y-117461789D01*
X91797414Y-117549390D01*
X91797427Y-117549397D01*
X91943098Y-117609735D01*
X91943103Y-117609737D01*
X92097753Y-117640499D01*
X92097756Y-117640500D01*
X92097758Y-117640500D01*
X92255444Y-117640500D01*
X92255445Y-117640499D01*
X92331752Y-117625320D01*
X92410088Y-117609739D01*
X92410089Y-117609738D01*
X92410097Y-117609737D01*
X92433755Y-117599937D01*
X92481204Y-117590500D01*
X97810976Y-117590500D01*
X97878015Y-117610185D01*
X97911295Y-117641616D01*
X97991754Y-117752361D01*
X98147640Y-117908247D01*
X98287679Y-118009990D01*
X98330345Y-118065319D01*
X98336324Y-118134933D01*
X98303719Y-118196728D01*
X98287679Y-118210626D01*
X98262485Y-118228930D01*
X98262485Y-118228932D01*
X98930590Y-118897037D01*
X98867007Y-118914075D01*
X98752993Y-118979901D01*
X98659901Y-119072993D01*
X98594075Y-119187007D01*
X98577037Y-119250590D01*
X97908932Y-118582485D01*
X97908931Y-118582485D01*
X97862616Y-118646233D01*
X97762567Y-118842589D01*
X97694473Y-119052164D01*
X97660000Y-119269818D01*
X97660000Y-119490181D01*
X97694473Y-119707835D01*
X97762567Y-119917410D01*
X97862611Y-120113756D01*
X97908932Y-120177513D01*
X98577037Y-119509408D01*
X98594075Y-119572993D01*
X98659901Y-119687007D01*
X98752993Y-119780099D01*
X98867007Y-119845925D01*
X98930590Y-119862962D01*
X98262485Y-120531065D01*
X98262485Y-120531066D01*
X98326243Y-120577388D01*
X98522589Y-120677432D01*
X98732164Y-120745526D01*
X98949819Y-120780000D01*
X99170181Y-120780000D01*
X99387835Y-120745526D01*
X99597410Y-120677432D01*
X99793760Y-120577386D01*
X99857513Y-120531066D01*
X99857514Y-120531066D01*
X99189409Y-119862962D01*
X99252993Y-119845925D01*
X99367007Y-119780099D01*
X99460099Y-119687007D01*
X99525925Y-119572993D01*
X99542962Y-119509410D01*
X100211066Y-120177514D01*
X100211066Y-120177513D01*
X100257386Y-120113760D01*
X100357432Y-119917410D01*
X100425526Y-119707835D01*
X100460000Y-119490181D01*
X100460000Y-119269818D01*
X100425526Y-119052164D01*
X100357432Y-118842589D01*
X100257388Y-118646243D01*
X100211066Y-118582485D01*
X100211065Y-118582485D01*
X99542962Y-119250589D01*
X99525925Y-119187007D01*
X99460099Y-119072993D01*
X99367007Y-118979901D01*
X99252993Y-118914075D01*
X99189407Y-118897037D01*
X99857513Y-118228932D01*
X99832319Y-118210628D01*
X99789653Y-118155298D01*
X99783674Y-118085685D01*
X99816279Y-118023889D01*
X99832313Y-118009994D01*
X99972365Y-117908242D01*
X100128242Y-117752365D01*
X100257815Y-117574022D01*
X100357895Y-117377606D01*
X100426015Y-117167951D01*
X100460500Y-116950222D01*
X100460500Y-116729778D01*
X100426015Y-116512049D01*
X100375902Y-116357817D01*
X100373908Y-116287977D01*
X100409989Y-116228144D01*
X100472690Y-116197316D01*
X100493834Y-116195500D01*
X123026692Y-116195500D01*
X123093731Y-116215185D01*
X123139486Y-116267989D01*
X123149430Y-116337147D01*
X123144623Y-116357818D01*
X123094473Y-116512164D01*
X123060000Y-116729818D01*
X123060000Y-116950181D01*
X123094473Y-117167835D01*
X123162567Y-117377410D01*
X123262611Y-117573756D01*
X123308932Y-117637513D01*
X123977037Y-116969408D01*
X123994075Y-117032993D01*
X124059901Y-117147007D01*
X124152993Y-117240099D01*
X124267007Y-117305925D01*
X124330590Y-117322962D01*
X123684534Y-117969016D01*
X123726728Y-118055760D01*
X123727593Y-118060889D01*
X123730771Y-118065010D01*
X123733345Y-118094986D01*
X123738351Y-118124656D01*
X123736304Y-118129441D01*
X123736750Y-118134624D01*
X123722710Y-118161232D01*
X123710880Y-118188899D01*
X123706573Y-118191817D01*
X123704145Y-118196419D01*
X123688105Y-118210317D01*
X123662485Y-118228930D01*
X123662485Y-118228932D01*
X124330590Y-118897037D01*
X124267007Y-118914075D01*
X124152993Y-118979901D01*
X124059901Y-119072993D01*
X123994075Y-119187007D01*
X123977037Y-119250590D01*
X123308932Y-118582485D01*
X123308931Y-118582485D01*
X123262616Y-118646233D01*
X123162567Y-118842589D01*
X123094473Y-119052164D01*
X123060000Y-119269818D01*
X123060000Y-119490181D01*
X123094473Y-119707835D01*
X123162567Y-119917410D01*
X123262611Y-120113756D01*
X123308932Y-120177513D01*
X123977037Y-119509408D01*
X123994075Y-119572993D01*
X124059901Y-119687007D01*
X124152993Y-119780099D01*
X124267007Y-119845925D01*
X124330590Y-119862962D01*
X123662485Y-120531065D01*
X123662485Y-120531066D01*
X123726243Y-120577388D01*
X123922589Y-120677432D01*
X124132164Y-120745526D01*
X124349819Y-120780000D01*
X124570181Y-120780000D01*
X124787835Y-120745526D01*
X124997410Y-120677432D01*
X125193760Y-120577386D01*
X125257513Y-120531066D01*
X125257514Y-120531066D01*
X124589409Y-119862962D01*
X124652993Y-119845925D01*
X124767007Y-119780099D01*
X124860099Y-119687007D01*
X124925925Y-119572993D01*
X124942962Y-119509410D01*
X125611066Y-120177514D01*
X125611066Y-120177513D01*
X125657386Y-120113760D01*
X125757432Y-119917410D01*
X125798780Y-119790155D01*
X128140000Y-119790155D01*
X128140000Y-120488000D01*
X129106988Y-120488000D01*
X129074075Y-120545007D01*
X129040000Y-120672174D01*
X129040000Y-120803826D01*
X129074075Y-120930993D01*
X129106988Y-120988000D01*
X128140000Y-120988000D01*
X128140000Y-121685844D01*
X128146401Y-121745372D01*
X128146403Y-121745379D01*
X128196645Y-121880086D01*
X128196649Y-121880093D01*
X128282809Y-121995187D01*
X128282812Y-121995190D01*
X128397906Y-122081350D01*
X128397913Y-122081354D01*
X128532620Y-122131596D01*
X128532627Y-122131598D01*
X128592155Y-122137999D01*
X128592172Y-122138000D01*
X129290000Y-122138000D01*
X129290000Y-121171012D01*
X129347007Y-121203925D01*
X129474174Y-121238000D01*
X129605826Y-121238000D01*
X129732993Y-121203925D01*
X129790000Y-121171012D01*
X129790000Y-122138000D01*
X130487828Y-122138000D01*
X130487844Y-122137999D01*
X130547372Y-122131598D01*
X130547379Y-122131596D01*
X130682086Y-122081354D01*
X130682093Y-122081350D01*
X130797187Y-121995190D01*
X130797190Y-121995187D01*
X130883350Y-121880093D01*
X130883354Y-121880086D01*
X130933596Y-121745379D01*
X130933598Y-121745372D01*
X130939999Y-121685844D01*
X130940000Y-121685827D01*
X130940000Y-120988000D01*
X129973012Y-120988000D01*
X130005925Y-120930993D01*
X130040000Y-120803826D01*
X130040000Y-120672174D01*
X130005925Y-120545007D01*
X129973012Y-120488000D01*
X130940000Y-120488000D01*
X130940000Y-119790164D01*
X130939997Y-119790135D01*
X143379500Y-119790135D01*
X143379500Y-121685870D01*
X143379501Y-121685876D01*
X143385908Y-121745483D01*
X143436202Y-121880328D01*
X143436206Y-121880335D01*
X143522452Y-121995544D01*
X143522455Y-121995547D01*
X143637664Y-122081793D01*
X143637671Y-122081797D01*
X143772517Y-122132091D01*
X143772516Y-122132091D01*
X143779444Y-122132835D01*
X143832127Y-122138500D01*
X145727872Y-122138499D01*
X145787483Y-122132091D01*
X145922331Y-122081796D01*
X146037546Y-121995546D01*
X146123796Y-121880331D01*
X146174091Y-121745483D01*
X146180500Y-121685873D01*
X146180499Y-119790128D01*
X146174091Y-119730517D01*
X146165631Y-119707835D01*
X146123797Y-119595671D01*
X146123793Y-119595664D01*
X146037547Y-119480455D01*
X146037544Y-119480452D01*
X145922335Y-119394206D01*
X145922326Y-119394201D01*
X145897717Y-119385023D01*
X145897716Y-119385023D01*
X145787482Y-119343908D01*
X145787483Y-119343908D01*
X145727883Y-119337501D01*
X145727881Y-119337500D01*
X145727873Y-119337500D01*
X145727864Y-119337500D01*
X143832129Y-119337500D01*
X143832123Y-119337501D01*
X143772516Y-119343908D01*
X143637671Y-119394202D01*
X143637664Y-119394206D01*
X143522455Y-119480452D01*
X143522452Y-119480455D01*
X143436206Y-119595664D01*
X143436202Y-119595671D01*
X143385908Y-119730517D01*
X143380578Y-119780099D01*
X143379501Y-119790123D01*
X143379500Y-119790135D01*
X130939997Y-119790135D01*
X130933598Y-119730627D01*
X130933596Y-119730620D01*
X130883354Y-119595913D01*
X130883350Y-119595906D01*
X130797190Y-119480812D01*
X130797187Y-119480809D01*
X130682093Y-119394649D01*
X130682086Y-119394645D01*
X130547379Y-119344403D01*
X130547372Y-119344401D01*
X130487844Y-119338000D01*
X129790000Y-119338000D01*
X129790000Y-120304988D01*
X129732993Y-120272075D01*
X129605826Y-120238000D01*
X129474174Y-120238000D01*
X129347007Y-120272075D01*
X129290000Y-120304988D01*
X129290000Y-119338000D01*
X128592155Y-119338000D01*
X128532627Y-119344401D01*
X128532620Y-119344403D01*
X128397913Y-119394645D01*
X128397906Y-119394649D01*
X128282812Y-119480809D01*
X128282809Y-119480812D01*
X128196649Y-119595906D01*
X128196645Y-119595913D01*
X128146403Y-119730620D01*
X128146401Y-119730627D01*
X128140000Y-119790155D01*
X125798780Y-119790155D01*
X125812304Y-119748533D01*
X125812304Y-119748532D01*
X125825526Y-119707837D01*
X125860000Y-119490181D01*
X125860000Y-119273713D01*
X156129500Y-119273713D01*
X156129500Y-119486286D01*
X156146824Y-119595669D01*
X156162754Y-119696243D01*
X156193259Y-119790128D01*
X156228444Y-119898414D01*
X156324951Y-120087820D01*
X156449890Y-120259786D01*
X156600213Y-120410109D01*
X156772179Y-120535048D01*
X156772181Y-120535049D01*
X156772184Y-120535051D01*
X156961588Y-120631557D01*
X157163757Y-120697246D01*
X157373713Y-120730500D01*
X157373714Y-120730500D01*
X157586286Y-120730500D01*
X157586287Y-120730500D01*
X157796243Y-120697246D01*
X157998412Y-120631557D01*
X158187816Y-120535051D01*
X158331041Y-120430993D01*
X158359786Y-120410109D01*
X158359788Y-120410106D01*
X158359792Y-120410104D01*
X158510104Y-120259792D01*
X158510106Y-120259788D01*
X158510109Y-120259786D01*
X158635048Y-120087820D01*
X158635047Y-120087820D01*
X158635051Y-120087816D01*
X158731557Y-119898412D01*
X158797246Y-119696243D01*
X158830500Y-119486287D01*
X158830500Y-119273713D01*
X158797246Y-119063757D01*
X158731557Y-118861588D01*
X158635051Y-118672184D01*
X158635049Y-118672181D01*
X158635048Y-118672179D01*
X158510109Y-118500213D01*
X158359786Y-118349890D01*
X158187820Y-118224951D01*
X157998414Y-118128444D01*
X157998413Y-118128443D01*
X157998412Y-118128443D01*
X157796243Y-118062754D01*
X157796241Y-118062753D01*
X157796240Y-118062753D01*
X157621669Y-118035104D01*
X157586287Y-118029500D01*
X157373713Y-118029500D01*
X157338331Y-118035104D01*
X157163760Y-118062753D01*
X156961585Y-118128444D01*
X156772179Y-118224951D01*
X156600213Y-118349890D01*
X156449890Y-118500213D01*
X156324951Y-118672179D01*
X156228444Y-118861585D01*
X156162753Y-119063760D01*
X156129500Y-119273713D01*
X125860000Y-119273713D01*
X125860000Y-119269818D01*
X125825526Y-119052164D01*
X125757432Y-118842589D01*
X125657388Y-118646243D01*
X125611066Y-118582485D01*
X125611065Y-118582485D01*
X124942962Y-119250589D01*
X124925925Y-119187007D01*
X124860099Y-119072993D01*
X124767007Y-118979901D01*
X124652993Y-118914075D01*
X124589407Y-118897037D01*
X125257513Y-118228932D01*
X125257513Y-118228931D01*
X125231893Y-118210317D01*
X125189227Y-118154987D01*
X125183248Y-118085374D01*
X125215854Y-118023579D01*
X125231893Y-118009680D01*
X125257513Y-117991065D01*
X124589409Y-117322962D01*
X124652993Y-117305925D01*
X124767007Y-117240099D01*
X124860099Y-117147007D01*
X124925925Y-117032993D01*
X124942962Y-116969409D01*
X125611066Y-117637514D01*
X125611066Y-117637513D01*
X125657386Y-117573760D01*
X125757432Y-117377410D01*
X125825526Y-117167835D01*
X125860000Y-116950181D01*
X125860000Y-116729818D01*
X125825526Y-116512164D01*
X125775377Y-116357818D01*
X125773382Y-116287977D01*
X125809463Y-116228144D01*
X125872164Y-116197316D01*
X125893308Y-116195500D01*
X126198007Y-116195500D01*
X126258429Y-116183481D01*
X126318852Y-116171463D01*
X126352192Y-116157652D01*
X126432686Y-116124312D01*
X126513574Y-116070263D01*
X126535133Y-116055858D01*
X126622258Y-115968733D01*
X126622260Y-115968729D01*
X127160397Y-115430591D01*
X127221718Y-115397108D01*
X127223728Y-115396689D01*
X127335097Y-115374537D01*
X127480779Y-115314194D01*
X127611889Y-115226589D01*
X127723389Y-115115089D01*
X127810994Y-114983979D01*
X127871337Y-114838297D01*
X127902100Y-114683642D01*
X127902100Y-114525958D01*
X127902100Y-114525955D01*
X127902099Y-114525953D01*
X127893458Y-114482514D01*
X127871337Y-114371303D01*
X127871335Y-114371298D01*
X127810997Y-114225627D01*
X127810990Y-114225614D01*
X127723389Y-114094511D01*
X127723386Y-114094507D01*
X127611892Y-113983013D01*
X127611888Y-113983010D01*
X127480785Y-113895409D01*
X127480778Y-113895405D01*
X127477534Y-113894062D01*
X127476095Y-113892903D01*
X127475409Y-113892536D01*
X127475478Y-113892405D01*
X127423130Y-113850221D01*
X127401064Y-113783928D01*
X127418342Y-113716228D01*
X127469479Y-113668617D01*
X127524985Y-113655500D01*
X129093607Y-113655500D01*
X129154029Y-113643481D01*
X129214452Y-113631463D01*
X129267357Y-113609549D01*
X129328286Y-113584312D01*
X129379509Y-113550084D01*
X129430733Y-113515858D01*
X129517858Y-113428733D01*
X129517859Y-113428731D01*
X129524925Y-113421665D01*
X129524927Y-113421661D01*
X139004811Y-103941778D01*
X147283500Y-103941778D01*
X147283500Y-104162221D01*
X147317985Y-104379952D01*
X147386103Y-104589603D01*
X147386104Y-104589606D01*
X147431394Y-104678490D01*
X147481493Y-104776814D01*
X147486187Y-104786025D01*
X147615752Y-104964358D01*
X147615756Y-104964363D01*
X147771640Y-105120247D01*
X147911679Y-105221990D01*
X147954345Y-105277319D01*
X147960324Y-105346933D01*
X147927719Y-105408728D01*
X147911679Y-105422626D01*
X147886485Y-105440930D01*
X147886485Y-105440932D01*
X148554590Y-106109037D01*
X148491007Y-106126075D01*
X148376993Y-106191901D01*
X148283901Y-106284993D01*
X148218075Y-106399007D01*
X148201037Y-106462590D01*
X147532932Y-105794485D01*
X147532931Y-105794485D01*
X147486616Y-105858233D01*
X147386567Y-106054589D01*
X147318473Y-106264164D01*
X147284000Y-106481818D01*
X147284000Y-106702181D01*
X147318473Y-106919835D01*
X147386567Y-107129410D01*
X147486611Y-107325756D01*
X147532932Y-107389513D01*
X148201037Y-106721408D01*
X148218075Y-106784993D01*
X148283901Y-106899007D01*
X148376993Y-106992099D01*
X148491007Y-107057925D01*
X148554590Y-107074962D01*
X147886485Y-107743065D01*
X147886485Y-107743066D01*
X147911680Y-107761371D01*
X147954346Y-107816701D01*
X147960325Y-107886314D01*
X147927720Y-107948110D01*
X147911681Y-107962008D01*
X147771636Y-108063756D01*
X147615756Y-108219636D01*
X147615752Y-108219641D01*
X147486187Y-108397974D01*
X147386104Y-108594393D01*
X147386103Y-108594396D01*
X147317985Y-108804047D01*
X147283500Y-109021778D01*
X147283500Y-109242221D01*
X147317985Y-109459952D01*
X147386103Y-109669603D01*
X147386104Y-109669606D01*
X147486187Y-109866025D01*
X147615752Y-110044358D01*
X147615756Y-110044363D01*
X147665928Y-110094535D01*
X147699413Y-110155858D01*
X147694429Y-110225550D01*
X147652557Y-110281483D01*
X147621581Y-110298398D01*
X147541669Y-110328203D01*
X147541664Y-110328206D01*
X147426455Y-110414452D01*
X147426452Y-110414455D01*
X147340206Y-110529664D01*
X147340202Y-110529671D01*
X147289908Y-110664517D01*
X147286980Y-110691756D01*
X147283501Y-110724123D01*
X147283500Y-110724135D01*
X147283500Y-112619870D01*
X147283501Y-112619876D01*
X147289908Y-112679483D01*
X147340202Y-112814328D01*
X147340206Y-112814335D01*
X147426452Y-112929544D01*
X147426455Y-112929547D01*
X147541664Y-113015793D01*
X147541671Y-113015797D01*
X147676517Y-113066091D01*
X147676516Y-113066091D01*
X147683444Y-113066835D01*
X147736127Y-113072500D01*
X149631872Y-113072499D01*
X149691483Y-113066091D01*
X149826331Y-113015796D01*
X149941546Y-112929546D01*
X150027796Y-112814331D01*
X150078091Y-112679483D01*
X150084500Y-112619873D01*
X150084499Y-111069983D01*
X156081100Y-111069983D01*
X156081100Y-112370001D01*
X156081101Y-112370018D01*
X156091600Y-112472796D01*
X156091601Y-112472799D01*
X156146785Y-112639331D01*
X156146787Y-112639336D01*
X156171549Y-112679482D01*
X156238888Y-112788656D01*
X156362944Y-112912712D01*
X156512266Y-113004814D01*
X156678803Y-113059999D01*
X156781591Y-113070500D01*
X158381608Y-113070499D01*
X158484397Y-113059999D01*
X158650934Y-113004814D01*
X158800256Y-112912712D01*
X158924312Y-112788656D01*
X159016414Y-112639334D01*
X159071599Y-112472797D01*
X159082100Y-112370009D01*
X159082099Y-111069992D01*
X159071599Y-110967203D01*
X159016414Y-110800666D01*
X158924312Y-110651344D01*
X158800256Y-110527288D01*
X158650934Y-110435186D01*
X158650932Y-110435185D01*
X158645040Y-110431551D01*
X158598316Y-110379603D01*
X158587093Y-110310641D01*
X158614937Y-110246558D01*
X158622456Y-110238330D01*
X158761328Y-110099458D01*
X158886220Y-109927557D01*
X158982695Y-109738217D01*
X159048357Y-109536129D01*
X159048357Y-109536126D01*
X159058831Y-109470000D01*
X158014612Y-109470000D01*
X158047525Y-109412993D01*
X158081600Y-109285826D01*
X158081600Y-109154174D01*
X158047525Y-109027007D01*
X158014612Y-108970000D01*
X159058831Y-108970000D01*
X159048357Y-108903873D01*
X159048357Y-108903870D01*
X158982695Y-108701782D01*
X158886220Y-108512442D01*
X158761327Y-108340540D01*
X158761323Y-108340535D01*
X158611064Y-108190276D01*
X158611059Y-108190272D01*
X158439157Y-108065379D01*
X158249817Y-107968904D01*
X158047729Y-107903242D01*
X157837846Y-107870000D01*
X157831600Y-107870000D01*
X157831600Y-108786988D01*
X157774593Y-108754075D01*
X157647426Y-108720000D01*
X157515774Y-108720000D01*
X157388607Y-108754075D01*
X157331600Y-108786988D01*
X157331600Y-107870000D01*
X157325354Y-107870000D01*
X157115472Y-107903242D01*
X157115469Y-107903242D01*
X156913382Y-107968904D01*
X156724042Y-108065379D01*
X156552140Y-108190272D01*
X156552135Y-108190276D01*
X156401876Y-108340535D01*
X156401872Y-108340540D01*
X156276979Y-108512442D01*
X156180504Y-108701782D01*
X156114842Y-108903870D01*
X156114842Y-108903873D01*
X156104369Y-108970000D01*
X157148588Y-108970000D01*
X157115675Y-109027007D01*
X157081600Y-109154174D01*
X157081600Y-109285826D01*
X157115675Y-109412993D01*
X157148588Y-109470000D01*
X156104369Y-109470000D01*
X156114842Y-109536126D01*
X156114842Y-109536129D01*
X156180504Y-109738217D01*
X156276979Y-109927557D01*
X156401872Y-110099459D01*
X156401876Y-110099464D01*
X156540743Y-110238331D01*
X156574228Y-110299654D01*
X156569244Y-110369346D01*
X156527372Y-110425279D01*
X156518159Y-110431551D01*
X156362942Y-110527289D01*
X156238889Y-110651342D01*
X156146787Y-110800663D01*
X156146786Y-110800666D01*
X156091601Y-110967203D01*
X156091601Y-110967204D01*
X156091600Y-110967204D01*
X156081100Y-111069983D01*
X150084499Y-111069983D01*
X150084499Y-110724128D01*
X150078091Y-110664517D01*
X150071985Y-110648147D01*
X150027797Y-110529671D01*
X150027793Y-110529664D01*
X149941547Y-110414455D01*
X149941544Y-110414452D01*
X149826335Y-110328206D01*
X149826328Y-110328202D01*
X149746419Y-110298398D01*
X149690485Y-110256527D01*
X149666068Y-110191062D01*
X149680920Y-110122789D01*
X149702069Y-110094537D01*
X149752242Y-110044365D01*
X149881815Y-109866022D01*
X149981895Y-109669606D01*
X150050015Y-109459951D01*
X150084500Y-109242222D01*
X150084500Y-109021778D01*
X150050015Y-108804049D01*
X150010488Y-108682396D01*
X149981896Y-108594396D01*
X149981895Y-108594393D01*
X149940138Y-108512442D01*
X149881815Y-108397978D01*
X149840084Y-108340540D01*
X149752247Y-108219641D01*
X149752243Y-108219636D01*
X149596363Y-108063756D01*
X149596358Y-108063752D01*
X149456319Y-107962008D01*
X149413653Y-107906678D01*
X149407674Y-107837065D01*
X149440279Y-107775270D01*
X149456319Y-107761372D01*
X149481513Y-107743066D01*
X149481514Y-107743066D01*
X148813409Y-107074962D01*
X148876993Y-107057925D01*
X148991007Y-106992099D01*
X149084099Y-106899007D01*
X149149925Y-106784993D01*
X149166962Y-106721410D01*
X149835066Y-107389514D01*
X149835066Y-107389513D01*
X149881386Y-107325760D01*
X149981432Y-107129410D01*
X150049526Y-106919835D01*
X150084000Y-106702181D01*
X150084000Y-106481818D01*
X150049526Y-106264164D01*
X149981432Y-106054589D01*
X149881388Y-105858243D01*
X149835066Y-105794485D01*
X149835065Y-105794485D01*
X149166962Y-106462589D01*
X149149925Y-106399007D01*
X149084099Y-106284993D01*
X148991007Y-106191901D01*
X148876993Y-106126075D01*
X148813407Y-106109037D01*
X149481513Y-105440932D01*
X149456319Y-105422628D01*
X149413653Y-105367298D01*
X149407674Y-105297685D01*
X149440279Y-105235889D01*
X149456313Y-105221994D01*
X149596365Y-105120242D01*
X149752242Y-104964365D01*
X149881815Y-104786022D01*
X149981895Y-104589606D01*
X150050015Y-104379951D01*
X150084500Y-104162222D01*
X150084500Y-103941778D01*
X150050015Y-103724049D01*
X150010488Y-103602396D01*
X149981896Y-103514396D01*
X149981895Y-103514393D01*
X149947237Y-103446375D01*
X149881815Y-103317978D01*
X149816178Y-103227636D01*
X149752247Y-103139641D01*
X149752243Y-103139636D01*
X149596363Y-102983756D01*
X149596358Y-102983752D01*
X149418025Y-102854187D01*
X149418024Y-102854186D01*
X149418022Y-102854185D01*
X149355096Y-102822122D01*
X149221606Y-102754104D01*
X149221603Y-102754103D01*
X149011952Y-102685985D01*
X148854019Y-102660971D01*
X148794222Y-102651500D01*
X148573778Y-102651500D01*
X148513981Y-102660971D01*
X148356047Y-102685985D01*
X148146396Y-102754103D01*
X148146393Y-102754104D01*
X147949974Y-102854187D01*
X147771641Y-102983752D01*
X147771636Y-102983756D01*
X147615756Y-103139636D01*
X147615752Y-103139641D01*
X147486187Y-103317974D01*
X147386104Y-103514393D01*
X147386103Y-103514396D01*
X147317985Y-103724047D01*
X147283500Y-103941778D01*
X139004811Y-103941778D01*
X142712771Y-100233819D01*
X142774094Y-100200334D01*
X142800452Y-100197500D01*
X147159501Y-100197500D01*
X147226540Y-100217185D01*
X147272295Y-100269989D01*
X147283501Y-100321500D01*
X147283501Y-100519876D01*
X147289908Y-100579483D01*
X147340202Y-100714328D01*
X147340206Y-100714335D01*
X147426452Y-100829544D01*
X147426455Y-100829547D01*
X147541664Y-100915793D01*
X147541671Y-100915797D01*
X147676517Y-100966091D01*
X147676516Y-100966091D01*
X147683444Y-100966835D01*
X147736127Y-100972500D01*
X149631872Y-100972499D01*
X149691483Y-100966091D01*
X149826331Y-100915796D01*
X149941546Y-100829546D01*
X150027796Y-100714331D01*
X150078091Y-100579483D01*
X150084500Y-100519873D01*
X150084500Y-100209583D01*
X156081100Y-100209583D01*
X156081100Y-101509601D01*
X156081101Y-101509618D01*
X156091600Y-101612396D01*
X156091601Y-101612399D01*
X156124017Y-101710222D01*
X156146786Y-101778934D01*
X156238888Y-101928256D01*
X156362944Y-102052312D01*
X156512266Y-102144414D01*
X156678803Y-102199599D01*
X156781591Y-102210100D01*
X158381608Y-102210099D01*
X158484397Y-102199599D01*
X158650934Y-102144414D01*
X158800256Y-102052312D01*
X158924312Y-101928256D01*
X159016414Y-101778934D01*
X159071599Y-101612397D01*
X159082100Y-101509609D01*
X159082099Y-100209592D01*
X159081776Y-100206434D01*
X159071599Y-100106803D01*
X159071598Y-100106800D01*
X159047833Y-100035082D01*
X159016414Y-99940266D01*
X158924312Y-99790944D01*
X158800256Y-99666888D01*
X158650934Y-99574786D01*
X158650932Y-99574785D01*
X158645040Y-99571151D01*
X158598316Y-99519203D01*
X158587093Y-99450241D01*
X158614937Y-99386158D01*
X158622456Y-99377930D01*
X158761328Y-99239058D01*
X158886220Y-99067157D01*
X158982695Y-98877817D01*
X159048357Y-98675729D01*
X159048357Y-98675726D01*
X159058831Y-98609600D01*
X158014612Y-98609600D01*
X158047525Y-98552593D01*
X158081600Y-98425426D01*
X158081600Y-98293774D01*
X158047525Y-98166607D01*
X158014612Y-98109600D01*
X159058831Y-98109600D01*
X159048357Y-98043473D01*
X159048357Y-98043470D01*
X158982695Y-97841382D01*
X158886220Y-97652042D01*
X158761327Y-97480140D01*
X158761323Y-97480135D01*
X158611064Y-97329876D01*
X158611059Y-97329872D01*
X158439157Y-97204979D01*
X158249817Y-97108504D01*
X158047729Y-97042842D01*
X157837846Y-97009600D01*
X157831600Y-97009600D01*
X157831600Y-97926588D01*
X157774593Y-97893675D01*
X157647426Y-97859600D01*
X157515774Y-97859600D01*
X157388607Y-97893675D01*
X157331600Y-97926588D01*
X157331600Y-97009600D01*
X157325354Y-97009600D01*
X157115472Y-97042842D01*
X157115469Y-97042842D01*
X156913382Y-97108504D01*
X156724042Y-97204979D01*
X156552140Y-97329872D01*
X156552135Y-97329876D01*
X156401876Y-97480135D01*
X156401872Y-97480140D01*
X156276979Y-97652042D01*
X156180504Y-97841382D01*
X156114842Y-98043470D01*
X156114842Y-98043473D01*
X156104369Y-98109600D01*
X157148588Y-98109600D01*
X157115675Y-98166607D01*
X157081600Y-98293774D01*
X157081600Y-98425426D01*
X157115675Y-98552593D01*
X157148588Y-98609600D01*
X156104369Y-98609600D01*
X156114842Y-98675726D01*
X156114842Y-98675729D01*
X156180504Y-98877817D01*
X156276979Y-99067157D01*
X156401872Y-99239059D01*
X156401876Y-99239064D01*
X156540743Y-99377931D01*
X156574228Y-99439254D01*
X156569244Y-99508946D01*
X156527372Y-99564879D01*
X156518159Y-99571151D01*
X156362942Y-99666889D01*
X156238889Y-99790942D01*
X156146787Y-99940263D01*
X156146785Y-99940268D01*
X156135116Y-99975483D01*
X156091601Y-100106803D01*
X156091601Y-100106804D01*
X156091600Y-100106804D01*
X156081100Y-100209583D01*
X150084500Y-100209583D01*
X150084499Y-99571151D01*
X150084499Y-98624129D01*
X150084498Y-98624123D01*
X150084497Y-98624116D01*
X150078091Y-98564517D01*
X150077331Y-98562480D01*
X150027797Y-98429671D01*
X150027793Y-98429664D01*
X149941547Y-98314455D01*
X149941544Y-98314452D01*
X149859770Y-98253235D01*
X149859764Y-98253232D01*
X149826331Y-98228204D01*
X149741217Y-98196458D01*
X149736192Y-98194052D01*
X149714180Y-98174265D01*
X149690485Y-98156527D01*
X149688485Y-98151166D01*
X149684231Y-98147342D01*
X149676411Y-98118794D01*
X149666068Y-98091062D01*
X149667284Y-98085471D01*
X149665773Y-98079954D01*
X149674627Y-98051713D01*
X149680920Y-98022789D01*
X149685698Y-98016405D01*
X149686677Y-98013285D01*
X149690299Y-98010260D01*
X149702069Y-97994537D01*
X149752242Y-97944365D01*
X149881815Y-97766022D01*
X149981895Y-97569606D01*
X150050015Y-97359951D01*
X150084500Y-97142222D01*
X150084500Y-96921778D01*
X150050015Y-96704049D01*
X150004260Y-96563228D01*
X149981896Y-96494396D01*
X149981895Y-96494393D01*
X149944893Y-96421774D01*
X149881815Y-96297978D01*
X149804852Y-96192047D01*
X149752247Y-96119641D01*
X149752243Y-96119636D01*
X149596363Y-95963756D01*
X149596358Y-95963752D01*
X149456319Y-95862008D01*
X149413653Y-95806678D01*
X149407674Y-95737065D01*
X149440279Y-95675270D01*
X149456319Y-95661372D01*
X149481513Y-95643066D01*
X149481514Y-95643066D01*
X148813409Y-94974962D01*
X148876993Y-94957925D01*
X148991007Y-94892099D01*
X149084099Y-94799007D01*
X149149925Y-94684993D01*
X149166962Y-94621410D01*
X149835066Y-95289514D01*
X149835066Y-95289513D01*
X149881386Y-95225760D01*
X149981432Y-95029410D01*
X150049526Y-94819835D01*
X150084000Y-94602181D01*
X150084000Y-94381818D01*
X150049526Y-94164164D01*
X149981432Y-93954589D01*
X149881388Y-93758243D01*
X149835066Y-93694485D01*
X149835065Y-93694485D01*
X149166962Y-94362589D01*
X149149925Y-94299007D01*
X149084099Y-94184993D01*
X148991007Y-94091901D01*
X148876993Y-94026075D01*
X148813407Y-94009037D01*
X149481513Y-93340932D01*
X149456319Y-93322628D01*
X149413653Y-93267298D01*
X149407674Y-93197685D01*
X149440279Y-93135889D01*
X149456313Y-93121994D01*
X149596365Y-93020242D01*
X149752242Y-92864365D01*
X149881815Y-92686022D01*
X149981895Y-92489606D01*
X150050015Y-92279951D01*
X150084500Y-92062222D01*
X150084500Y-91841778D01*
X150050015Y-91624049D01*
X150004260Y-91483227D01*
X149981896Y-91414396D01*
X149981895Y-91414393D01*
X149947237Y-91346375D01*
X149881815Y-91217978D01*
X149865260Y-91195192D01*
X149752247Y-91039641D01*
X149752243Y-91039636D01*
X149596363Y-90883756D01*
X149596358Y-90883752D01*
X149418025Y-90754187D01*
X149418024Y-90754186D01*
X149418022Y-90754185D01*
X149339931Y-90714395D01*
X149221606Y-90654104D01*
X149221603Y-90654103D01*
X149011952Y-90585985D01*
X148858401Y-90561665D01*
X148794222Y-90551500D01*
X148573778Y-90551500D01*
X148509599Y-90561665D01*
X148356047Y-90585985D01*
X148146396Y-90654103D01*
X148146393Y-90654104D01*
X147949974Y-90754187D01*
X147771641Y-90883752D01*
X147771636Y-90883756D01*
X147615756Y-91039636D01*
X147615752Y-91039641D01*
X147486187Y-91217974D01*
X147386104Y-91414393D01*
X147386103Y-91414396D01*
X147317985Y-91624047D01*
X147298159Y-91749225D01*
X147283500Y-91841778D01*
X147283500Y-92062222D01*
X147284626Y-92069332D01*
X147317985Y-92279952D01*
X147386103Y-92489603D01*
X147386104Y-92489606D01*
X147486187Y-92686025D01*
X147615752Y-92864358D01*
X147615756Y-92864363D01*
X147771640Y-93020247D01*
X147911679Y-93121990D01*
X147954345Y-93177319D01*
X147960324Y-93246933D01*
X147927719Y-93308728D01*
X147911679Y-93322626D01*
X147886485Y-93340930D01*
X147886485Y-93340932D01*
X148554590Y-94009037D01*
X148491007Y-94026075D01*
X148376993Y-94091901D01*
X148283901Y-94184993D01*
X148218075Y-94299007D01*
X148201037Y-94362590D01*
X147532932Y-93694485D01*
X147532931Y-93694485D01*
X147486616Y-93758233D01*
X147386567Y-93954589D01*
X147318473Y-94164164D01*
X147284000Y-94381818D01*
X147284000Y-94602181D01*
X147318473Y-94819835D01*
X147386567Y-95029410D01*
X147486611Y-95225756D01*
X147532932Y-95289513D01*
X148201037Y-94621408D01*
X148218075Y-94684993D01*
X148283901Y-94799007D01*
X148376993Y-94892099D01*
X148491007Y-94957925D01*
X148554590Y-94974962D01*
X147886485Y-95643065D01*
X147886485Y-95643066D01*
X147911680Y-95661371D01*
X147954346Y-95716701D01*
X147960325Y-95786314D01*
X147927720Y-95848110D01*
X147911681Y-95862008D01*
X147771636Y-95963756D01*
X147615756Y-96119636D01*
X147615752Y-96119641D01*
X147486187Y-96297974D01*
X147386104Y-96494393D01*
X147386103Y-96494396D01*
X147317985Y-96704047D01*
X147283500Y-96921778D01*
X147283500Y-97142221D01*
X147317985Y-97359952D01*
X147386103Y-97569603D01*
X147386104Y-97569606D01*
X147444291Y-97683802D01*
X147485855Y-97765375D01*
X147486187Y-97766025D01*
X147615752Y-97944358D01*
X147615756Y-97944363D01*
X147665928Y-97994535D01*
X147699413Y-98055858D01*
X147694429Y-98125550D01*
X147652557Y-98181483D01*
X147621581Y-98198398D01*
X147541669Y-98228203D01*
X147541664Y-98228206D01*
X147426455Y-98314452D01*
X147426452Y-98314455D01*
X147340206Y-98429664D01*
X147340202Y-98429671D01*
X147289908Y-98564517D01*
X147284351Y-98616212D01*
X147283501Y-98624123D01*
X147283500Y-98624135D01*
X147283500Y-98822500D01*
X147263815Y-98889539D01*
X147211011Y-98935294D01*
X147159500Y-98946500D01*
X142428389Y-98946500D01*
X142367971Y-98958518D01*
X142330259Y-98966019D01*
X142307550Y-98970536D01*
X142307548Y-98970537D01*
X142274207Y-98984347D01*
X142193719Y-99017684D01*
X142193705Y-99017692D01*
X142091272Y-99086138D01*
X142091264Y-99086144D01*
X142045681Y-99131728D01*
X142004142Y-99173267D01*
X142004139Y-99173270D01*
X135395910Y-105781500D01*
X128809229Y-112368181D01*
X128747906Y-112401666D01*
X128721548Y-112404500D01*
X125893834Y-112404500D01*
X125826795Y-112384815D01*
X125781040Y-112332011D01*
X125771096Y-112262853D01*
X125775903Y-112242182D01*
X125790845Y-112196195D01*
X125826015Y-112087951D01*
X125860500Y-111870222D01*
X125860500Y-111649778D01*
X125826015Y-111432049D01*
X125757895Y-111222394D01*
X125757895Y-111222393D01*
X125703080Y-111114815D01*
X125657815Y-111025978D01*
X125641260Y-111003192D01*
X125528247Y-110847641D01*
X125528243Y-110847636D01*
X125372363Y-110691756D01*
X125372358Y-110691752D01*
X125232745Y-110590318D01*
X125190079Y-110534989D01*
X125184100Y-110465375D01*
X125216705Y-110403580D01*
X125232745Y-110389682D01*
X125372358Y-110288247D01*
X125372366Y-110288241D01*
X125444865Y-110215742D01*
X125528242Y-110132365D01*
X125657815Y-109954022D01*
X125757895Y-109757606D01*
X125826015Y-109547951D01*
X125860500Y-109330222D01*
X125860500Y-109109778D01*
X125826015Y-108892049D01*
X125770114Y-108720000D01*
X125757896Y-108682396D01*
X125757895Y-108682393D01*
X125713056Y-108594393D01*
X125657815Y-108485978D01*
X125593877Y-108397974D01*
X125528247Y-108307641D01*
X125528243Y-108307636D01*
X125372363Y-108151756D01*
X125372358Y-108151752D01*
X125232745Y-108050318D01*
X125190079Y-107994989D01*
X125184100Y-107925375D01*
X125216705Y-107863580D01*
X125232745Y-107849682D01*
X125372358Y-107748247D01*
X125372356Y-107748247D01*
X125372365Y-107748242D01*
X125528242Y-107592365D01*
X125657815Y-107414022D01*
X125757895Y-107217606D01*
X125826015Y-107007951D01*
X125860500Y-106790222D01*
X125860500Y-106569778D01*
X125826015Y-106352049D01*
X125789104Y-106238446D01*
X125757896Y-106142396D01*
X125757895Y-106142393D01*
X125713110Y-106054500D01*
X125657815Y-105945978D01*
X125594065Y-105858233D01*
X125528247Y-105767641D01*
X125528243Y-105767636D01*
X125372363Y-105611756D01*
X125372358Y-105611752D01*
X125232745Y-105510318D01*
X125190079Y-105454989D01*
X125184100Y-105385375D01*
X125216705Y-105323580D01*
X125232745Y-105309682D01*
X125372358Y-105208247D01*
X125372356Y-105208247D01*
X125372365Y-105208242D01*
X125528242Y-105052365D01*
X125657815Y-104874022D01*
X125757895Y-104677606D01*
X125826015Y-104467951D01*
X125860500Y-104250222D01*
X125860500Y-104029778D01*
X125826015Y-103812049D01*
X125757895Y-103602394D01*
X125757895Y-103602393D01*
X125708215Y-103504893D01*
X125657815Y-103405978D01*
X125593877Y-103317974D01*
X125528247Y-103227641D01*
X125528243Y-103227636D01*
X125372363Y-103071756D01*
X125372358Y-103071752D01*
X125232745Y-102970318D01*
X125190079Y-102914989D01*
X125184100Y-102845375D01*
X125216705Y-102783580D01*
X125232745Y-102769682D01*
X125372358Y-102668247D01*
X125372356Y-102668247D01*
X125372365Y-102668242D01*
X125528242Y-102512365D01*
X125657815Y-102334022D01*
X125757895Y-102137606D01*
X125826015Y-101927951D01*
X125860500Y-101710222D01*
X125860500Y-101489778D01*
X125826015Y-101272049D01*
X125772430Y-101107129D01*
X125757896Y-101062396D01*
X125757895Y-101062393D01*
X125712090Y-100972498D01*
X125657815Y-100865978D01*
X125641260Y-100843192D01*
X125528247Y-100687641D01*
X125528243Y-100687636D01*
X125372363Y-100531756D01*
X125372358Y-100531752D01*
X125232745Y-100430318D01*
X125190079Y-100374989D01*
X125184100Y-100305375D01*
X125216705Y-100243580D01*
X125232745Y-100229682D01*
X125372358Y-100128247D01*
X125372356Y-100128247D01*
X125372365Y-100128242D01*
X125528242Y-99972365D01*
X125657815Y-99794022D01*
X125757895Y-99597606D01*
X125826015Y-99387951D01*
X125860500Y-99170222D01*
X125860500Y-98949778D01*
X125826015Y-98732049D01*
X125786230Y-98609600D01*
X125757896Y-98522396D01*
X125757895Y-98522393D01*
X125708215Y-98424893D01*
X125657815Y-98325978D01*
X125634418Y-98293774D01*
X125528247Y-98147641D01*
X125528243Y-98147636D01*
X125372363Y-97991756D01*
X125372358Y-97991752D01*
X125232745Y-97890318D01*
X125190079Y-97834989D01*
X125184100Y-97765375D01*
X125216705Y-97703580D01*
X125232745Y-97689682D01*
X125372358Y-97588247D01*
X125372356Y-97588247D01*
X125372365Y-97588242D01*
X125528242Y-97432365D01*
X125657815Y-97254022D01*
X125757895Y-97057606D01*
X125826015Y-96847951D01*
X125860500Y-96630222D01*
X125860500Y-96409778D01*
X125826015Y-96192049D01*
X125788378Y-96076212D01*
X125757896Y-95982396D01*
X125757895Y-95982393D01*
X125708215Y-95884893D01*
X125657815Y-95785978D01*
X125588145Y-95690085D01*
X125528247Y-95607641D01*
X125528243Y-95607636D01*
X125372363Y-95451756D01*
X125372358Y-95451752D01*
X125232745Y-95350318D01*
X125190079Y-95294989D01*
X125184100Y-95225375D01*
X125216705Y-95163580D01*
X125232745Y-95149682D01*
X125372358Y-95048247D01*
X125372356Y-95048247D01*
X125372365Y-95048242D01*
X125528242Y-94892365D01*
X125657815Y-94714022D01*
X125757895Y-94517606D01*
X125762994Y-94501912D01*
X125816048Y-94338628D01*
X125816048Y-94338627D01*
X125826014Y-94307954D01*
X125826013Y-94307954D01*
X125826015Y-94307951D01*
X125860500Y-94090222D01*
X125860500Y-93869778D01*
X125826015Y-93652049D01*
X125775902Y-93497817D01*
X125773908Y-93427977D01*
X125809989Y-93368144D01*
X125872690Y-93337316D01*
X125893834Y-93335500D01*
X142327008Y-93335500D01*
X142327008Y-93335499D01*
X142394374Y-93322100D01*
X142447852Y-93311463D01*
X142481192Y-93297652D01*
X142561686Y-93264312D01*
X142612909Y-93230084D01*
X142664133Y-93195858D01*
X142751258Y-93108733D01*
X142751259Y-93108731D01*
X142758325Y-93101665D01*
X142758328Y-93101661D01*
X146956729Y-88903260D01*
X146956733Y-88903258D01*
X147043858Y-88816133D01*
X147083117Y-88757378D01*
X147112312Y-88713686D01*
X147145652Y-88633192D01*
X147159463Y-88599852D01*
X147182291Y-88485086D01*
X147183500Y-88479007D01*
X147183500Y-88355793D01*
X147183500Y-83709778D01*
X157349500Y-83709778D01*
X157349500Y-83930221D01*
X157383985Y-84147952D01*
X157452103Y-84357603D01*
X157452104Y-84357606D01*
X157498842Y-84449332D01*
X157533360Y-84517077D01*
X157552187Y-84554025D01*
X157681752Y-84732358D01*
X157681756Y-84732363D01*
X157837636Y-84888243D01*
X157837641Y-84888247D01*
X157977254Y-84989682D01*
X158019920Y-85045012D01*
X158025899Y-85114625D01*
X157993293Y-85176420D01*
X157977254Y-85190318D01*
X157837641Y-85291752D01*
X157837636Y-85291756D01*
X157681756Y-85447636D01*
X157681752Y-85447641D01*
X157552187Y-85625974D01*
X157452104Y-85822393D01*
X157452103Y-85822396D01*
X157383985Y-86032047D01*
X157349500Y-86249778D01*
X157349500Y-86470221D01*
X157383985Y-86687952D01*
X157452103Y-86897603D01*
X157452104Y-86897606D01*
X157552187Y-87094025D01*
X157681752Y-87272358D01*
X157681756Y-87272363D01*
X157837636Y-87428243D01*
X157837641Y-87428247D01*
X157977254Y-87529682D01*
X158019920Y-87585012D01*
X158025899Y-87654625D01*
X157993293Y-87716420D01*
X157977254Y-87730318D01*
X157837641Y-87831752D01*
X157837636Y-87831756D01*
X157681756Y-87987636D01*
X157681752Y-87987641D01*
X157552187Y-88165974D01*
X157452104Y-88362393D01*
X157452103Y-88362396D01*
X157383985Y-88572047D01*
X157349500Y-88789778D01*
X157349500Y-89010221D01*
X157383985Y-89227952D01*
X157452103Y-89437603D01*
X157452104Y-89437606D01*
X157496929Y-89525577D01*
X157542843Y-89615688D01*
X157552187Y-89634025D01*
X157681752Y-89812358D01*
X157681756Y-89812363D01*
X157837636Y-89968243D01*
X157837641Y-89968247D01*
X157977254Y-90069682D01*
X158019920Y-90125012D01*
X158025899Y-90194625D01*
X157993293Y-90256420D01*
X157977254Y-90270318D01*
X157837641Y-90371752D01*
X157837636Y-90371756D01*
X157681756Y-90527636D01*
X157681752Y-90527641D01*
X157552187Y-90705974D01*
X157452104Y-90902393D01*
X157452103Y-90902396D01*
X157383985Y-91112047D01*
X157349500Y-91329778D01*
X157349500Y-91550221D01*
X157383985Y-91767952D01*
X157452103Y-91977603D01*
X157452104Y-91977606D01*
X157552187Y-92174025D01*
X157681752Y-92352358D01*
X157681756Y-92352363D01*
X157837636Y-92508243D01*
X157837641Y-92508247D01*
X157932661Y-92577282D01*
X158015978Y-92637815D01*
X158142388Y-92702225D01*
X158212393Y-92737895D01*
X158212396Y-92737896D01*
X158317221Y-92771955D01*
X158422049Y-92806015D01*
X158639778Y-92840500D01*
X158639779Y-92840500D01*
X158860221Y-92840500D01*
X158860222Y-92840500D01*
X159077951Y-92806015D01*
X159287606Y-92737895D01*
X159484022Y-92637815D01*
X159662365Y-92508242D01*
X159818242Y-92352365D01*
X159947815Y-92174022D01*
X160047895Y-91977606D01*
X160116015Y-91767951D01*
X160150500Y-91550222D01*
X160150500Y-91329778D01*
X160116015Y-91112049D01*
X160079837Y-91000703D01*
X160047896Y-90902396D01*
X160047895Y-90902393D01*
X160003459Y-90815185D01*
X159947815Y-90705978D01*
X159860636Y-90585985D01*
X159818247Y-90527641D01*
X159818243Y-90527636D01*
X159662363Y-90371756D01*
X159662358Y-90371752D01*
X159522745Y-90270318D01*
X159480079Y-90214989D01*
X159474100Y-90145375D01*
X159506705Y-90083580D01*
X159522745Y-90069682D01*
X159662358Y-89968247D01*
X159662356Y-89968247D01*
X159662365Y-89968242D01*
X159818242Y-89812365D01*
X159947815Y-89634022D01*
X160047895Y-89437606D01*
X160116015Y-89227951D01*
X160150500Y-89010222D01*
X160150500Y-88789778D01*
X160116015Y-88572049D01*
X160065903Y-88417818D01*
X160047896Y-88362396D01*
X160047895Y-88362393D01*
X159997467Y-88263424D01*
X159947815Y-88165978D01*
X159908881Y-88112389D01*
X159818247Y-87987641D01*
X159818243Y-87987636D01*
X159662363Y-87831756D01*
X159662358Y-87831752D01*
X159522745Y-87730318D01*
X159480079Y-87674989D01*
X159474100Y-87605375D01*
X159506705Y-87543580D01*
X159522745Y-87529682D01*
X159662358Y-87428247D01*
X159662356Y-87428247D01*
X159662365Y-87428242D01*
X159818242Y-87272365D01*
X159947815Y-87094022D01*
X160047895Y-86897606D01*
X160116015Y-86687951D01*
X160150500Y-86470222D01*
X160150500Y-86249778D01*
X160116015Y-86032049D01*
X160047895Y-85822394D01*
X160047895Y-85822393D01*
X159999307Y-85727036D01*
X159947815Y-85625978D01*
X159876073Y-85527233D01*
X159818247Y-85447641D01*
X159818243Y-85447636D01*
X159662363Y-85291756D01*
X159662358Y-85291752D01*
X159522745Y-85190318D01*
X159480079Y-85134989D01*
X159474100Y-85065375D01*
X159506705Y-85003580D01*
X159522745Y-84989682D01*
X159662358Y-84888247D01*
X159662356Y-84888247D01*
X159662365Y-84888242D01*
X159818242Y-84732365D01*
X159947815Y-84554022D01*
X160047895Y-84357606D01*
X160116015Y-84147951D01*
X160150500Y-83930222D01*
X160150500Y-83709778D01*
X160116015Y-83492049D01*
X160069708Y-83349528D01*
X160047896Y-83282396D01*
X160047895Y-83282393D01*
X160000434Y-83189248D01*
X159947815Y-83085978D01*
X159909741Y-83033573D01*
X159818247Y-82907641D01*
X159818243Y-82907636D01*
X159662363Y-82751756D01*
X159662358Y-82751752D01*
X159484025Y-82622187D01*
X159484024Y-82622186D01*
X159484022Y-82622185D01*
X159421096Y-82590122D01*
X159287606Y-82522104D01*
X159287603Y-82522103D01*
X159077952Y-82453985D01*
X158969086Y-82436742D01*
X158860222Y-82419500D01*
X158639778Y-82419500D01*
X158567201Y-82430995D01*
X158422047Y-82453985D01*
X158212396Y-82522103D01*
X158212393Y-82522104D01*
X158015974Y-82622187D01*
X157837641Y-82751752D01*
X157837636Y-82751756D01*
X157681756Y-82907636D01*
X157681752Y-82907641D01*
X157552187Y-83085974D01*
X157452104Y-83282393D01*
X157452103Y-83282396D01*
X157383985Y-83492047D01*
X157349500Y-83709778D01*
X147183500Y-83709778D01*
X147183500Y-78291097D01*
X147203185Y-78224058D01*
X147251203Y-78180612D01*
X147292022Y-78159815D01*
X147470365Y-78030242D01*
X147626242Y-77874365D01*
X147660189Y-77827641D01*
X147727682Y-77734745D01*
X147783011Y-77692079D01*
X147852625Y-77686100D01*
X147914420Y-77718705D01*
X147928318Y-77734745D01*
X148029752Y-77874358D01*
X148029756Y-77874363D01*
X148185636Y-78030243D01*
X148185641Y-78030247D01*
X148341192Y-78143260D01*
X148363978Y-78159815D01*
X148490061Y-78224058D01*
X148560393Y-78259895D01*
X148560396Y-78259896D01*
X148656425Y-78291097D01*
X148770049Y-78328015D01*
X148987778Y-78362500D01*
X148987779Y-78362500D01*
X149208221Y-78362500D01*
X149208222Y-78362500D01*
X149425951Y-78328015D01*
X149635606Y-78259895D01*
X149832022Y-78159815D01*
X150010365Y-78030242D01*
X150166242Y-77874365D01*
X150295815Y-77696022D01*
X150395895Y-77499606D01*
X150464015Y-77289951D01*
X150498500Y-77072222D01*
X150498500Y-76851778D01*
X150464015Y-76634049D01*
X150403620Y-76448170D01*
X150395896Y-76424396D01*
X150395895Y-76424393D01*
X150319004Y-76273489D01*
X150295815Y-76227978D01*
X150249183Y-76163794D01*
X150166247Y-76049641D01*
X150166243Y-76049636D01*
X150010363Y-75893756D01*
X150010358Y-75893752D01*
X149832025Y-75764187D01*
X149832024Y-75764186D01*
X149832022Y-75764185D01*
X149714791Y-75704452D01*
X149635606Y-75664104D01*
X149635603Y-75664103D01*
X149425952Y-75595985D01*
X149317086Y-75578742D01*
X149208222Y-75561500D01*
X148987778Y-75561500D01*
X148915201Y-75572995D01*
X148770047Y-75595985D01*
X148560396Y-75664103D01*
X148560393Y-75664104D01*
X148363974Y-75764187D01*
X148185641Y-75893752D01*
X148185636Y-75893756D01*
X148029756Y-76049636D01*
X148029752Y-76049641D01*
X147928318Y-76189254D01*
X147872988Y-76231920D01*
X147803375Y-76237899D01*
X147741580Y-76205293D01*
X147727682Y-76189254D01*
X147626247Y-76049641D01*
X147626243Y-76049636D01*
X147470363Y-75893756D01*
X147470358Y-75893752D01*
X147292025Y-75764187D01*
X147292024Y-75764186D01*
X147292022Y-75764185D01*
X147174791Y-75704452D01*
X147095606Y-75664104D01*
X147095603Y-75664103D01*
X146885952Y-75595985D01*
X146777086Y-75578742D01*
X146668222Y-75561500D01*
X146447778Y-75561500D01*
X146375201Y-75572995D01*
X146230047Y-75595985D01*
X146020396Y-75664103D01*
X146020393Y-75664104D01*
X145823974Y-75764187D01*
X145645641Y-75893752D01*
X145645636Y-75893756D01*
X145489756Y-76049636D01*
X145489752Y-76049641D01*
X145388318Y-76189254D01*
X145332988Y-76231920D01*
X145263375Y-76237899D01*
X145201580Y-76205293D01*
X145187682Y-76189254D01*
X145086247Y-76049641D01*
X145086243Y-76049636D01*
X144930363Y-75893756D01*
X144930358Y-75893752D01*
X144752025Y-75764187D01*
X144752024Y-75764186D01*
X144752022Y-75764185D01*
X144634791Y-75704452D01*
X144555606Y-75664104D01*
X144555603Y-75664103D01*
X144345952Y-75595985D01*
X144237086Y-75578742D01*
X144128222Y-75561500D01*
X143907778Y-75561500D01*
X143835201Y-75572995D01*
X143690047Y-75595985D01*
X143480396Y-75664103D01*
X143480393Y-75664104D01*
X143283974Y-75764187D01*
X143105641Y-75893752D01*
X143105636Y-75893756D01*
X142949756Y-76049636D01*
X142848008Y-76189681D01*
X142792678Y-76232346D01*
X142723065Y-76238325D01*
X142661270Y-76205719D01*
X142647371Y-76189680D01*
X142629066Y-76164485D01*
X142629065Y-76164485D01*
X141960962Y-76832589D01*
X141943925Y-76769007D01*
X141878099Y-76654993D01*
X141785007Y-76561901D01*
X141670993Y-76496075D01*
X141607407Y-76479037D01*
X142275513Y-75810932D01*
X142211756Y-75764611D01*
X142015410Y-75664567D01*
X141805835Y-75596473D01*
X141588181Y-75562000D01*
X141367819Y-75562000D01*
X141150164Y-75596473D01*
X140940589Y-75664567D01*
X140744233Y-75764616D01*
X140680485Y-75810931D01*
X140680485Y-75810932D01*
X141348590Y-76479037D01*
X141285007Y-76496075D01*
X141170993Y-76561901D01*
X141077901Y-76654993D01*
X141012075Y-76769007D01*
X140995037Y-76832590D01*
X140374818Y-76212371D01*
X140341333Y-76151048D01*
X140338499Y-76124690D01*
X140338499Y-76014129D01*
X140338498Y-76014123D01*
X140338497Y-76014116D01*
X140332091Y-75954517D01*
X140322616Y-75929114D01*
X140312326Y-75901524D01*
X140281797Y-75819671D01*
X140281793Y-75819664D01*
X140195547Y-75704455D01*
X140195544Y-75704452D01*
X140080335Y-75618206D01*
X140080328Y-75618202D01*
X139945482Y-75567908D01*
X139945483Y-75567908D01*
X139885883Y-75561501D01*
X139885881Y-75561500D01*
X139885873Y-75561500D01*
X139885864Y-75561500D01*
X137990129Y-75561500D01*
X137990123Y-75561501D01*
X137930516Y-75567908D01*
X137795671Y-75618202D01*
X137795664Y-75618206D01*
X137680455Y-75704452D01*
X137680452Y-75704455D01*
X137594206Y-75819664D01*
X137594202Y-75819671D01*
X137543908Y-75954517D01*
X137537501Y-76014116D01*
X137537501Y-76014123D01*
X137537500Y-76014135D01*
X137537500Y-77909870D01*
X137537501Y-77909876D01*
X137543908Y-77969483D01*
X137594202Y-78104328D01*
X137594206Y-78104335D01*
X137680452Y-78219544D01*
X137680455Y-78219547D01*
X137795664Y-78305793D01*
X137795671Y-78305797D01*
X137930517Y-78356091D01*
X137930516Y-78356091D01*
X137937444Y-78356835D01*
X137990127Y-78362500D01*
X139885872Y-78362499D01*
X139945483Y-78356091D01*
X140080331Y-78305796D01*
X140195546Y-78219546D01*
X140281796Y-78104331D01*
X140309429Y-78030243D01*
X140312327Y-78022474D01*
X140318481Y-78005974D01*
X140332091Y-77969483D01*
X140338500Y-77909873D01*
X140338499Y-77799304D01*
X140358183Y-77732268D01*
X140374818Y-77711626D01*
X140995037Y-77091408D01*
X141012075Y-77154993D01*
X141077901Y-77269007D01*
X141170993Y-77362099D01*
X141285007Y-77427925D01*
X141348590Y-77444962D01*
X140680485Y-78113065D01*
X140680485Y-78113066D01*
X140744243Y-78159388D01*
X140940589Y-78259432D01*
X141150164Y-78327526D01*
X141367819Y-78362000D01*
X141588181Y-78362000D01*
X141805835Y-78327526D01*
X142015410Y-78259432D01*
X142211760Y-78159386D01*
X142275513Y-78113066D01*
X142275514Y-78113066D01*
X141607409Y-77444962D01*
X141670993Y-77427925D01*
X141785007Y-77362099D01*
X141878099Y-77269007D01*
X141943925Y-77154993D01*
X141960962Y-77091410D01*
X142629066Y-77759514D01*
X142629066Y-77759513D01*
X142647372Y-77734319D01*
X142702701Y-77691653D01*
X142772315Y-77685674D01*
X142834110Y-77718279D01*
X142848008Y-77734319D01*
X142949752Y-77874358D01*
X142949756Y-77874363D01*
X143105636Y-78030243D01*
X143105641Y-78030247D01*
X143283973Y-78159812D01*
X143283975Y-78159813D01*
X143283978Y-78159815D01*
X143324795Y-78180612D01*
X143375591Y-78228586D01*
X143392500Y-78291097D01*
X143392500Y-86938548D01*
X143372815Y-87005587D01*
X143356181Y-87026229D01*
X140874229Y-89508181D01*
X140812906Y-89541666D01*
X140786548Y-89544500D01*
X125893834Y-89544500D01*
X125826795Y-89524815D01*
X125781040Y-89472011D01*
X125771096Y-89402853D01*
X125775903Y-89382182D01*
X125790845Y-89336195D01*
X125826015Y-89227951D01*
X125860500Y-89010222D01*
X125860500Y-88789778D01*
X125826015Y-88572049D01*
X125775903Y-88417818D01*
X125757896Y-88362396D01*
X125757895Y-88362393D01*
X125707467Y-88263424D01*
X125657815Y-88165978D01*
X125618881Y-88112389D01*
X125557895Y-88028448D01*
X125534415Y-87962642D01*
X125550241Y-87894588D01*
X125570528Y-87867886D01*
X128705058Y-84733359D01*
X128773512Y-84630911D01*
X128820663Y-84517077D01*
X128834337Y-84448334D01*
X128844701Y-84396234D01*
X128844701Y-84267909D01*
X128844700Y-84267883D01*
X128844700Y-77526451D01*
X128864385Y-77459412D01*
X128881014Y-77438775D01*
X129401521Y-76918268D01*
X129462842Y-76884785D01*
X129532534Y-76889769D01*
X129588467Y-76931641D01*
X129612884Y-76997105D01*
X129613200Y-77005951D01*
X129613200Y-77072181D01*
X129647673Y-77289835D01*
X129715767Y-77499410D01*
X129815811Y-77695756D01*
X129862132Y-77759513D01*
X130530237Y-77091408D01*
X130547275Y-77154993D01*
X130613101Y-77269007D01*
X130706193Y-77362099D01*
X130820207Y-77427925D01*
X130883790Y-77444962D01*
X130263570Y-78065181D01*
X130202247Y-78098666D01*
X130175890Y-78101500D01*
X130065330Y-78101500D01*
X130065323Y-78101501D01*
X130005716Y-78107908D01*
X129870871Y-78158202D01*
X129870864Y-78158206D01*
X129755655Y-78244452D01*
X129755652Y-78244455D01*
X129669406Y-78359664D01*
X129669402Y-78359671D01*
X129619108Y-78494517D01*
X129613112Y-78550292D01*
X129612701Y-78554123D01*
X129612700Y-78554135D01*
X129612700Y-80449870D01*
X129612701Y-80449876D01*
X129619108Y-80509483D01*
X129669402Y-80644328D01*
X129669406Y-80644335D01*
X129755652Y-80759544D01*
X129755655Y-80759547D01*
X129870864Y-80845793D01*
X129870871Y-80845797D01*
X130005717Y-80896091D01*
X130005716Y-80896091D01*
X130012644Y-80896835D01*
X130065327Y-80902500D01*
X131961072Y-80902499D01*
X132020683Y-80896091D01*
X132155531Y-80845796D01*
X132270746Y-80759546D01*
X132356996Y-80644331D01*
X132407291Y-80509483D01*
X132413700Y-80449873D01*
X132413699Y-78554128D01*
X132407291Y-78494517D01*
X132376532Y-78412049D01*
X132356997Y-78359671D01*
X132356993Y-78359664D01*
X132270747Y-78244455D01*
X132270744Y-78244452D01*
X132155535Y-78158206D01*
X132155528Y-78158202D01*
X132020682Y-78107908D01*
X132020683Y-78107908D01*
X131961083Y-78101501D01*
X131961081Y-78101500D01*
X131961073Y-78101500D01*
X131961065Y-78101500D01*
X131850508Y-78101500D01*
X131783469Y-78081815D01*
X131762827Y-78065181D01*
X131142610Y-77444962D01*
X131206193Y-77427925D01*
X131320207Y-77362099D01*
X131413299Y-77269007D01*
X131479125Y-77154993D01*
X131496162Y-77091410D01*
X132164266Y-77759514D01*
X132164266Y-77759513D01*
X132210586Y-77695760D01*
X132310632Y-77499410D01*
X132378726Y-77289835D01*
X132413200Y-77072181D01*
X132413200Y-76851818D01*
X132378726Y-76634164D01*
X132310632Y-76424589D01*
X132210588Y-76228243D01*
X132164266Y-76164485D01*
X132164265Y-76164485D01*
X131496162Y-76832589D01*
X131479125Y-76769007D01*
X131413299Y-76654993D01*
X131320207Y-76561901D01*
X131206193Y-76496075D01*
X131142608Y-76479037D01*
X131810713Y-75810932D01*
X131785519Y-75792628D01*
X131742853Y-75737298D01*
X131736874Y-75667685D01*
X131769479Y-75605889D01*
X131785513Y-75591994D01*
X131925565Y-75490242D01*
X132081442Y-75334365D01*
X132211015Y-75156022D01*
X132311095Y-74959606D01*
X132379215Y-74749951D01*
X132413700Y-74532222D01*
X132413700Y-74311778D01*
X132379215Y-74094049D01*
X132313079Y-73890499D01*
X132311096Y-73884396D01*
X132311095Y-73884393D01*
X132241367Y-73747547D01*
X132211015Y-73687978D01*
X132142863Y-73594174D01*
X132081447Y-73509641D01*
X132081443Y-73509636D01*
X131925563Y-73353756D01*
X131925558Y-73353752D01*
X131785945Y-73252318D01*
X131743279Y-73196989D01*
X131737300Y-73127375D01*
X131769905Y-73065580D01*
X131785945Y-73051682D01*
X131925558Y-72950247D01*
X131925556Y-72950247D01*
X131925565Y-72950242D01*
X132081442Y-72794365D01*
X132211015Y-72616022D01*
X132311095Y-72419606D01*
X132379215Y-72209951D01*
X132413700Y-71992222D01*
X132413700Y-71771778D01*
X132379215Y-71554049D01*
X132311095Y-71344394D01*
X132311095Y-71344393D01*
X132276437Y-71276375D01*
X132211015Y-71147978D01*
X132181304Y-71107084D01*
X132081447Y-70969641D01*
X132081443Y-70969636D01*
X131925563Y-70813756D01*
X131925558Y-70813752D01*
X131785945Y-70712318D01*
X131770077Y-70691740D01*
X131751310Y-70673769D01*
X131749087Y-70664521D01*
X131743279Y-70656989D01*
X131741055Y-70631101D01*
X131734983Y-70605834D01*
X131738113Y-70596850D01*
X131737300Y-70587375D01*
X131749424Y-70564395D01*
X131757977Y-70539856D01*
X131767359Y-70530404D01*
X131769905Y-70525580D01*
X131782388Y-70514365D01*
X131784151Y-70512984D01*
X131925565Y-70410242D01*
X131962307Y-70373499D01*
X131968227Y-70368865D01*
X131993985Y-70358616D01*
X132018311Y-70345334D01*
X132030726Y-70343999D01*
X132033147Y-70343036D01*
X132035470Y-70343489D01*
X132044669Y-70342500D01*
X133163618Y-70342500D01*
X133230657Y-70362185D01*
X133251299Y-70378819D01*
X133583181Y-70710701D01*
X133616666Y-70772024D01*
X133619500Y-70798382D01*
X133619500Y-85855209D01*
X133599815Y-85922248D01*
X133547011Y-85968003D01*
X133538833Y-85971391D01*
X133477671Y-85994202D01*
X133477664Y-85994206D01*
X133362455Y-86080452D01*
X133362452Y-86080455D01*
X133276206Y-86195664D01*
X133276202Y-86195671D01*
X133225908Y-86330517D01*
X133219501Y-86390116D01*
X133219501Y-86390123D01*
X133219500Y-86390135D01*
X133219500Y-88285870D01*
X133219501Y-88285876D01*
X133225908Y-88345483D01*
X133276202Y-88480328D01*
X133276206Y-88480335D01*
X133362452Y-88595544D01*
X133362455Y-88595547D01*
X133477664Y-88681793D01*
X133477671Y-88681797D01*
X133612517Y-88732091D01*
X133612516Y-88732091D01*
X133619444Y-88732835D01*
X133672127Y-88738500D01*
X135567872Y-88738499D01*
X135627483Y-88732091D01*
X135762331Y-88681796D01*
X135877546Y-88595546D01*
X135963796Y-88480331D01*
X136014091Y-88345483D01*
X136020500Y-88285873D01*
X136020499Y-87310606D01*
X136020499Y-86390155D01*
X138300000Y-86390155D01*
X138300000Y-87088000D01*
X139266988Y-87088000D01*
X139234075Y-87145007D01*
X139200000Y-87272174D01*
X139200000Y-87403826D01*
X139234075Y-87530993D01*
X139266988Y-87588000D01*
X138300000Y-87588000D01*
X138300000Y-88285844D01*
X138306401Y-88345372D01*
X138306403Y-88345379D01*
X138356645Y-88480086D01*
X138356649Y-88480093D01*
X138442809Y-88595187D01*
X138442812Y-88595190D01*
X138557906Y-88681350D01*
X138557913Y-88681354D01*
X138692620Y-88731596D01*
X138692627Y-88731598D01*
X138752155Y-88737999D01*
X138752172Y-88738000D01*
X139450000Y-88738000D01*
X139450000Y-87771012D01*
X139507007Y-87803925D01*
X139634174Y-87838000D01*
X139765826Y-87838000D01*
X139892993Y-87803925D01*
X139950000Y-87771012D01*
X139950000Y-88738000D01*
X140647828Y-88738000D01*
X140647844Y-88737999D01*
X140707372Y-88731598D01*
X140707379Y-88731596D01*
X140842086Y-88681354D01*
X140842093Y-88681350D01*
X140957187Y-88595190D01*
X140957190Y-88595187D01*
X141043350Y-88480093D01*
X141043354Y-88480086D01*
X141093596Y-88345379D01*
X141093598Y-88345372D01*
X141099999Y-88285844D01*
X141100000Y-88285827D01*
X141100000Y-87588000D01*
X140133012Y-87588000D01*
X140165925Y-87530993D01*
X140200000Y-87403826D01*
X140200000Y-87272174D01*
X140165925Y-87145007D01*
X140133012Y-87088000D01*
X141100000Y-87088000D01*
X141100000Y-86390172D01*
X141099999Y-86390155D01*
X141093598Y-86330627D01*
X141093596Y-86330620D01*
X141043354Y-86195913D01*
X141043350Y-86195906D01*
X140957190Y-86080812D01*
X140957187Y-86080809D01*
X140842093Y-85994649D01*
X140842086Y-85994645D01*
X140707379Y-85944403D01*
X140707372Y-85944401D01*
X140647844Y-85938000D01*
X139950000Y-85938000D01*
X139950000Y-86904988D01*
X139892993Y-86872075D01*
X139765826Y-86838000D01*
X139634174Y-86838000D01*
X139507007Y-86872075D01*
X139450000Y-86904988D01*
X139450000Y-85938000D01*
X138752155Y-85938000D01*
X138692627Y-85944401D01*
X138692620Y-85944403D01*
X138557913Y-85994645D01*
X138557906Y-85994649D01*
X138442812Y-86080809D01*
X138442809Y-86080812D01*
X138356649Y-86195906D01*
X138356645Y-86195913D01*
X138306403Y-86330620D01*
X138306401Y-86330627D01*
X138300000Y-86390155D01*
X136020499Y-86390155D01*
X136020499Y-86390129D01*
X136020498Y-86390123D01*
X136020497Y-86390116D01*
X136014091Y-86330517D01*
X136006978Y-86311447D01*
X135963797Y-86195671D01*
X135963793Y-86195664D01*
X135877547Y-86080455D01*
X135877544Y-86080452D01*
X135762335Y-85994206D01*
X135762328Y-85994202D01*
X135701167Y-85971391D01*
X135645233Y-85929520D01*
X135620816Y-85864056D01*
X135620500Y-85855209D01*
X135620500Y-70234056D01*
X135582052Y-70040770D01*
X135582051Y-70040769D01*
X135582051Y-70040765D01*
X135544587Y-69950318D01*
X135506635Y-69858692D01*
X135506628Y-69858679D01*
X135397139Y-69694818D01*
X135397136Y-69694814D01*
X135254686Y-69552364D01*
X135254655Y-69552335D01*
X134410879Y-68708559D01*
X134410859Y-68708537D01*
X134267185Y-68564863D01*
X134267181Y-68564860D01*
X134103320Y-68455371D01*
X134103311Y-68455366D01*
X134030715Y-68425296D01*
X133974565Y-68402038D01*
X133921236Y-68379949D01*
X133921232Y-68379948D01*
X133921228Y-68379946D01*
X133824588Y-68360724D01*
X133727944Y-68341500D01*
X133727941Y-68341500D01*
X132044669Y-68341500D01*
X132022172Y-68334894D01*
X131998830Y-68332716D01*
X131985999Y-68324272D01*
X131977630Y-68321815D01*
X131968227Y-68315135D01*
X131962307Y-68310500D01*
X131925565Y-68273758D01*
X131784151Y-68171015D01*
X131782388Y-68169635D01*
X131763306Y-68142960D01*
X131743279Y-68116989D01*
X131743081Y-68114687D01*
X131741737Y-68112808D01*
X131740105Y-68080045D01*
X131737300Y-68047375D01*
X131738377Y-68045332D01*
X131738263Y-68043025D01*
X131754595Y-68014595D01*
X131769905Y-67985580D01*
X131772612Y-67983234D01*
X131773068Y-67982441D01*
X131774212Y-67981848D01*
X131785945Y-67971682D01*
X131925558Y-67870247D01*
X131925556Y-67870247D01*
X131925565Y-67870242D01*
X132081442Y-67714365D01*
X132211015Y-67536022D01*
X132311095Y-67339606D01*
X132379215Y-67129951D01*
X132413700Y-66912222D01*
X132413700Y-66691778D01*
X132379215Y-66474049D01*
X132311095Y-66264394D01*
X132311095Y-66264393D01*
X132252900Y-66150181D01*
X132211015Y-66067978D01*
X132142863Y-65974174D01*
X132081447Y-65889641D01*
X132081443Y-65889636D01*
X131925563Y-65733756D01*
X131925558Y-65733752D01*
X131747225Y-65604187D01*
X131747224Y-65604186D01*
X131747222Y-65604185D01*
X131684296Y-65572122D01*
X131550806Y-65504104D01*
X131550803Y-65504103D01*
X131341152Y-65435985D01*
X131232286Y-65418742D01*
X131123422Y-65401500D01*
X130902978Y-65401500D01*
X130830401Y-65412995D01*
X130685247Y-65435985D01*
X130475596Y-65504103D01*
X130475593Y-65504104D01*
X130279174Y-65604187D01*
X130100841Y-65733752D01*
X130100836Y-65733756D01*
X129944956Y-65889636D01*
X129944952Y-65889641D01*
X129815387Y-66067974D01*
X129715304Y-66264393D01*
X129715303Y-66264396D01*
X129647185Y-66474047D01*
X129647185Y-66474049D01*
X129612700Y-66691778D01*
X129612700Y-66912222D01*
X129624684Y-66987883D01*
X129647185Y-67129952D01*
X129715303Y-67339603D01*
X129715304Y-67339606D01*
X129774342Y-67455472D01*
X129807698Y-67520936D01*
X129815387Y-67536025D01*
X129944952Y-67714358D01*
X129944956Y-67714363D01*
X130100836Y-67870243D01*
X130100841Y-67870247D01*
X130240454Y-67971682D01*
X130283120Y-68027012D01*
X130289099Y-68096625D01*
X130256493Y-68158420D01*
X130240454Y-68172318D01*
X130100841Y-68273752D01*
X130100836Y-68273756D01*
X129944956Y-68429636D01*
X129944952Y-68429641D01*
X129815387Y-68607974D01*
X129715304Y-68804393D01*
X129715303Y-68804396D01*
X129647185Y-69014047D01*
X129612700Y-69231778D01*
X129612700Y-69452221D01*
X129647185Y-69669952D01*
X129715303Y-69879603D01*
X129715304Y-69879606D01*
X129765271Y-69977669D01*
X129797420Y-70040765D01*
X129815387Y-70076025D01*
X129944952Y-70254358D01*
X129944956Y-70254363D01*
X130100836Y-70410243D01*
X130100841Y-70410247D01*
X130240454Y-70511682D01*
X130283120Y-70567012D01*
X130289099Y-70636625D01*
X130256493Y-70698420D01*
X130240454Y-70712318D01*
X130100841Y-70813752D01*
X130100836Y-70813756D01*
X129944956Y-70969636D01*
X129944952Y-70969641D01*
X129815387Y-71147974D01*
X129715304Y-71344393D01*
X129715303Y-71344396D01*
X129647185Y-71554047D01*
X129612700Y-71771778D01*
X129612700Y-71992221D01*
X129647184Y-72209950D01*
X129661341Y-72253521D01*
X129663335Y-72323362D01*
X129631090Y-72379518D01*
X127950510Y-74060099D01*
X126271070Y-75739539D01*
X126271067Y-75739542D01*
X126246805Y-75763804D01*
X126183942Y-75826666D01*
X126156646Y-75867517D01*
X126156640Y-75867526D01*
X126153619Y-75872049D01*
X126115488Y-75929114D01*
X126095076Y-75978394D01*
X126092503Y-75984604D01*
X126092500Y-75984611D01*
X126080878Y-76012671D01*
X126037037Y-76067074D01*
X125970743Y-76089139D01*
X125903044Y-76071860D01*
X125855433Y-76020723D01*
X125843844Y-75984616D01*
X125841982Y-75972860D01*
X125826015Y-75872049D01*
X125782961Y-75739539D01*
X125757896Y-75662396D01*
X125757895Y-75662393D01*
X125706486Y-75561500D01*
X125657815Y-75465978D01*
X125577891Y-75355971D01*
X125528247Y-75287641D01*
X125528243Y-75287636D01*
X125372363Y-75131756D01*
X125372358Y-75131752D01*
X125232745Y-75030318D01*
X125190079Y-74974989D01*
X125184100Y-74905375D01*
X125216705Y-74843580D01*
X125232745Y-74829682D01*
X125372358Y-74728247D01*
X125372356Y-74728247D01*
X125372365Y-74728242D01*
X125528242Y-74572365D01*
X125657815Y-74394022D01*
X125757895Y-74197606D01*
X125826015Y-73987951D01*
X125860500Y-73770222D01*
X125860500Y-73549778D01*
X125826015Y-73332049D01*
X125775367Y-73176169D01*
X125757896Y-73122396D01*
X125757895Y-73122393D01*
X125703080Y-73014815D01*
X125657815Y-72925978D01*
X125606919Y-72855925D01*
X125528247Y-72747641D01*
X125528243Y-72747636D01*
X125372363Y-72591756D01*
X125372358Y-72591752D01*
X125232745Y-72490318D01*
X125190079Y-72434989D01*
X125184100Y-72365375D01*
X125216705Y-72303580D01*
X125232745Y-72289682D01*
X125372358Y-72188247D01*
X125372356Y-72188247D01*
X125372365Y-72188242D01*
X125528242Y-72032365D01*
X125657815Y-71854022D01*
X125757895Y-71657606D01*
X125826015Y-71447951D01*
X125860500Y-71230222D01*
X125860500Y-71009778D01*
X125826015Y-70792049D01*
X125782132Y-70656989D01*
X125757896Y-70582396D01*
X125757895Y-70582393D01*
X125710556Y-70489487D01*
X125657815Y-70385978D01*
X125626227Y-70342500D01*
X125528247Y-70207641D01*
X125528243Y-70207636D01*
X125372363Y-70051756D01*
X125372358Y-70051752D01*
X125232745Y-69950318D01*
X125190079Y-69894989D01*
X125184100Y-69825375D01*
X125216705Y-69763580D01*
X125232745Y-69749682D01*
X125372358Y-69648247D01*
X125372356Y-69648247D01*
X125372365Y-69648242D01*
X125528242Y-69492365D01*
X125657815Y-69314022D01*
X125757895Y-69117606D01*
X125826015Y-68907951D01*
X125860500Y-68690222D01*
X125860500Y-68469778D01*
X125826015Y-68252049D01*
X125780774Y-68112808D01*
X125757896Y-68042396D01*
X125757895Y-68042393D01*
X125721865Y-67971682D01*
X125657815Y-67845978D01*
X125641260Y-67823192D01*
X125528247Y-67667641D01*
X125528243Y-67667636D01*
X125372363Y-67511756D01*
X125372358Y-67511752D01*
X125232319Y-67410008D01*
X125189653Y-67354678D01*
X125183674Y-67285065D01*
X125216279Y-67223270D01*
X125232319Y-67209372D01*
X125257513Y-67191066D01*
X125257514Y-67191066D01*
X124589409Y-66522962D01*
X124652993Y-66505925D01*
X124767007Y-66440099D01*
X124860099Y-66347007D01*
X124925925Y-66232993D01*
X124942962Y-66169410D01*
X125611066Y-66837514D01*
X125611066Y-66837513D01*
X125657386Y-66773760D01*
X125757432Y-66577410D01*
X125825526Y-66367835D01*
X125860000Y-66150181D01*
X125860000Y-65929818D01*
X125825526Y-65712164D01*
X125757432Y-65502589D01*
X125657388Y-65306243D01*
X125611066Y-65242485D01*
X125611065Y-65242485D01*
X124942962Y-65910589D01*
X124925925Y-65847007D01*
X124860099Y-65732993D01*
X124767007Y-65639901D01*
X124652993Y-65574075D01*
X124589407Y-65557037D01*
X125257513Y-64888932D01*
X125193756Y-64842611D01*
X124997410Y-64742567D01*
X124787835Y-64674473D01*
X124570181Y-64640000D01*
X124349819Y-64640000D01*
X124132164Y-64674473D01*
X123922589Y-64742567D01*
X123726233Y-64842616D01*
X123662485Y-64888931D01*
X123662485Y-64888932D01*
X124330590Y-65557037D01*
X124267007Y-65574075D01*
X124152993Y-65639901D01*
X124059901Y-65732993D01*
X123994075Y-65847007D01*
X123977037Y-65910590D01*
X123308932Y-65242485D01*
X123308931Y-65242485D01*
X123262616Y-65306233D01*
X123162567Y-65502589D01*
X123094473Y-65712164D01*
X123060000Y-65929818D01*
X123060000Y-66150181D01*
X123094473Y-66367835D01*
X123162567Y-66577410D01*
X123262611Y-66773756D01*
X123308932Y-66837513D01*
X123977037Y-66169408D01*
X123994075Y-66232993D01*
X124059901Y-66347007D01*
X124152993Y-66440099D01*
X124267007Y-66505925D01*
X124330590Y-66522962D01*
X123662485Y-67191065D01*
X123662485Y-67191066D01*
X123687680Y-67209371D01*
X123730346Y-67264701D01*
X123736325Y-67334314D01*
X123703720Y-67396110D01*
X123687681Y-67410008D01*
X123547636Y-67511756D01*
X123391756Y-67667636D01*
X123391752Y-67667641D01*
X123262187Y-67845974D01*
X123162104Y-68042393D01*
X123162103Y-68042396D01*
X123093985Y-68252047D01*
X123059500Y-68469778D01*
X123059500Y-68690221D01*
X123093985Y-68907952D01*
X123162103Y-69117603D01*
X123162104Y-69117606D01*
X123262187Y-69314025D01*
X123391752Y-69492358D01*
X123391756Y-69492363D01*
X123547636Y-69648243D01*
X123547641Y-69648247D01*
X123687254Y-69749682D01*
X123729920Y-69805012D01*
X123735899Y-69874625D01*
X123703293Y-69936420D01*
X123687254Y-69950318D01*
X123547641Y-70051752D01*
X123547636Y-70051756D01*
X123391756Y-70207636D01*
X123391752Y-70207641D01*
X123262187Y-70385974D01*
X123162104Y-70582393D01*
X123162103Y-70582396D01*
X123093985Y-70792047D01*
X123059500Y-71009778D01*
X123059500Y-71230221D01*
X123093985Y-71447952D01*
X123162103Y-71657603D01*
X123162104Y-71657606D01*
X123262187Y-71854025D01*
X123391752Y-72032358D01*
X123391756Y-72032363D01*
X123547636Y-72188243D01*
X123547641Y-72188247D01*
X123687254Y-72289682D01*
X123729920Y-72345012D01*
X123735899Y-72414625D01*
X123703293Y-72476420D01*
X123687254Y-72490318D01*
X123547641Y-72591752D01*
X123547636Y-72591756D01*
X123391756Y-72747636D01*
X123391752Y-72747641D01*
X123262187Y-72925974D01*
X123162104Y-73122393D01*
X123162103Y-73122396D01*
X123093985Y-73332047D01*
X123077222Y-73437883D01*
X123059500Y-73549778D01*
X123059500Y-73770222D01*
X123069569Y-73833793D01*
X123093985Y-73987952D01*
X123162103Y-74197603D01*
X123162104Y-74197606D01*
X123220279Y-74311778D01*
X123262049Y-74393756D01*
X123262187Y-74394025D01*
X123391752Y-74572358D01*
X123391756Y-74572363D01*
X123547636Y-74728243D01*
X123547641Y-74728247D01*
X123687254Y-74829682D01*
X123729920Y-74885012D01*
X123735899Y-74954625D01*
X123703293Y-75016420D01*
X123687254Y-75030318D01*
X123547641Y-75131752D01*
X123547636Y-75131756D01*
X123391756Y-75287636D01*
X123391752Y-75287641D01*
X123262187Y-75465974D01*
X123162104Y-75662393D01*
X123162103Y-75662396D01*
X123093985Y-75872047D01*
X123059500Y-76089778D01*
X123059500Y-76310221D01*
X123093985Y-76527952D01*
X123162103Y-76737603D01*
X123162104Y-76737606D01*
X123228794Y-76868490D01*
X123254897Y-76919719D01*
X123262187Y-76934025D01*
X123391752Y-77112358D01*
X123391756Y-77112363D01*
X123547636Y-77268243D01*
X123547641Y-77268247D01*
X123687254Y-77369682D01*
X123729920Y-77425012D01*
X123735899Y-77494625D01*
X123703293Y-77556420D01*
X123687254Y-77570318D01*
X123547641Y-77671752D01*
X123547636Y-77671756D01*
X123391756Y-77827636D01*
X123391752Y-77827641D01*
X123262187Y-78005974D01*
X123162104Y-78202393D01*
X123162103Y-78202396D01*
X123093985Y-78412047D01*
X123092141Y-78423691D01*
X123059500Y-78629778D01*
X123059500Y-78850222D01*
X123064832Y-78883886D01*
X123093985Y-79067952D01*
X123162103Y-79277603D01*
X123162104Y-79277606D01*
X123262187Y-79474025D01*
X123391752Y-79652358D01*
X123391756Y-79652363D01*
X123547636Y-79808243D01*
X123547641Y-79808247D01*
X123687254Y-79909682D01*
X123729920Y-79965012D01*
X123735899Y-80034625D01*
X123703293Y-80096420D01*
X123687254Y-80110318D01*
X123547641Y-80211752D01*
X123547636Y-80211756D01*
X123391756Y-80367636D01*
X123391752Y-80367641D01*
X123262187Y-80545974D01*
X123162104Y-80742393D01*
X123162103Y-80742396D01*
X123093985Y-80952047D01*
X123059500Y-81169778D01*
X123059500Y-81390221D01*
X123093985Y-81607952D01*
X123162103Y-81817603D01*
X123162104Y-81817606D01*
X123262187Y-82014025D01*
X123391752Y-82192358D01*
X123391756Y-82192363D01*
X123547636Y-82348243D01*
X123547641Y-82348247D01*
X123687254Y-82449682D01*
X123729920Y-82505012D01*
X123735899Y-82574625D01*
X123703293Y-82636420D01*
X123687254Y-82650318D01*
X123547641Y-82751752D01*
X123547636Y-82751756D01*
X123391756Y-82907636D01*
X123391752Y-82907641D01*
X123262187Y-83085974D01*
X123162104Y-83282393D01*
X123162103Y-83282396D01*
X123093985Y-83492047D01*
X123059500Y-83709778D01*
X123059500Y-83930221D01*
X123093985Y-84147952D01*
X123144097Y-84302182D01*
X123146092Y-84372023D01*
X123110011Y-84431856D01*
X123047310Y-84462684D01*
X123026166Y-84464500D01*
X100640452Y-84464500D01*
X100611011Y-84455855D01*
X100581025Y-84449332D01*
X100576009Y-84445577D01*
X100573413Y-84444815D01*
X100552771Y-84428181D01*
X100442108Y-84317518D01*
X100408623Y-84256195D01*
X100411857Y-84191521D01*
X100426015Y-84147951D01*
X100460500Y-83930222D01*
X100460500Y-83709778D01*
X100426015Y-83492049D01*
X100379708Y-83349528D01*
X100357896Y-83282396D01*
X100357895Y-83282393D01*
X100310434Y-83189248D01*
X100257815Y-83085978D01*
X100219741Y-83033573D01*
X100128247Y-82907641D01*
X100128243Y-82907636D01*
X99972363Y-82751756D01*
X99972358Y-82751752D01*
X99832745Y-82650318D01*
X99790079Y-82594989D01*
X99784100Y-82525375D01*
X99816705Y-82463580D01*
X99832745Y-82449682D01*
X99972358Y-82348247D01*
X99972356Y-82348247D01*
X99972365Y-82348242D01*
X100128242Y-82192365D01*
X100257815Y-82014022D01*
X100357895Y-81817606D01*
X100426015Y-81607951D01*
X100460500Y-81390222D01*
X100460500Y-81169778D01*
X100426015Y-80952049D01*
X100375902Y-80797817D01*
X100373908Y-80727977D01*
X100409989Y-80668144D01*
X100472690Y-80637316D01*
X100493834Y-80635500D01*
X101026607Y-80635500D01*
X101087029Y-80623481D01*
X101147452Y-80611463D01*
X101180792Y-80597652D01*
X101261286Y-80564312D01*
X101312509Y-80530084D01*
X101363733Y-80495858D01*
X101450858Y-80408733D01*
X101450858Y-80408731D01*
X101461066Y-80398524D01*
X101461067Y-80398521D01*
X102873257Y-78986334D01*
X102941711Y-78883886D01*
X102988863Y-78770051D01*
X103012900Y-78649207D01*
X103012900Y-78525994D01*
X103012900Y-75071594D01*
X103012900Y-75071589D01*
X103010694Y-75060502D01*
X103010692Y-75060496D01*
X102988863Y-74950748D01*
X102941711Y-74836914D01*
X102883606Y-74749954D01*
X102873257Y-74734465D01*
X102873254Y-74734462D01*
X101791871Y-73653080D01*
X101410022Y-73271232D01*
X101400059Y-73261269D01*
X101400058Y-73261267D01*
X101312933Y-73174142D01*
X101261709Y-73139915D01*
X101210486Y-73105688D01*
X101210483Y-73105686D01*
X101210480Y-73105685D01*
X101136803Y-73075168D01*
X101136801Y-73075167D01*
X101129992Y-73072347D01*
X101096652Y-73058537D01*
X101036229Y-73046518D01*
X101031506Y-73045578D01*
X101031504Y-73045578D01*
X100975810Y-73034500D01*
X100975807Y-73034500D01*
X100975806Y-73034500D01*
X100389097Y-73034500D01*
X100322058Y-73014815D01*
X100278612Y-72966795D01*
X100278106Y-72965802D01*
X100257815Y-72925978D01*
X100257813Y-72925975D01*
X100257812Y-72925973D01*
X100128247Y-72747641D01*
X100128243Y-72747636D01*
X99972363Y-72591756D01*
X99972358Y-72591752D01*
X99832745Y-72490318D01*
X99816186Y-72468845D01*
X99796963Y-72449728D01*
X99795168Y-72441589D01*
X99790079Y-72434989D01*
X99787758Y-72407974D01*
X99781922Y-72381497D01*
X99784813Y-72373679D01*
X99784100Y-72365375D01*
X99796752Y-72341395D01*
X99806157Y-72315965D01*
X99814545Y-72307672D01*
X99816705Y-72303580D01*
X99831045Y-72290939D01*
X99831902Y-72290293D01*
X99857153Y-72271947D01*
X106196000Y-72271947D01*
X106196000Y-72508052D01*
X106232934Y-72741247D01*
X106305897Y-72965802D01*
X106413087Y-73176174D01*
X106473338Y-73259104D01*
X106473340Y-73259105D01*
X107213037Y-72519408D01*
X107230075Y-72582993D01*
X107295901Y-72697007D01*
X107388993Y-72790099D01*
X107503007Y-72855925D01*
X107566590Y-72872962D01*
X106826893Y-73612658D01*
X106909828Y-73672914D01*
X107120197Y-73780102D01*
X107344752Y-73853065D01*
X107344751Y-73853065D01*
X107577948Y-73890000D01*
X107814052Y-73890000D01*
X108047247Y-73853065D01*
X108271802Y-73780102D01*
X108482163Y-73672918D01*
X108482169Y-73672914D01*
X108565104Y-73612658D01*
X108565105Y-73612658D01*
X107825408Y-72872962D01*
X107888993Y-72855925D01*
X108003007Y-72790099D01*
X108096099Y-72697007D01*
X108161925Y-72582993D01*
X108178962Y-72519409D01*
X108918658Y-73259105D01*
X108918658Y-73259104D01*
X108978914Y-73176169D01*
X108978918Y-73176163D01*
X109086102Y-72965802D01*
X109159065Y-72741247D01*
X109196000Y-72508052D01*
X109196000Y-72271947D01*
X109159065Y-72038752D01*
X109086102Y-71814197D01*
X108978914Y-71603828D01*
X108918658Y-71520894D01*
X108918658Y-71520893D01*
X108178962Y-72260590D01*
X108161925Y-72197007D01*
X108096099Y-72082993D01*
X108003007Y-71989901D01*
X107888993Y-71924075D01*
X107825409Y-71907037D01*
X108390311Y-71342135D01*
X113795500Y-71342135D01*
X113795500Y-73437870D01*
X113795501Y-73437876D01*
X113801908Y-73497483D01*
X113852202Y-73632328D01*
X113852206Y-73632335D01*
X113938452Y-73747544D01*
X113938455Y-73747547D01*
X114053664Y-73833793D01*
X114053671Y-73833797D01*
X114188517Y-73884091D01*
X114188516Y-73884091D01*
X114195444Y-73884835D01*
X114248127Y-73890500D01*
X116343872Y-73890499D01*
X116403483Y-73884091D01*
X116538331Y-73833796D01*
X116653546Y-73747546D01*
X116739796Y-73632331D01*
X116790091Y-73497483D01*
X116796500Y-73437873D01*
X116796499Y-71342128D01*
X116790091Y-71282517D01*
X116770586Y-71230222D01*
X116739797Y-71147671D01*
X116739793Y-71147664D01*
X116653547Y-71032455D01*
X116653544Y-71032452D01*
X116538335Y-70946206D01*
X116538328Y-70946202D01*
X116403482Y-70895908D01*
X116403483Y-70895908D01*
X116343883Y-70889501D01*
X116343881Y-70889500D01*
X116343873Y-70889500D01*
X116343864Y-70889500D01*
X114248129Y-70889500D01*
X114248123Y-70889501D01*
X114188516Y-70895908D01*
X114053671Y-70946202D01*
X114053664Y-70946206D01*
X113938455Y-71032452D01*
X113938452Y-71032455D01*
X113852206Y-71147664D01*
X113852202Y-71147671D01*
X113801908Y-71282517D01*
X113795501Y-71342116D01*
X113795501Y-71342123D01*
X113795500Y-71342135D01*
X108390311Y-71342135D01*
X108481321Y-71251125D01*
X108565105Y-71167340D01*
X108565104Y-71167338D01*
X108482174Y-71107087D01*
X108271802Y-70999897D01*
X108047247Y-70926934D01*
X108047248Y-70926934D01*
X107814052Y-70890000D01*
X107577948Y-70890000D01*
X107344752Y-70926934D01*
X107120197Y-70999897D01*
X106909830Y-71107084D01*
X106826894Y-71167340D01*
X107566591Y-71907037D01*
X107503007Y-71924075D01*
X107388993Y-71989901D01*
X107295901Y-72082993D01*
X107230075Y-72197007D01*
X107213037Y-72260591D01*
X106473340Y-71520894D01*
X106413084Y-71603830D01*
X106305897Y-71814197D01*
X106232934Y-72038752D01*
X106196000Y-72271947D01*
X99857153Y-72271947D01*
X99972365Y-72188242D01*
X100128242Y-72032365D01*
X100257815Y-71854022D01*
X100357895Y-71657606D01*
X100426015Y-71447951D01*
X100460500Y-71230222D01*
X100460500Y-71009778D01*
X100426015Y-70792049D01*
X100382132Y-70656989D01*
X100357896Y-70582396D01*
X100357895Y-70582393D01*
X100310556Y-70489487D01*
X100257815Y-70385978D01*
X100226227Y-70342500D01*
X100128247Y-70207641D01*
X100128243Y-70207636D01*
X99972363Y-70051756D01*
X99972358Y-70051752D01*
X99832745Y-69950318D01*
X99790079Y-69894989D01*
X99784100Y-69825375D01*
X99816705Y-69763580D01*
X99832745Y-69749682D01*
X99972358Y-69648247D01*
X99972356Y-69648247D01*
X99972365Y-69648242D01*
X100128242Y-69492365D01*
X100257815Y-69314022D01*
X100357895Y-69117606D01*
X100426015Y-68907951D01*
X100460500Y-68690222D01*
X100460500Y-68469778D01*
X100426015Y-68252049D01*
X100380774Y-68112808D01*
X100357896Y-68042396D01*
X100357895Y-68042393D01*
X100321865Y-67971682D01*
X100257815Y-67845978D01*
X100241260Y-67823192D01*
X100128247Y-67667641D01*
X100128243Y-67667636D01*
X100078071Y-67617464D01*
X100044586Y-67556141D01*
X100049570Y-67486449D01*
X100091442Y-67430516D01*
X100122420Y-67413601D01*
X100202326Y-67383798D01*
X100202326Y-67383797D01*
X100202331Y-67383796D01*
X100317546Y-67297546D01*
X100403796Y-67182331D01*
X100454091Y-67047483D01*
X100460500Y-66987873D01*
X100460499Y-65092128D01*
X100454091Y-65032517D01*
X100403796Y-64897669D01*
X100403795Y-64897668D01*
X100403793Y-64897664D01*
X100317547Y-64782455D01*
X100317544Y-64782452D01*
X100202335Y-64696206D01*
X100202328Y-64696202D01*
X100067482Y-64645908D01*
X100067483Y-64645908D01*
X100007883Y-64639501D01*
X100007881Y-64639500D01*
X100007873Y-64639500D01*
X100007864Y-64639500D01*
X98112129Y-64639500D01*
X98112123Y-64639501D01*
X98052516Y-64645908D01*
X97917671Y-64696202D01*
X97917664Y-64696206D01*
X97802455Y-64782452D01*
X97802452Y-64782455D01*
X97716206Y-64897664D01*
X97716202Y-64897671D01*
X97665908Y-65032517D01*
X97659501Y-65092116D01*
X97659501Y-65092123D01*
X97659500Y-65092135D01*
X97659500Y-65190900D01*
X97639815Y-65257939D01*
X97587011Y-65303694D01*
X97535500Y-65314900D01*
X96831429Y-65314900D01*
X96764390Y-65295215D01*
X96743748Y-65278581D01*
X89850221Y-58385052D01*
X89850214Y-58385046D01*
X89776529Y-58335812D01*
X89776529Y-58335813D01*
X89727291Y-58302913D01*
X89590717Y-58246343D01*
X89590707Y-58246340D01*
X89445720Y-58217500D01*
X89445718Y-58217500D01*
X88485733Y-58217500D01*
X88418694Y-58197815D01*
X88372939Y-58145011D01*
X88368028Y-58132506D01*
X88363495Y-58118829D01*
X88356814Y-58098666D01*
X88264712Y-57949344D01*
X88140656Y-57825288D01*
X87991334Y-57733186D01*
X87824797Y-57678001D01*
X87824795Y-57678000D01*
X87722010Y-57667500D01*
X86521998Y-57667500D01*
X86521981Y-57667501D01*
X86419203Y-57678000D01*
X86419200Y-57678001D01*
X86252668Y-57733185D01*
X86252663Y-57733187D01*
X86103342Y-57825289D01*
X85979289Y-57949342D01*
X85887187Y-58098663D01*
X85887185Y-58098668D01*
X85871829Y-58145011D01*
X85832001Y-58265203D01*
X85832001Y-58265204D01*
X85832000Y-58265204D01*
X85821500Y-58367983D01*
X85821500Y-59568001D01*
X85821501Y-59568018D01*
X85832000Y-59670796D01*
X85832001Y-59670799D01*
X85876455Y-59804949D01*
X85887186Y-59837334D01*
X85979288Y-59986656D01*
X86103344Y-60110712D01*
X86252666Y-60202814D01*
X86419203Y-60257999D01*
X86521991Y-60268500D01*
X87722008Y-60268499D01*
X87824797Y-60257999D01*
X87991334Y-60202814D01*
X88140656Y-60110712D01*
X88264712Y-59986656D01*
X88356814Y-59837334D01*
X88367545Y-59804951D01*
X88368028Y-59803494D01*
X88407801Y-59746050D01*
X88472317Y-59719228D01*
X88485733Y-59718500D01*
X89009570Y-59718500D01*
X89076609Y-59738185D01*
X89097251Y-59754819D01*
X92510433Y-63168000D01*
X95886248Y-66543815D01*
X95886249Y-66543816D01*
X95990784Y-66648351D01*
X95990785Y-66648352D01*
X96113698Y-66730480D01*
X96113711Y-66730487D01*
X96250282Y-66787056D01*
X96250287Y-66787058D01*
X96250291Y-66787058D01*
X96250292Y-66787059D01*
X96395279Y-66815900D01*
X96395282Y-66815900D01*
X97535501Y-66815900D01*
X97602540Y-66835585D01*
X97648295Y-66888389D01*
X97659501Y-66939900D01*
X97659501Y-66987876D01*
X97665908Y-67047483D01*
X97716202Y-67182328D01*
X97716206Y-67182335D01*
X97802452Y-67297544D01*
X97802455Y-67297547D01*
X97917664Y-67383793D01*
X97917671Y-67383797D01*
X97997580Y-67413601D01*
X98053514Y-67455472D01*
X98077931Y-67520936D01*
X98063080Y-67589209D01*
X98041929Y-67617463D01*
X97991756Y-67667636D01*
X97991752Y-67667641D01*
X97862187Y-67845974D01*
X97762104Y-68042393D01*
X97762103Y-68042396D01*
X97693985Y-68252047D01*
X97659500Y-68469778D01*
X97659500Y-68690221D01*
X97693985Y-68907952D01*
X97762103Y-69117603D01*
X97762104Y-69117606D01*
X97862187Y-69314025D01*
X97991752Y-69492358D01*
X97991756Y-69492363D01*
X98147636Y-69648243D01*
X98147641Y-69648247D01*
X98287254Y-69749682D01*
X98329920Y-69805012D01*
X98335899Y-69874625D01*
X98303293Y-69936420D01*
X98287254Y-69950318D01*
X98147641Y-70051752D01*
X98147636Y-70051756D01*
X97991756Y-70207636D01*
X97991752Y-70207641D01*
X97875838Y-70367185D01*
X97820509Y-70409851D01*
X97775520Y-70418300D01*
X86958788Y-70418300D01*
X86837955Y-70442335D01*
X86837947Y-70442337D01*
X86724116Y-70489487D01*
X86621665Y-70557942D01*
X86621662Y-70557945D01*
X67671429Y-89508181D01*
X67610106Y-89541666D01*
X67583748Y-89544500D01*
X66203834Y-89544500D01*
X66136795Y-89524815D01*
X66091040Y-89472011D01*
X66081096Y-89402853D01*
X66085903Y-89382182D01*
X66100845Y-89336195D01*
X66136015Y-89227951D01*
X66170500Y-89010222D01*
X66170500Y-88789778D01*
X66136015Y-88572049D01*
X66085903Y-88417818D01*
X66067896Y-88362396D01*
X66067895Y-88362393D01*
X66017467Y-88263424D01*
X65967815Y-88165978D01*
X65928881Y-88112389D01*
X65838247Y-87987641D01*
X65838243Y-87987636D01*
X65682363Y-87831756D01*
X65682358Y-87831752D01*
X65542745Y-87730318D01*
X65500079Y-87674989D01*
X65494100Y-87605375D01*
X65526705Y-87543580D01*
X65542745Y-87529682D01*
X65682358Y-87428247D01*
X65682356Y-87428247D01*
X65682365Y-87428242D01*
X65838242Y-87272365D01*
X65967815Y-87094022D01*
X66067895Y-86897606D01*
X66136015Y-86687951D01*
X66170500Y-86470222D01*
X66170500Y-86249778D01*
X66136015Y-86032049D01*
X66067895Y-85822394D01*
X66067895Y-85822393D01*
X66019307Y-85727036D01*
X65967815Y-85625978D01*
X65896073Y-85527233D01*
X65838247Y-85447641D01*
X65838243Y-85447636D01*
X65682363Y-85291756D01*
X65682358Y-85291752D01*
X65542745Y-85190318D01*
X65500079Y-85134989D01*
X65494100Y-85065375D01*
X65526705Y-85003580D01*
X65542745Y-84989682D01*
X65682358Y-84888247D01*
X65682356Y-84888247D01*
X65682365Y-84888242D01*
X65838242Y-84732365D01*
X65967815Y-84554022D01*
X66067895Y-84357606D01*
X66136015Y-84147951D01*
X66170500Y-83930222D01*
X66170500Y-83709778D01*
X66136015Y-83492049D01*
X66089708Y-83349528D01*
X66067896Y-83282396D01*
X66067895Y-83282393D01*
X66020434Y-83189248D01*
X65967815Y-83085978D01*
X65929741Y-83033573D01*
X65838247Y-82907641D01*
X65838243Y-82907636D01*
X65682363Y-82751756D01*
X65682358Y-82751752D01*
X65542745Y-82650318D01*
X65500079Y-82594989D01*
X65494100Y-82525375D01*
X65526705Y-82463580D01*
X65542745Y-82449682D01*
X65682358Y-82348247D01*
X65682356Y-82348247D01*
X65682365Y-82348242D01*
X65838242Y-82192365D01*
X65967815Y-82014022D01*
X66067895Y-81817606D01*
X66136015Y-81607951D01*
X66170500Y-81390222D01*
X66170500Y-81169778D01*
X66136015Y-80952049D01*
X66079187Y-80777147D01*
X66067896Y-80742396D01*
X66067895Y-80742393D01*
X66014873Y-80638334D01*
X65967815Y-80545978D01*
X65931400Y-80495857D01*
X65838247Y-80367641D01*
X65838243Y-80367636D01*
X65682363Y-80211756D01*
X65682358Y-80211752D01*
X65542745Y-80110318D01*
X65500079Y-80054989D01*
X65494100Y-79985375D01*
X65526705Y-79923580D01*
X65542745Y-79909682D01*
X65682358Y-79808247D01*
X65682356Y-79808247D01*
X65682365Y-79808242D01*
X65838242Y-79652365D01*
X65967815Y-79474022D01*
X66067895Y-79277606D01*
X66136015Y-79067951D01*
X66170500Y-78850222D01*
X66170500Y-78629778D01*
X66136015Y-78412049D01*
X66090999Y-78273501D01*
X66067896Y-78202396D01*
X66067895Y-78202393D01*
X66025323Y-78118842D01*
X65967815Y-78005978D01*
X65935248Y-77961153D01*
X65838247Y-77827641D01*
X65838243Y-77827636D01*
X65682363Y-77671756D01*
X65682358Y-77671752D01*
X65542745Y-77570318D01*
X65500079Y-77514989D01*
X65494100Y-77445375D01*
X65526705Y-77383580D01*
X65542745Y-77369682D01*
X65682358Y-77268247D01*
X65682356Y-77268247D01*
X65682365Y-77268242D01*
X65838242Y-77112365D01*
X65967815Y-76934022D01*
X66067895Y-76737606D01*
X66136015Y-76527951D01*
X66170500Y-76310222D01*
X66170500Y-76089778D01*
X66136015Y-75872049D01*
X66092961Y-75739539D01*
X66067896Y-75662396D01*
X66067895Y-75662393D01*
X66016486Y-75561500D01*
X65967815Y-75465978D01*
X65887891Y-75355971D01*
X65838247Y-75287641D01*
X65838243Y-75287636D01*
X65682363Y-75131756D01*
X65682358Y-75131752D01*
X65542319Y-75030008D01*
X65499653Y-74974678D01*
X65493674Y-74905065D01*
X65526279Y-74843270D01*
X65542319Y-74829372D01*
X65567513Y-74811066D01*
X65567514Y-74811066D01*
X64899409Y-74142962D01*
X64962993Y-74125925D01*
X65077007Y-74060099D01*
X65170099Y-73967007D01*
X65235925Y-73852993D01*
X65252962Y-73789410D01*
X65921066Y-74457514D01*
X65921066Y-74457513D01*
X65967386Y-74393760D01*
X66067432Y-74197410D01*
X66135526Y-73987835D01*
X66170000Y-73770181D01*
X66170000Y-73549818D01*
X66135526Y-73332164D01*
X66067432Y-73122589D01*
X65967388Y-72926243D01*
X65921066Y-72862485D01*
X65921065Y-72862485D01*
X65252962Y-73530589D01*
X65235925Y-73467007D01*
X65170099Y-73352993D01*
X65077007Y-73259901D01*
X64962993Y-73194075D01*
X64899408Y-73177037D01*
X65519628Y-72556818D01*
X65580951Y-72523333D01*
X65607308Y-72520499D01*
X65717872Y-72520499D01*
X65777483Y-72514091D01*
X65912331Y-72463796D01*
X66027546Y-72377546D01*
X66113796Y-72262331D01*
X66164091Y-72127483D01*
X66170500Y-72067873D01*
X66170499Y-70172128D01*
X66164091Y-70112517D01*
X66150480Y-70076025D01*
X66113797Y-69977671D01*
X66113793Y-69977664D01*
X66027547Y-69862455D01*
X66027544Y-69862452D01*
X65912335Y-69776206D01*
X65912328Y-69776202D01*
X65777482Y-69725908D01*
X65777483Y-69725908D01*
X65717883Y-69719501D01*
X65717881Y-69719500D01*
X65717873Y-69719500D01*
X65717864Y-69719500D01*
X63822129Y-69719500D01*
X63822123Y-69719501D01*
X63762516Y-69725908D01*
X63627671Y-69776202D01*
X63627664Y-69776206D01*
X63512455Y-69862452D01*
X63512452Y-69862455D01*
X63426206Y-69977664D01*
X63426202Y-69977671D01*
X63375908Y-70112517D01*
X63369501Y-70172116D01*
X63369501Y-70172123D01*
X63369500Y-70172135D01*
X63369500Y-72067870D01*
X63369501Y-72067876D01*
X63375908Y-72127483D01*
X63426202Y-72262328D01*
X63426206Y-72262335D01*
X63512452Y-72377544D01*
X63512455Y-72377547D01*
X63627664Y-72463793D01*
X63627671Y-72463797D01*
X63641206Y-72468845D01*
X63762517Y-72514091D01*
X63822127Y-72520500D01*
X63932693Y-72520499D01*
X63999730Y-72540183D01*
X64020372Y-72556818D01*
X64640591Y-73177037D01*
X64577007Y-73194075D01*
X64462993Y-73259901D01*
X64369901Y-73352993D01*
X64304075Y-73467007D01*
X64287037Y-73530590D01*
X63618932Y-72862485D01*
X63618931Y-72862485D01*
X63572616Y-72926233D01*
X63472567Y-73122589D01*
X63404473Y-73332164D01*
X63370000Y-73549818D01*
X63370000Y-73770181D01*
X63404473Y-73987835D01*
X63472567Y-74197410D01*
X63572611Y-74393756D01*
X63618932Y-74457513D01*
X64287037Y-73789408D01*
X64304075Y-73852993D01*
X64369901Y-73967007D01*
X64462993Y-74060099D01*
X64577007Y-74125925D01*
X64640590Y-74142962D01*
X63972485Y-74811065D01*
X63972485Y-74811066D01*
X63997680Y-74829371D01*
X64040346Y-74884701D01*
X64046325Y-74954314D01*
X64013720Y-75016110D01*
X63997681Y-75030008D01*
X63857636Y-75131756D01*
X63701756Y-75287636D01*
X63701752Y-75287641D01*
X63572187Y-75465974D01*
X63472104Y-75662393D01*
X63472103Y-75662396D01*
X63403985Y-75872047D01*
X63369500Y-76089778D01*
X63369500Y-76310221D01*
X63403985Y-76527952D01*
X63472103Y-76737603D01*
X63472104Y-76737606D01*
X63538794Y-76868490D01*
X63564897Y-76919719D01*
X63572187Y-76934025D01*
X63701752Y-77112358D01*
X63701756Y-77112363D01*
X63857636Y-77268243D01*
X63857641Y-77268247D01*
X63997254Y-77369682D01*
X64039920Y-77425012D01*
X64045899Y-77494625D01*
X64013293Y-77556420D01*
X63997254Y-77570318D01*
X63857641Y-77671752D01*
X63857636Y-77671756D01*
X63701756Y-77827636D01*
X63701752Y-77827641D01*
X63572187Y-78005974D01*
X63472104Y-78202393D01*
X63472103Y-78202396D01*
X63403985Y-78412047D01*
X63402141Y-78423691D01*
X63369500Y-78629778D01*
X63369500Y-78850222D01*
X63374832Y-78883886D01*
X63403985Y-79067952D01*
X63472103Y-79277603D01*
X63472104Y-79277606D01*
X63572187Y-79474025D01*
X63701752Y-79652358D01*
X63701756Y-79652363D01*
X63857636Y-79808243D01*
X63857641Y-79808247D01*
X63997254Y-79909682D01*
X64039920Y-79965012D01*
X64045899Y-80034625D01*
X64013293Y-80096420D01*
X63997254Y-80110318D01*
X63857641Y-80211752D01*
X63857636Y-80211756D01*
X63701756Y-80367636D01*
X63701752Y-80367641D01*
X63572187Y-80545974D01*
X63472104Y-80742393D01*
X63472103Y-80742396D01*
X63403985Y-80952047D01*
X63369500Y-81169778D01*
X63369500Y-81390221D01*
X63403985Y-81607952D01*
X63472103Y-81817603D01*
X63472104Y-81817606D01*
X63572187Y-82014025D01*
X63701752Y-82192358D01*
X63701756Y-82192363D01*
X63857636Y-82348243D01*
X63857641Y-82348247D01*
X63997254Y-82449682D01*
X64039920Y-82505012D01*
X64045899Y-82574625D01*
X64013293Y-82636420D01*
X63997254Y-82650318D01*
X63857641Y-82751752D01*
X63857636Y-82751756D01*
X63701756Y-82907636D01*
X63701752Y-82907641D01*
X63572187Y-83085974D01*
X63472104Y-83282393D01*
X63472103Y-83282396D01*
X63403985Y-83492047D01*
X63369500Y-83709778D01*
X63369500Y-83930221D01*
X63403985Y-84147952D01*
X63472103Y-84357603D01*
X63472104Y-84357606D01*
X63518842Y-84449332D01*
X63553360Y-84517077D01*
X63572187Y-84554025D01*
X63701752Y-84732358D01*
X63701756Y-84732363D01*
X63857636Y-84888243D01*
X63857641Y-84888247D01*
X63997254Y-84989682D01*
X64039920Y-85045012D01*
X64045899Y-85114625D01*
X64013293Y-85176420D01*
X63997254Y-85190318D01*
X63857641Y-85291752D01*
X63857636Y-85291756D01*
X63701756Y-85447636D01*
X63701752Y-85447641D01*
X63572187Y-85625974D01*
X63472104Y-85822393D01*
X63472103Y-85822396D01*
X63403985Y-86032047D01*
X63369500Y-86249778D01*
X63369500Y-86470221D01*
X63403985Y-86687952D01*
X63472103Y-86897603D01*
X63472104Y-86897606D01*
X63572187Y-87094025D01*
X63701752Y-87272358D01*
X63701756Y-87272363D01*
X63857636Y-87428243D01*
X63857641Y-87428247D01*
X63997254Y-87529682D01*
X64039920Y-87585012D01*
X64045899Y-87654625D01*
X64013293Y-87716420D01*
X63997254Y-87730318D01*
X63857641Y-87831752D01*
X63857636Y-87831756D01*
X63701756Y-87987636D01*
X63701752Y-87987641D01*
X63572187Y-88165974D01*
X63472104Y-88362393D01*
X63472103Y-88362396D01*
X63403985Y-88572047D01*
X63369500Y-88789778D01*
X63369500Y-89010221D01*
X63403985Y-89227952D01*
X63472103Y-89437603D01*
X63472104Y-89437606D01*
X63479702Y-89452516D01*
X63492598Y-89521185D01*
X63466322Y-89585925D01*
X63436425Y-89610874D01*
X63437380Y-89612302D01*
X63329872Y-89684138D01*
X63329864Y-89684144D01*
X62789989Y-90224020D01*
X62263070Y-90750939D01*
X62263067Y-90750942D01*
X62234743Y-90779266D01*
X62175940Y-90838068D01*
X62154609Y-90869993D01*
X62107489Y-90940511D01*
X62107488Y-90940514D01*
X62089171Y-90984737D01*
X62060337Y-91054347D01*
X62060335Y-91054353D01*
X62051187Y-91100339D01*
X62051188Y-91100340D01*
X62042851Y-91142256D01*
X62042844Y-91142295D01*
X62042562Y-91143714D01*
X62036300Y-91175194D01*
X61460500Y-91175194D01*
X61460500Y-62665682D01*
X85822000Y-62665682D01*
X85822000Y-62870317D01*
X85854009Y-63072417D01*
X85917244Y-63267031D01*
X86010141Y-63449350D01*
X86010147Y-63449359D01*
X86042523Y-63493921D01*
X86042524Y-63493922D01*
X86722000Y-62814446D01*
X86722000Y-62820661D01*
X86749259Y-62922394D01*
X86801920Y-63013606D01*
X86876394Y-63088080D01*
X86967606Y-63140741D01*
X87069339Y-63168000D01*
X87075553Y-63168000D01*
X86396076Y-63847474D01*
X86440650Y-63879859D01*
X86622968Y-63972755D01*
X86817582Y-64035990D01*
X87019683Y-64068000D01*
X87224317Y-64068000D01*
X87426417Y-64035990D01*
X87621031Y-63972755D01*
X87803349Y-63879859D01*
X87847921Y-63847474D01*
X87168447Y-63168000D01*
X87174661Y-63168000D01*
X87276394Y-63140741D01*
X87367606Y-63088080D01*
X87442080Y-63013606D01*
X87494741Y-62922394D01*
X87522000Y-62820661D01*
X87522000Y-62814447D01*
X88201474Y-63493921D01*
X88233859Y-63449349D01*
X88326755Y-63267031D01*
X88389990Y-63072417D01*
X88422000Y-62870317D01*
X88422000Y-62665682D01*
X88389990Y-62463582D01*
X88326755Y-62268968D01*
X88233859Y-62086650D01*
X88201474Y-62042077D01*
X88201474Y-62042076D01*
X87522000Y-62721551D01*
X87522000Y-62715339D01*
X87494741Y-62613606D01*
X87442080Y-62522394D01*
X87367606Y-62447920D01*
X87276394Y-62395259D01*
X87174661Y-62368000D01*
X87168446Y-62368000D01*
X87847922Y-61688524D01*
X87847921Y-61688523D01*
X87803359Y-61656147D01*
X87803350Y-61656141D01*
X87621031Y-61563244D01*
X87426417Y-61500009D01*
X87224317Y-61468000D01*
X87019683Y-61468000D01*
X86817582Y-61500009D01*
X86622968Y-61563244D01*
X86440644Y-61656143D01*
X86396077Y-61688523D01*
X86396077Y-61688524D01*
X87075554Y-62368000D01*
X87069339Y-62368000D01*
X86967606Y-62395259D01*
X86876394Y-62447920D01*
X86801920Y-62522394D01*
X86749259Y-62613606D01*
X86722000Y-62715339D01*
X86722000Y-62721553D01*
X86042524Y-62042077D01*
X86042523Y-62042077D01*
X86010143Y-62086644D01*
X85917244Y-62268968D01*
X85854009Y-62463582D01*
X85822000Y-62665682D01*
X61460500Y-62665682D01*
X61460500Y-60853713D01*
X64689500Y-60853713D01*
X64689500Y-61066287D01*
X64722754Y-61276243D01*
X64783272Y-61462498D01*
X64788444Y-61478414D01*
X64884951Y-61667820D01*
X65009890Y-61839786D01*
X65160213Y-61990109D01*
X65332179Y-62115048D01*
X65332181Y-62115049D01*
X65332184Y-62115051D01*
X65521588Y-62211557D01*
X65723757Y-62277246D01*
X65933713Y-62310500D01*
X65933714Y-62310500D01*
X66146286Y-62310500D01*
X66146287Y-62310500D01*
X66356243Y-62277246D01*
X66558412Y-62211557D01*
X66747816Y-62115051D01*
X66848257Y-62042077D01*
X66919786Y-61990109D01*
X66919788Y-61990106D01*
X66919792Y-61990104D01*
X67070104Y-61839792D01*
X67070106Y-61839788D01*
X67070109Y-61839786D01*
X67195048Y-61667820D01*
X67195047Y-61667820D01*
X67195051Y-61667816D01*
X67291557Y-61478412D01*
X67357246Y-61276243D01*
X67390500Y-61066287D01*
X67390500Y-60853713D01*
X67376051Y-60762486D01*
X70190001Y-60762486D01*
X70200494Y-60865197D01*
X70255641Y-61031619D01*
X70255643Y-61031624D01*
X70347684Y-61180845D01*
X70471654Y-61304815D01*
X70620875Y-61396856D01*
X70620880Y-61396858D01*
X70787302Y-61452005D01*
X70787309Y-61452006D01*
X70890019Y-61462499D01*
X71114999Y-61462499D01*
X71615000Y-61462499D01*
X71839972Y-61462499D01*
X71839986Y-61462498D01*
X71942697Y-61452005D01*
X72109119Y-61396858D01*
X72109124Y-61396856D01*
X72258345Y-61304815D01*
X72382315Y-61180845D01*
X72474356Y-61031624D01*
X72474358Y-61031619D01*
X72529505Y-60865197D01*
X72529506Y-60865190D01*
X72539999Y-60762486D01*
X75840001Y-60762486D01*
X75850494Y-60865197D01*
X75905641Y-61031619D01*
X75905643Y-61031624D01*
X75997684Y-61180845D01*
X76121654Y-61304815D01*
X76270875Y-61396856D01*
X76270880Y-61396858D01*
X76437302Y-61452005D01*
X76437309Y-61452006D01*
X76540019Y-61462499D01*
X76764999Y-61462499D01*
X77265000Y-61462499D01*
X77489972Y-61462499D01*
X77489986Y-61462498D01*
X77592697Y-61452005D01*
X77759119Y-61396858D01*
X77759124Y-61396856D01*
X77908345Y-61304815D01*
X78032315Y-61180845D01*
X78124356Y-61031624D01*
X78124358Y-61031619D01*
X78179505Y-60865197D01*
X78179506Y-60865190D01*
X78189999Y-60762486D01*
X78190000Y-60762473D01*
X78190000Y-59362500D01*
X77265000Y-59362500D01*
X77265000Y-61462499D01*
X76764999Y-61462499D01*
X76765000Y-61462498D01*
X76765000Y-59362500D01*
X75840001Y-59362500D01*
X75840001Y-60762486D01*
X72539999Y-60762486D01*
X72540000Y-60762473D01*
X72540000Y-59362500D01*
X71615000Y-59362500D01*
X71615000Y-61462499D01*
X71114999Y-61462499D01*
X71115000Y-61462498D01*
X71115000Y-59362500D01*
X70190001Y-59362500D01*
X70190001Y-60762486D01*
X67376051Y-60762486D01*
X67357246Y-60643757D01*
X67291557Y-60441588D01*
X67195051Y-60252184D01*
X67195049Y-60252181D01*
X67195048Y-60252179D01*
X67070109Y-60080213D01*
X66919786Y-59929890D01*
X66747820Y-59804951D01*
X66558414Y-59708444D01*
X66558413Y-59708443D01*
X66558412Y-59708443D01*
X66356243Y-59642754D01*
X66356241Y-59642753D01*
X66356240Y-59642753D01*
X66194957Y-59617208D01*
X66146287Y-59609500D01*
X65933713Y-59609500D01*
X65885042Y-59617208D01*
X65723760Y-59642753D01*
X65521585Y-59708444D01*
X65332179Y-59804951D01*
X65160213Y-59929890D01*
X65009890Y-60080213D01*
X64884951Y-60252179D01*
X64788444Y-60441585D01*
X64722753Y-60643760D01*
X64703951Y-60762473D01*
X64689500Y-60853713D01*
X61460500Y-60853713D01*
X61460500Y-57462513D01*
X70190000Y-57462513D01*
X70190000Y-58862500D01*
X71115000Y-58862500D01*
X71615000Y-58862500D01*
X72539999Y-58862500D01*
X72539999Y-57462529D01*
X72539998Y-57462513D01*
X75840000Y-57462513D01*
X75840000Y-58862500D01*
X76765000Y-58862500D01*
X77265000Y-58862500D01*
X78189999Y-58862500D01*
X78189999Y-57462528D01*
X78189998Y-57462513D01*
X78179505Y-57359802D01*
X78124358Y-57193380D01*
X78124356Y-57193375D01*
X78032315Y-57044154D01*
X77908345Y-56920184D01*
X77759124Y-56828143D01*
X77759119Y-56828141D01*
X77592697Y-56772994D01*
X77592690Y-56772993D01*
X77489986Y-56762500D01*
X77265000Y-56762500D01*
X77265000Y-58862500D01*
X76765000Y-58862500D01*
X76765000Y-56762500D01*
X76540029Y-56762500D01*
X76540012Y-56762501D01*
X76437302Y-56772994D01*
X76270880Y-56828141D01*
X76270875Y-56828143D01*
X76121654Y-56920184D01*
X75997684Y-57044154D01*
X75905643Y-57193375D01*
X75905641Y-57193380D01*
X75850494Y-57359802D01*
X75850493Y-57359809D01*
X75840000Y-57462513D01*
X72539998Y-57462513D01*
X72539998Y-57462512D01*
X72529505Y-57359802D01*
X72474358Y-57193380D01*
X72474356Y-57193375D01*
X72382315Y-57044154D01*
X72258345Y-56920184D01*
X72109124Y-56828143D01*
X72109119Y-56828141D01*
X71942697Y-56772994D01*
X71942690Y-56772993D01*
X71839986Y-56762500D01*
X71615000Y-56762500D01*
X71615000Y-58862500D01*
X71115000Y-58862500D01*
X71115000Y-56762500D01*
X70890029Y-56762500D01*
X70890012Y-56762501D01*
X70787302Y-56772994D01*
X70620880Y-56828141D01*
X70620875Y-56828143D01*
X70471654Y-56920184D01*
X70347684Y-57044154D01*
X70255643Y-57193375D01*
X70255641Y-57193380D01*
X70200494Y-57359802D01*
X70200493Y-57359809D01*
X70190000Y-57462513D01*
X61460500Y-57462513D01*
X61460500Y-56504500D01*
X61480185Y-56437461D01*
X61532989Y-56391706D01*
X61584500Y-56380500D01*
X96396000Y-56380500D01*
X96463039Y-56400185D01*
G37*
%TD.AperFunction*%
%TD*%
M02*
