%TF.GenerationSoftware,KiCad,Pcbnew,9.0.7*%
%TF.CreationDate,2026-02-27T14:44:34+08:00*%
%TF.ProjectId,Base2.0,42617365-322e-4302-9e6b-696361645f70,rev?*%
%TF.SameCoordinates,Original*%
%TF.FileFunction,Copper,L1,Top*%
%TF.FilePolarity,Positive*%
%FSLAX46Y46*%
G04 Gerber Fmt 4.6, Leading zero omitted, Abs format (unit mm)*
G04 Created by KiCad (PCBNEW 9.0.7) date 2026-02-27 14:44:34*
%MOMM*%
%LPD*%
G01*
G04 APERTURE LIST*
G04 Aperture macros list*
%AMRoundRect*
0 Rectangle with rounded corners*
0 $1 Rounding radius*
0 $2 $3 $4 $5 $6 $7 $8 $9 X,Y pos of 4 corners*
0 Add a 4 corners polygon primitive as box body*
4,1,4,$2,$3,$4,$5,$6,$7,$8,$9,$2,$3,0*
0 Add four circle primitives for the rounded corners*
1,1,$1+$1,$2,$3*
1,1,$1+$1,$4,$5*
1,1,$1+$1,$6,$7*
1,1,$1+$1,$8,$9*
0 Add four rect primitives between the rounded corners*
20,1,$1+$1,$2,$3,$4,$5,0*
20,1,$1+$1,$4,$5,$6,$7,0*
20,1,$1+$1,$6,$7,$8,$9,0*
20,1,$1+$1,$8,$9,$2,$3,0*%
G04 Aperture macros list end*
%TA.AperFunction,Conductor*%
%ADD10C,1.950000*%
%TD*%
%TA.AperFunction,ComponentPad*%
%ADD11O,1.950000X1.700000*%
%TD*%
%TA.AperFunction,ComponentPad*%
%ADD12RoundRect,0.250000X0.725000X-0.600000X0.725000X0.600000X-0.725000X0.600000X-0.725000X-0.600000X0*%
%TD*%
%TA.AperFunction,ComponentPad*%
%ADD13C,1.700000*%
%TD*%
%TA.AperFunction,ComponentPad*%
%ADD14R,1.700000X1.700000*%
%TD*%
%TA.AperFunction,ComponentPad*%
%ADD15R,1.800000X1.800000*%
%TD*%
%TA.AperFunction,ComponentPad*%
%ADD16C,1.800000*%
%TD*%
%TA.AperFunction,SMDPad,CuDef*%
%ADD17R,3.000000X1.000000*%
%TD*%
%TA.AperFunction,SMDPad,CuDef*%
%ADD18RoundRect,0.250000X1.350000X-0.385000X1.350000X0.385000X-1.350000X0.385000X-1.350000X-0.385000X0*%
%TD*%
%TA.AperFunction,SMDPad,CuDef*%
%ADD19RoundRect,0.250000X1.600000X-0.425000X1.600000X0.425000X-1.600000X0.425000X-1.600000X-0.425000X0*%
%TD*%
%TA.AperFunction,ComponentPad*%
%ADD20C,1.600000*%
%TD*%
%TA.AperFunction,ComponentPad*%
%ADD21RoundRect,0.250000X-0.550000X0.550000X-0.550000X-0.550000X0.550000X-0.550000X0.550000X0.550000X0*%
%TD*%
%TA.AperFunction,ComponentPad*%
%ADD22R,2.000000X2.000000*%
%TD*%
%TA.AperFunction,ComponentPad*%
%ADD23C,2.000000*%
%TD*%
%TA.AperFunction,ViaPad*%
%ADD24C,0.600000*%
%TD*%
%TA.AperFunction,Conductor*%
%ADD25C,1.500000*%
%TD*%
%TA.AperFunction,Conductor*%
%ADD26C,0.200000*%
%TD*%
%TA.AperFunction,Conductor*%
%ADD27C,0.800000*%
%TD*%
%TA.AperFunction,Conductor*%
%ADD28C,0.500000*%
%TD*%
G04 APERTURE END LIST*
D10*
%TO.N,Net-(ANT1-In)*%
X166624000Y-86042000D02*
X178562000Y-86106000D01*
%TD*%
D11*
%TO.P,USBC1,2,Pin_2*%
%TO.N,GND*%
X174752000Y-115864000D03*
D12*
%TO.P,USBC1,1,Pin_1*%
%TO.N,Net-(CN1-VIN)*%
X174752000Y-118364000D03*
%TD*%
D13*
%TO.P,J1,3,Pin_3*%
%TO.N,Net-(BUCK-CONVERTER1-IN+)*%
X143256000Y-127000000D03*
%TO.P,J1,2,Pin_2*%
%TO.N,+3V3*%
X145796000Y-127000000D03*
D14*
%TO.P,J1,1,Pin_1*%
%TO.N,GND*%
X148336000Y-127000000D03*
%TD*%
D11*
%TO.P,BATTERY1,2,+*%
%TO.N,Net-(BATTERY1-+)*%
X174752000Y-125262000D03*
D12*
%TO.P,BATTERY1,1,-*%
%TO.N,GND*%
X174752000Y-127762000D03*
%TD*%
D11*
%TO.P,J4,2,Pin_2*%
%TO.N,Net-(BUCK-CONVERTER1-IN+)*%
X174752000Y-106466000D03*
D12*
%TO.P,J4,1,Pin_1*%
%TO.N,Net-(CN1-BAT)*%
X174752000Y-108966000D03*
%TD*%
D15*
%TO.P,CN1,1,VIN*%
%TO.N,Net-(CN1-VIN)*%
X154178000Y-101854000D03*
%TO.P,CN1,2,GND*%
%TO.N,GND*%
X169418000Y-101854000D03*
%TO.P,CN1,3,GND*%
X159258000Y-135254000D03*
%TO.P,CN1,4,BAT*%
%TO.N,Net-(CN1-BAT)*%
X164338000Y-135254000D03*
%TD*%
D16*
%TO.P,BUCK-CONVERTER1,4,VO+*%
%TO.N,+5V*%
X149860000Y-119126000D03*
%TO.P,BUCK-CONVERTER1,3,GND*%
%TO.N,GND*%
X147320000Y-119126000D03*
%TO.P,BUCK-CONVERTER1,2,IN+*%
%TO.N,Net-(BUCK-CONVERTER1-IN+)*%
X144780000Y-119126000D03*
D15*
%TO.P,BUCK-CONVERTER1,1,EN*%
%TO.N,unconnected-(BUCK-CONVERTER1-EN-Pad1)*%
X142240000Y-119126000D03*
%TD*%
D17*
%TO.P,SX1,1,ANT*%
%TO.N,Net-(ANT1-In)*%
X167894000Y-86042000D03*
%TO.P,SX1,2,GND*%
%TO.N,GND*%
X167894000Y-84042000D03*
%TO.P,SX1,3,DIO3*%
%TO.N,unconnected-(SX1-DIO3-Pad3)*%
X167894000Y-82042000D03*
%TO.P,SX1,4,DIO4*%
%TO.N,unconnected-(SX1-DIO4-Pad4)*%
X167894000Y-80042000D03*
%TO.P,SX1,5,VCC*%
%TO.N,+3V3*%
X167894000Y-78042000D03*
%TO.P,SX1,6,DIO0*%
%TO.N,/7*%
X167894000Y-76042000D03*
%TO.P,SX1,7,DIO1*%
%TO.N,unconnected-(SX1-DIO1-Pad7)*%
X167894000Y-74042000D03*
%TO.P,SX1,8,DIO2*%
%TO.N,unconnected-(SX1-DIO2-Pad8)*%
X167894000Y-72042000D03*
%TO.P,SX1,9,GND*%
%TO.N,GND*%
X152908000Y-86042000D03*
%TO.P,SX1,10,DIO5*%
%TO.N,unconnected-(SX1-DIO5-Pad10)*%
X152908000Y-84042000D03*
%TO.P,SX1,11,REST*%
%TO.N,/6*%
X152908000Y-82042000D03*
%TO.P,SX1,12,NSS*%
%TO.N,/10*%
X152908000Y-80042000D03*
%TO.P,SX1,13,SCK*%
%TO.N,/12*%
X152908000Y-78042000D03*
%TO.P,SX1,14,MOSI*%
%TO.N,/11*%
X152908000Y-76042000D03*
%TO.P,SX1,15,MISO*%
%TO.N,/13*%
X152908000Y-74042000D03*
%TO.P,SX1,16,GND*%
%TO.N,GND*%
X152908000Y-72042000D03*
%TD*%
D18*
%TO.P,ANT1,1,In*%
%TO.N,Net-(ANT1-In)*%
X177226900Y-86131400D03*
D19*
%TO.P,ANT1,2,Ext*%
%TO.N,GND*%
X176976900Y-83306400D03*
X176976900Y-88956400D03*
%TD*%
D20*
%TO.P,C3,2*%
%TO.N,GND*%
X166370000Y-96266000D03*
D21*
%TO.P,C3,1*%
%TO.N,+3V3*%
X166370000Y-92766000D03*
%TD*%
D16*
%TO.P,NEO-M8N1,5,PPS*%
%TO.N,unconnected-(NEO-M8N1-PPS-Pad5)*%
X129768600Y-89103200D03*
%TO.P,NEO-M8N1,4,RXD*%
%TO.N,/5*%
X127228600Y-89103200D03*
%TO.P,NEO-M8N1,3,TXD*%
%TO.N,/4*%
X124688600Y-89103200D03*
%TO.P,NEO-M8N1,2,GND*%
%TO.N,GND*%
X122148600Y-89103200D03*
D15*
%TO.P,NEO-M8N1,1,VCC*%
%TO.N,+5V*%
X119608600Y-89103200D03*
%TD*%
%TO.P,BMP280\u002A5V1,1,VCC*%
%TO.N,+5V*%
X149802200Y-93237800D03*
D16*
%TO.P,BMP280\u002A5V1,2,GND*%
%TO.N,GND*%
X147262200Y-93237800D03*
%TO.P,BMP280\u002A5V1,3,SCL*%
%TO.N,/9*%
X144722200Y-93237800D03*
%TO.P,BMP280\u002A5V1,4,SDA*%
%TO.N,/8*%
X142182200Y-93237800D03*
%TO.P,BMP280\u002A5V1,5,CSE*%
%TO.N,unconnected-(BMP280\u002A5V1-CSE-Pad5)*%
X139642200Y-93237800D03*
%TO.P,BMP280\u002A5V1,6,SDO*%
%TO.N,unconnected-(BMP280\u002A5V1-SDO-Pad6)*%
X137102200Y-93237800D03*
%TD*%
D15*
%TO.P,INA1,1,VCC*%
%TO.N,+5V*%
X121412000Y-134620000D03*
D16*
%TO.P,INA1,2,GND*%
%TO.N,GND*%
X123952000Y-134620000D03*
%TO.P,INA1,3,SCL*%
%TO.N,/9*%
X126492000Y-134620000D03*
%TO.P,INA1,4,SDA*%
%TO.N,/8*%
X129032000Y-134620000D03*
%TO.P,INA1,5,VIN-*%
%TO.N,Net-(CN1-BAT)*%
X131572000Y-134620000D03*
%TO.P,INA1,6,VIN+*%
%TO.N,Net-(BATTERY1-+)*%
X134112000Y-134620000D03*
%TD*%
D14*
%TO.P,ESP32S3SUPERMINI1,1,TX*%
%TO.N,unconnected-(ESP32S3SUPERMINI1-TX-Pad1)*%
X110826400Y-109601000D03*
D13*
%TO.P,ESP32S3SUPERMINI1,2,RX*%
%TO.N,unconnected-(ESP32S3SUPERMINI1-RX-Pad2)*%
X113366400Y-109601000D03*
%TO.P,ESP32S3SUPERMINI1,3,1*%
%TO.N,unconnected-(ESP32S3SUPERMINI1-1-Pad3)*%
X115906400Y-109601000D03*
%TO.P,ESP32S3SUPERMINI1,4,2*%
%TO.N,Net-(BZ1-+)*%
X118446400Y-109601000D03*
%TO.P,ESP32S3SUPERMINI1,5,3*%
%TO.N,unconnected-(ESP32S3SUPERMINI1-3-Pad5)*%
X120986400Y-109601000D03*
%TO.P,ESP32S3SUPERMINI1,6,4*%
%TO.N,/4*%
X123526400Y-109601000D03*
%TO.P,ESP32S3SUPERMINI1,7,5*%
%TO.N,/5*%
X126066400Y-109601000D03*
%TO.P,ESP32S3SUPERMINI1,8,6*%
%TO.N,/6*%
X128606400Y-109601000D03*
%TO.P,ESP32S3SUPERMINI1,9,7*%
%TO.N,/7*%
X131146400Y-109601000D03*
%TO.P,ESP32S3SUPERMINI1,10,5V*%
%TO.N,+5V*%
X110826400Y-94361000D03*
%TO.P,ESP32S3SUPERMINI1,11,GND*%
%TO.N,GND*%
X113366400Y-94361000D03*
%TO.P,ESP32S3SUPERMINI1,12,3V3*%
%TO.N,unconnected-(ESP32S3SUPERMINI1-3V3-Pad12)*%
X115906400Y-94361000D03*
%TO.P,ESP32S3SUPERMINI1,13,13*%
%TO.N,/13*%
X118446400Y-94361000D03*
%TO.P,ESP32S3SUPERMINI1,14,12*%
%TO.N,/12*%
X120986400Y-94361000D03*
%TO.P,ESP32S3SUPERMINI1,15,11*%
%TO.N,/11*%
X123526400Y-94361000D03*
%TO.P,ESP32S3SUPERMINI1,16,10*%
%TO.N,/10*%
X126066400Y-94361000D03*
%TO.P,ESP32S3SUPERMINI1,17,9*%
%TO.N,/9*%
X128606400Y-94361000D03*
%TO.P,ESP32S3SUPERMINI1,18,8*%
%TO.N,/8*%
X131146400Y-94361000D03*
%TD*%
D22*
%TO.P,BZ1,1,+*%
%TO.N,Net-(BZ1-+)*%
X114554000Y-118120000D03*
D23*
%TO.P,BZ1,2,-*%
%TO.N,GND*%
X114554000Y-125720000D03*
%TD*%
D24*
%TO.N,GND*%
X167640000Y-129540000D03*
X167640000Y-132080000D03*
X154940000Y-127000000D03*
X157480000Y-116840000D03*
X154940000Y-116840000D03*
X154940000Y-114300000D03*
X157480000Y-121920000D03*
X154940000Y-121920000D03*
X157480000Y-119380000D03*
X157480000Y-124460000D03*
X154940000Y-124460000D03*
X127000000Y-114300000D03*
X124460000Y-116840000D03*
X121920000Y-119380000D03*
X119380000Y-121920000D03*
X132080000Y-83820000D03*
X132080000Y-76200000D03*
X119380000Y-76200000D03*
X119380000Y-83820000D03*
X111760000Y-99060000D03*
X111760000Y-101600000D03*
X111760000Y-104140000D03*
X155000000Y-70000000D03*
X160000000Y-70000000D03*
X165000000Y-70000000D03*
X170000000Y-135000000D03*
X110000000Y-130000000D03*
X110000000Y-90000000D03*
X110000000Y-80000000D03*
X110000000Y-85000000D03*
X110000000Y-75000000D03*
X150000000Y-70000000D03*
X145000000Y-70000000D03*
X140000000Y-70000000D03*
X135000000Y-70000000D03*
X130000000Y-70000000D03*
X125000000Y-70000000D03*
X120000000Y-70000000D03*
X159000000Y-96000000D03*
X162000000Y-96000000D03*
X171000000Y-96000000D03*
X174000000Y-96000000D03*
X177000000Y-96000000D03*
X144000000Y-114000000D03*
X141000000Y-114000000D03*
X138000000Y-132000000D03*
X138000000Y-129000000D03*
X138000000Y-126000000D03*
X138000000Y-120000000D03*
X138000000Y-117000000D03*
X138000000Y-114000000D03*
X141000000Y-111000000D03*
X138000000Y-111000000D03*
X144000000Y-111000000D03*
X147000000Y-111000000D03*
X147000000Y-108000000D03*
X147000000Y-105000000D03*
X147000000Y-102000000D03*
X147000000Y-99000000D03*
X156000000Y-99000000D03*
X159000000Y-99000000D03*
X162000000Y-99000000D03*
X165000000Y-99000000D03*
X168000000Y-99000000D03*
X171000000Y-99000000D03*
X174000000Y-99000000D03*
X177000000Y-99000000D03*
X177800000Y-91440000D03*
X177800000Y-81280000D03*
X172720000Y-81280000D03*
X162560000Y-81280000D03*
X162560000Y-86360000D03*
X162560000Y-91440000D03*
X172720000Y-91440000D03*
X154940000Y-119380000D03*
%TD*%
D25*
%TO.N,Net-(CN1-VIN)*%
X174752000Y-118364000D02*
X165074000Y-118364000D01*
%TO.N,Net-(BATTERY1-+)*%
X174752000Y-125262000D02*
X162012000Y-125262000D01*
D26*
%TO.N,Net-(ANT1-In)*%
X177026000Y-86042000D02*
X177090000Y-86106000D01*
D27*
%TO.N,+5V*%
X116027200Y-89103200D02*
X119608600Y-89103200D01*
X108991400Y-96139000D02*
X116027200Y-89103200D01*
X119380000Y-134620000D02*
X108991400Y-124231400D01*
X121412000Y-134620000D02*
X119380000Y-134620000D01*
X108991400Y-124231400D02*
X108991400Y-96139000D01*
D28*
%TO.N,Net-(BZ1-+)*%
X118364000Y-115336000D02*
X115570000Y-118130000D01*
X118446400Y-109601000D02*
X118364000Y-109683400D01*
X118364000Y-109683400D02*
X118364000Y-115336000D01*
D26*
%TO.N,/7*%
X150926200Y-85013800D02*
X145999200Y-89940800D01*
X145999200Y-89940800D02*
X145999200Y-93776800D01*
X163908000Y-76042000D02*
X154936200Y-85013800D01*
X131146400Y-108629600D02*
X131146400Y-109601000D01*
X167894000Y-76042000D02*
X163908000Y-76042000D01*
X154936200Y-85013800D02*
X150926200Y-85013800D01*
X145999200Y-93776800D02*
X131146400Y-108629600D01*
%TO.N,/10*%
X127508000Y-91948000D02*
X138767000Y-91948000D01*
X126066400Y-93389600D02*
X127508000Y-91948000D01*
X138767000Y-91948000D02*
X150673000Y-80042000D01*
X126066400Y-94361000D02*
X126066400Y-93389600D01*
X150673000Y-80042000D02*
X152908000Y-80042000D01*
%TO.N,/11*%
X155102000Y-76042000D02*
X152908000Y-76042000D01*
X155900000Y-78240000D02*
X155900000Y-76840000D01*
X150175000Y-79040000D02*
X155100000Y-79040000D01*
X137668000Y-91547000D02*
X150175000Y-79040000D01*
X125369000Y-91547000D02*
X137668000Y-91547000D01*
X123526400Y-93389600D02*
X125369000Y-91547000D01*
X123526400Y-94361000D02*
X123526400Y-93389600D01*
X155100000Y-79040000D02*
X155900000Y-78240000D01*
X155900000Y-76840000D02*
X155102000Y-76042000D01*
%TO.N,/12*%
X123240800Y-91135200D02*
X136654800Y-91135200D01*
X149748000Y-78042000D02*
X152908000Y-78042000D01*
X120986400Y-93389600D02*
X123240800Y-91135200D01*
X120986400Y-94361000D02*
X120986400Y-93389600D01*
X136654800Y-91135200D02*
X149748000Y-78042000D01*
%TO.N,/13*%
X149698000Y-74042000D02*
X152908000Y-74042000D01*
X133011200Y-90728800D02*
X149698000Y-74042000D01*
X121107200Y-90728800D02*
X133011200Y-90728800D01*
X118446400Y-93389600D02*
X121107200Y-90728800D01*
X118446400Y-94361000D02*
X118446400Y-93389600D01*
D27*
%TO.N,+3V3*%
X161036000Y-81076800D02*
X164084000Y-78028800D01*
X158186000Y-92766000D02*
X161036000Y-89916000D01*
X161036000Y-89916000D02*
X161036000Y-81076800D01*
X164084000Y-78028800D02*
X166880800Y-78028800D01*
X166880800Y-78028800D02*
X166894000Y-78042000D01*
X149656800Y-123647200D02*
X146608800Y-123647200D01*
X146608800Y-123647200D02*
X145796000Y-124460000D01*
X151765000Y-121539000D02*
X149656800Y-123647200D01*
X145796000Y-124460000D02*
X145796000Y-127000000D01*
X151765000Y-99187000D02*
X151765000Y-121539000D01*
X158186000Y-92766000D02*
X151765000Y-99187000D01*
%TO.N,+5V*%
X149860000Y-121031000D02*
X149860000Y-119126000D01*
X148996400Y-121894600D02*
X149860000Y-121031000D01*
X129336800Y-121894600D02*
X148996400Y-121894600D01*
X121412000Y-129819400D02*
X129336800Y-121894600D01*
X121412000Y-134620000D02*
X121412000Y-129819400D01*
X149860000Y-93295600D02*
X149860000Y-119126000D01*
X149802200Y-93237800D02*
X149860000Y-93295600D01*
D25*
%TO.N,Net-(CN1-VIN)*%
X165074000Y-118364000D02*
X154178000Y-107468000D01*
X154178000Y-107468000D02*
X154178000Y-101854000D01*
D26*
%TO.N,/6*%
X151908000Y-82042000D02*
X152908000Y-82042000D01*
D25*
%TO.N,Net-(BATTERY1-+)*%
X152654000Y-134620000D02*
X134112000Y-134620000D01*
X162012000Y-125262000D02*
X152654000Y-134620000D01*
D27*
%TO.N,+3V3*%
X158186000Y-92766000D02*
X159964000Y-92766000D01*
X159964000Y-92766000D02*
X166370000Y-92766000D01*
D25*
%TO.N,Net-(CN1-BAT)*%
X161162000Y-138430000D02*
X164338000Y-135254000D01*
X134109208Y-138430000D02*
X161162000Y-138430000D01*
X131572000Y-135892792D02*
X134109208Y-138430000D01*
X131572000Y-134620000D02*
X131572000Y-135892792D01*
D26*
%TO.N,/6*%
X128606400Y-108629600D02*
X128606400Y-109601000D01*
X143459200Y-93776800D02*
X128606400Y-108629600D01*
X152908000Y-82042000D02*
X150723000Y-82042000D01*
X150723000Y-82042000D02*
X143459200Y-89305800D01*
X143459200Y-89305800D02*
X143459200Y-93776800D01*
%TD*%
%TA.AperFunction,Conductor*%
%TO.N,GND*%
G36*
X179782539Y-66560185D02*
G01*
X179828294Y-66612989D01*
X179839500Y-66664500D01*
X179839500Y-84997673D01*
X179819815Y-85064712D01*
X179767011Y-85110467D01*
X179697853Y-85120411D01*
X179634297Y-85091386D01*
X179627350Y-85084883D01*
X179529247Y-84985723D01*
X179529243Y-84985719D01*
X179342087Y-84848203D01*
X179202066Y-84775911D01*
X179135719Y-84741656D01*
X179135712Y-84741653D01*
X179135706Y-84741651D01*
X178915222Y-84668703D01*
X178915216Y-84668701D01*
X178889061Y-84664415D01*
X178826088Y-84634147D01*
X178789476Y-84574638D01*
X178790850Y-84504781D01*
X178829772Y-84446757D01*
X178870116Y-84424341D01*
X178896020Y-84415757D01*
X178896024Y-84415756D01*
X179045245Y-84323715D01*
X179169215Y-84199745D01*
X179261256Y-84050524D01*
X179261258Y-84050519D01*
X179316405Y-83884097D01*
X179316406Y-83884090D01*
X179326899Y-83781386D01*
X179326900Y-83781373D01*
X179326900Y-83556400D01*
X174626901Y-83556400D01*
X174626901Y-83781386D01*
X174637394Y-83884097D01*
X174692541Y-84050519D01*
X174692543Y-84050524D01*
X174784584Y-84199745D01*
X174908554Y-84323715D01*
X175002246Y-84381505D01*
X175048970Y-84433453D01*
X175060193Y-84502416D01*
X175032349Y-84566498D01*
X174974280Y-84605354D01*
X174936484Y-84611042D01*
X170017335Y-84584670D01*
X169950402Y-84564627D01*
X169904931Y-84511578D01*
X169894000Y-84460672D01*
X169894000Y-84292000D01*
X165894000Y-84292000D01*
X165894000Y-84589844D01*
X165900401Y-84649372D01*
X165900640Y-84650382D01*
X165900596Y-84651188D01*
X165901231Y-84657087D01*
X165900274Y-84657189D01*
X165896897Y-84720151D01*
X165856028Y-84776821D01*
X165852309Y-84779600D01*
X165668822Y-84911414D01*
X165503723Y-85074752D01*
X165503719Y-85074756D01*
X165366203Y-85261913D01*
X165366203Y-85261914D01*
X165259659Y-85468276D01*
X165259651Y-85468294D01*
X165186703Y-85688776D01*
X165149143Y-85917968D01*
X165148359Y-86064415D01*
X165147899Y-86150212D01*
X165182999Y-86379793D01*
X165183000Y-86379797D01*
X165253583Y-86601059D01*
X165253584Y-86601060D01*
X165357911Y-86808555D01*
X165493414Y-86997177D01*
X165656752Y-87162276D01*
X165656756Y-87162280D01*
X165843913Y-87299796D01*
X165843915Y-87299797D01*
X166050282Y-87406344D01*
X166270776Y-87479296D01*
X166499968Y-87516856D01*
X175146572Y-87563210D01*
X175213503Y-87583253D01*
X175258974Y-87636302D01*
X175268546Y-87705513D01*
X175239181Y-87768912D01*
X175184910Y-87804914D01*
X175057778Y-87847042D01*
X175057775Y-87847043D01*
X174908554Y-87939084D01*
X174784584Y-88063054D01*
X174692543Y-88212275D01*
X174692541Y-88212280D01*
X174637394Y-88378702D01*
X174637393Y-88378709D01*
X174626900Y-88481413D01*
X174626900Y-88706400D01*
X179326899Y-88706400D01*
X179326899Y-88481428D01*
X179326898Y-88481413D01*
X179316405Y-88378702D01*
X179261258Y-88212280D01*
X179261256Y-88212275D01*
X179169215Y-88063054D01*
X179045245Y-87939084D01*
X178896024Y-87847043D01*
X178896019Y-87847041D01*
X178767409Y-87804424D01*
X178709964Y-87764651D01*
X178683141Y-87700135D01*
X178695456Y-87631360D01*
X178742999Y-87580160D01*
X178787668Y-87564143D01*
X178899794Y-87547001D01*
X179121058Y-87476417D01*
X179328555Y-87372089D01*
X179517177Y-87236586D01*
X179628290Y-87126657D01*
X179689792Y-87093502D01*
X179759456Y-87098860D01*
X179815164Y-87141031D01*
X179839230Y-87206625D01*
X179839500Y-87214808D01*
X179839500Y-139075500D01*
X179819815Y-139142539D01*
X179767011Y-139188294D01*
X179715500Y-139199500D01*
X162460336Y-139199500D01*
X162393297Y-139179815D01*
X162347542Y-139127011D01*
X162337598Y-139057853D01*
X162366623Y-138994297D01*
X162372655Y-138987819D01*
X164669655Y-136690818D01*
X164730978Y-136657333D01*
X164757336Y-136654499D01*
X165285871Y-136654499D01*
X165285872Y-136654499D01*
X165345483Y-136648091D01*
X165480331Y-136597796D01*
X165595546Y-136511546D01*
X165681796Y-136396331D01*
X165732091Y-136261483D01*
X165738500Y-136201873D01*
X165738499Y-134513713D01*
X173909500Y-134513713D01*
X173909500Y-134726286D01*
X173940552Y-134922344D01*
X173942754Y-134936243D01*
X173983292Y-135061007D01*
X174008444Y-135138414D01*
X174104951Y-135327820D01*
X174229890Y-135499786D01*
X174380213Y-135650109D01*
X174552179Y-135775048D01*
X174552181Y-135775049D01*
X174552184Y-135775051D01*
X174741588Y-135871557D01*
X174943757Y-135937246D01*
X175153713Y-135970500D01*
X175153714Y-135970500D01*
X175366286Y-135970500D01*
X175366287Y-135970500D01*
X175576243Y-135937246D01*
X175778412Y-135871557D01*
X175967816Y-135775051D01*
X176085535Y-135689524D01*
X176139786Y-135650109D01*
X176139788Y-135650106D01*
X176139792Y-135650104D01*
X176290104Y-135499792D01*
X176290106Y-135499788D01*
X176290109Y-135499786D01*
X176415048Y-135327820D01*
X176415047Y-135327820D01*
X176415051Y-135327816D01*
X176511557Y-135138412D01*
X176577246Y-134936243D01*
X176610500Y-134726287D01*
X176610500Y-134513713D01*
X176577246Y-134303757D01*
X176511557Y-134101588D01*
X176415051Y-133912184D01*
X176415049Y-133912181D01*
X176415048Y-133912179D01*
X176290109Y-133740213D01*
X176139786Y-133589890D01*
X175967820Y-133464951D01*
X175778414Y-133368444D01*
X175778413Y-133368443D01*
X175778412Y-133368443D01*
X175576243Y-133302754D01*
X175576241Y-133302753D01*
X175576240Y-133302753D01*
X175408601Y-133276202D01*
X175366287Y-133269500D01*
X175153713Y-133269500D01*
X175111399Y-133276202D01*
X174943760Y-133302753D01*
X174741585Y-133368444D01*
X174552179Y-133464951D01*
X174380213Y-133589890D01*
X174229890Y-133740213D01*
X174104951Y-133912179D01*
X174008444Y-134101585D01*
X173942753Y-134303760D01*
X173909500Y-134513713D01*
X165738499Y-134513713D01*
X165738499Y-134306128D01*
X165732091Y-134246517D01*
X165697612Y-134154075D01*
X165681797Y-134111671D01*
X165681793Y-134111664D01*
X165595547Y-133996455D01*
X165595544Y-133996452D01*
X165480335Y-133910206D01*
X165480328Y-133910202D01*
X165345482Y-133859908D01*
X165345483Y-133859908D01*
X165285883Y-133853501D01*
X165285881Y-133853500D01*
X165285873Y-133853500D01*
X165285864Y-133853500D01*
X163390129Y-133853500D01*
X163390123Y-133853501D01*
X163330516Y-133859908D01*
X163195671Y-133910202D01*
X163195664Y-133910206D01*
X163080455Y-133996452D01*
X163080452Y-133996455D01*
X162994206Y-134111664D01*
X162994202Y-134111671D01*
X162943908Y-134246517D01*
X162937755Y-134303757D01*
X162937501Y-134306123D01*
X162937500Y-134306135D01*
X162937500Y-134834663D01*
X162917815Y-134901702D01*
X162901181Y-134922344D01*
X160680345Y-137143181D01*
X160619022Y-137176666D01*
X160592664Y-137179500D01*
X134678544Y-137179500D01*
X134611505Y-137159815D01*
X134590863Y-137143181D01*
X133630289Y-136182607D01*
X133596804Y-136121284D01*
X133601788Y-136051592D01*
X133643660Y-135995659D01*
X133709124Y-135971242D01*
X133756287Y-135976994D01*
X133784049Y-135986015D01*
X134001778Y-136020500D01*
X134001779Y-136020500D01*
X134222221Y-136020500D01*
X134222222Y-136020500D01*
X134439951Y-135986015D01*
X134649606Y-135917895D01*
X134716099Y-135884015D01*
X134772394Y-135870500D01*
X152752422Y-135870500D01*
X152946826Y-135839709D01*
X153134026Y-135778884D01*
X153309405Y-135689524D01*
X153468646Y-135573828D01*
X154736319Y-134306155D01*
X157858000Y-134306155D01*
X157858000Y-135004000D01*
X158824988Y-135004000D01*
X158792075Y-135061007D01*
X158758000Y-135188174D01*
X158758000Y-135319826D01*
X158792075Y-135446993D01*
X158824988Y-135504000D01*
X157858000Y-135504000D01*
X157858000Y-136201844D01*
X157864401Y-136261372D01*
X157864403Y-136261379D01*
X157914645Y-136396086D01*
X157914649Y-136396093D01*
X158000809Y-136511187D01*
X158000812Y-136511190D01*
X158115906Y-136597350D01*
X158115913Y-136597354D01*
X158250620Y-136647596D01*
X158250627Y-136647598D01*
X158310155Y-136653999D01*
X158310172Y-136654000D01*
X159008000Y-136654000D01*
X159008000Y-135687012D01*
X159065007Y-135719925D01*
X159192174Y-135754000D01*
X159323826Y-135754000D01*
X159450993Y-135719925D01*
X159508000Y-135687012D01*
X159508000Y-136654000D01*
X160205828Y-136654000D01*
X160205844Y-136653999D01*
X160265372Y-136647598D01*
X160265379Y-136647596D01*
X160400086Y-136597354D01*
X160400093Y-136597350D01*
X160515187Y-136511190D01*
X160515190Y-136511187D01*
X160601350Y-136396093D01*
X160601354Y-136396086D01*
X160651596Y-136261379D01*
X160651598Y-136261372D01*
X160657999Y-136201844D01*
X160658000Y-136201827D01*
X160658000Y-135504000D01*
X159691012Y-135504000D01*
X159723925Y-135446993D01*
X159758000Y-135319826D01*
X159758000Y-135188174D01*
X159723925Y-135061007D01*
X159691012Y-135004000D01*
X160658000Y-135004000D01*
X160658000Y-134306172D01*
X160657999Y-134306155D01*
X160651598Y-134246627D01*
X160651596Y-134246620D01*
X160601354Y-134111913D01*
X160601350Y-134111906D01*
X160515190Y-133996812D01*
X160515187Y-133996809D01*
X160400093Y-133910649D01*
X160400086Y-133910645D01*
X160265379Y-133860403D01*
X160265372Y-133860401D01*
X160205844Y-133854000D01*
X159508000Y-133854000D01*
X159508000Y-134820988D01*
X159450993Y-134788075D01*
X159323826Y-134754000D01*
X159192174Y-134754000D01*
X159065007Y-134788075D01*
X159008000Y-134820988D01*
X159008000Y-133854000D01*
X158310155Y-133854000D01*
X158250627Y-133860401D01*
X158250620Y-133860403D01*
X158115913Y-133910645D01*
X158115906Y-133910649D01*
X158000812Y-133996809D01*
X158000809Y-133996812D01*
X157914649Y-134111906D01*
X157914645Y-134111913D01*
X157864403Y-134246620D01*
X157864401Y-134246627D01*
X157858000Y-134306155D01*
X154736319Y-134306155D01*
X162493655Y-126548819D01*
X162554978Y-126515334D01*
X162581336Y-126512500D01*
X173324246Y-126512500D01*
X173391285Y-126532185D01*
X173437040Y-126584989D01*
X173446984Y-126654147D01*
X173429785Y-126701597D01*
X173342643Y-126842875D01*
X173342641Y-126842880D01*
X173287494Y-127009302D01*
X173287493Y-127009309D01*
X173277000Y-127112013D01*
X173277000Y-127512000D01*
X174347854Y-127512000D01*
X174309370Y-127578657D01*
X174277000Y-127699465D01*
X174277000Y-127824535D01*
X174309370Y-127945343D01*
X174347854Y-128012000D01*
X173277001Y-128012000D01*
X173277001Y-128411986D01*
X173287494Y-128514697D01*
X173342641Y-128681119D01*
X173342643Y-128681124D01*
X173434684Y-128830345D01*
X173558654Y-128954315D01*
X173707875Y-129046356D01*
X173707880Y-129046358D01*
X173874302Y-129101505D01*
X173874309Y-129101506D01*
X173977019Y-129111999D01*
X174501999Y-129111999D01*
X174502000Y-129111998D01*
X174502000Y-128166145D01*
X174568657Y-128204630D01*
X174689465Y-128237000D01*
X174814535Y-128237000D01*
X174935343Y-128204630D01*
X175002000Y-128166145D01*
X175002000Y-129111999D01*
X175526972Y-129111999D01*
X175526986Y-129111998D01*
X175629697Y-129101505D01*
X175796119Y-129046358D01*
X175796124Y-129046356D01*
X175945345Y-128954315D01*
X176069315Y-128830345D01*
X176161356Y-128681124D01*
X176161358Y-128681119D01*
X176216505Y-128514697D01*
X176216506Y-128514690D01*
X176226999Y-128411986D01*
X176227000Y-128411973D01*
X176227000Y-128012000D01*
X175156146Y-128012000D01*
X175194630Y-127945343D01*
X175227000Y-127824535D01*
X175227000Y-127699465D01*
X175194630Y-127578657D01*
X175156146Y-127512000D01*
X176226999Y-127512000D01*
X176226999Y-127112028D01*
X176226998Y-127112013D01*
X176216505Y-127009302D01*
X176161358Y-126842880D01*
X176161356Y-126842875D01*
X176069315Y-126693654D01*
X175945345Y-126569684D01*
X175790515Y-126474184D01*
X175743791Y-126422236D01*
X175732568Y-126353273D01*
X175760412Y-126289191D01*
X175767909Y-126280986D01*
X175907104Y-126141792D01*
X175935890Y-126102172D01*
X176032048Y-125969820D01*
X176032047Y-125969820D01*
X176032051Y-125969816D01*
X176128557Y-125780412D01*
X176194246Y-125578243D01*
X176227500Y-125368287D01*
X176227500Y-125155713D01*
X176194246Y-124945757D01*
X176128557Y-124743588D01*
X176032051Y-124554184D01*
X176032049Y-124554181D01*
X176032048Y-124554179D01*
X175907109Y-124382213D01*
X175756786Y-124231890D01*
X175584820Y-124106951D01*
X175395414Y-124010444D01*
X175395413Y-124010443D01*
X175395412Y-124010443D01*
X175193243Y-123944754D01*
X175193241Y-123944753D01*
X175193240Y-123944753D01*
X175031957Y-123919208D01*
X174983287Y-123911500D01*
X174520713Y-123911500D01*
X174481202Y-123917757D01*
X174310759Y-123944753D01*
X174124012Y-124005431D01*
X174085694Y-124011500D01*
X161913578Y-124011500D01*
X161774976Y-124033453D01*
X161774975Y-124033453D01*
X161719173Y-124042290D01*
X161531970Y-124103117D01*
X161356594Y-124192476D01*
X161302346Y-124231890D01*
X161197355Y-124308171D01*
X161197353Y-124308173D01*
X161197352Y-124308173D01*
X152172345Y-133333181D01*
X152111022Y-133366666D01*
X152084664Y-133369500D01*
X134772394Y-133369500D01*
X134716099Y-133355985D01*
X134649606Y-133322104D01*
X134649603Y-133322103D01*
X134439952Y-133253985D01*
X134331086Y-133236742D01*
X134222222Y-133219500D01*
X134001778Y-133219500D01*
X133929201Y-133230995D01*
X133784047Y-133253985D01*
X133574396Y-133322103D01*
X133574393Y-133322104D01*
X133377974Y-133422187D01*
X133199641Y-133551752D01*
X133199636Y-133551756D01*
X133043756Y-133707636D01*
X133043752Y-133707641D01*
X132942318Y-133847254D01*
X132886988Y-133889920D01*
X132817375Y-133895899D01*
X132755580Y-133863293D01*
X132741682Y-133847254D01*
X132640247Y-133707641D01*
X132640243Y-133707636D01*
X132484363Y-133551756D01*
X132484358Y-133551752D01*
X132306025Y-133422187D01*
X132306024Y-133422186D01*
X132306022Y-133422185D01*
X132243096Y-133390122D01*
X132109606Y-133322104D01*
X132109603Y-133322103D01*
X131899952Y-133253985D01*
X131791086Y-133236742D01*
X131682222Y-133219500D01*
X131461778Y-133219500D01*
X131389201Y-133230995D01*
X131244047Y-133253985D01*
X131034396Y-133322103D01*
X131034393Y-133322104D01*
X130837974Y-133422187D01*
X130659641Y-133551752D01*
X130659636Y-133551756D01*
X130503756Y-133707636D01*
X130503752Y-133707641D01*
X130402318Y-133847254D01*
X130346988Y-133889920D01*
X130277375Y-133895899D01*
X130215580Y-133863293D01*
X130201682Y-133847254D01*
X130100247Y-133707641D01*
X130100243Y-133707636D01*
X129944363Y-133551756D01*
X129944358Y-133551752D01*
X129766025Y-133422187D01*
X129766024Y-133422186D01*
X129766022Y-133422185D01*
X129703096Y-133390122D01*
X129569606Y-133322104D01*
X129569603Y-133322103D01*
X129359952Y-133253985D01*
X129251086Y-133236742D01*
X129142222Y-133219500D01*
X128921778Y-133219500D01*
X128849201Y-133230995D01*
X128704047Y-133253985D01*
X128494396Y-133322103D01*
X128494393Y-133322104D01*
X128297974Y-133422187D01*
X128119641Y-133551752D01*
X128119636Y-133551756D01*
X127963756Y-133707636D01*
X127963752Y-133707641D01*
X127862318Y-133847254D01*
X127806988Y-133889920D01*
X127737375Y-133895899D01*
X127675580Y-133863293D01*
X127661682Y-133847254D01*
X127560247Y-133707641D01*
X127560243Y-133707636D01*
X127404363Y-133551756D01*
X127404358Y-133551752D01*
X127226025Y-133422187D01*
X127226024Y-133422186D01*
X127226022Y-133422185D01*
X127163096Y-133390122D01*
X127029606Y-133322104D01*
X127029603Y-133322103D01*
X126819952Y-133253985D01*
X126711086Y-133236742D01*
X126602222Y-133219500D01*
X126381778Y-133219500D01*
X126309201Y-133230995D01*
X126164047Y-133253985D01*
X125954396Y-133322103D01*
X125954393Y-133322104D01*
X125757974Y-133422187D01*
X125579641Y-133551752D01*
X125579636Y-133551756D01*
X125423756Y-133707636D01*
X125322008Y-133847681D01*
X125266678Y-133890346D01*
X125197065Y-133896325D01*
X125135270Y-133863719D01*
X125121371Y-133847680D01*
X125103066Y-133822485D01*
X125103065Y-133822485D01*
X124434962Y-134490589D01*
X124417925Y-134427007D01*
X124352099Y-134312993D01*
X124259007Y-134219901D01*
X124144993Y-134154075D01*
X124081407Y-134137037D01*
X124749513Y-133468932D01*
X124685756Y-133422611D01*
X124489410Y-133322567D01*
X124279835Y-133254473D01*
X124062181Y-133220000D01*
X123841819Y-133220000D01*
X123624164Y-133254473D01*
X123414589Y-133322567D01*
X123218233Y-133422616D01*
X123154485Y-133468931D01*
X123154485Y-133468932D01*
X123822590Y-134137037D01*
X123759007Y-134154075D01*
X123644993Y-134219901D01*
X123551901Y-134312993D01*
X123486075Y-134427007D01*
X123469037Y-134490590D01*
X122848818Y-133870371D01*
X122815333Y-133809048D01*
X122812499Y-133782690D01*
X122812499Y-133672129D01*
X122812498Y-133672123D01*
X122806091Y-133612516D01*
X122786326Y-133559524D01*
X122755797Y-133477671D01*
X122755793Y-133477664D01*
X122669547Y-133362455D01*
X122669544Y-133362452D01*
X122554335Y-133276206D01*
X122554328Y-133276202D01*
X122419482Y-133225908D01*
X122411938Y-133224126D01*
X122412474Y-133221853D01*
X122358688Y-133199571D01*
X122318843Y-133142177D01*
X122312500Y-133103024D01*
X122312500Y-130243761D01*
X122332185Y-130176722D01*
X122348819Y-130156080D01*
X129673480Y-122831419D01*
X129734803Y-122797934D01*
X129761161Y-122795100D01*
X145888038Y-122795100D01*
X145955077Y-122814785D01*
X146000832Y-122867589D01*
X146010776Y-122936747D01*
X145981751Y-123000303D01*
X145975719Y-123006781D01*
X145096535Y-123885964D01*
X145096533Y-123885966D01*
X145081230Y-123908871D01*
X145081225Y-123908879D01*
X145079474Y-123911500D01*
X144997987Y-124033453D01*
X144981297Y-124073747D01*
X144977843Y-124082083D01*
X144977840Y-124082090D01*
X144930105Y-124197333D01*
X144930103Y-124197341D01*
X144900401Y-124346661D01*
X144900402Y-124346662D01*
X144895500Y-124371308D01*
X144895500Y-125939242D01*
X144875815Y-126006281D01*
X144859181Y-126026923D01*
X144765894Y-126120209D01*
X144765890Y-126120213D01*
X144640949Y-126292182D01*
X144636484Y-126300946D01*
X144588509Y-126351742D01*
X144520688Y-126368536D01*
X144454553Y-126345998D01*
X144415516Y-126300946D01*
X144411050Y-126292182D01*
X144286109Y-126120213D01*
X144135786Y-125969890D01*
X143963820Y-125844951D01*
X143774414Y-125748444D01*
X143774413Y-125748443D01*
X143774412Y-125748443D01*
X143572243Y-125682754D01*
X143572241Y-125682753D01*
X143572240Y-125682753D01*
X143410957Y-125657208D01*
X143362287Y-125649500D01*
X143149713Y-125649500D01*
X143101042Y-125657208D01*
X142939760Y-125682753D01*
X142737585Y-125748444D01*
X142548179Y-125844951D01*
X142376213Y-125969890D01*
X142225890Y-126120213D01*
X142100951Y-126292179D01*
X142004444Y-126481585D01*
X142004443Y-126481587D01*
X142004443Y-126481588D01*
X141994399Y-126512500D01*
X141938753Y-126683760D01*
X141905500Y-126893713D01*
X141905500Y-127106286D01*
X141917660Y-127183065D01*
X141938754Y-127316243D01*
X141988824Y-127470343D01*
X142004444Y-127518414D01*
X142100951Y-127707820D01*
X142225890Y-127879786D01*
X142376213Y-128030109D01*
X142548179Y-128155048D01*
X142548181Y-128155049D01*
X142548184Y-128155051D01*
X142737588Y-128251557D01*
X142939757Y-128317246D01*
X143149713Y-128350500D01*
X143149714Y-128350500D01*
X143362286Y-128350500D01*
X143362287Y-128350500D01*
X143572243Y-128317246D01*
X143774412Y-128251557D01*
X143963816Y-128155051D01*
X144050478Y-128092088D01*
X144135786Y-128030109D01*
X144135788Y-128030106D01*
X144135792Y-128030104D01*
X144286104Y-127879792D01*
X144286106Y-127879788D01*
X144286109Y-127879786D01*
X144411048Y-127707820D01*
X144411047Y-127707820D01*
X144411051Y-127707816D01*
X144415514Y-127699054D01*
X144463488Y-127648259D01*
X144531308Y-127631463D01*
X144597444Y-127653999D01*
X144636486Y-127699056D01*
X144640951Y-127707820D01*
X144765890Y-127879786D01*
X144916213Y-128030109D01*
X145088179Y-128155048D01*
X145088181Y-128155049D01*
X145088184Y-128155051D01*
X145277588Y-128251557D01*
X145479757Y-128317246D01*
X145689713Y-128350500D01*
X145689714Y-128350500D01*
X145902286Y-128350500D01*
X145902287Y-128350500D01*
X146112243Y-128317246D01*
X146314412Y-128251557D01*
X146503816Y-128155051D01*
X146590478Y-128092088D01*
X146675784Y-128030110D01*
X146675784Y-128030109D01*
X146675792Y-128030104D01*
X146789717Y-127916178D01*
X146851036Y-127882696D01*
X146920728Y-127887680D01*
X146976662Y-127929551D01*
X146993577Y-127960528D01*
X147042646Y-128092088D01*
X147042649Y-128092093D01*
X147128809Y-128207187D01*
X147128812Y-128207190D01*
X147243906Y-128293350D01*
X147243913Y-128293354D01*
X147378620Y-128343596D01*
X147378627Y-128343598D01*
X147438155Y-128349999D01*
X147438172Y-128350000D01*
X148086000Y-128350000D01*
X148086000Y-127433012D01*
X148143007Y-127465925D01*
X148270174Y-127500000D01*
X148401826Y-127500000D01*
X148528993Y-127465925D01*
X148586000Y-127433012D01*
X148586000Y-128350000D01*
X149233828Y-128350000D01*
X149233844Y-128349999D01*
X149293372Y-128343598D01*
X149293379Y-128343596D01*
X149428086Y-128293354D01*
X149428093Y-128293350D01*
X149543187Y-128207190D01*
X149543190Y-128207187D01*
X149629350Y-128092093D01*
X149629354Y-128092086D01*
X149679596Y-127957379D01*
X149679598Y-127957372D01*
X149685999Y-127897844D01*
X149686000Y-127897827D01*
X149686000Y-127250000D01*
X148769012Y-127250000D01*
X148801925Y-127192993D01*
X148836000Y-127065826D01*
X148836000Y-126934174D01*
X148801925Y-126807007D01*
X148769012Y-126750000D01*
X149686000Y-126750000D01*
X149686000Y-126102172D01*
X149685999Y-126102155D01*
X149679598Y-126042627D01*
X149679596Y-126042620D01*
X149629354Y-125907913D01*
X149629350Y-125907906D01*
X149543190Y-125792812D01*
X149543187Y-125792809D01*
X149428093Y-125706649D01*
X149428086Y-125706645D01*
X149293379Y-125656403D01*
X149293372Y-125656401D01*
X149233844Y-125650000D01*
X148586000Y-125650000D01*
X148586000Y-126566988D01*
X148528993Y-126534075D01*
X148401826Y-126500000D01*
X148270174Y-126500000D01*
X148143007Y-126534075D01*
X148086000Y-126566988D01*
X148086000Y-125650000D01*
X147438155Y-125650000D01*
X147378627Y-125656401D01*
X147378620Y-125656403D01*
X147243913Y-125706645D01*
X147243906Y-125706649D01*
X147128812Y-125792809D01*
X147128809Y-125792812D01*
X147042649Y-125907906D01*
X147042646Y-125907912D01*
X146993577Y-126039471D01*
X146951705Y-126095404D01*
X146886241Y-126119821D01*
X146817968Y-126104969D01*
X146789714Y-126083818D01*
X146732819Y-126026923D01*
X146699334Y-125965600D01*
X146696500Y-125939242D01*
X146696500Y-124884361D01*
X146716185Y-124817322D01*
X146732819Y-124796680D01*
X146945480Y-124584019D01*
X147006803Y-124550534D01*
X147033161Y-124547700D01*
X149745493Y-124547700D01*
X149745494Y-124547699D01*
X149919466Y-124513095D01*
X150001406Y-124479153D01*
X150083347Y-124445213D01*
X150177640Y-124382208D01*
X150230836Y-124346664D01*
X152464464Y-122113036D01*
X152503936Y-122053959D01*
X152563013Y-121965547D01*
X152629137Y-121805909D01*
X152630895Y-121801666D01*
X152665500Y-121627692D01*
X152665500Y-121450308D01*
X152665500Y-103143528D01*
X152674144Y-103114088D01*
X152680668Y-103084101D01*
X152683898Y-103080870D01*
X152685185Y-103076489D01*
X152708373Y-103056395D01*
X152730074Y-103034696D01*
X152734537Y-103033725D01*
X152737989Y-103030734D01*
X152768363Y-103026366D01*
X152798347Y-103019844D01*
X152802626Y-103021440D01*
X152807147Y-103020790D01*
X152835059Y-103033537D01*
X152863811Y-103044261D01*
X152868240Y-103048690D01*
X152870703Y-103049815D01*
X152888767Y-103069218D01*
X152902767Y-103087920D01*
X152927184Y-103153385D01*
X152927500Y-103162230D01*
X152927500Y-107566422D01*
X152958290Y-107760826D01*
X153019117Y-107948030D01*
X153108476Y-108123405D01*
X153224172Y-108282646D01*
X164259354Y-119317828D01*
X164418595Y-119433524D01*
X164501454Y-119475742D01*
X164593969Y-119522882D01*
X164593971Y-119522882D01*
X164593974Y-119522884D01*
X164694318Y-119555487D01*
X164781173Y-119583709D01*
X164975578Y-119614500D01*
X164975583Y-119614500D01*
X165172417Y-119614500D01*
X173616868Y-119614500D01*
X173681963Y-119632960D01*
X173707666Y-119648814D01*
X173874203Y-119703999D01*
X173976991Y-119714500D01*
X175527008Y-119714499D01*
X175629797Y-119703999D01*
X175796334Y-119648814D01*
X175945656Y-119556712D01*
X176069712Y-119432656D01*
X176161814Y-119283334D01*
X176216999Y-119116797D01*
X176227500Y-119014009D01*
X176227499Y-117713992D01*
X176216999Y-117611203D01*
X176161814Y-117444666D01*
X176069712Y-117295344D01*
X175945656Y-117171288D01*
X175796334Y-117079186D01*
X175796332Y-117079185D01*
X175790440Y-117075551D01*
X175743716Y-117023603D01*
X175732493Y-116954641D01*
X175760337Y-116890558D01*
X175767856Y-116882330D01*
X175906728Y-116743458D01*
X176031620Y-116571557D01*
X176128095Y-116382217D01*
X176193757Y-116180129D01*
X176193757Y-116180126D01*
X176204231Y-116114000D01*
X175156146Y-116114000D01*
X175194630Y-116047343D01*
X175227000Y-115926535D01*
X175227000Y-115801465D01*
X175194630Y-115680657D01*
X175156146Y-115614000D01*
X176204231Y-115614000D01*
X176193757Y-115547873D01*
X176193757Y-115547870D01*
X176128095Y-115345782D01*
X176031620Y-115156442D01*
X175906727Y-114984540D01*
X175906723Y-114984535D01*
X175756464Y-114834276D01*
X175756459Y-114834272D01*
X175584557Y-114709379D01*
X175395217Y-114612904D01*
X175193128Y-114547242D01*
X175002000Y-114516969D01*
X175002000Y-115459854D01*
X174935343Y-115421370D01*
X174814535Y-115389000D01*
X174689465Y-115389000D01*
X174568657Y-115421370D01*
X174502000Y-115459854D01*
X174502000Y-114516969D01*
X174310872Y-114547242D01*
X174310869Y-114547242D01*
X174108782Y-114612904D01*
X173919442Y-114709379D01*
X173747540Y-114834272D01*
X173747535Y-114834276D01*
X173597276Y-114984535D01*
X173597272Y-114984540D01*
X173472379Y-115156442D01*
X173375904Y-115345782D01*
X173310242Y-115547870D01*
X173310242Y-115547873D01*
X173299769Y-115614000D01*
X174347854Y-115614000D01*
X174309370Y-115680657D01*
X174277000Y-115801465D01*
X174277000Y-115926535D01*
X174309370Y-116047343D01*
X174347854Y-116114000D01*
X173299769Y-116114000D01*
X173310242Y-116180126D01*
X173310242Y-116180129D01*
X173375904Y-116382217D01*
X173472379Y-116571557D01*
X173597272Y-116743459D01*
X173597276Y-116743464D01*
X173736143Y-116882331D01*
X173747287Y-116902739D01*
X173762190Y-116920596D01*
X173763718Y-116932832D01*
X173769628Y-116943654D01*
X173767969Y-116966851D01*
X173770852Y-116989926D01*
X173765523Y-117001044D01*
X173764644Y-117013346D01*
X173750706Y-117031964D01*
X173740657Y-117052934D01*
X173725600Y-117065500D01*
X173722772Y-117069279D01*
X173713560Y-117075550D01*
X173681966Y-117095038D01*
X173616868Y-117113500D01*
X165643336Y-117113500D01*
X165576297Y-117093815D01*
X165555655Y-117077181D01*
X155464819Y-106986345D01*
X155431334Y-106925022D01*
X155428500Y-106898664D01*
X155428500Y-106359713D01*
X173276500Y-106359713D01*
X173276500Y-106572287D01*
X173309754Y-106782243D01*
X173364270Y-106950026D01*
X173375444Y-106984414D01*
X173471951Y-107173820D01*
X173596890Y-107345786D01*
X173735705Y-107484601D01*
X173769190Y-107545924D01*
X173764206Y-107615616D01*
X173722334Y-107671549D01*
X173713121Y-107677821D01*
X173558342Y-107773289D01*
X173434289Y-107897342D01*
X173342187Y-108046663D01*
X173342186Y-108046666D01*
X173287001Y-108213203D01*
X173287001Y-108213204D01*
X173287000Y-108213204D01*
X173276500Y-108315983D01*
X173276500Y-109616001D01*
X173276501Y-109616018D01*
X173287000Y-109718796D01*
X173287001Y-109718799D01*
X173342185Y-109885331D01*
X173342187Y-109885336D01*
X173377069Y-109941888D01*
X173434288Y-110034656D01*
X173558344Y-110158712D01*
X173707666Y-110250814D01*
X173874203Y-110305999D01*
X173976991Y-110316500D01*
X175527008Y-110316499D01*
X175629797Y-110305999D01*
X175796334Y-110250814D01*
X175945656Y-110158712D01*
X176069712Y-110034656D01*
X176161814Y-109885334D01*
X176216999Y-109718797D01*
X176227500Y-109616009D01*
X176227499Y-108315992D01*
X176221869Y-108260882D01*
X176216999Y-108213203D01*
X176216998Y-108213200D01*
X176161814Y-108046666D01*
X176069712Y-107897344D01*
X175945656Y-107773288D01*
X175796334Y-107681186D01*
X175796333Y-107681185D01*
X175790878Y-107677821D01*
X175744154Y-107625873D01*
X175732931Y-107556910D01*
X175760775Y-107492828D01*
X175768272Y-107484623D01*
X175907104Y-107345792D01*
X176032051Y-107173816D01*
X176128557Y-106984412D01*
X176194246Y-106782243D01*
X176227500Y-106572287D01*
X176227500Y-106359713D01*
X176194246Y-106149757D01*
X176128557Y-105947588D01*
X176032051Y-105758184D01*
X176032049Y-105758181D01*
X176032048Y-105758179D01*
X175907109Y-105586213D01*
X175756786Y-105435890D01*
X175584820Y-105310951D01*
X175395414Y-105214444D01*
X175395413Y-105214443D01*
X175395412Y-105214443D01*
X175193243Y-105148754D01*
X175193241Y-105148753D01*
X175193240Y-105148753D01*
X175031957Y-105123208D01*
X174983287Y-105115500D01*
X174520713Y-105115500D01*
X174472042Y-105123208D01*
X174310760Y-105148753D01*
X174108585Y-105214444D01*
X173919179Y-105310951D01*
X173747213Y-105435890D01*
X173596890Y-105586213D01*
X173471951Y-105758179D01*
X173375444Y-105947585D01*
X173309753Y-106149760D01*
X173276500Y-106359713D01*
X155428500Y-106359713D01*
X155428500Y-103162230D01*
X155448185Y-103095191D01*
X155453233Y-103087919D01*
X155458510Y-103080870D01*
X155521796Y-102996331D01*
X155572091Y-102861483D01*
X155578500Y-102801873D01*
X155578499Y-101788174D01*
X155578499Y-100906155D01*
X168018000Y-100906155D01*
X168018000Y-101604000D01*
X168984988Y-101604000D01*
X168952075Y-101661007D01*
X168918000Y-101788174D01*
X168918000Y-101919826D01*
X168952075Y-102046993D01*
X168984988Y-102104000D01*
X168018000Y-102104000D01*
X168018000Y-102801844D01*
X168024401Y-102861372D01*
X168024403Y-102861379D01*
X168074645Y-102996086D01*
X168074649Y-102996093D01*
X168160809Y-103111187D01*
X168160812Y-103111190D01*
X168275906Y-103197350D01*
X168275913Y-103197354D01*
X168410620Y-103247596D01*
X168410627Y-103247598D01*
X168470155Y-103253999D01*
X168470172Y-103254000D01*
X169168000Y-103254000D01*
X169168000Y-102287012D01*
X169225007Y-102319925D01*
X169352174Y-102354000D01*
X169483826Y-102354000D01*
X169610993Y-102319925D01*
X169668000Y-102287012D01*
X169668000Y-103254000D01*
X170365828Y-103254000D01*
X170365844Y-103253999D01*
X170425372Y-103247598D01*
X170425379Y-103247596D01*
X170560086Y-103197354D01*
X170560093Y-103197350D01*
X170675187Y-103111190D01*
X170675190Y-103111187D01*
X170761350Y-102996093D01*
X170761354Y-102996086D01*
X170811596Y-102861379D01*
X170811598Y-102861372D01*
X170817999Y-102801844D01*
X170818000Y-102801827D01*
X170818000Y-102104000D01*
X169851012Y-102104000D01*
X169883925Y-102046993D01*
X169918000Y-101919826D01*
X169918000Y-101788174D01*
X169883925Y-101661007D01*
X169851012Y-101604000D01*
X170818000Y-101604000D01*
X170818000Y-100906172D01*
X170817999Y-100906155D01*
X170811598Y-100846627D01*
X170811596Y-100846620D01*
X170761354Y-100711913D01*
X170761350Y-100711906D01*
X170675190Y-100596812D01*
X170675187Y-100596809D01*
X170560093Y-100510649D01*
X170560086Y-100510645D01*
X170425379Y-100460403D01*
X170425372Y-100460401D01*
X170365844Y-100454000D01*
X169668000Y-100454000D01*
X169668000Y-101420988D01*
X169610993Y-101388075D01*
X169483826Y-101354000D01*
X169352174Y-101354000D01*
X169225007Y-101388075D01*
X169168000Y-101420988D01*
X169168000Y-100454000D01*
X168470155Y-100454000D01*
X168410627Y-100460401D01*
X168410620Y-100460403D01*
X168275913Y-100510645D01*
X168275906Y-100510649D01*
X168160812Y-100596809D01*
X168160809Y-100596812D01*
X168074649Y-100711906D01*
X168074645Y-100711913D01*
X168024403Y-100846620D01*
X168024401Y-100846627D01*
X168018000Y-100906155D01*
X155578499Y-100906155D01*
X155578499Y-100906129D01*
X155578498Y-100906123D01*
X155572091Y-100846516D01*
X155521797Y-100711671D01*
X155521793Y-100711664D01*
X155435547Y-100596455D01*
X155435544Y-100596452D01*
X155320335Y-100510206D01*
X155320328Y-100510202D01*
X155185482Y-100459908D01*
X155185483Y-100459908D01*
X155125883Y-100453501D01*
X155125881Y-100453500D01*
X155125873Y-100453500D01*
X155125864Y-100453500D01*
X153230129Y-100453500D01*
X153230123Y-100453501D01*
X153170516Y-100459908D01*
X153035671Y-100510202D01*
X153035664Y-100510206D01*
X152920455Y-100596452D01*
X152888766Y-100638783D01*
X152832831Y-100680654D01*
X152763140Y-100685637D01*
X152701817Y-100652151D01*
X152668333Y-100590827D01*
X152665500Y-100564471D01*
X152665500Y-99611361D01*
X152685185Y-99544322D01*
X152701819Y-99523680D01*
X156061817Y-96163682D01*
X165070000Y-96163682D01*
X165070000Y-96368317D01*
X165102009Y-96570417D01*
X165165244Y-96765031D01*
X165258141Y-96947350D01*
X165258147Y-96947359D01*
X165290523Y-96991921D01*
X165290524Y-96991922D01*
X165970000Y-96312446D01*
X165970000Y-96318661D01*
X165997259Y-96420394D01*
X166049920Y-96511606D01*
X166124394Y-96586080D01*
X166215606Y-96638741D01*
X166317339Y-96666000D01*
X166323553Y-96666000D01*
X165644076Y-97345474D01*
X165688650Y-97377859D01*
X165870968Y-97470755D01*
X166065582Y-97533990D01*
X166267683Y-97566000D01*
X166472317Y-97566000D01*
X166674417Y-97533990D01*
X166869031Y-97470755D01*
X167051349Y-97377859D01*
X167095921Y-97345474D01*
X166416447Y-96666000D01*
X166422661Y-96666000D01*
X166524394Y-96638741D01*
X166615606Y-96586080D01*
X166690080Y-96511606D01*
X166742741Y-96420394D01*
X166770000Y-96318661D01*
X166770000Y-96312447D01*
X167449474Y-96991921D01*
X167481859Y-96947349D01*
X167574755Y-96765031D01*
X167637990Y-96570417D01*
X167670000Y-96368317D01*
X167670000Y-96163682D01*
X167637990Y-95961582D01*
X167574755Y-95766968D01*
X167481859Y-95584650D01*
X167449474Y-95540077D01*
X167449474Y-95540076D01*
X166770000Y-96219551D01*
X166770000Y-96213339D01*
X166742741Y-96111606D01*
X166690080Y-96020394D01*
X166615606Y-95945920D01*
X166524394Y-95893259D01*
X166422661Y-95866000D01*
X166416446Y-95866000D01*
X167095922Y-95186524D01*
X167095921Y-95186523D01*
X167051359Y-95154147D01*
X167051350Y-95154141D01*
X166869031Y-95061244D01*
X166674417Y-94998009D01*
X166472317Y-94966000D01*
X166267683Y-94966000D01*
X166065582Y-94998009D01*
X165870968Y-95061244D01*
X165688644Y-95154143D01*
X165644077Y-95186523D01*
X165644077Y-95186524D01*
X166323554Y-95866000D01*
X166317339Y-95866000D01*
X166215606Y-95893259D01*
X166124394Y-95945920D01*
X166049920Y-96020394D01*
X165997259Y-96111606D01*
X165970000Y-96213339D01*
X165970000Y-96219553D01*
X165290524Y-95540077D01*
X165290523Y-95540077D01*
X165258143Y-95584644D01*
X165165244Y-95766968D01*
X165102009Y-95961582D01*
X165070000Y-96163682D01*
X156061817Y-96163682D01*
X158522680Y-93702819D01*
X158584003Y-93669334D01*
X158610361Y-93666500D01*
X159875309Y-93666500D01*
X165085202Y-93666500D01*
X165152241Y-93686185D01*
X165190739Y-93725401D01*
X165227288Y-93784656D01*
X165351344Y-93908712D01*
X165500666Y-94000814D01*
X165667203Y-94055999D01*
X165769991Y-94066500D01*
X166970008Y-94066499D01*
X167072797Y-94055999D01*
X167239334Y-94000814D01*
X167388656Y-93908712D01*
X167512712Y-93784656D01*
X167604814Y-93635334D01*
X167659999Y-93468797D01*
X167670500Y-93366009D01*
X167670499Y-92165992D01*
X167663294Y-92095464D01*
X167659999Y-92063203D01*
X167659998Y-92063200D01*
X167640229Y-92003542D01*
X167604814Y-91896666D01*
X167512712Y-91747344D01*
X167388656Y-91623288D01*
X167295888Y-91566069D01*
X167239336Y-91531187D01*
X167239331Y-91531185D01*
X167237862Y-91530698D01*
X167072797Y-91476001D01*
X167072795Y-91476000D01*
X166970010Y-91465500D01*
X165769998Y-91465500D01*
X165769981Y-91465501D01*
X165667203Y-91476000D01*
X165667200Y-91476001D01*
X165500668Y-91531185D01*
X165500663Y-91531187D01*
X165351342Y-91623289D01*
X165227289Y-91747342D01*
X165227288Y-91747344D01*
X165199121Y-91793011D01*
X165190741Y-91806597D01*
X165138793Y-91853321D01*
X165085202Y-91865500D01*
X160659361Y-91865500D01*
X160592322Y-91845815D01*
X160546567Y-91793011D01*
X160536623Y-91723853D01*
X160565648Y-91660297D01*
X160571680Y-91653819D01*
X161735461Y-90490038D01*
X161735464Y-90490035D01*
X161834013Y-90342547D01*
X161834016Y-90342540D01*
X161873059Y-90248282D01*
X161873059Y-90248281D01*
X161876118Y-90240897D01*
X161901895Y-90178666D01*
X161936500Y-90004691D01*
X161936500Y-89827308D01*
X161936500Y-89431386D01*
X174626901Y-89431386D01*
X174637394Y-89534097D01*
X174692541Y-89700519D01*
X174692543Y-89700524D01*
X174784584Y-89849745D01*
X174908554Y-89973715D01*
X175057775Y-90065756D01*
X175057780Y-90065758D01*
X175224202Y-90120905D01*
X175224209Y-90120906D01*
X175326919Y-90131399D01*
X176726899Y-90131399D01*
X177226900Y-90131399D01*
X178626872Y-90131399D01*
X178626886Y-90131398D01*
X178729597Y-90120905D01*
X178896019Y-90065758D01*
X178896024Y-90065756D01*
X179045245Y-89973715D01*
X179169215Y-89849745D01*
X179261256Y-89700524D01*
X179261258Y-89700519D01*
X179316405Y-89534097D01*
X179316406Y-89534090D01*
X179326899Y-89431386D01*
X179326900Y-89431373D01*
X179326900Y-89206400D01*
X177226900Y-89206400D01*
X177226900Y-90131399D01*
X176726899Y-90131399D01*
X176726900Y-90131398D01*
X176726900Y-89206400D01*
X174626901Y-89206400D01*
X174626901Y-89431386D01*
X161936500Y-89431386D01*
X161936500Y-81501162D01*
X161956185Y-81434123D01*
X161972819Y-81413481D01*
X164420681Y-78965619D01*
X164482004Y-78932134D01*
X164508362Y-78929300D01*
X166004739Y-78929300D01*
X166071778Y-78948985D01*
X166117533Y-79001789D01*
X166127477Y-79070947D01*
X166098452Y-79134503D01*
X166079050Y-79152566D01*
X166036455Y-79184452D01*
X166036452Y-79184455D01*
X165950206Y-79299664D01*
X165950202Y-79299671D01*
X165899908Y-79434517D01*
X165893501Y-79494116D01*
X165893501Y-79494123D01*
X165893500Y-79494135D01*
X165893500Y-80589870D01*
X165893501Y-80589876D01*
X165899908Y-80649483D01*
X165950202Y-80784328D01*
X165950206Y-80784335D01*
X166036452Y-80899544D01*
X166036453Y-80899544D01*
X166036454Y-80899546D01*
X166065615Y-80921376D01*
X166094145Y-80942734D01*
X166136015Y-80998668D01*
X166140999Y-81068360D01*
X166107513Y-81129683D01*
X166094145Y-81141266D01*
X166036452Y-81184455D01*
X165950206Y-81299664D01*
X165950202Y-81299671D01*
X165899908Y-81434517D01*
X165897979Y-81452464D01*
X165893501Y-81494123D01*
X165893500Y-81494135D01*
X165893500Y-82589870D01*
X165893501Y-82589876D01*
X165899908Y-82649483D01*
X165950202Y-82784328D01*
X165950206Y-82784335D01*
X166036452Y-82899544D01*
X166036453Y-82899544D01*
X166036454Y-82899546D01*
X166071727Y-82925951D01*
X166094562Y-82943046D01*
X166136432Y-82998980D01*
X166141416Y-83068672D01*
X166107930Y-83129994D01*
X166094562Y-83141578D01*
X166036809Y-83184812D01*
X165950649Y-83299906D01*
X165950645Y-83299913D01*
X165900403Y-83434620D01*
X165900401Y-83434627D01*
X165894000Y-83494155D01*
X165894000Y-83792000D01*
X169894000Y-83792000D01*
X169894000Y-83494172D01*
X169893999Y-83494155D01*
X169887598Y-83434627D01*
X169887596Y-83434620D01*
X169837354Y-83299913D01*
X169837350Y-83299906D01*
X169751190Y-83184812D01*
X169751187Y-83184809D01*
X169693438Y-83141578D01*
X169651567Y-83085645D01*
X169646583Y-83015953D01*
X169680069Y-82954630D01*
X169693432Y-82943049D01*
X169751546Y-82899546D01*
X169802550Y-82831413D01*
X174626900Y-82831413D01*
X174626900Y-83056400D01*
X176726900Y-83056400D01*
X177226900Y-83056400D01*
X179326899Y-83056400D01*
X179326899Y-82831428D01*
X179326898Y-82831413D01*
X179316405Y-82728702D01*
X179261258Y-82562280D01*
X179261256Y-82562275D01*
X179169215Y-82413054D01*
X179045245Y-82289084D01*
X178896024Y-82197043D01*
X178896019Y-82197041D01*
X178729597Y-82141894D01*
X178729590Y-82141893D01*
X178626886Y-82131400D01*
X177226900Y-82131400D01*
X177226900Y-83056400D01*
X176726900Y-83056400D01*
X176726900Y-82131400D01*
X175326928Y-82131400D01*
X175326912Y-82131401D01*
X175224202Y-82141894D01*
X175057780Y-82197041D01*
X175057775Y-82197043D01*
X174908554Y-82289084D01*
X174784584Y-82413054D01*
X174692543Y-82562275D01*
X174692541Y-82562280D01*
X174637394Y-82728702D01*
X174637393Y-82728709D01*
X174626900Y-82831413D01*
X169802550Y-82831413D01*
X169837796Y-82784331D01*
X169841191Y-82775230D01*
X169888091Y-82649482D01*
X169894500Y-82589873D01*
X169894499Y-81494128D01*
X169888091Y-81434517D01*
X169837796Y-81299669D01*
X169837795Y-81299668D01*
X169837793Y-81299664D01*
X169751547Y-81184456D01*
X169751548Y-81184456D01*
X169751546Y-81184454D01*
X169693854Y-81141265D01*
X169651984Y-81085333D01*
X169647000Y-81015641D01*
X169680485Y-80954318D01*
X169693854Y-80942734D01*
X169751546Y-80899546D01*
X169837796Y-80784331D01*
X169888091Y-80649483D01*
X169894500Y-80589873D01*
X169894499Y-79494128D01*
X169888091Y-79434517D01*
X169837796Y-79299669D01*
X169837795Y-79299668D01*
X169837793Y-79299664D01*
X169751547Y-79184456D01*
X169751548Y-79184456D01*
X169751546Y-79184454D01*
X169693854Y-79141265D01*
X169651984Y-79085333D01*
X169647000Y-79015641D01*
X169680485Y-78954318D01*
X169693850Y-78942736D01*
X169751546Y-78899546D01*
X169837796Y-78784331D01*
X169888091Y-78649483D01*
X169894500Y-78589873D01*
X169894499Y-77494128D01*
X169888091Y-77434517D01*
X169837796Y-77299669D01*
X169837795Y-77299668D01*
X169837793Y-77299664D01*
X169786123Y-77230643D01*
X169751546Y-77184454D01*
X169693854Y-77141265D01*
X169651984Y-77085333D01*
X169647000Y-77015641D01*
X169680485Y-76954318D01*
X169693854Y-76942734D01*
X169751546Y-76899546D01*
X169837796Y-76784331D01*
X169888091Y-76649483D01*
X169894500Y-76589873D01*
X169894499Y-75494128D01*
X169888091Y-75434517D01*
X169883353Y-75421815D01*
X169837797Y-75299671D01*
X169837793Y-75299664D01*
X169751547Y-75184456D01*
X169751548Y-75184456D01*
X169751546Y-75184454D01*
X169693854Y-75141265D01*
X169651984Y-75085333D01*
X169647000Y-75015641D01*
X169680485Y-74954318D01*
X169693854Y-74942734D01*
X169751546Y-74899546D01*
X169837796Y-74784331D01*
X169888091Y-74649483D01*
X169894500Y-74589873D01*
X169894499Y-73494128D01*
X169888091Y-73434517D01*
X169837796Y-73299669D01*
X169837795Y-73299668D01*
X169837793Y-73299664D01*
X169751547Y-73184456D01*
X169751548Y-73184456D01*
X169751546Y-73184454D01*
X169693854Y-73141265D01*
X169651984Y-73085333D01*
X169647000Y-73015641D01*
X169680485Y-72954318D01*
X169693854Y-72942734D01*
X169751546Y-72899546D01*
X169837796Y-72784331D01*
X169888091Y-72649483D01*
X169894500Y-72589873D01*
X169894499Y-71494128D01*
X169888091Y-71434517D01*
X169837884Y-71299906D01*
X169837797Y-71299671D01*
X169837793Y-71299664D01*
X169751547Y-71184455D01*
X169751544Y-71184452D01*
X169649579Y-71108120D01*
X169649561Y-71108108D01*
X169636331Y-71098204D01*
X169636329Y-71098203D01*
X169636328Y-71098202D01*
X169501482Y-71047908D01*
X169501483Y-71047908D01*
X169441883Y-71041501D01*
X169441881Y-71041500D01*
X169441873Y-71041500D01*
X169441864Y-71041500D01*
X166346129Y-71041500D01*
X166346123Y-71041501D01*
X166286516Y-71047908D01*
X166151671Y-71098202D01*
X166151664Y-71098206D01*
X166036455Y-71184452D01*
X166036452Y-71184455D01*
X165950206Y-71299664D01*
X165950202Y-71299671D01*
X165899908Y-71434517D01*
X165893501Y-71494116D01*
X165893501Y-71494123D01*
X165893500Y-71494135D01*
X165893500Y-72589870D01*
X165893501Y-72589876D01*
X165899908Y-72649483D01*
X165950202Y-72784328D01*
X165950206Y-72784335D01*
X166036452Y-72899544D01*
X166036453Y-72899544D01*
X166036454Y-72899546D01*
X166065615Y-72921376D01*
X166094145Y-72942734D01*
X166136015Y-72998668D01*
X166140999Y-73068360D01*
X166107513Y-73129683D01*
X166094145Y-73141266D01*
X166036452Y-73184455D01*
X165950206Y-73299664D01*
X165950202Y-73299671D01*
X165899908Y-73434517D01*
X165893501Y-73494116D01*
X165893500Y-73494127D01*
X165893500Y-74589870D01*
X165893501Y-74589876D01*
X165899908Y-74649483D01*
X165950202Y-74784328D01*
X165950206Y-74784335D01*
X166036452Y-74899544D01*
X166036453Y-74899544D01*
X166036454Y-74899546D01*
X166065615Y-74921376D01*
X166094145Y-74942734D01*
X166136015Y-74998668D01*
X166140999Y-75068360D01*
X166107513Y-75129683D01*
X166094145Y-75141266D01*
X166036452Y-75184455D01*
X165950206Y-75299664D01*
X165950202Y-75299671D01*
X165927391Y-75360833D01*
X165885520Y-75416767D01*
X165820056Y-75441184D01*
X165811209Y-75441500D01*
X163828942Y-75441500D01*
X163676214Y-75482423D01*
X163655944Y-75494127D01*
X163655941Y-75494128D01*
X163539290Y-75561475D01*
X163539282Y-75561481D01*
X155120180Y-83980584D01*
X155058857Y-84014069D01*
X154989165Y-84009085D01*
X154933232Y-83967213D01*
X154908815Y-83901749D01*
X154908499Y-83892903D01*
X154908499Y-83494129D01*
X154908498Y-83494123D01*
X154908497Y-83494116D01*
X154902091Y-83434517D01*
X154851884Y-83299906D01*
X154851797Y-83299671D01*
X154851793Y-83299664D01*
X154765814Y-83184812D01*
X154765546Y-83184454D01*
X154707854Y-83141265D01*
X154665984Y-83085333D01*
X154661000Y-83015641D01*
X154694485Y-82954318D01*
X154707850Y-82942736D01*
X154765546Y-82899546D01*
X154851796Y-82784331D01*
X154902091Y-82649483D01*
X154908500Y-82589873D01*
X154908499Y-81494128D01*
X154902091Y-81434517D01*
X154851796Y-81299669D01*
X154851795Y-81299668D01*
X154851793Y-81299664D01*
X154765547Y-81184456D01*
X154765548Y-81184456D01*
X154765546Y-81184454D01*
X154707854Y-81141265D01*
X154665984Y-81085333D01*
X154661000Y-81015641D01*
X154694485Y-80954318D01*
X154707854Y-80942734D01*
X154765546Y-80899546D01*
X154851796Y-80784331D01*
X154902091Y-80649483D01*
X154908500Y-80589873D01*
X154908499Y-79764500D01*
X154928183Y-79697462D01*
X154980987Y-79651707D01*
X155032499Y-79640501D01*
X155179054Y-79640501D01*
X155179057Y-79640501D01*
X155331785Y-79599577D01*
X155381904Y-79570639D01*
X155468716Y-79520520D01*
X155580520Y-79408716D01*
X155580520Y-79408714D01*
X155590728Y-79398507D01*
X155590730Y-79398504D01*
X156268713Y-78720521D01*
X156268716Y-78720520D01*
X156380520Y-78608716D01*
X156430639Y-78521904D01*
X156459577Y-78471785D01*
X156500501Y-78319057D01*
X156500501Y-78160943D01*
X156500501Y-78153348D01*
X156500500Y-78153330D01*
X156500500Y-76760945D01*
X156500500Y-76760943D01*
X156459577Y-76608216D01*
X156448993Y-76589883D01*
X156380524Y-76471290D01*
X156380521Y-76471286D01*
X156380520Y-76471284D01*
X156268716Y-76359480D01*
X156268715Y-76359479D01*
X156264385Y-76355149D01*
X156264374Y-76355139D01*
X155589590Y-75680355D01*
X155589588Y-75680352D01*
X155470717Y-75561481D01*
X155470709Y-75561475D01*
X155354059Y-75494128D01*
X155354056Y-75494127D01*
X155333785Y-75482423D01*
X155181057Y-75441499D01*
X155022943Y-75441499D01*
X155015347Y-75441499D01*
X155015331Y-75441500D01*
X154990791Y-75441500D01*
X154923752Y-75421815D01*
X154877997Y-75369011D01*
X154874609Y-75360833D01*
X154851797Y-75299671D01*
X154851793Y-75299664D01*
X154765547Y-75184456D01*
X154765548Y-75184456D01*
X154765546Y-75184454D01*
X154707854Y-75141265D01*
X154665984Y-75085333D01*
X154661000Y-75015641D01*
X154694485Y-74954318D01*
X154707854Y-74942734D01*
X154765546Y-74899546D01*
X154851796Y-74784331D01*
X154902091Y-74649483D01*
X154908500Y-74589873D01*
X154908499Y-73494128D01*
X154902091Y-73434517D01*
X154851796Y-73299669D01*
X154851795Y-73299668D01*
X154851793Y-73299664D01*
X154765547Y-73184455D01*
X154765544Y-73184453D01*
X154707856Y-73141267D01*
X154707437Y-73140953D01*
X154665567Y-73085019D01*
X154660583Y-73015327D01*
X154694069Y-72954004D01*
X154707439Y-72942420D01*
X154765189Y-72899188D01*
X154765190Y-72899187D01*
X154851350Y-72784093D01*
X154851354Y-72784086D01*
X154901596Y-72649379D01*
X154901598Y-72649372D01*
X154907999Y-72589844D01*
X154908000Y-72589827D01*
X154908000Y-72292000D01*
X150908000Y-72292000D01*
X150908000Y-72589844D01*
X150914401Y-72649372D01*
X150914403Y-72649379D01*
X150964645Y-72784086D01*
X150964649Y-72784093D01*
X151050809Y-72899186D01*
X151108561Y-72942420D01*
X151150432Y-72998354D01*
X151155416Y-73068046D01*
X151121931Y-73129369D01*
X151108563Y-73140952D01*
X151050454Y-73184453D01*
X151050452Y-73184455D01*
X150964206Y-73299664D01*
X150964202Y-73299671D01*
X150941391Y-73360833D01*
X150899520Y-73416767D01*
X150834056Y-73441184D01*
X150825209Y-73441500D01*
X149784669Y-73441500D01*
X149784653Y-73441499D01*
X149777057Y-73441499D01*
X149618943Y-73441499D01*
X149504397Y-73472192D01*
X149466214Y-73482423D01*
X149445944Y-73494127D01*
X149445941Y-73494128D01*
X149329290Y-73561475D01*
X149329282Y-73561481D01*
X149217478Y-73673286D01*
X132798784Y-90091981D01*
X132737461Y-90125466D01*
X132711103Y-90128300D01*
X130998299Y-90128300D01*
X130931260Y-90108615D01*
X130885505Y-90055811D01*
X130875561Y-89986653D01*
X130897981Y-89931415D01*
X130948598Y-89861745D01*
X130966415Y-89837222D01*
X131066495Y-89640806D01*
X131134615Y-89431151D01*
X131169100Y-89213422D01*
X131169100Y-88992978D01*
X131134615Y-88775249D01*
X131066495Y-88565594D01*
X131066495Y-88565593D01*
X130984023Y-88403736D01*
X130966415Y-88369178D01*
X130919923Y-88305187D01*
X130836847Y-88190841D01*
X130836843Y-88190836D01*
X130680963Y-88034956D01*
X130680958Y-88034952D01*
X130502625Y-87905387D01*
X130502624Y-87905386D01*
X130502622Y-87905385D01*
X130385391Y-87845652D01*
X130306206Y-87805304D01*
X130306203Y-87805303D01*
X130096552Y-87737185D01*
X129987686Y-87719942D01*
X129878822Y-87702700D01*
X129658378Y-87702700D01*
X129585801Y-87714195D01*
X129440647Y-87737185D01*
X129230996Y-87805303D01*
X129230993Y-87805304D01*
X129034574Y-87905387D01*
X128856241Y-88034952D01*
X128856236Y-88034956D01*
X128700356Y-88190836D01*
X128700352Y-88190841D01*
X128598918Y-88330454D01*
X128543588Y-88373120D01*
X128473975Y-88379099D01*
X128412180Y-88346493D01*
X128398282Y-88330454D01*
X128296847Y-88190841D01*
X128296843Y-88190836D01*
X128140963Y-88034956D01*
X128140958Y-88034952D01*
X127962625Y-87905387D01*
X127962624Y-87905386D01*
X127962622Y-87905385D01*
X127845391Y-87845652D01*
X127766206Y-87805304D01*
X127766203Y-87805303D01*
X127556552Y-87737185D01*
X127447686Y-87719942D01*
X127338822Y-87702700D01*
X127118378Y-87702700D01*
X127045801Y-87714195D01*
X126900647Y-87737185D01*
X126690996Y-87805303D01*
X126690993Y-87805304D01*
X126494574Y-87905387D01*
X126316241Y-88034952D01*
X126316236Y-88034956D01*
X126160356Y-88190836D01*
X126160352Y-88190841D01*
X126058918Y-88330454D01*
X126003588Y-88373120D01*
X125933975Y-88379099D01*
X125872180Y-88346493D01*
X125858282Y-88330454D01*
X125756847Y-88190841D01*
X125756843Y-88190836D01*
X125600963Y-88034956D01*
X125600958Y-88034952D01*
X125422625Y-87905387D01*
X125422624Y-87905386D01*
X125422622Y-87905385D01*
X125305391Y-87845652D01*
X125226206Y-87805304D01*
X125226203Y-87805303D01*
X125016552Y-87737185D01*
X124907686Y-87719942D01*
X124798822Y-87702700D01*
X124578378Y-87702700D01*
X124505801Y-87714195D01*
X124360647Y-87737185D01*
X124150996Y-87805303D01*
X124150993Y-87805304D01*
X123954574Y-87905387D01*
X123776241Y-88034952D01*
X123776236Y-88034956D01*
X123620356Y-88190836D01*
X123518608Y-88330881D01*
X123463278Y-88373546D01*
X123393665Y-88379525D01*
X123331870Y-88346919D01*
X123317971Y-88330880D01*
X123299666Y-88305685D01*
X123299665Y-88305685D01*
X122631562Y-88973789D01*
X122614525Y-88910207D01*
X122548699Y-88796193D01*
X122455607Y-88703101D01*
X122341593Y-88637275D01*
X122278007Y-88620237D01*
X122946113Y-87952132D01*
X122882356Y-87905811D01*
X122686010Y-87805767D01*
X122476435Y-87737673D01*
X122258781Y-87703200D01*
X122038419Y-87703200D01*
X121820764Y-87737673D01*
X121611189Y-87805767D01*
X121414833Y-87905816D01*
X121351085Y-87952131D01*
X121351085Y-87952132D01*
X122019190Y-88620237D01*
X121955607Y-88637275D01*
X121841593Y-88703101D01*
X121748501Y-88796193D01*
X121682675Y-88910207D01*
X121665637Y-88973790D01*
X121045418Y-88353571D01*
X121011933Y-88292248D01*
X121009099Y-88265890D01*
X121009099Y-88155329D01*
X121009098Y-88155323D01*
X121002691Y-88095716D01*
X120982926Y-88042724D01*
X120952397Y-87960871D01*
X120952393Y-87960864D01*
X120866147Y-87845655D01*
X120866144Y-87845652D01*
X120750935Y-87759406D01*
X120750928Y-87759402D01*
X120616082Y-87709108D01*
X120616083Y-87709108D01*
X120556483Y-87702701D01*
X120556481Y-87702700D01*
X120556473Y-87702700D01*
X120556464Y-87702700D01*
X118660729Y-87702700D01*
X118660723Y-87702701D01*
X118601116Y-87709108D01*
X118466271Y-87759402D01*
X118466264Y-87759406D01*
X118351055Y-87845652D01*
X118351052Y-87845655D01*
X118264806Y-87960864D01*
X118264802Y-87960871D01*
X118214508Y-88095717D01*
X118212726Y-88103262D01*
X118210453Y-88102725D01*
X118188171Y-88156512D01*
X118130777Y-88196357D01*
X118091624Y-88202700D01*
X115938503Y-88202700D01*
X115764539Y-88237303D01*
X115764523Y-88237308D01*
X115648653Y-88285302D01*
X115648654Y-88285303D01*
X115600654Y-88305186D01*
X115453165Y-88403735D01*
X115453161Y-88403738D01*
X110882719Y-92974181D01*
X110821396Y-93007666D01*
X110795038Y-93010500D01*
X110720113Y-93010500D01*
X110674724Y-93017689D01*
X110510160Y-93043753D01*
X110307985Y-93109444D01*
X110118579Y-93205951D01*
X109946613Y-93330890D01*
X109796290Y-93481213D01*
X109671351Y-93653179D01*
X109574844Y-93842585D01*
X109509153Y-94044760D01*
X109475900Y-94254713D01*
X109475900Y-94329637D01*
X109456215Y-94396676D01*
X109439581Y-94417318D01*
X108291940Y-95564958D01*
X108291934Y-95564965D01*
X108260136Y-95612556D01*
X108260136Y-95612557D01*
X108193385Y-95712455D01*
X108159446Y-95794393D01*
X108125506Y-95876329D01*
X108125503Y-95876341D01*
X108090900Y-96050303D01*
X108090900Y-124320096D01*
X108125503Y-124494058D01*
X108125505Y-124494066D01*
X108150407Y-124554184D01*
X108193387Y-124657947D01*
X108236631Y-124722666D01*
X108240560Y-124728546D01*
X108240563Y-124728552D01*
X108291932Y-124805431D01*
X108291938Y-124805439D01*
X118805959Y-135319460D01*
X118805962Y-135319462D01*
X118805964Y-135319464D01*
X118855282Y-135352417D01*
X118953453Y-135418013D01*
X119035393Y-135451953D01*
X119041738Y-135454581D01*
X119041743Y-135454584D01*
X119082131Y-135471313D01*
X119117334Y-135485895D01*
X119208356Y-135504000D01*
X119291303Y-135520499D01*
X119291307Y-135520500D01*
X119291308Y-135520500D01*
X119291309Y-135520500D01*
X119895023Y-135520500D01*
X119962062Y-135540185D01*
X120007817Y-135592989D01*
X120015266Y-135620134D01*
X120016124Y-135619932D01*
X120017907Y-135627479D01*
X120068202Y-135762328D01*
X120068206Y-135762335D01*
X120154452Y-135877544D01*
X120154455Y-135877547D01*
X120269664Y-135963793D01*
X120269671Y-135963797D01*
X120404517Y-136014091D01*
X120404516Y-136014091D01*
X120411444Y-136014835D01*
X120464127Y-136020500D01*
X122359872Y-136020499D01*
X122419483Y-136014091D01*
X122554331Y-135963796D01*
X122669546Y-135877546D01*
X122755796Y-135762331D01*
X122763629Y-135741328D01*
X122786327Y-135680474D01*
X122797654Y-135650104D01*
X122806091Y-135627483D01*
X122812500Y-135567873D01*
X122812499Y-135457304D01*
X122832183Y-135390268D01*
X122848818Y-135369626D01*
X123469037Y-134749408D01*
X123486075Y-134812993D01*
X123551901Y-134927007D01*
X123644993Y-135020099D01*
X123759007Y-135085925D01*
X123822590Y-135102962D01*
X123154485Y-135771065D01*
X123154485Y-135771066D01*
X123218243Y-135817388D01*
X123414589Y-135917432D01*
X123624164Y-135985526D01*
X123841819Y-136020000D01*
X124062181Y-136020000D01*
X124279835Y-135985526D01*
X124489410Y-135917432D01*
X124685760Y-135817386D01*
X124749513Y-135771066D01*
X124749514Y-135771066D01*
X124081409Y-135102962D01*
X124144993Y-135085925D01*
X124259007Y-135020099D01*
X124352099Y-134927007D01*
X124417925Y-134812993D01*
X124434962Y-134749410D01*
X125103066Y-135417514D01*
X125103066Y-135417513D01*
X125121372Y-135392319D01*
X125176701Y-135349653D01*
X125246315Y-135343674D01*
X125308110Y-135376279D01*
X125322008Y-135392319D01*
X125423752Y-135532358D01*
X125423756Y-135532363D01*
X125579636Y-135688243D01*
X125579641Y-135688247D01*
X125681606Y-135762328D01*
X125757978Y-135817815D01*
X125886375Y-135883237D01*
X125954393Y-135917895D01*
X125954396Y-135917896D01*
X126013951Y-135937246D01*
X126164049Y-135986015D01*
X126381778Y-136020500D01*
X126381779Y-136020500D01*
X126602221Y-136020500D01*
X126602222Y-136020500D01*
X126819951Y-135986015D01*
X127029606Y-135917895D01*
X127226022Y-135817815D01*
X127404365Y-135688242D01*
X127560242Y-135532365D01*
X127590516Y-135490696D01*
X127661682Y-135392745D01*
X127717011Y-135350079D01*
X127786625Y-135344100D01*
X127848420Y-135376705D01*
X127862318Y-135392745D01*
X127963752Y-135532358D01*
X127963756Y-135532363D01*
X128119636Y-135688243D01*
X128119641Y-135688247D01*
X128221606Y-135762328D01*
X128297978Y-135817815D01*
X128426375Y-135883237D01*
X128494393Y-135917895D01*
X128494396Y-135917896D01*
X128553951Y-135937246D01*
X128704049Y-135986015D01*
X128921778Y-136020500D01*
X128921779Y-136020500D01*
X129142221Y-136020500D01*
X129142222Y-136020500D01*
X129359951Y-135986015D01*
X129569606Y-135917895D01*
X129766022Y-135817815D01*
X129944365Y-135688242D01*
X130100242Y-135532365D01*
X130100250Y-135532352D01*
X130103213Y-135528886D01*
X130161722Y-135490696D01*
X130231590Y-135490200D01*
X130290634Y-135527556D01*
X130320110Y-135590905D01*
X130321500Y-135609422D01*
X130321500Y-135991214D01*
X130352290Y-136185618D01*
X130413117Y-136372822D01*
X130483618Y-136511187D01*
X130502476Y-136548197D01*
X130618172Y-136707438D01*
X130618174Y-136707440D01*
X132898553Y-138987819D01*
X132932038Y-139049142D01*
X132927054Y-139118834D01*
X132885182Y-139174767D01*
X132819718Y-139199184D01*
X132810872Y-139199500D01*
X107304500Y-139199500D01*
X107237461Y-139179815D01*
X107191706Y-139127011D01*
X107180500Y-139075500D01*
X107180500Y-134513713D01*
X110409500Y-134513713D01*
X110409500Y-134726286D01*
X110440552Y-134922344D01*
X110442754Y-134936243D01*
X110483292Y-135061007D01*
X110508444Y-135138414D01*
X110604951Y-135327820D01*
X110729890Y-135499786D01*
X110880213Y-135650109D01*
X111052179Y-135775048D01*
X111052181Y-135775049D01*
X111052184Y-135775051D01*
X111241588Y-135871557D01*
X111443757Y-135937246D01*
X111653713Y-135970500D01*
X111653714Y-135970500D01*
X111866286Y-135970500D01*
X111866287Y-135970500D01*
X112076243Y-135937246D01*
X112278412Y-135871557D01*
X112467816Y-135775051D01*
X112585535Y-135689524D01*
X112639786Y-135650109D01*
X112639788Y-135650106D01*
X112639792Y-135650104D01*
X112790104Y-135499792D01*
X112790106Y-135499788D01*
X112790109Y-135499786D01*
X112915048Y-135327820D01*
X112915047Y-135327820D01*
X112915051Y-135327816D01*
X113011557Y-135138412D01*
X113077246Y-134936243D01*
X113110500Y-134726287D01*
X113110500Y-134513713D01*
X113077246Y-134303757D01*
X113011557Y-134101588D01*
X112915051Y-133912184D01*
X112915049Y-133912181D01*
X112915048Y-133912179D01*
X112790109Y-133740213D01*
X112639786Y-133589890D01*
X112467820Y-133464951D01*
X112278414Y-133368444D01*
X112278413Y-133368443D01*
X112278412Y-133368443D01*
X112076243Y-133302754D01*
X112076241Y-133302753D01*
X112076240Y-133302753D01*
X111908601Y-133276202D01*
X111866287Y-133269500D01*
X111653713Y-133269500D01*
X111611399Y-133276202D01*
X111443760Y-133302753D01*
X111241585Y-133368444D01*
X111052179Y-133464951D01*
X110880213Y-133589890D01*
X110729890Y-133740213D01*
X110604951Y-133912179D01*
X110508444Y-134101585D01*
X110442753Y-134303760D01*
X110409500Y-134513713D01*
X107180500Y-134513713D01*
X107180500Y-71013713D01*
X110409500Y-71013713D01*
X110409500Y-71226286D01*
X110442753Y-71436239D01*
X110442753Y-71436241D01*
X110442754Y-71436243D01*
X110461576Y-71494172D01*
X110508444Y-71638414D01*
X110604951Y-71827820D01*
X110729890Y-71999786D01*
X110880213Y-72150109D01*
X111052179Y-72275048D01*
X111052181Y-72275049D01*
X111052184Y-72275051D01*
X111241588Y-72371557D01*
X111443757Y-72437246D01*
X111653713Y-72470500D01*
X111653714Y-72470500D01*
X111866286Y-72470500D01*
X111866287Y-72470500D01*
X112076243Y-72437246D01*
X112278412Y-72371557D01*
X112467816Y-72275051D01*
X112489789Y-72259086D01*
X112639786Y-72150109D01*
X112639788Y-72150106D01*
X112639792Y-72150104D01*
X112790104Y-71999792D01*
X112790106Y-71999788D01*
X112790109Y-71999786D01*
X112915048Y-71827820D01*
X112915047Y-71827820D01*
X112915051Y-71827816D01*
X113011557Y-71638412D01*
X113058429Y-71494155D01*
X150908000Y-71494155D01*
X150908000Y-71792000D01*
X152658000Y-71792000D01*
X153158000Y-71792000D01*
X154908000Y-71792000D01*
X154908000Y-71494172D01*
X154907999Y-71494155D01*
X154901598Y-71434627D01*
X154901596Y-71434620D01*
X154851354Y-71299913D01*
X154851350Y-71299906D01*
X154765190Y-71184812D01*
X154765187Y-71184809D01*
X154650093Y-71098649D01*
X154650086Y-71098645D01*
X154515379Y-71048403D01*
X154515372Y-71048401D01*
X154455844Y-71042000D01*
X153158000Y-71042000D01*
X153158000Y-71792000D01*
X152658000Y-71792000D01*
X152658000Y-71042000D01*
X151360155Y-71042000D01*
X151300627Y-71048401D01*
X151300620Y-71048403D01*
X151165913Y-71098645D01*
X151165906Y-71098649D01*
X151050812Y-71184809D01*
X151050809Y-71184812D01*
X150964649Y-71299906D01*
X150964645Y-71299913D01*
X150914403Y-71434620D01*
X150914401Y-71434627D01*
X150908000Y-71494155D01*
X113058429Y-71494155D01*
X113077246Y-71436243D01*
X113110500Y-71226287D01*
X113110500Y-71013713D01*
X173909500Y-71013713D01*
X173909500Y-71226286D01*
X173942753Y-71436239D01*
X173942753Y-71436241D01*
X173942754Y-71436243D01*
X173961576Y-71494172D01*
X174008444Y-71638414D01*
X174104951Y-71827820D01*
X174229890Y-71999786D01*
X174380213Y-72150109D01*
X174552179Y-72275048D01*
X174552181Y-72275049D01*
X174552184Y-72275051D01*
X174741588Y-72371557D01*
X174943757Y-72437246D01*
X175153713Y-72470500D01*
X175153714Y-72470500D01*
X175366286Y-72470500D01*
X175366287Y-72470500D01*
X175576243Y-72437246D01*
X175778412Y-72371557D01*
X175967816Y-72275051D01*
X175989789Y-72259086D01*
X176139786Y-72150109D01*
X176139788Y-72150106D01*
X176139792Y-72150104D01*
X176290104Y-71999792D01*
X176290106Y-71999788D01*
X176290109Y-71999786D01*
X176415048Y-71827820D01*
X176415047Y-71827820D01*
X176415051Y-71827816D01*
X176511557Y-71638412D01*
X176577246Y-71436243D01*
X176610500Y-71226287D01*
X176610500Y-71013713D01*
X176577246Y-70803757D01*
X176511557Y-70601588D01*
X176415051Y-70412184D01*
X176415049Y-70412181D01*
X176415048Y-70412179D01*
X176290109Y-70240213D01*
X176139786Y-70089890D01*
X175967820Y-69964951D01*
X175778414Y-69868444D01*
X175778413Y-69868443D01*
X175778412Y-69868443D01*
X175576243Y-69802754D01*
X175576241Y-69802753D01*
X175576240Y-69802753D01*
X175414957Y-69777208D01*
X175366287Y-69769500D01*
X175153713Y-69769500D01*
X175105042Y-69777208D01*
X174943760Y-69802753D01*
X174741585Y-69868444D01*
X174552179Y-69964951D01*
X174380213Y-70089890D01*
X174229890Y-70240213D01*
X174104951Y-70412179D01*
X174008444Y-70601585D01*
X173942753Y-70803760D01*
X173909500Y-71013713D01*
X113110500Y-71013713D01*
X113077246Y-70803757D01*
X113011557Y-70601588D01*
X112915051Y-70412184D01*
X112915049Y-70412181D01*
X112915048Y-70412179D01*
X112790109Y-70240213D01*
X112639786Y-70089890D01*
X112467820Y-69964951D01*
X112278414Y-69868444D01*
X112278413Y-69868443D01*
X112278412Y-69868443D01*
X112076243Y-69802754D01*
X112076241Y-69802753D01*
X112076240Y-69802753D01*
X111914957Y-69777208D01*
X111866287Y-69769500D01*
X111653713Y-69769500D01*
X111605042Y-69777208D01*
X111443760Y-69802753D01*
X111241585Y-69868444D01*
X111052179Y-69964951D01*
X110880213Y-70089890D01*
X110729890Y-70240213D01*
X110604951Y-70412179D01*
X110508444Y-70601585D01*
X110442753Y-70803760D01*
X110409500Y-71013713D01*
X107180500Y-71013713D01*
X107180500Y-66664500D01*
X107200185Y-66597461D01*
X107252989Y-66551706D01*
X107304500Y-66540500D01*
X179715500Y-66540500D01*
X179782539Y-66560185D01*
G37*
%TD.AperFunction*%
%TA.AperFunction,Conductor*%
G36*
X148365381Y-93987428D02*
G01*
X148398866Y-94048751D01*
X148401700Y-94075108D01*
X148401700Y-94185669D01*
X148401701Y-94185676D01*
X148408108Y-94245283D01*
X148458402Y-94380128D01*
X148458406Y-94380135D01*
X148544652Y-94495344D01*
X148544655Y-94495347D01*
X148659864Y-94581593D01*
X148659871Y-94581597D01*
X148704818Y-94598361D01*
X148794717Y-94631891D01*
X148848758Y-94637701D01*
X148913306Y-94664439D01*
X148953154Y-94721831D01*
X148959500Y-94760990D01*
X148959500Y-117994530D01*
X148939815Y-118061569D01*
X148923182Y-118082211D01*
X148791754Y-118213639D01*
X148690008Y-118353681D01*
X148634678Y-118396346D01*
X148565065Y-118402325D01*
X148503270Y-118369719D01*
X148489371Y-118353680D01*
X148471066Y-118328485D01*
X148471065Y-118328485D01*
X147802962Y-118996589D01*
X147785925Y-118933007D01*
X147720099Y-118818993D01*
X147627007Y-118725901D01*
X147512993Y-118660075D01*
X147449407Y-118643037D01*
X148117513Y-117974932D01*
X148053756Y-117928611D01*
X147857410Y-117828567D01*
X147647835Y-117760473D01*
X147430181Y-117726000D01*
X147209819Y-117726000D01*
X146992164Y-117760473D01*
X146782589Y-117828567D01*
X146586233Y-117928616D01*
X146522485Y-117974931D01*
X146522485Y-117974932D01*
X147190590Y-118643037D01*
X147127007Y-118660075D01*
X147012993Y-118725901D01*
X146919901Y-118818993D01*
X146854075Y-118933007D01*
X146837037Y-118996590D01*
X146168932Y-118328485D01*
X146168930Y-118328485D01*
X146150626Y-118353679D01*
X146095296Y-118396345D01*
X146025683Y-118402324D01*
X145963888Y-118369718D01*
X145949990Y-118353679D01*
X145848247Y-118213640D01*
X145692363Y-118057756D01*
X145692358Y-118057752D01*
X145514025Y-117928187D01*
X145514024Y-117928186D01*
X145514022Y-117928185D01*
X145396791Y-117868452D01*
X145317606Y-117828104D01*
X145317603Y-117828103D01*
X145107952Y-117759985D01*
X144999086Y-117742742D01*
X144890222Y-117725500D01*
X144669778Y-117725500D01*
X144597201Y-117736995D01*
X144452047Y-117759985D01*
X144242396Y-117828103D01*
X144242393Y-117828104D01*
X144045974Y-117928187D01*
X143867641Y-118057752D01*
X143867636Y-118057756D01*
X143817463Y-118107929D01*
X143756140Y-118141413D01*
X143686448Y-118136428D01*
X143630515Y-118094557D01*
X143613601Y-118063580D01*
X143583797Y-117983671D01*
X143583793Y-117983664D01*
X143497547Y-117868455D01*
X143497544Y-117868452D01*
X143382335Y-117782206D01*
X143382328Y-117782202D01*
X143247482Y-117731908D01*
X143247483Y-117731908D01*
X143187883Y-117725501D01*
X143187881Y-117725500D01*
X143187873Y-117725500D01*
X143187864Y-117725500D01*
X141292129Y-117725500D01*
X141292123Y-117725501D01*
X141232516Y-117731908D01*
X141097671Y-117782202D01*
X141097664Y-117782206D01*
X140982455Y-117868452D01*
X140982452Y-117868455D01*
X140896206Y-117983664D01*
X140896202Y-117983671D01*
X140845908Y-118118517D01*
X140839501Y-118178116D01*
X140839500Y-118178135D01*
X140839500Y-120073870D01*
X140839501Y-120073876D01*
X140845908Y-120133483D01*
X140896202Y-120268328D01*
X140896206Y-120268335D01*
X140982452Y-120383544D01*
X140982455Y-120383547D01*
X141097664Y-120469793D01*
X141097671Y-120469797D01*
X141232517Y-120520091D01*
X141232516Y-120520091D01*
X141239444Y-120520835D01*
X141292127Y-120526500D01*
X143187872Y-120526499D01*
X143247483Y-120520091D01*
X143382331Y-120469796D01*
X143497546Y-120383546D01*
X143583796Y-120268331D01*
X143611429Y-120194243D01*
X143613601Y-120188420D01*
X143655471Y-120132486D01*
X143720936Y-120108068D01*
X143789209Y-120122919D01*
X143817464Y-120144071D01*
X143867636Y-120194243D01*
X143867641Y-120194247D01*
X143879499Y-120202862D01*
X144045978Y-120323815D01*
X144174375Y-120389237D01*
X144242393Y-120423895D01*
X144242396Y-120423896D01*
X144347221Y-120457955D01*
X144452049Y-120492015D01*
X144669778Y-120526500D01*
X144669779Y-120526500D01*
X144890221Y-120526500D01*
X144890222Y-120526500D01*
X145107951Y-120492015D01*
X145317606Y-120423895D01*
X145514022Y-120323815D01*
X145692365Y-120194242D01*
X145848242Y-120038365D01*
X145949991Y-119898317D01*
X146005320Y-119855653D01*
X146074933Y-119849674D01*
X146136729Y-119882279D01*
X146150628Y-119898319D01*
X146168932Y-119923513D01*
X146837037Y-119255408D01*
X146854075Y-119318993D01*
X146919901Y-119433007D01*
X147012993Y-119526099D01*
X147127007Y-119591925D01*
X147190590Y-119608962D01*
X146522485Y-120277065D01*
X146522485Y-120277066D01*
X146586243Y-120323388D01*
X146782589Y-120423432D01*
X146992164Y-120491526D01*
X147209819Y-120526000D01*
X147430181Y-120526000D01*
X147647835Y-120491526D01*
X147857410Y-120423432D01*
X148053760Y-120323386D01*
X148117513Y-120277066D01*
X148117514Y-120277066D01*
X147449409Y-119608962D01*
X147512993Y-119591925D01*
X147627007Y-119526099D01*
X147720099Y-119433007D01*
X147785925Y-119318993D01*
X147802962Y-119255410D01*
X148471066Y-119923514D01*
X148471066Y-119923513D01*
X148489372Y-119898319D01*
X148544701Y-119855653D01*
X148614315Y-119849674D01*
X148676110Y-119882279D01*
X148690008Y-119898319D01*
X148791752Y-120038358D01*
X148791756Y-120038363D01*
X148923181Y-120169788D01*
X148956666Y-120231111D01*
X148959500Y-120257469D01*
X148959500Y-120606638D01*
X148939815Y-120673677D01*
X148923181Y-120694319D01*
X148659719Y-120957781D01*
X148598396Y-120991266D01*
X148572038Y-120994100D01*
X129248104Y-120994100D01*
X129074139Y-121028703D01*
X129074123Y-121028708D01*
X128958253Y-121076702D01*
X128958254Y-121076703D01*
X128910254Y-121096586D01*
X128762765Y-121195135D01*
X128762761Y-121195138D01*
X120712538Y-129245360D01*
X120712537Y-129245361D01*
X120673064Y-129304439D01*
X120673063Y-129304440D01*
X120613985Y-129392855D01*
X120580046Y-129474793D01*
X120546106Y-129556729D01*
X120546103Y-129556741D01*
X120511500Y-129730703D01*
X120511500Y-133103023D01*
X120491815Y-133170062D01*
X120439011Y-133215817D01*
X120411865Y-133223266D01*
X120412068Y-133224124D01*
X120404520Y-133225907D01*
X120269671Y-133276202D01*
X120269664Y-133276206D01*
X120154455Y-133362452D01*
X120154452Y-133362455D01*
X120068206Y-133477664D01*
X120068202Y-133477671D01*
X120017908Y-133612517D01*
X120017761Y-133613141D01*
X120017762Y-133613147D01*
X120017757Y-133613156D01*
X120016126Y-133620062D01*
X120014752Y-133619737D01*
X120004130Y-133642996D01*
X119991571Y-133673312D01*
X119989688Y-133674618D01*
X119988737Y-133676703D01*
X119961138Y-133694439D01*
X119934177Y-133713157D01*
X119931283Y-133713625D01*
X119929959Y-133714477D01*
X119895024Y-133719500D01*
X119804362Y-133719500D01*
X119737323Y-133699815D01*
X119716681Y-133683181D01*
X111635447Y-125601947D01*
X113054000Y-125601947D01*
X113054000Y-125838052D01*
X113090934Y-126071247D01*
X113163897Y-126295802D01*
X113271087Y-126506174D01*
X113331338Y-126589104D01*
X113331340Y-126589105D01*
X114071037Y-125849408D01*
X114088075Y-125912993D01*
X114153901Y-126027007D01*
X114246993Y-126120099D01*
X114361007Y-126185925D01*
X114424590Y-126202962D01*
X113684893Y-126942658D01*
X113767828Y-127002914D01*
X113978197Y-127110102D01*
X114202752Y-127183065D01*
X114202751Y-127183065D01*
X114435948Y-127220000D01*
X114672052Y-127220000D01*
X114905247Y-127183065D01*
X115129802Y-127110102D01*
X115340163Y-127002918D01*
X115340169Y-127002914D01*
X115423104Y-126942658D01*
X115423105Y-126942658D01*
X114683408Y-126202962D01*
X114746993Y-126185925D01*
X114861007Y-126120099D01*
X114954099Y-126027007D01*
X115019925Y-125912993D01*
X115036962Y-125849409D01*
X115776658Y-126589105D01*
X115776658Y-126589104D01*
X115836914Y-126506169D01*
X115836918Y-126506163D01*
X115944102Y-126295802D01*
X116017065Y-126071247D01*
X116054000Y-125838052D01*
X116054000Y-125601947D01*
X116017065Y-125368752D01*
X115944102Y-125144197D01*
X115836914Y-124933828D01*
X115776658Y-124850894D01*
X115776658Y-124850893D01*
X115036962Y-125590590D01*
X115019925Y-125527007D01*
X114954099Y-125412993D01*
X114861007Y-125319901D01*
X114746993Y-125254075D01*
X114683409Y-125237037D01*
X115423105Y-124497340D01*
X115423104Y-124497338D01*
X115340174Y-124437087D01*
X115129802Y-124329897D01*
X114905247Y-124256934D01*
X114905248Y-124256934D01*
X114672052Y-124220000D01*
X114435948Y-124220000D01*
X114202752Y-124256934D01*
X113978197Y-124329897D01*
X113767830Y-124437084D01*
X113684894Y-124497340D01*
X114424591Y-125237037D01*
X114361007Y-125254075D01*
X114246993Y-125319901D01*
X114153901Y-125412993D01*
X114088075Y-125527007D01*
X114071037Y-125590591D01*
X113331340Y-124850894D01*
X113271084Y-124933830D01*
X113163897Y-125144197D01*
X113090934Y-125368752D01*
X113054000Y-125601947D01*
X111635447Y-125601947D01*
X109928219Y-123894719D01*
X109894734Y-123833396D01*
X109891900Y-123807038D01*
X109891900Y-111075499D01*
X109911585Y-111008460D01*
X109964389Y-110962705D01*
X110015895Y-110951499D01*
X111724272Y-110951499D01*
X111783883Y-110945091D01*
X111918731Y-110894796D01*
X112033946Y-110808546D01*
X112120196Y-110693331D01*
X112169210Y-110561916D01*
X112211081Y-110505984D01*
X112276545Y-110481566D01*
X112344818Y-110496417D01*
X112373073Y-110517569D01*
X112486613Y-110631109D01*
X112658579Y-110756048D01*
X112658581Y-110756049D01*
X112658584Y-110756051D01*
X112847988Y-110852557D01*
X113050157Y-110918246D01*
X113260113Y-110951500D01*
X113260114Y-110951500D01*
X113472686Y-110951500D01*
X113472687Y-110951500D01*
X113682643Y-110918246D01*
X113884812Y-110852557D01*
X114074216Y-110756051D01*
X114096189Y-110740086D01*
X114246186Y-110631109D01*
X114246188Y-110631106D01*
X114246192Y-110631104D01*
X114396504Y-110480792D01*
X114396506Y-110480788D01*
X114396509Y-110480786D01*
X114521448Y-110308820D01*
X114521447Y-110308820D01*
X114521451Y-110308816D01*
X114525914Y-110300054D01*
X114573888Y-110249259D01*
X114641708Y-110232463D01*
X114707844Y-110254999D01*
X114746886Y-110300056D01*
X114751351Y-110308820D01*
X114876290Y-110480786D01*
X115026613Y-110631109D01*
X115198579Y-110756048D01*
X115198581Y-110756049D01*
X115198584Y-110756051D01*
X115387988Y-110852557D01*
X115590157Y-110918246D01*
X115800113Y-110951500D01*
X115800114Y-110951500D01*
X116012686Y-110951500D01*
X116012687Y-110951500D01*
X116222643Y-110918246D01*
X116424812Y-110852557D01*
X116614216Y-110756051D01*
X116636189Y-110740086D01*
X116786186Y-110631109D01*
X116786188Y-110631106D01*
X116786192Y-110631104D01*
X116936504Y-110480792D01*
X116936506Y-110480788D01*
X116936509Y-110480786D01*
X117061448Y-110308820D01*
X117061447Y-110308820D01*
X117061451Y-110308816D01*
X117065914Y-110300054D01*
X117113888Y-110249259D01*
X117181708Y-110232463D01*
X117247844Y-110254999D01*
X117286886Y-110300056D01*
X117291351Y-110308820D01*
X117416289Y-110480784D01*
X117416293Y-110480788D01*
X117416296Y-110480792D01*
X117493987Y-110558483D01*
X117566608Y-110631104D01*
X117570025Y-110634022D01*
X117608222Y-110692526D01*
X117613500Y-110728318D01*
X117613500Y-114973769D01*
X117593815Y-115040808D01*
X117577181Y-115061450D01*
X115967295Y-116671335D01*
X115905972Y-116704820D01*
X115836280Y-116699836D01*
X115805301Y-116682919D01*
X115796332Y-116676204D01*
X115796328Y-116676202D01*
X115661482Y-116625908D01*
X115661483Y-116625908D01*
X115601883Y-116619501D01*
X115601881Y-116619500D01*
X115601873Y-116619500D01*
X115601864Y-116619500D01*
X113506129Y-116619500D01*
X113506123Y-116619501D01*
X113446516Y-116625908D01*
X113311671Y-116676202D01*
X113311664Y-116676206D01*
X113196455Y-116762452D01*
X113196452Y-116762455D01*
X113110206Y-116877664D01*
X113110202Y-116877671D01*
X113059908Y-117012517D01*
X113053501Y-117072116D01*
X113053500Y-117072135D01*
X113053500Y-119167870D01*
X113053501Y-119167876D01*
X113059908Y-119227483D01*
X113110202Y-119362328D01*
X113110206Y-119362335D01*
X113196452Y-119477544D01*
X113196455Y-119477547D01*
X113311664Y-119563793D01*
X113311671Y-119563797D01*
X113446517Y-119614091D01*
X113446516Y-119614091D01*
X113450321Y-119614500D01*
X113506127Y-119620500D01*
X115601872Y-119620499D01*
X115661483Y-119614091D01*
X115796331Y-119563796D01*
X115911546Y-119477546D01*
X115997796Y-119362331D01*
X116048091Y-119227483D01*
X116054500Y-119167873D01*
X116054499Y-118758228D01*
X116074183Y-118691190D01*
X116090813Y-118670553D01*
X118946952Y-115814416D01*
X118996186Y-115740729D01*
X119029084Y-115691495D01*
X119052518Y-115634920D01*
X119085659Y-115554912D01*
X119114500Y-115409917D01*
X119114500Y-115262082D01*
X119114500Y-110848087D01*
X119134185Y-110781048D01*
X119165611Y-110747771D01*
X119326192Y-110631104D01*
X119476504Y-110480792D01*
X119476506Y-110480788D01*
X119476509Y-110480786D01*
X119601448Y-110308820D01*
X119601447Y-110308820D01*
X119601451Y-110308816D01*
X119605914Y-110300054D01*
X119653888Y-110249259D01*
X119721708Y-110232463D01*
X119787844Y-110254999D01*
X119826886Y-110300056D01*
X119831351Y-110308820D01*
X119956290Y-110480786D01*
X120106613Y-110631109D01*
X120278579Y-110756048D01*
X120278581Y-110756049D01*
X120278584Y-110756051D01*
X120467988Y-110852557D01*
X120670157Y-110918246D01*
X120880113Y-110951500D01*
X120880114Y-110951500D01*
X121092686Y-110951500D01*
X121092687Y-110951500D01*
X121302643Y-110918246D01*
X121504812Y-110852557D01*
X121694216Y-110756051D01*
X121716189Y-110740086D01*
X121866186Y-110631109D01*
X121866188Y-110631106D01*
X121866192Y-110631104D01*
X122016504Y-110480792D01*
X122016506Y-110480788D01*
X122016509Y-110480786D01*
X122141448Y-110308820D01*
X122141447Y-110308820D01*
X122141451Y-110308816D01*
X122145914Y-110300054D01*
X122193888Y-110249259D01*
X122261708Y-110232463D01*
X122327844Y-110254999D01*
X122366886Y-110300056D01*
X122371351Y-110308820D01*
X122496290Y-110480786D01*
X122646613Y-110631109D01*
X122818579Y-110756048D01*
X122818581Y-110756049D01*
X122818584Y-110756051D01*
X123007988Y-110852557D01*
X123210157Y-110918246D01*
X123420113Y-110951500D01*
X123420114Y-110951500D01*
X123632686Y-110951500D01*
X123632687Y-110951500D01*
X123842643Y-110918246D01*
X124044812Y-110852557D01*
X124234216Y-110756051D01*
X124256189Y-110740086D01*
X124406186Y-110631109D01*
X124406188Y-110631106D01*
X124406192Y-110631104D01*
X124556504Y-110480792D01*
X124556506Y-110480788D01*
X124556509Y-110480786D01*
X124681448Y-110308820D01*
X124681447Y-110308820D01*
X124681451Y-110308816D01*
X124685914Y-110300054D01*
X124733888Y-110249259D01*
X124801708Y-110232463D01*
X124867844Y-110254999D01*
X124906886Y-110300056D01*
X124911351Y-110308820D01*
X125036290Y-110480786D01*
X125186613Y-110631109D01*
X125358579Y-110756048D01*
X125358581Y-110756049D01*
X125358584Y-110756051D01*
X125547988Y-110852557D01*
X125750157Y-110918246D01*
X125960113Y-110951500D01*
X125960114Y-110951500D01*
X126172686Y-110951500D01*
X126172687Y-110951500D01*
X126382643Y-110918246D01*
X126584812Y-110852557D01*
X126774216Y-110756051D01*
X126796189Y-110740086D01*
X126946186Y-110631109D01*
X126946188Y-110631106D01*
X126946192Y-110631104D01*
X127096504Y-110480792D01*
X127096506Y-110480788D01*
X127096509Y-110480786D01*
X127221448Y-110308820D01*
X127221447Y-110308820D01*
X127221451Y-110308816D01*
X127225914Y-110300054D01*
X127273888Y-110249259D01*
X127341708Y-110232463D01*
X127407844Y-110254999D01*
X127446886Y-110300056D01*
X127451351Y-110308820D01*
X127576290Y-110480786D01*
X127726613Y-110631109D01*
X127898579Y-110756048D01*
X127898581Y-110756049D01*
X127898584Y-110756051D01*
X128087988Y-110852557D01*
X128290157Y-110918246D01*
X128500113Y-110951500D01*
X128500114Y-110951500D01*
X128712686Y-110951500D01*
X128712687Y-110951500D01*
X128922643Y-110918246D01*
X129124812Y-110852557D01*
X129314216Y-110756051D01*
X129336189Y-110740086D01*
X129486186Y-110631109D01*
X129486188Y-110631106D01*
X129486192Y-110631104D01*
X129636504Y-110480792D01*
X129636506Y-110480788D01*
X129636509Y-110480786D01*
X129761448Y-110308820D01*
X129761447Y-110308820D01*
X129761451Y-110308816D01*
X129765914Y-110300054D01*
X129813888Y-110249259D01*
X129881708Y-110232463D01*
X129947844Y-110254999D01*
X129986886Y-110300056D01*
X129991351Y-110308820D01*
X130116290Y-110480786D01*
X130266613Y-110631109D01*
X130438579Y-110756048D01*
X130438581Y-110756049D01*
X130438584Y-110756051D01*
X130627988Y-110852557D01*
X130830157Y-110918246D01*
X131040113Y-110951500D01*
X131040114Y-110951500D01*
X131252686Y-110951500D01*
X131252687Y-110951500D01*
X131462643Y-110918246D01*
X131664812Y-110852557D01*
X131854216Y-110756051D01*
X131876189Y-110740086D01*
X132026186Y-110631109D01*
X132026188Y-110631106D01*
X132026192Y-110631104D01*
X132176504Y-110480792D01*
X132176506Y-110480788D01*
X132176509Y-110480786D01*
X132301448Y-110308820D01*
X132301447Y-110308820D01*
X132301451Y-110308816D01*
X132397957Y-110119412D01*
X132463646Y-109917243D01*
X132496900Y-109707287D01*
X132496900Y-109494713D01*
X132463646Y-109284757D01*
X132397957Y-109082588D01*
X132301451Y-108893184D01*
X132301449Y-108893181D01*
X132301448Y-108893179D01*
X132176509Y-108721213D01*
X132127945Y-108672649D01*
X132094460Y-108611326D01*
X132099444Y-108541634D01*
X132127941Y-108497292D01*
X146257561Y-94367672D01*
X146318880Y-94334190D01*
X146388572Y-94339174D01*
X146418123Y-94355038D01*
X146528436Y-94435184D01*
X146724789Y-94535232D01*
X146934364Y-94603326D01*
X147152019Y-94637800D01*
X147372381Y-94637800D01*
X147590035Y-94603326D01*
X147799610Y-94535232D01*
X147995960Y-94435186D01*
X148059713Y-94388866D01*
X148059714Y-94388866D01*
X147391609Y-93720762D01*
X147455193Y-93703725D01*
X147569207Y-93637899D01*
X147662299Y-93544807D01*
X147728125Y-93430793D01*
X147745162Y-93367209D01*
X148365381Y-93987428D01*
G37*
%TD.AperFunction*%
%TA.AperFunction,Conductor*%
G36*
X135749961Y-92568185D02*
G01*
X135795716Y-92620989D01*
X135805660Y-92690147D01*
X135800853Y-92710818D01*
X135736185Y-92909847D01*
X135701700Y-93127578D01*
X135701700Y-93348021D01*
X135736185Y-93565752D01*
X135804303Y-93775403D01*
X135804304Y-93775406D01*
X135865280Y-93895075D01*
X135899329Y-93961900D01*
X135904387Y-93971825D01*
X136033952Y-94150158D01*
X136033956Y-94150163D01*
X136189836Y-94306043D01*
X136189841Y-94306047D01*
X136265477Y-94360999D01*
X136368178Y-94435615D01*
X136496575Y-94501037D01*
X136564593Y-94535695D01*
X136564596Y-94535696D01*
X136620910Y-94553993D01*
X136774249Y-94603815D01*
X136991978Y-94638300D01*
X136991979Y-94638300D01*
X137212421Y-94638300D01*
X137212422Y-94638300D01*
X137430151Y-94603815D01*
X137639806Y-94535695D01*
X137836222Y-94435615D01*
X138014565Y-94306042D01*
X138170442Y-94150165D01*
X138231229Y-94066499D01*
X138271882Y-94010545D01*
X138327211Y-93967879D01*
X138396825Y-93961900D01*
X138458620Y-93994505D01*
X138472518Y-94010545D01*
X138573952Y-94150158D01*
X138573956Y-94150163D01*
X138729836Y-94306043D01*
X138729841Y-94306047D01*
X138805477Y-94360999D01*
X138908178Y-94435615D01*
X139036575Y-94501037D01*
X139104593Y-94535695D01*
X139104596Y-94535696D01*
X139160910Y-94553993D01*
X139314249Y-94603815D01*
X139531978Y-94638300D01*
X139531979Y-94638300D01*
X139752421Y-94638300D01*
X139752422Y-94638300D01*
X139970151Y-94603815D01*
X140179806Y-94535695D01*
X140376222Y-94435615D01*
X140554565Y-94306042D01*
X140710442Y-94150165D01*
X140771229Y-94066499D01*
X140811882Y-94010545D01*
X140867211Y-93967879D01*
X140936825Y-93961900D01*
X140998620Y-93994505D01*
X141012518Y-94010545D01*
X141113952Y-94150158D01*
X141113956Y-94150163D01*
X141269836Y-94306043D01*
X141269841Y-94306047D01*
X141345477Y-94360999D01*
X141448178Y-94435615D01*
X141629306Y-94527905D01*
X141680102Y-94575880D01*
X141696897Y-94643701D01*
X141674359Y-94709836D01*
X141660692Y-94726071D01*
X128237686Y-108149078D01*
X128125881Y-108260882D01*
X128125877Y-108260887D01*
X128094065Y-108315989D01*
X128094060Y-108315998D01*
X128087593Y-108327197D01*
X128037022Y-108375408D01*
X128036507Y-108375672D01*
X127898582Y-108445949D01*
X127726613Y-108570890D01*
X127576290Y-108721213D01*
X127451349Y-108893182D01*
X127446884Y-108901946D01*
X127398909Y-108952742D01*
X127331088Y-108969536D01*
X127264953Y-108946998D01*
X127225916Y-108901946D01*
X127221450Y-108893182D01*
X127096509Y-108721213D01*
X126946186Y-108570890D01*
X126774220Y-108445951D01*
X126584814Y-108349444D01*
X126584813Y-108349443D01*
X126584812Y-108349443D01*
X126382643Y-108283754D01*
X126382641Y-108283753D01*
X126382640Y-108283753D01*
X126221357Y-108258208D01*
X126172687Y-108250500D01*
X125960113Y-108250500D01*
X125911442Y-108258208D01*
X125750160Y-108283753D01*
X125547985Y-108349444D01*
X125358579Y-108445951D01*
X125186613Y-108570890D01*
X125036290Y-108721213D01*
X124911349Y-108893182D01*
X124906884Y-108901946D01*
X124858909Y-108952742D01*
X124791088Y-108969536D01*
X124724953Y-108946998D01*
X124685916Y-108901946D01*
X124681450Y-108893182D01*
X124556509Y-108721213D01*
X124406186Y-108570890D01*
X124234220Y-108445951D01*
X124044814Y-108349444D01*
X124044813Y-108349443D01*
X124044812Y-108349443D01*
X123842643Y-108283754D01*
X123842641Y-108283753D01*
X123842640Y-108283753D01*
X123681357Y-108258208D01*
X123632687Y-108250500D01*
X123420113Y-108250500D01*
X123371442Y-108258208D01*
X123210160Y-108283753D01*
X123007985Y-108349444D01*
X122818579Y-108445951D01*
X122646613Y-108570890D01*
X122496290Y-108721213D01*
X122371349Y-108893182D01*
X122366884Y-108901946D01*
X122318909Y-108952742D01*
X122251088Y-108969536D01*
X122184953Y-108946998D01*
X122145916Y-108901946D01*
X122141450Y-108893182D01*
X122016509Y-108721213D01*
X121866186Y-108570890D01*
X121694220Y-108445951D01*
X121504814Y-108349444D01*
X121504813Y-108349443D01*
X121504812Y-108349443D01*
X121302643Y-108283754D01*
X121302641Y-108283753D01*
X121302640Y-108283753D01*
X121141357Y-108258208D01*
X121092687Y-108250500D01*
X120880113Y-108250500D01*
X120831442Y-108258208D01*
X120670160Y-108283753D01*
X120467985Y-108349444D01*
X120278579Y-108445951D01*
X120106613Y-108570890D01*
X119956290Y-108721213D01*
X119831349Y-108893182D01*
X119826884Y-108901946D01*
X119778909Y-108952742D01*
X119711088Y-108969536D01*
X119644953Y-108946998D01*
X119605916Y-108901946D01*
X119601450Y-108893182D01*
X119476509Y-108721213D01*
X119326186Y-108570890D01*
X119154220Y-108445951D01*
X118964814Y-108349444D01*
X118964813Y-108349443D01*
X118964812Y-108349443D01*
X118762643Y-108283754D01*
X118762641Y-108283753D01*
X118762640Y-108283753D01*
X118601357Y-108258208D01*
X118552687Y-108250500D01*
X118340113Y-108250500D01*
X118291442Y-108258208D01*
X118130160Y-108283753D01*
X117927985Y-108349444D01*
X117738579Y-108445951D01*
X117566613Y-108570890D01*
X117416290Y-108721213D01*
X117291349Y-108893182D01*
X117286884Y-108901946D01*
X117238909Y-108952742D01*
X117171088Y-108969536D01*
X117104953Y-108946998D01*
X117065916Y-108901946D01*
X117061450Y-108893182D01*
X116936509Y-108721213D01*
X116786186Y-108570890D01*
X116614220Y-108445951D01*
X116424814Y-108349444D01*
X116424813Y-108349443D01*
X116424812Y-108349443D01*
X116222643Y-108283754D01*
X116222641Y-108283753D01*
X116222640Y-108283753D01*
X116061357Y-108258208D01*
X116012687Y-108250500D01*
X115800113Y-108250500D01*
X115751442Y-108258208D01*
X115590160Y-108283753D01*
X115387985Y-108349444D01*
X115198579Y-108445951D01*
X115026613Y-108570890D01*
X114876290Y-108721213D01*
X114751349Y-108893182D01*
X114746884Y-108901946D01*
X114698909Y-108952742D01*
X114631088Y-108969536D01*
X114564953Y-108946998D01*
X114525916Y-108901946D01*
X114521450Y-108893182D01*
X114396509Y-108721213D01*
X114246186Y-108570890D01*
X114074220Y-108445951D01*
X113884814Y-108349444D01*
X113884813Y-108349443D01*
X113884812Y-108349443D01*
X113682643Y-108283754D01*
X113682641Y-108283753D01*
X113682640Y-108283753D01*
X113521357Y-108258208D01*
X113472687Y-108250500D01*
X113260113Y-108250500D01*
X113211442Y-108258208D01*
X113050160Y-108283753D01*
X112847985Y-108349444D01*
X112658579Y-108445951D01*
X112486615Y-108570889D01*
X112373073Y-108684431D01*
X112311750Y-108717915D01*
X112242058Y-108712931D01*
X112186125Y-108671059D01*
X112169210Y-108640082D01*
X112120197Y-108508671D01*
X112120193Y-108508664D01*
X112033947Y-108393455D01*
X112033944Y-108393452D01*
X111918735Y-108307206D01*
X111918728Y-108307202D01*
X111783882Y-108256908D01*
X111783883Y-108256908D01*
X111724283Y-108250501D01*
X111724281Y-108250500D01*
X111724273Y-108250500D01*
X111724265Y-108250500D01*
X110015900Y-108250500D01*
X109948861Y-108230815D01*
X109903106Y-108178011D01*
X109891900Y-108126500D01*
X109891900Y-96563361D01*
X109911585Y-96496322D01*
X109928219Y-96475680D01*
X110656080Y-95747819D01*
X110717403Y-95714334D01*
X110743761Y-95711500D01*
X110932686Y-95711500D01*
X110932687Y-95711500D01*
X111142643Y-95678246D01*
X111344812Y-95612557D01*
X111534216Y-95516051D01*
X111588972Y-95476269D01*
X111706186Y-95391109D01*
X111706188Y-95391106D01*
X111706192Y-95391104D01*
X111856504Y-95240792D01*
X111856506Y-95240788D01*
X111856509Y-95240786D01*
X111942290Y-95122717D01*
X111981451Y-95068816D01*
X111986193Y-95059508D01*
X112034163Y-95008711D01*
X112101983Y-94991911D01*
X112168119Y-95014445D01*
X112207163Y-95059500D01*
X112211773Y-95068547D01*
X112251128Y-95122716D01*
X112883437Y-94490408D01*
X112900475Y-94553993D01*
X112966301Y-94668007D01*
X113059393Y-94761099D01*
X113173407Y-94826925D01*
X113236990Y-94843962D01*
X112604682Y-95476269D01*
X112604682Y-95476270D01*
X112658849Y-95515624D01*
X112848182Y-95612095D01*
X113050270Y-95677757D01*
X113260154Y-95711000D01*
X113472646Y-95711000D01*
X113682527Y-95677757D01*
X113682530Y-95677757D01*
X113884617Y-95612095D01*
X114073954Y-95515622D01*
X114128116Y-95476270D01*
X114128117Y-95476270D01*
X113495808Y-94843962D01*
X113559393Y-94826925D01*
X113673407Y-94761099D01*
X113766499Y-94668007D01*
X113832325Y-94553993D01*
X113849362Y-94490409D01*
X114481670Y-95122717D01*
X114481670Y-95122716D01*
X114521022Y-95068555D01*
X114525632Y-95059507D01*
X114573605Y-95008709D01*
X114641425Y-94991912D01*
X114707561Y-95014447D01*
X114746604Y-95059504D01*
X114751349Y-95068817D01*
X114876290Y-95240786D01*
X115026613Y-95391109D01*
X115198579Y-95516048D01*
X115198581Y-95516049D01*
X115198584Y-95516051D01*
X115387988Y-95612557D01*
X115590157Y-95678246D01*
X115800113Y-95711500D01*
X115800114Y-95711500D01*
X116012686Y-95711500D01*
X116012687Y-95711500D01*
X116222643Y-95678246D01*
X116424812Y-95612557D01*
X116614216Y-95516051D01*
X116668972Y-95476269D01*
X116786186Y-95391109D01*
X116786188Y-95391106D01*
X116786192Y-95391104D01*
X116936504Y-95240792D01*
X116936506Y-95240788D01*
X116936509Y-95240786D01*
X117061448Y-95068820D01*
X117061447Y-95068820D01*
X117061451Y-95068816D01*
X117065914Y-95060054D01*
X117113888Y-95009259D01*
X117181708Y-94992463D01*
X117247844Y-95014999D01*
X117286886Y-95060056D01*
X117291351Y-95068820D01*
X117416290Y-95240786D01*
X117566613Y-95391109D01*
X117738579Y-95516048D01*
X117738581Y-95516049D01*
X117738584Y-95516051D01*
X117927988Y-95612557D01*
X118130157Y-95678246D01*
X118340113Y-95711500D01*
X118340114Y-95711500D01*
X118552686Y-95711500D01*
X118552687Y-95711500D01*
X118762643Y-95678246D01*
X118964812Y-95612557D01*
X119154216Y-95516051D01*
X119208972Y-95476269D01*
X119326186Y-95391109D01*
X119326188Y-95391106D01*
X119326192Y-95391104D01*
X119476504Y-95240792D01*
X119476506Y-95240788D01*
X119476509Y-95240786D01*
X119601448Y-95068820D01*
X119601447Y-95068820D01*
X119601451Y-95068816D01*
X119605914Y-95060054D01*
X119653888Y-95009259D01*
X119721708Y-94992463D01*
X119787844Y-95014999D01*
X119826886Y-95060056D01*
X119831351Y-95068820D01*
X119956290Y-95240786D01*
X120106613Y-95391109D01*
X120278579Y-95516048D01*
X120278581Y-95516049D01*
X120278584Y-95516051D01*
X120467988Y-95612557D01*
X120670157Y-95678246D01*
X120880113Y-95711500D01*
X120880114Y-95711500D01*
X121092686Y-95711500D01*
X121092687Y-95711500D01*
X121302643Y-95678246D01*
X121504812Y-95612557D01*
X121694216Y-95516051D01*
X121748972Y-95476269D01*
X121866186Y-95391109D01*
X121866188Y-95391106D01*
X121866192Y-95391104D01*
X122016504Y-95240792D01*
X122016506Y-95240788D01*
X122016509Y-95240786D01*
X122141448Y-95068820D01*
X122141447Y-95068820D01*
X122141451Y-95068816D01*
X122145914Y-95060054D01*
X122193888Y-95009259D01*
X122261708Y-94992463D01*
X122327844Y-95014999D01*
X122366886Y-95060056D01*
X122371351Y-95068820D01*
X122496290Y-95240786D01*
X122646613Y-95391109D01*
X122818579Y-95516048D01*
X122818581Y-95516049D01*
X122818584Y-95516051D01*
X123007988Y-95612557D01*
X123210157Y-95678246D01*
X123420113Y-95711500D01*
X123420114Y-95711500D01*
X123632686Y-95711500D01*
X123632687Y-95711500D01*
X123842643Y-95678246D01*
X124044812Y-95612557D01*
X124234216Y-95516051D01*
X124288972Y-95476269D01*
X124406186Y-95391109D01*
X124406188Y-95391106D01*
X124406192Y-95391104D01*
X124556504Y-95240792D01*
X124556506Y-95240788D01*
X124556509Y-95240786D01*
X124681448Y-95068820D01*
X124681447Y-95068820D01*
X124681451Y-95068816D01*
X124685914Y-95060054D01*
X124733888Y-95009259D01*
X124801708Y-94992463D01*
X124867844Y-95014999D01*
X124906886Y-95060056D01*
X124911351Y-95068820D01*
X125036290Y-95240786D01*
X125186613Y-95391109D01*
X125358579Y-95516048D01*
X125358581Y-95516049D01*
X125358584Y-95516051D01*
X125547988Y-95612557D01*
X125750157Y-95678246D01*
X125960113Y-95711500D01*
X125960114Y-95711500D01*
X126172686Y-95711500D01*
X126172687Y-95711500D01*
X126382643Y-95678246D01*
X126584812Y-95612557D01*
X126774216Y-95516051D01*
X126828972Y-95476269D01*
X126946186Y-95391109D01*
X126946188Y-95391106D01*
X126946192Y-95391104D01*
X127096504Y-95240792D01*
X127096506Y-95240788D01*
X127096509Y-95240786D01*
X127221448Y-95068820D01*
X127221447Y-95068820D01*
X127221451Y-95068816D01*
X127225914Y-95060054D01*
X127273888Y-95009259D01*
X127341708Y-94992463D01*
X127407844Y-95014999D01*
X127446886Y-95060056D01*
X127451351Y-95068820D01*
X127576290Y-95240786D01*
X127726613Y-95391109D01*
X127898579Y-95516048D01*
X127898581Y-95516049D01*
X127898584Y-95516051D01*
X128087988Y-95612557D01*
X128290157Y-95678246D01*
X128500113Y-95711500D01*
X128500114Y-95711500D01*
X128712686Y-95711500D01*
X128712687Y-95711500D01*
X128922643Y-95678246D01*
X129124812Y-95612557D01*
X129314216Y-95516051D01*
X129368972Y-95476269D01*
X129486186Y-95391109D01*
X129486188Y-95391106D01*
X129486192Y-95391104D01*
X129636504Y-95240792D01*
X129636506Y-95240788D01*
X129636509Y-95240786D01*
X129761448Y-95068820D01*
X129761447Y-95068820D01*
X129761451Y-95068816D01*
X129765914Y-95060054D01*
X129813888Y-95009259D01*
X129881708Y-94992463D01*
X129947844Y-95014999D01*
X129986886Y-95060056D01*
X129991351Y-95068820D01*
X130116290Y-95240786D01*
X130266613Y-95391109D01*
X130438579Y-95516048D01*
X130438581Y-95516049D01*
X130438584Y-95516051D01*
X130627988Y-95612557D01*
X130830157Y-95678246D01*
X131040113Y-95711500D01*
X131040114Y-95711500D01*
X131252686Y-95711500D01*
X131252687Y-95711500D01*
X131462643Y-95678246D01*
X131664812Y-95612557D01*
X131854216Y-95516051D01*
X131908972Y-95476269D01*
X132026186Y-95391109D01*
X132026188Y-95391106D01*
X132026192Y-95391104D01*
X132176504Y-95240792D01*
X132176506Y-95240788D01*
X132176509Y-95240786D01*
X132301448Y-95068820D01*
X132301447Y-95068820D01*
X132301451Y-95068816D01*
X132397957Y-94879412D01*
X132463646Y-94677243D01*
X132496900Y-94467287D01*
X132496900Y-94254713D01*
X132463646Y-94044757D01*
X132397957Y-93842588D01*
X132301451Y-93653184D01*
X132301449Y-93653181D01*
X132301448Y-93653179D01*
X132176509Y-93481213D01*
X132026186Y-93330890D01*
X131854220Y-93205951D01*
X131664814Y-93109444D01*
X131664813Y-93109443D01*
X131664812Y-93109443D01*
X131462643Y-93043754D01*
X131462641Y-93043753D01*
X131462640Y-93043753D01*
X131298076Y-93017689D01*
X131252687Y-93010500D01*
X131040113Y-93010500D01*
X130994724Y-93017689D01*
X130830160Y-93043753D01*
X130627985Y-93109444D01*
X130438579Y-93205951D01*
X130266613Y-93330890D01*
X130116290Y-93481213D01*
X129991349Y-93653182D01*
X129986884Y-93661946D01*
X129938909Y-93712742D01*
X129871088Y-93729536D01*
X129804953Y-93706998D01*
X129765916Y-93661946D01*
X129761450Y-93653182D01*
X129636509Y-93481213D01*
X129486186Y-93330890D01*
X129314220Y-93205951D01*
X129124814Y-93109444D01*
X129124813Y-93109443D01*
X129124812Y-93109443D01*
X128922643Y-93043754D01*
X128922641Y-93043753D01*
X128922640Y-93043753D01*
X128758076Y-93017689D01*
X128712687Y-93010500D01*
X128500113Y-93010500D01*
X128454724Y-93017689D01*
X128290160Y-93043753D01*
X128087985Y-93109444D01*
X127898579Y-93205951D01*
X127726613Y-93330890D01*
X127576290Y-93481213D01*
X127451349Y-93653182D01*
X127446884Y-93661946D01*
X127398909Y-93712742D01*
X127331088Y-93729536D01*
X127264953Y-93706998D01*
X127225916Y-93661946D01*
X127221450Y-93653182D01*
X127096509Y-93481213D01*
X127047946Y-93432650D01*
X127014461Y-93371327D01*
X127019445Y-93301635D01*
X127047946Y-93257288D01*
X127374442Y-92930793D01*
X127720416Y-92584819D01*
X127781739Y-92551334D01*
X127808097Y-92548500D01*
X135682922Y-92548500D01*
X135749961Y-92568185D01*
G37*
%TD.AperFunction*%
%TA.AperFunction,Conductor*%
G36*
X160058012Y-80843736D02*
G01*
X160113945Y-80885608D01*
X160138362Y-80951072D01*
X160136296Y-80984107D01*
X160135500Y-80988109D01*
X160135500Y-89491638D01*
X160115815Y-89558677D01*
X160099181Y-89579319D01*
X157486534Y-92191966D01*
X151065538Y-98612960D01*
X151065537Y-98612961D01*
X151026064Y-98672039D01*
X151026063Y-98672040D01*
X150987602Y-98729600D01*
X150933989Y-98774405D01*
X150864664Y-98783112D01*
X150801637Y-98752957D01*
X150764918Y-98693514D01*
X150760500Y-98660709D01*
X150760500Y-94736330D01*
X150780185Y-94669291D01*
X150832989Y-94623536D01*
X150841168Y-94620148D01*
X150944526Y-94581598D01*
X150944526Y-94581597D01*
X150944531Y-94581596D01*
X151059746Y-94495346D01*
X151145996Y-94380131D01*
X151196291Y-94245283D01*
X151202700Y-94185673D01*
X151202699Y-92289928D01*
X151196291Y-92230317D01*
X151181986Y-92191964D01*
X151145997Y-92095471D01*
X151145993Y-92095464D01*
X151059747Y-91980255D01*
X151059744Y-91980252D01*
X150944535Y-91894006D01*
X150944528Y-91894002D01*
X150809682Y-91843708D01*
X150809683Y-91843708D01*
X150750083Y-91837301D01*
X150750081Y-91837300D01*
X150750073Y-91837300D01*
X150750064Y-91837300D01*
X148854329Y-91837300D01*
X148854323Y-91837301D01*
X148794716Y-91843708D01*
X148659871Y-91894002D01*
X148659864Y-91894006D01*
X148544655Y-91980252D01*
X148544652Y-91980255D01*
X148458406Y-92095464D01*
X148458402Y-92095471D01*
X148408108Y-92230317D01*
X148401784Y-92289147D01*
X148401701Y-92289923D01*
X148401700Y-92289935D01*
X148401700Y-92400491D01*
X148382015Y-92467530D01*
X148365381Y-92488172D01*
X147745162Y-93108390D01*
X147728125Y-93044807D01*
X147662299Y-92930793D01*
X147569207Y-92837701D01*
X147455193Y-92771875D01*
X147391608Y-92754837D01*
X148059713Y-92086732D01*
X147995956Y-92040411D01*
X147799610Y-91940367D01*
X147590035Y-91872273D01*
X147372381Y-91837800D01*
X147152019Y-91837800D01*
X146934364Y-91872273D01*
X146762018Y-91928271D01*
X146692176Y-91930266D01*
X146632344Y-91894185D01*
X146601516Y-91831484D01*
X146599700Y-91810340D01*
X146599700Y-90240897D01*
X146619385Y-90173858D01*
X146636019Y-90153216D01*
X150696319Y-86092916D01*
X150757642Y-86059431D01*
X150827334Y-86064415D01*
X150883267Y-86106287D01*
X150907684Y-86171751D01*
X150908000Y-86180597D01*
X150908000Y-86589844D01*
X150914401Y-86649372D01*
X150914403Y-86649379D01*
X150964645Y-86784086D01*
X150964649Y-86784093D01*
X151050809Y-86899187D01*
X151050812Y-86899190D01*
X151165906Y-86985350D01*
X151165913Y-86985354D01*
X151300620Y-87035596D01*
X151300627Y-87035598D01*
X151360155Y-87041999D01*
X151360172Y-87042000D01*
X152658000Y-87042000D01*
X153158000Y-87042000D01*
X154455828Y-87042000D01*
X154455844Y-87041999D01*
X154515372Y-87035598D01*
X154515379Y-87035596D01*
X154650086Y-86985354D01*
X154650093Y-86985350D01*
X154765187Y-86899190D01*
X154765190Y-86899187D01*
X154851350Y-86784093D01*
X154851354Y-86784086D01*
X154901596Y-86649379D01*
X154901598Y-86649372D01*
X154907999Y-86589844D01*
X154908000Y-86589827D01*
X154908000Y-86292000D01*
X153158000Y-86292000D01*
X153158000Y-87042000D01*
X152658000Y-87042000D01*
X152658000Y-86166000D01*
X152677685Y-86098961D01*
X152730489Y-86053206D01*
X152782000Y-86042000D01*
X152908000Y-86042000D01*
X152908000Y-85916000D01*
X152927685Y-85848961D01*
X152980489Y-85803206D01*
X153032000Y-85792000D01*
X154908000Y-85792000D01*
X154908000Y-85737166D01*
X154927685Y-85670127D01*
X154980489Y-85624372D01*
X155007465Y-85616625D01*
X155007406Y-85616404D01*
X155015254Y-85614301D01*
X155015257Y-85614301D01*
X155167985Y-85573377D01*
X155218104Y-85544439D01*
X155304916Y-85494320D01*
X155416720Y-85382516D01*
X155416720Y-85382514D01*
X155426928Y-85372307D01*
X155426929Y-85372304D01*
X159926998Y-80872236D01*
X159988320Y-80838752D01*
X160058012Y-80843736D01*
G37*
%TD.AperFunction*%
%TA.AperFunction,Conductor*%
G36*
X118158662Y-90023385D02*
G01*
X118204417Y-90076189D01*
X118211866Y-90103334D01*
X118212724Y-90103132D01*
X118214507Y-90110679D01*
X118264802Y-90245528D01*
X118264806Y-90245535D01*
X118351052Y-90360744D01*
X118351055Y-90360747D01*
X118466264Y-90446993D01*
X118466271Y-90446997D01*
X118601117Y-90497291D01*
X118601116Y-90497291D01*
X118608044Y-90498035D01*
X118660727Y-90503700D01*
X120183702Y-90503699D01*
X120250741Y-90523384D01*
X120296496Y-90576187D01*
X120306440Y-90645346D01*
X120277415Y-90708902D01*
X120271383Y-90715380D01*
X118077686Y-92909078D01*
X117965881Y-93020882D01*
X117965879Y-93020884D01*
X117927599Y-93087188D01*
X117877031Y-93135403D01*
X117876508Y-93135671D01*
X117738582Y-93205949D01*
X117566613Y-93330890D01*
X117416290Y-93481213D01*
X117291349Y-93653182D01*
X117286884Y-93661946D01*
X117238909Y-93712742D01*
X117171088Y-93729536D01*
X117104953Y-93706998D01*
X117065916Y-93661946D01*
X117061450Y-93653182D01*
X116936509Y-93481213D01*
X116786186Y-93330890D01*
X116614220Y-93205951D01*
X116424814Y-93109444D01*
X116424813Y-93109443D01*
X116424812Y-93109443D01*
X116222643Y-93043754D01*
X116222641Y-93043753D01*
X116222640Y-93043753D01*
X116058076Y-93017689D01*
X116012687Y-93010500D01*
X115800113Y-93010500D01*
X115754724Y-93017689D01*
X115590160Y-93043753D01*
X115387985Y-93109444D01*
X115198579Y-93205951D01*
X115026613Y-93330890D01*
X114876290Y-93481213D01*
X114751349Y-93653182D01*
X114746602Y-93662499D01*
X114698627Y-93713293D01*
X114630805Y-93730087D01*
X114564671Y-93707548D01*
X114525634Y-93662495D01*
X114521026Y-93653452D01*
X114481670Y-93599282D01*
X114481669Y-93599282D01*
X113849362Y-94231590D01*
X113832325Y-94168007D01*
X113766499Y-94053993D01*
X113673407Y-93960901D01*
X113559393Y-93895075D01*
X113495808Y-93878037D01*
X114128116Y-93245728D01*
X114073950Y-93206375D01*
X113884617Y-93109904D01*
X113682529Y-93044242D01*
X113644167Y-93038166D01*
X113581032Y-93008236D01*
X113544102Y-92948924D01*
X113545100Y-92879061D01*
X113575882Y-92828015D01*
X116363880Y-90040019D01*
X116425203Y-90006534D01*
X116451561Y-90003700D01*
X118091623Y-90003700D01*
X118158662Y-90023385D01*
G37*
%TD.AperFunction*%
%TD*%
M02*
