M48
; DRILL file {KiCad 9.0.7} date 2026-02-27T14:44:31+0800
; FORMAT={-:-/ absolute / metric / decimal}
; #@! TF.CreationDate,2026-02-27T14:44:31+08:00
; #@! TF.GenerationSoftware,Kicad,Pcbnew,9.0.7
; #@! TF.FileFunction,Plated,1,2,PTH
FMAT,2
METRIC
; #@! TA.AperFunction,Plated,PTH,ViaDrill
T1C0.300
; #@! TA.AperFunction,Plated,PTH,ComponentDrill
T2C0.800
; #@! TA.AperFunction,Plated,PTH,ComponentDrill
T3C0.950
; #@! TA.AperFunction,Plated,PTH,ComponentDrill
T4C1.000
%
G90
G05
T1
X110.0Y-75.0
X110.0Y-80.0
X110.0Y-85.0
X110.0Y-90.0
X110.0Y-130.0
X111.76Y-99.06
X111.76Y-101.6
X111.76Y-104.14
X119.38Y-76.2
X119.38Y-83.82
X119.38Y-121.92
X120.0Y-70.0
X121.92Y-119.38
X124.46Y-116.84
X125.0Y-70.0
X127.0Y-114.3
X130.0Y-70.0
X132.08Y-76.2
X132.08Y-83.82
X135.0Y-70.0
X138.0Y-111.0
X138.0Y-114.0
X138.0Y-117.0
X138.0Y-120.0
X138.0Y-126.0
X138.0Y-129.0
X138.0Y-132.0
X140.0Y-70.0
X141.0Y-111.0
X141.0Y-114.0
X144.0Y-111.0
X144.0Y-114.0
X145.0Y-70.0
X147.0Y-99.0
X147.0Y-102.0
X147.0Y-105.0
X147.0Y-108.0
X147.0Y-111.0
X150.0Y-70.0
X154.94Y-114.3
X154.94Y-116.84
X154.94Y-119.38
X154.94Y-121.92
X154.94Y-124.46
X154.94Y-127.0
X155.0Y-70.0
X156.0Y-99.0
X157.48Y-116.84
X157.48Y-119.38
X157.48Y-121.92
X157.48Y-124.46
X159.0Y-96.0
X159.0Y-99.0
X160.0Y-70.0
X162.0Y-96.0
X162.0Y-99.0
X162.56Y-81.28
X162.56Y-86.36
X162.56Y-91.44
X165.0Y-70.0
X165.0Y-99.0
X167.64Y-129.54
X167.64Y-132.08
X168.0Y-99.0
X170.0Y-135.0
X171.0Y-96.0
X171.0Y-99.0
X172.72Y-81.28
X172.72Y-91.44
X174.0Y-96.0
X174.0Y-99.0
X177.0Y-96.0
X177.0Y-99.0
X177.8Y-81.28
X177.8Y-91.44
T2
X166.37Y-92.766
X166.37Y-96.266
T3
X174.752Y-106.466
X174.752Y-108.966
X174.752Y-115.864
X174.752Y-118.364
X174.752Y-125.262
X174.752Y-127.762
T4
X110.826Y-94.361
X110.826Y-109.601
X113.366Y-94.361
X113.366Y-109.601
X114.554Y-118.12
X114.554Y-125.72
X115.906Y-94.361
X115.906Y-109.601
X118.446Y-94.361
X118.446Y-109.601
X119.609Y-89.103
X120.986Y-94.361
X120.986Y-109.601
X121.412Y-134.62
X122.149Y-89.103
X123.526Y-94.361
X123.526Y-109.601
X123.952Y-134.62
X124.689Y-89.103
X126.066Y-94.361
X126.066Y-109.601
X126.492Y-134.62
X127.229Y-89.103
X128.606Y-94.361
X128.606Y-109.601
X129.032Y-134.62
X129.769Y-89.103
X131.146Y-94.361
X131.146Y-109.601
X131.572Y-134.62
X134.112Y-134.62
X137.102Y-93.238
X139.642Y-93.238
X142.182Y-93.238
X142.24Y-119.126
X143.256Y-127.0
X144.722Y-93.238
X144.78Y-119.126
X145.796Y-127.0
X147.262Y-93.238
X147.32Y-119.126
X148.336Y-127.0
X149.802Y-93.238
X149.86Y-119.126
X154.178Y-101.854
X159.258Y-135.254
X164.338Y-135.254
X169.418Y-101.854
M30
