%TF.GenerationSoftware,KiCad,Pcbnew,9.0.7*%
%TF.CreationDate,2026-02-27T14:44:34+08:00*%
%TF.ProjectId,Base2.0,42617365-322e-4302-9e6b-696361645f70,rev?*%
%TF.SameCoordinates,Original*%
%TF.FileFunction,Copper,L2,Bot*%
%TF.FilePolarity,Positive*%
%FSLAX46Y46*%
G04 Gerber Fmt 4.6, Leading zero omitted, Abs format (unit mm)*
G04 Created by KiCad (PCBNEW 9.0.7) date 2026-02-27 14:44:34*
%MOMM*%
%LPD*%
G01*
G04 APERTURE LIST*
G04 Aperture macros list*
%AMRoundRect*
0 Rectangle with rounded corners*
0 $1 Rounding radius*
0 $2 $3 $4 $5 $6 $7 $8 $9 X,Y pos of 4 corners*
0 Add a 4 corners polygon primitive as box body*
4,1,4,$2,$3,$4,$5,$6,$7,$8,$9,$2,$3,0*
0 Add four circle primitives for the rounded corners*
1,1,$1+$1,$2,$3*
1,1,$1+$1,$4,$5*
1,1,$1+$1,$6,$7*
1,1,$1+$1,$8,$9*
0 Add four rect primitives between the rounded corners*
20,1,$1+$1,$2,$3,$4,$5,0*
20,1,$1+$1,$4,$5,$6,$7,0*
20,1,$1+$1,$6,$7,$8,$9,0*
20,1,$1+$1,$8,$9,$2,$3,0*%
G04 Aperture macros list end*
%TA.AperFunction,ComponentPad*%
%ADD10O,1.950000X1.700000*%
%TD*%
%TA.AperFunction,ComponentPad*%
%ADD11RoundRect,0.250000X0.725000X-0.600000X0.725000X0.600000X-0.725000X0.600000X-0.725000X-0.600000X0*%
%TD*%
%TA.AperFunction,ComponentPad*%
%ADD12C,1.700000*%
%TD*%
%TA.AperFunction,ComponentPad*%
%ADD13R,1.700000X1.700000*%
%TD*%
%TA.AperFunction,ComponentPad*%
%ADD14R,1.800000X1.800000*%
%TD*%
%TA.AperFunction,ComponentPad*%
%ADD15C,1.800000*%
%TD*%
%TA.AperFunction,SMDPad,CuDef*%
%ADD16RoundRect,0.250000X1.600000X-0.425000X1.600000X0.425000X-1.600000X0.425000X-1.600000X-0.425000X0*%
%TD*%
%TA.AperFunction,ComponentPad*%
%ADD17C,1.600000*%
%TD*%
%TA.AperFunction,ComponentPad*%
%ADD18RoundRect,0.250000X-0.550000X0.550000X-0.550000X-0.550000X0.550000X-0.550000X0.550000X0.550000X0*%
%TD*%
%TA.AperFunction,ComponentPad*%
%ADD19R,2.000000X2.000000*%
%TD*%
%TA.AperFunction,ComponentPad*%
%ADD20C,2.000000*%
%TD*%
%TA.AperFunction,ViaPad*%
%ADD21C,0.600000*%
%TD*%
%TA.AperFunction,Conductor*%
%ADD22C,1.500000*%
%TD*%
%TA.AperFunction,Conductor*%
%ADD23C,0.200000*%
%TD*%
G04 APERTURE END LIST*
D10*
%TO.P,USBC1,2,Pin_2*%
%TO.N,GND*%
X174752000Y-115864000D03*
D11*
%TO.P,USBC1,1,Pin_1*%
%TO.N,Net-(CN1-VIN)*%
X174752000Y-118364000D03*
%TD*%
D12*
%TO.P,J1,3,Pin_3*%
%TO.N,Net-(BUCK-CONVERTER1-IN+)*%
X143256000Y-127000000D03*
%TO.P,J1,2,Pin_2*%
%TO.N,+3V3*%
X145796000Y-127000000D03*
D13*
%TO.P,J1,1,Pin_1*%
%TO.N,GND*%
X148336000Y-127000000D03*
%TD*%
D10*
%TO.P,BATTERY1,2,+*%
%TO.N,Net-(BATTERY1-+)*%
X174752000Y-125262000D03*
D11*
%TO.P,BATTERY1,1,-*%
%TO.N,GND*%
X174752000Y-127762000D03*
%TD*%
D10*
%TO.P,J4,2,Pin_2*%
%TO.N,Net-(BUCK-CONVERTER1-IN+)*%
X174752000Y-106466000D03*
D11*
%TO.P,J4,1,Pin_1*%
%TO.N,Net-(CN1-BAT)*%
X174752000Y-108966000D03*
%TD*%
D14*
%TO.P,CN1,1,VIN*%
%TO.N,Net-(CN1-VIN)*%
X154178000Y-101854000D03*
%TO.P,CN1,2,GND*%
%TO.N,GND*%
X169418000Y-101854000D03*
%TO.P,CN1,3,GND*%
X159258000Y-135254000D03*
%TO.P,CN1,4,BAT*%
%TO.N,Net-(CN1-BAT)*%
X164338000Y-135254000D03*
%TD*%
D15*
%TO.P,BUCK-CONVERTER1,4,VO+*%
%TO.N,+5V*%
X149860000Y-119126000D03*
%TO.P,BUCK-CONVERTER1,3,GND*%
%TO.N,GND*%
X147320000Y-119126000D03*
%TO.P,BUCK-CONVERTER1,2,IN+*%
%TO.N,Net-(BUCK-CONVERTER1-IN+)*%
X144780000Y-119126000D03*
D14*
%TO.P,BUCK-CONVERTER1,1,EN*%
%TO.N,unconnected-(BUCK-CONVERTER1-EN-Pad1)*%
X142240000Y-119126000D03*
%TD*%
D16*
%TO.P,ANT1,2,Ext*%
%TO.N,GND*%
X176976900Y-83306400D03*
X176976900Y-88956400D03*
%TD*%
D17*
%TO.P,C3,2*%
%TO.N,GND*%
X166370000Y-96266000D03*
D18*
%TO.P,C3,1*%
%TO.N,+3V3*%
X166370000Y-92766000D03*
%TD*%
D15*
%TO.P,NEO-M8N1,5,PPS*%
%TO.N,unconnected-(NEO-M8N1-PPS-Pad5)*%
X129768600Y-89103200D03*
%TO.P,NEO-M8N1,4,RXD*%
%TO.N,/5*%
X127228600Y-89103200D03*
%TO.P,NEO-M8N1,3,TXD*%
%TO.N,/4*%
X124688600Y-89103200D03*
%TO.P,NEO-M8N1,2,GND*%
%TO.N,GND*%
X122148600Y-89103200D03*
D14*
%TO.P,NEO-M8N1,1,VCC*%
%TO.N,+5V*%
X119608600Y-89103200D03*
%TD*%
%TO.P,BMP280\u002A5V1,1,VCC*%
%TO.N,+5V*%
X149802200Y-93237800D03*
D15*
%TO.P,BMP280\u002A5V1,2,GND*%
%TO.N,GND*%
X147262200Y-93237800D03*
%TO.P,BMP280\u002A5V1,3,SCL*%
%TO.N,/9*%
X144722200Y-93237800D03*
%TO.P,BMP280\u002A5V1,4,SDA*%
%TO.N,/8*%
X142182200Y-93237800D03*
%TO.P,BMP280\u002A5V1,5,CSE*%
%TO.N,unconnected-(BMP280\u002A5V1-CSE-Pad5)*%
X139642200Y-93237800D03*
%TO.P,BMP280\u002A5V1,6,SDO*%
%TO.N,unconnected-(BMP280\u002A5V1-SDO-Pad6)*%
X137102200Y-93237800D03*
%TD*%
D14*
%TO.P,INA1,1,VCC*%
%TO.N,+5V*%
X121412000Y-134620000D03*
D15*
%TO.P,INA1,2,GND*%
%TO.N,GND*%
X123952000Y-134620000D03*
%TO.P,INA1,3,SCL*%
%TO.N,/9*%
X126492000Y-134620000D03*
%TO.P,INA1,4,SDA*%
%TO.N,/8*%
X129032000Y-134620000D03*
%TO.P,INA1,5,VIN-*%
%TO.N,Net-(CN1-BAT)*%
X131572000Y-134620000D03*
%TO.P,INA1,6,VIN+*%
%TO.N,Net-(BATTERY1-+)*%
X134112000Y-134620000D03*
%TD*%
D13*
%TO.P,ESP32S3SUPERMINI1,1,TX*%
%TO.N,unconnected-(ESP32S3SUPERMINI1-TX-Pad1)*%
X110826400Y-109601000D03*
D12*
%TO.P,ESP32S3SUPERMINI1,2,RX*%
%TO.N,unconnected-(ESP32S3SUPERMINI1-RX-Pad2)*%
X113366400Y-109601000D03*
%TO.P,ESP32S3SUPERMINI1,3,1*%
%TO.N,unconnected-(ESP32S3SUPERMINI1-1-Pad3)*%
X115906400Y-109601000D03*
%TO.P,ESP32S3SUPERMINI1,4,2*%
%TO.N,Net-(BZ1-+)*%
X118446400Y-109601000D03*
%TO.P,ESP32S3SUPERMINI1,5,3*%
%TO.N,unconnected-(ESP32S3SUPERMINI1-3-Pad5)*%
X120986400Y-109601000D03*
%TO.P,ESP32S3SUPERMINI1,6,4*%
%TO.N,/4*%
X123526400Y-109601000D03*
%TO.P,ESP32S3SUPERMINI1,7,5*%
%TO.N,/5*%
X126066400Y-109601000D03*
%TO.P,ESP32S3SUPERMINI1,8,6*%
%TO.N,/6*%
X128606400Y-109601000D03*
%TO.P,ESP32S3SUPERMINI1,9,7*%
%TO.N,/7*%
X131146400Y-109601000D03*
%TO.P,ESP32S3SUPERMINI1,10,5V*%
%TO.N,+5V*%
X110826400Y-94361000D03*
%TO.P,ESP32S3SUPERMINI1,11,GND*%
%TO.N,GND*%
X113366400Y-94361000D03*
%TO.P,ESP32S3SUPERMINI1,12,3V3*%
%TO.N,unconnected-(ESP32S3SUPERMINI1-3V3-Pad12)*%
X115906400Y-94361000D03*
%TO.P,ESP32S3SUPERMINI1,13,13*%
%TO.N,/13*%
X118446400Y-94361000D03*
%TO.P,ESP32S3SUPERMINI1,14,12*%
%TO.N,/12*%
X120986400Y-94361000D03*
%TO.P,ESP32S3SUPERMINI1,15,11*%
%TO.N,/11*%
X123526400Y-94361000D03*
%TO.P,ESP32S3SUPERMINI1,16,10*%
%TO.N,/10*%
X126066400Y-94361000D03*
%TO.P,ESP32S3SUPERMINI1,17,9*%
%TO.N,/9*%
X128606400Y-94361000D03*
%TO.P,ESP32S3SUPERMINI1,18,8*%
%TO.N,/8*%
X131146400Y-94361000D03*
%TD*%
D19*
%TO.P,BZ1,1,+*%
%TO.N,Net-(BZ1-+)*%
X114554000Y-118120000D03*
D20*
%TO.P,BZ1,2,-*%
%TO.N,GND*%
X114554000Y-125720000D03*
%TD*%
D21*
%TO.N,GND*%
X167640000Y-129540000D03*
X167640000Y-132080000D03*
X154940000Y-127000000D03*
X157480000Y-116840000D03*
X154940000Y-116840000D03*
X154940000Y-114300000D03*
X157480000Y-121920000D03*
X154940000Y-121920000D03*
X157480000Y-119380000D03*
X157480000Y-124460000D03*
X154940000Y-124460000D03*
X127000000Y-114300000D03*
X124460000Y-116840000D03*
X121920000Y-119380000D03*
X119380000Y-121920000D03*
X132080000Y-83820000D03*
X132080000Y-76200000D03*
X119380000Y-76200000D03*
X119380000Y-83820000D03*
X111760000Y-99060000D03*
X111760000Y-101600000D03*
X111760000Y-104140000D03*
X155000000Y-70000000D03*
X160000000Y-70000000D03*
X165000000Y-70000000D03*
X170000000Y-135000000D03*
X110000000Y-130000000D03*
X110000000Y-90000000D03*
X110000000Y-80000000D03*
X110000000Y-85000000D03*
X110000000Y-75000000D03*
X150000000Y-70000000D03*
X145000000Y-70000000D03*
X140000000Y-70000000D03*
X135000000Y-70000000D03*
X130000000Y-70000000D03*
X125000000Y-70000000D03*
X120000000Y-70000000D03*
X159000000Y-96000000D03*
X162000000Y-96000000D03*
X171000000Y-96000000D03*
X174000000Y-96000000D03*
X177000000Y-96000000D03*
X144000000Y-114000000D03*
X141000000Y-114000000D03*
X138000000Y-132000000D03*
X138000000Y-129000000D03*
X138000000Y-126000000D03*
X138000000Y-120000000D03*
X138000000Y-117000000D03*
X138000000Y-114000000D03*
X141000000Y-111000000D03*
X138000000Y-111000000D03*
X144000000Y-111000000D03*
X147000000Y-111000000D03*
X147000000Y-108000000D03*
X147000000Y-105000000D03*
X147000000Y-102000000D03*
X147000000Y-99000000D03*
X156000000Y-99000000D03*
X159000000Y-99000000D03*
X162000000Y-99000000D03*
X165000000Y-99000000D03*
X168000000Y-99000000D03*
X171000000Y-99000000D03*
X174000000Y-99000000D03*
X177000000Y-99000000D03*
X177800000Y-91440000D03*
X177800000Y-81280000D03*
X172720000Y-81280000D03*
X162560000Y-81280000D03*
X162560000Y-86360000D03*
X162560000Y-91440000D03*
X172720000Y-91440000D03*
X154940000Y-119380000D03*
%TD*%
D22*
%TO.N,Net-(BUCK-CONVERTER1-IN+)*%
X174752000Y-106466000D02*
X155382600Y-106466000D01*
%TO.N,Net-(CN1-BAT)*%
X164338000Y-113284000D02*
X168656000Y-108966000D01*
X168656000Y-108966000D02*
X174752000Y-108966000D01*
D23*
%TO.N,/8*%
X140081000Y-91135200D02*
X141732000Y-92786200D01*
X132638800Y-91135200D02*
X140081000Y-91135200D01*
X131146400Y-94361000D02*
X131146400Y-92627600D01*
X131146400Y-92627600D02*
X132638800Y-91135200D01*
X141732000Y-92786200D02*
X141732000Y-93218000D01*
%TO.N,/9*%
X132003800Y-89458800D02*
X140944600Y-89458800D01*
X140944600Y-89458800D02*
X144722200Y-93236400D01*
X144722200Y-93236400D02*
X144722200Y-93237800D01*
X128606400Y-94361000D02*
X128606400Y-92856200D01*
X128606400Y-92856200D02*
X132003800Y-89458800D01*
%TO.N,/5*%
X127228600Y-107467400D02*
X127228600Y-89103200D01*
X126066400Y-108629600D02*
X127228600Y-107467400D01*
X126066400Y-109601000D02*
X126066400Y-108629600D01*
%TO.N,/4*%
X124688600Y-107467400D02*
X124688600Y-89103200D01*
X123526400Y-108629600D02*
X124688600Y-107467400D01*
X123526400Y-109601000D02*
X123526400Y-108629600D01*
%TO.N,/8*%
X131064000Y-94443400D02*
X131146400Y-94361000D01*
X131064000Y-97536000D02*
X131064000Y-94443400D01*
X135636000Y-102108000D02*
X131064000Y-97536000D01*
X129032000Y-134620000D02*
X129032000Y-127762000D01*
X129032000Y-127762000D02*
X135636000Y-121158000D01*
X135636000Y-121158000D02*
X135636000Y-102108000D01*
%TO.N,/9*%
X128524000Y-98298000D02*
X128524000Y-94443400D01*
X128524000Y-94443400D02*
X128606400Y-94361000D01*
X133350000Y-103124000D02*
X128524000Y-98298000D01*
X133350000Y-120142000D02*
X133350000Y-103124000D01*
X126492000Y-127000000D02*
X133350000Y-120142000D01*
X126492000Y-134620000D02*
X126492000Y-127000000D01*
D22*
%TO.N,Net-(BUCK-CONVERTER1-IN+)*%
X144780000Y-122021600D02*
X144780000Y-119126000D01*
X143256000Y-127000000D02*
X143256000Y-123545600D01*
X143256000Y-123545600D02*
X144780000Y-122021600D01*
X144780000Y-117068600D02*
X144780000Y-119126000D01*
X155382600Y-106466000D02*
X144780000Y-117068600D01*
%TO.N,Net-(CN1-BAT)*%
X164338000Y-135254000D02*
X164338000Y-113284000D01*
%TD*%
%TA.AperFunction,Conductor*%
%TO.N,GND*%
G36*
X179782539Y-66560185D02*
G01*
X179828294Y-66612989D01*
X179839500Y-66664500D01*
X179839500Y-139075500D01*
X179819815Y-139142539D01*
X179767011Y-139188294D01*
X179715500Y-139199500D01*
X107304500Y-139199500D01*
X107237461Y-139179815D01*
X107191706Y-139127011D01*
X107180500Y-139075500D01*
X107180500Y-134513713D01*
X110409500Y-134513713D01*
X110409500Y-134726287D01*
X110442754Y-134936243D01*
X110483292Y-135061007D01*
X110508444Y-135138414D01*
X110604951Y-135327820D01*
X110729890Y-135499786D01*
X110880213Y-135650109D01*
X111052179Y-135775048D01*
X111052181Y-135775049D01*
X111052184Y-135775051D01*
X111241588Y-135871557D01*
X111443757Y-135937246D01*
X111653713Y-135970500D01*
X111653714Y-135970500D01*
X111866286Y-135970500D01*
X111866287Y-135970500D01*
X112076243Y-135937246D01*
X112278412Y-135871557D01*
X112467816Y-135775051D01*
X112543691Y-135719925D01*
X112639786Y-135650109D01*
X112639788Y-135650106D01*
X112639792Y-135650104D01*
X112790104Y-135499792D01*
X112790106Y-135499788D01*
X112790109Y-135499786D01*
X112915048Y-135327820D01*
X112915047Y-135327820D01*
X112915051Y-135327816D01*
X113011557Y-135138412D01*
X113077246Y-134936243D01*
X113110500Y-134726287D01*
X113110500Y-134513713D01*
X113077246Y-134303757D01*
X113011557Y-134101588D01*
X112915051Y-133912184D01*
X112868187Y-133847681D01*
X112791182Y-133741691D01*
X112791180Y-133741687D01*
X112791178Y-133741685D01*
X112790109Y-133740214D01*
X112790105Y-133740209D01*
X112639786Y-133589890D01*
X112467820Y-133464951D01*
X112278414Y-133368444D01*
X112278413Y-133368443D01*
X112278412Y-133368443D01*
X112076243Y-133302754D01*
X112076241Y-133302753D01*
X112076240Y-133302753D01*
X111908601Y-133276202D01*
X111866287Y-133269500D01*
X111653713Y-133269500D01*
X111611399Y-133276202D01*
X111443760Y-133302753D01*
X111241585Y-133368444D01*
X111052179Y-133464951D01*
X110880213Y-133589890D01*
X110729890Y-133740213D01*
X110604951Y-133912179D01*
X110508444Y-134101585D01*
X110442753Y-134303760D01*
X110423233Y-134427007D01*
X110409500Y-134513713D01*
X107180500Y-134513713D01*
X107180500Y-125601947D01*
X113054000Y-125601947D01*
X113054000Y-125838052D01*
X113090934Y-126071247D01*
X113163897Y-126295802D01*
X113271087Y-126506174D01*
X113331338Y-126589104D01*
X113331340Y-126589105D01*
X114071037Y-125849408D01*
X114088075Y-125912993D01*
X114153901Y-126027007D01*
X114246993Y-126120099D01*
X114361007Y-126185925D01*
X114424590Y-126202962D01*
X113684893Y-126942658D01*
X113767828Y-127002914D01*
X113978197Y-127110102D01*
X114202752Y-127183065D01*
X114202751Y-127183065D01*
X114435948Y-127220000D01*
X114672052Y-127220000D01*
X114905247Y-127183065D01*
X115129802Y-127110102D01*
X115340163Y-127002918D01*
X115340169Y-127002914D01*
X115423104Y-126942658D01*
X115423105Y-126942658D01*
X114683408Y-126202962D01*
X114746993Y-126185925D01*
X114861007Y-126120099D01*
X114954099Y-126027007D01*
X115019925Y-125912993D01*
X115036962Y-125849409D01*
X115776658Y-126589105D01*
X115776658Y-126589104D01*
X115836914Y-126506169D01*
X115836918Y-126506163D01*
X115944102Y-126295802D01*
X116017065Y-126071247D01*
X116054000Y-125838052D01*
X116054000Y-125601947D01*
X116017065Y-125368752D01*
X115944102Y-125144197D01*
X115836914Y-124933828D01*
X115776658Y-124850894D01*
X115776658Y-124850893D01*
X115036962Y-125590590D01*
X115019925Y-125527007D01*
X114954099Y-125412993D01*
X114861007Y-125319901D01*
X114746993Y-125254075D01*
X114683409Y-125237037D01*
X115423105Y-124497340D01*
X115423104Y-124497338D01*
X115340174Y-124437087D01*
X115129802Y-124329897D01*
X114905247Y-124256934D01*
X114905248Y-124256934D01*
X114672052Y-124220000D01*
X114435948Y-124220000D01*
X114202752Y-124256934D01*
X113978197Y-124329897D01*
X113767830Y-124437084D01*
X113684894Y-124497340D01*
X114424591Y-125237037D01*
X114361007Y-125254075D01*
X114246993Y-125319901D01*
X114153901Y-125412993D01*
X114088075Y-125527007D01*
X114071037Y-125590591D01*
X113331340Y-124850894D01*
X113271084Y-124933830D01*
X113163897Y-125144197D01*
X113090934Y-125368752D01*
X113054000Y-125601947D01*
X107180500Y-125601947D01*
X107180500Y-117072135D01*
X113053500Y-117072135D01*
X113053500Y-119167870D01*
X113053501Y-119167876D01*
X113059908Y-119227483D01*
X113110202Y-119362328D01*
X113110206Y-119362335D01*
X113196452Y-119477544D01*
X113196455Y-119477547D01*
X113311664Y-119563793D01*
X113311671Y-119563797D01*
X113446517Y-119614091D01*
X113446516Y-119614091D01*
X113453444Y-119614835D01*
X113506127Y-119620500D01*
X115601872Y-119620499D01*
X115661483Y-119614091D01*
X115796331Y-119563796D01*
X115911546Y-119477546D01*
X115997796Y-119362331D01*
X116048091Y-119227483D01*
X116054500Y-119167873D01*
X116054499Y-117072128D01*
X116048091Y-117012517D01*
X116032301Y-116970183D01*
X115997797Y-116877671D01*
X115997793Y-116877664D01*
X115911547Y-116762455D01*
X115911544Y-116762452D01*
X115796335Y-116676206D01*
X115796328Y-116676202D01*
X115661482Y-116625908D01*
X115661483Y-116625908D01*
X115601883Y-116619501D01*
X115601881Y-116619500D01*
X115601873Y-116619500D01*
X115601864Y-116619500D01*
X113506129Y-116619500D01*
X113506123Y-116619501D01*
X113446516Y-116625908D01*
X113311671Y-116676202D01*
X113311664Y-116676206D01*
X113196455Y-116762452D01*
X113196452Y-116762455D01*
X113110206Y-116877664D01*
X113110202Y-116877671D01*
X113059908Y-117012517D01*
X113053806Y-117069279D01*
X113053501Y-117072123D01*
X113053500Y-117072135D01*
X107180500Y-117072135D01*
X107180500Y-94254713D01*
X109475900Y-94254713D01*
X109475900Y-94467286D01*
X109509153Y-94677239D01*
X109574844Y-94879414D01*
X109671351Y-95068820D01*
X109796290Y-95240786D01*
X109946613Y-95391109D01*
X110118579Y-95516048D01*
X110118581Y-95516049D01*
X110118584Y-95516051D01*
X110307988Y-95612557D01*
X110510157Y-95678246D01*
X110720113Y-95711500D01*
X110720114Y-95711500D01*
X110932686Y-95711500D01*
X110932687Y-95711500D01*
X111142643Y-95678246D01*
X111344812Y-95612557D01*
X111534216Y-95516051D01*
X111588972Y-95476269D01*
X111706186Y-95391109D01*
X111706188Y-95391106D01*
X111706192Y-95391104D01*
X111856504Y-95240792D01*
X111856506Y-95240788D01*
X111856509Y-95240786D01*
X111942290Y-95122717D01*
X111981451Y-95068816D01*
X111986193Y-95059508D01*
X112034163Y-95008711D01*
X112101983Y-94991911D01*
X112168119Y-95014445D01*
X112207163Y-95059500D01*
X112211773Y-95068547D01*
X112251128Y-95122716D01*
X112883437Y-94490408D01*
X112900475Y-94553993D01*
X112966301Y-94668007D01*
X113059393Y-94761099D01*
X113173407Y-94826925D01*
X113236990Y-94843962D01*
X112604682Y-95476269D01*
X112604682Y-95476270D01*
X112658849Y-95515624D01*
X112848182Y-95612095D01*
X113050270Y-95677757D01*
X113260154Y-95711000D01*
X113472646Y-95711000D01*
X113682527Y-95677757D01*
X113682530Y-95677757D01*
X113884617Y-95612095D01*
X114073954Y-95515622D01*
X114128116Y-95476270D01*
X114128117Y-95476270D01*
X113495808Y-94843962D01*
X113559393Y-94826925D01*
X113673407Y-94761099D01*
X113766499Y-94668007D01*
X113832325Y-94553993D01*
X113849362Y-94490409D01*
X114481670Y-95122717D01*
X114481670Y-95122716D01*
X114521022Y-95068555D01*
X114525632Y-95059507D01*
X114573605Y-95008709D01*
X114641425Y-94991912D01*
X114707561Y-95014447D01*
X114746604Y-95059504D01*
X114751349Y-95068817D01*
X114876290Y-95240786D01*
X115026613Y-95391109D01*
X115198579Y-95516048D01*
X115198581Y-95516049D01*
X115198584Y-95516051D01*
X115387988Y-95612557D01*
X115590157Y-95678246D01*
X115800113Y-95711500D01*
X115800114Y-95711500D01*
X116012686Y-95711500D01*
X116012687Y-95711500D01*
X116222643Y-95678246D01*
X116424812Y-95612557D01*
X116614216Y-95516051D01*
X116668972Y-95476269D01*
X116786186Y-95391109D01*
X116786188Y-95391106D01*
X116786192Y-95391104D01*
X116936504Y-95240792D01*
X116936506Y-95240788D01*
X116936509Y-95240786D01*
X117061448Y-95068820D01*
X117061447Y-95068820D01*
X117061451Y-95068816D01*
X117065914Y-95060054D01*
X117113888Y-95009259D01*
X117181708Y-94992463D01*
X117247844Y-95014999D01*
X117286886Y-95060056D01*
X117291351Y-95068820D01*
X117416290Y-95240786D01*
X117566613Y-95391109D01*
X117738579Y-95516048D01*
X117738581Y-95516049D01*
X117738584Y-95516051D01*
X117927988Y-95612557D01*
X118130157Y-95678246D01*
X118340113Y-95711500D01*
X118340114Y-95711500D01*
X118552686Y-95711500D01*
X118552687Y-95711500D01*
X118762643Y-95678246D01*
X118964812Y-95612557D01*
X119154216Y-95516051D01*
X119208972Y-95476269D01*
X119326186Y-95391109D01*
X119326188Y-95391106D01*
X119326192Y-95391104D01*
X119476504Y-95240792D01*
X119476506Y-95240788D01*
X119476509Y-95240786D01*
X119601448Y-95068820D01*
X119601447Y-95068820D01*
X119601451Y-95068816D01*
X119605914Y-95060054D01*
X119653888Y-95009259D01*
X119721708Y-94992463D01*
X119787844Y-95014999D01*
X119826886Y-95060056D01*
X119831351Y-95068820D01*
X119956290Y-95240786D01*
X120106613Y-95391109D01*
X120278579Y-95516048D01*
X120278581Y-95516049D01*
X120278584Y-95516051D01*
X120467988Y-95612557D01*
X120670157Y-95678246D01*
X120880113Y-95711500D01*
X120880114Y-95711500D01*
X121092686Y-95711500D01*
X121092687Y-95711500D01*
X121302643Y-95678246D01*
X121504812Y-95612557D01*
X121694216Y-95516051D01*
X121748972Y-95476269D01*
X121866186Y-95391109D01*
X121866188Y-95391106D01*
X121866192Y-95391104D01*
X122016504Y-95240792D01*
X122016506Y-95240788D01*
X122016509Y-95240786D01*
X122141448Y-95068820D01*
X122141447Y-95068820D01*
X122141451Y-95068816D01*
X122145914Y-95060054D01*
X122193888Y-95009259D01*
X122261708Y-94992463D01*
X122327844Y-95014999D01*
X122366886Y-95060056D01*
X122371351Y-95068820D01*
X122496290Y-95240786D01*
X122646613Y-95391109D01*
X122818579Y-95516048D01*
X122818581Y-95516049D01*
X122818584Y-95516051D01*
X123007988Y-95612557D01*
X123210157Y-95678246D01*
X123420113Y-95711500D01*
X123420114Y-95711500D01*
X123632686Y-95711500D01*
X123632687Y-95711500D01*
X123842643Y-95678246D01*
X123925783Y-95651231D01*
X123995623Y-95649237D01*
X124055456Y-95685317D01*
X124086284Y-95748018D01*
X124088100Y-95769163D01*
X124088100Y-107167302D01*
X124068415Y-107234341D01*
X124051781Y-107254983D01*
X123045881Y-108260882D01*
X123045877Y-108260887D01*
X123014065Y-108315989D01*
X123014060Y-108315998D01*
X123007593Y-108327197D01*
X122957022Y-108375408D01*
X122956507Y-108375672D01*
X122818582Y-108445949D01*
X122646613Y-108570890D01*
X122496290Y-108721213D01*
X122371349Y-108893182D01*
X122366884Y-108901946D01*
X122318909Y-108952742D01*
X122251088Y-108969536D01*
X122184953Y-108946998D01*
X122145916Y-108901946D01*
X122141450Y-108893182D01*
X122016509Y-108721213D01*
X121866186Y-108570890D01*
X121694220Y-108445951D01*
X121504814Y-108349444D01*
X121504813Y-108349443D01*
X121504812Y-108349443D01*
X121302643Y-108283754D01*
X121302641Y-108283753D01*
X121302640Y-108283753D01*
X121141357Y-108258208D01*
X121092687Y-108250500D01*
X120880113Y-108250500D01*
X120831442Y-108258208D01*
X120670160Y-108283753D01*
X120467985Y-108349444D01*
X120278579Y-108445951D01*
X120106613Y-108570890D01*
X119956290Y-108721213D01*
X119831349Y-108893182D01*
X119826884Y-108901946D01*
X119778909Y-108952742D01*
X119711088Y-108969536D01*
X119644953Y-108946998D01*
X119605916Y-108901946D01*
X119601450Y-108893182D01*
X119476509Y-108721213D01*
X119326186Y-108570890D01*
X119154220Y-108445951D01*
X118964814Y-108349444D01*
X118964813Y-108349443D01*
X118964812Y-108349443D01*
X118762643Y-108283754D01*
X118762641Y-108283753D01*
X118762640Y-108283753D01*
X118601357Y-108258208D01*
X118552687Y-108250500D01*
X118340113Y-108250500D01*
X118291442Y-108258208D01*
X118130160Y-108283753D01*
X117927985Y-108349444D01*
X117738579Y-108445951D01*
X117566613Y-108570890D01*
X117416290Y-108721213D01*
X117291349Y-108893182D01*
X117286884Y-108901946D01*
X117238909Y-108952742D01*
X117171088Y-108969536D01*
X117104953Y-108946998D01*
X117065916Y-108901946D01*
X117061450Y-108893182D01*
X116936509Y-108721213D01*
X116786186Y-108570890D01*
X116614220Y-108445951D01*
X116424814Y-108349444D01*
X116424813Y-108349443D01*
X116424812Y-108349443D01*
X116222643Y-108283754D01*
X116222641Y-108283753D01*
X116222640Y-108283753D01*
X116061357Y-108258208D01*
X116012687Y-108250500D01*
X115800113Y-108250500D01*
X115751442Y-108258208D01*
X115590160Y-108283753D01*
X115387985Y-108349444D01*
X115198579Y-108445951D01*
X115026613Y-108570890D01*
X114876290Y-108721213D01*
X114751349Y-108893182D01*
X114746884Y-108901946D01*
X114698909Y-108952742D01*
X114631088Y-108969536D01*
X114564953Y-108946998D01*
X114525916Y-108901946D01*
X114521450Y-108893182D01*
X114396509Y-108721213D01*
X114246186Y-108570890D01*
X114074220Y-108445951D01*
X113884814Y-108349444D01*
X113884813Y-108349443D01*
X113884812Y-108349443D01*
X113682643Y-108283754D01*
X113682641Y-108283753D01*
X113682640Y-108283753D01*
X113521357Y-108258208D01*
X113472687Y-108250500D01*
X113260113Y-108250500D01*
X113211442Y-108258208D01*
X113050160Y-108283753D01*
X112847985Y-108349444D01*
X112658579Y-108445951D01*
X112486615Y-108570889D01*
X112373073Y-108684431D01*
X112311750Y-108717915D01*
X112242058Y-108712931D01*
X112186125Y-108671059D01*
X112169210Y-108640082D01*
X112120197Y-108508671D01*
X112120193Y-108508664D01*
X112033947Y-108393455D01*
X112033944Y-108393452D01*
X111918735Y-108307206D01*
X111918728Y-108307202D01*
X111783882Y-108256908D01*
X111783883Y-108256908D01*
X111724283Y-108250501D01*
X111724281Y-108250500D01*
X111724273Y-108250500D01*
X111724264Y-108250500D01*
X109928529Y-108250500D01*
X109928523Y-108250501D01*
X109868916Y-108256908D01*
X109734071Y-108307202D01*
X109734064Y-108307206D01*
X109618855Y-108393452D01*
X109618852Y-108393455D01*
X109532606Y-108508664D01*
X109532602Y-108508671D01*
X109482308Y-108643517D01*
X109475901Y-108703116D01*
X109475900Y-108703135D01*
X109475900Y-110498870D01*
X109475901Y-110498876D01*
X109482308Y-110558483D01*
X109532602Y-110693328D01*
X109532606Y-110693335D01*
X109618852Y-110808544D01*
X109618855Y-110808547D01*
X109734064Y-110894793D01*
X109734071Y-110894797D01*
X109868917Y-110945091D01*
X109868916Y-110945091D01*
X109875844Y-110945835D01*
X109928527Y-110951500D01*
X111724272Y-110951499D01*
X111783883Y-110945091D01*
X111918731Y-110894796D01*
X112033946Y-110808546D01*
X112120196Y-110693331D01*
X112169210Y-110561916D01*
X112211081Y-110505984D01*
X112276545Y-110481566D01*
X112344818Y-110496417D01*
X112373073Y-110517569D01*
X112486613Y-110631109D01*
X112658579Y-110756048D01*
X112658581Y-110756049D01*
X112658584Y-110756051D01*
X112847988Y-110852557D01*
X113050157Y-110918246D01*
X113260113Y-110951500D01*
X113260114Y-110951500D01*
X113472686Y-110951500D01*
X113472687Y-110951500D01*
X113682643Y-110918246D01*
X113884812Y-110852557D01*
X114074216Y-110756051D01*
X114160538Y-110693335D01*
X114246186Y-110631109D01*
X114246188Y-110631106D01*
X114246192Y-110631104D01*
X114396504Y-110480792D01*
X114396506Y-110480788D01*
X114396509Y-110480786D01*
X114521448Y-110308820D01*
X114521447Y-110308820D01*
X114521451Y-110308816D01*
X114525914Y-110300054D01*
X114573888Y-110249259D01*
X114641708Y-110232463D01*
X114707844Y-110254999D01*
X114746886Y-110300056D01*
X114751351Y-110308820D01*
X114876290Y-110480786D01*
X115026613Y-110631109D01*
X115198579Y-110756048D01*
X115198581Y-110756049D01*
X115198584Y-110756051D01*
X115387988Y-110852557D01*
X115590157Y-110918246D01*
X115800113Y-110951500D01*
X115800114Y-110951500D01*
X116012686Y-110951500D01*
X116012687Y-110951500D01*
X116222643Y-110918246D01*
X116424812Y-110852557D01*
X116614216Y-110756051D01*
X116700538Y-110693335D01*
X116786186Y-110631109D01*
X116786188Y-110631106D01*
X116786192Y-110631104D01*
X116936504Y-110480792D01*
X116936506Y-110480788D01*
X116936509Y-110480786D01*
X117061448Y-110308820D01*
X117061447Y-110308820D01*
X117061451Y-110308816D01*
X117065914Y-110300054D01*
X117113888Y-110249259D01*
X117181708Y-110232463D01*
X117247844Y-110254999D01*
X117286886Y-110300056D01*
X117291351Y-110308820D01*
X117416290Y-110480786D01*
X117566613Y-110631109D01*
X117738579Y-110756048D01*
X117738581Y-110756049D01*
X117738584Y-110756051D01*
X117927988Y-110852557D01*
X118130157Y-110918246D01*
X118340113Y-110951500D01*
X118340114Y-110951500D01*
X118552686Y-110951500D01*
X118552687Y-110951500D01*
X118762643Y-110918246D01*
X118964812Y-110852557D01*
X119154216Y-110756051D01*
X119240538Y-110693335D01*
X119326186Y-110631109D01*
X119326188Y-110631106D01*
X119326192Y-110631104D01*
X119476504Y-110480792D01*
X119476506Y-110480788D01*
X119476509Y-110480786D01*
X119601448Y-110308820D01*
X119601447Y-110308820D01*
X119601451Y-110308816D01*
X119605914Y-110300054D01*
X119653888Y-110249259D01*
X119721708Y-110232463D01*
X119787844Y-110254999D01*
X119826886Y-110300056D01*
X119831351Y-110308820D01*
X119956290Y-110480786D01*
X120106613Y-110631109D01*
X120278579Y-110756048D01*
X120278581Y-110756049D01*
X120278584Y-110756051D01*
X120467988Y-110852557D01*
X120670157Y-110918246D01*
X120880113Y-110951500D01*
X120880114Y-110951500D01*
X121092686Y-110951500D01*
X121092687Y-110951500D01*
X121302643Y-110918246D01*
X121504812Y-110852557D01*
X121694216Y-110756051D01*
X121780538Y-110693335D01*
X121866186Y-110631109D01*
X121866188Y-110631106D01*
X121866192Y-110631104D01*
X122016504Y-110480792D01*
X122016506Y-110480788D01*
X122016509Y-110480786D01*
X122141448Y-110308820D01*
X122141447Y-110308820D01*
X122141451Y-110308816D01*
X122145914Y-110300054D01*
X122193888Y-110249259D01*
X122261708Y-110232463D01*
X122327844Y-110254999D01*
X122366886Y-110300056D01*
X122371351Y-110308820D01*
X122496290Y-110480786D01*
X122646613Y-110631109D01*
X122818579Y-110756048D01*
X122818581Y-110756049D01*
X122818584Y-110756051D01*
X123007988Y-110852557D01*
X123210157Y-110918246D01*
X123420113Y-110951500D01*
X123420114Y-110951500D01*
X123632686Y-110951500D01*
X123632687Y-110951500D01*
X123842643Y-110918246D01*
X124044812Y-110852557D01*
X124234216Y-110756051D01*
X124320538Y-110693335D01*
X124406186Y-110631109D01*
X124406188Y-110631106D01*
X124406192Y-110631104D01*
X124556504Y-110480792D01*
X124556506Y-110480788D01*
X124556509Y-110480786D01*
X124681448Y-110308820D01*
X124681447Y-110308820D01*
X124681451Y-110308816D01*
X124685914Y-110300054D01*
X124733888Y-110249259D01*
X124801708Y-110232463D01*
X124867844Y-110254999D01*
X124906886Y-110300056D01*
X124911351Y-110308820D01*
X125036290Y-110480786D01*
X125186613Y-110631109D01*
X125358579Y-110756048D01*
X125358581Y-110756049D01*
X125358584Y-110756051D01*
X125547988Y-110852557D01*
X125750157Y-110918246D01*
X125960113Y-110951500D01*
X125960114Y-110951500D01*
X126172686Y-110951500D01*
X126172687Y-110951500D01*
X126382643Y-110918246D01*
X126584812Y-110852557D01*
X126774216Y-110756051D01*
X126860538Y-110693335D01*
X126946186Y-110631109D01*
X126946188Y-110631106D01*
X126946192Y-110631104D01*
X127096504Y-110480792D01*
X127096506Y-110480788D01*
X127096509Y-110480786D01*
X127221448Y-110308820D01*
X127221447Y-110308820D01*
X127221451Y-110308816D01*
X127225914Y-110300054D01*
X127273888Y-110249259D01*
X127341708Y-110232463D01*
X127407844Y-110254999D01*
X127446886Y-110300056D01*
X127451351Y-110308820D01*
X127576290Y-110480786D01*
X127726613Y-110631109D01*
X127898579Y-110756048D01*
X127898581Y-110756049D01*
X127898584Y-110756051D01*
X128087988Y-110852557D01*
X128290157Y-110918246D01*
X128500113Y-110951500D01*
X128500114Y-110951500D01*
X128712686Y-110951500D01*
X128712687Y-110951500D01*
X128922643Y-110918246D01*
X129124812Y-110852557D01*
X129314216Y-110756051D01*
X129400538Y-110693335D01*
X129486186Y-110631109D01*
X129486188Y-110631106D01*
X129486192Y-110631104D01*
X129636504Y-110480792D01*
X129636506Y-110480788D01*
X129636509Y-110480786D01*
X129761448Y-110308820D01*
X129761447Y-110308820D01*
X129761451Y-110308816D01*
X129765914Y-110300054D01*
X129813888Y-110249259D01*
X129881708Y-110232463D01*
X129947844Y-110254999D01*
X129986886Y-110300056D01*
X129991351Y-110308820D01*
X130116290Y-110480786D01*
X130266613Y-110631109D01*
X130438579Y-110756048D01*
X130438581Y-110756049D01*
X130438584Y-110756051D01*
X130627988Y-110852557D01*
X130830157Y-110918246D01*
X131040113Y-110951500D01*
X131040114Y-110951500D01*
X131252686Y-110951500D01*
X131252687Y-110951500D01*
X131462643Y-110918246D01*
X131664812Y-110852557D01*
X131854216Y-110756051D01*
X131940538Y-110693335D01*
X132026186Y-110631109D01*
X132026188Y-110631106D01*
X132026192Y-110631104D01*
X132176504Y-110480792D01*
X132176506Y-110480788D01*
X132176509Y-110480786D01*
X132301448Y-110308820D01*
X132301447Y-110308820D01*
X132301451Y-110308816D01*
X132397957Y-110119412D01*
X132463646Y-109917243D01*
X132496900Y-109707287D01*
X132496900Y-109494713D01*
X132463646Y-109284757D01*
X132397957Y-109082588D01*
X132301451Y-108893184D01*
X132301449Y-108893181D01*
X132301448Y-108893179D01*
X132176509Y-108721213D01*
X132026186Y-108570890D01*
X131854220Y-108445951D01*
X131664814Y-108349444D01*
X131664813Y-108349443D01*
X131664812Y-108349443D01*
X131462643Y-108283754D01*
X131462641Y-108283753D01*
X131462640Y-108283753D01*
X131301357Y-108258208D01*
X131252687Y-108250500D01*
X131040113Y-108250500D01*
X130991442Y-108258208D01*
X130830160Y-108283753D01*
X130627985Y-108349444D01*
X130438579Y-108445951D01*
X130266613Y-108570890D01*
X130116290Y-108721213D01*
X129991349Y-108893182D01*
X129986884Y-108901946D01*
X129938909Y-108952742D01*
X129871088Y-108969536D01*
X129804953Y-108946998D01*
X129765916Y-108901946D01*
X129761450Y-108893182D01*
X129636509Y-108721213D01*
X129486186Y-108570890D01*
X129314220Y-108445951D01*
X129124814Y-108349444D01*
X129124813Y-108349443D01*
X129124812Y-108349443D01*
X128922643Y-108283754D01*
X128922641Y-108283753D01*
X128922640Y-108283753D01*
X128761357Y-108258208D01*
X128712687Y-108250500D01*
X128500113Y-108250500D01*
X128451442Y-108258208D01*
X128290160Y-108283753D01*
X128087985Y-108349444D01*
X127898579Y-108445951D01*
X127726613Y-108570890D01*
X127576290Y-108721213D01*
X127451349Y-108893182D01*
X127446884Y-108901946D01*
X127398909Y-108952742D01*
X127331088Y-108969536D01*
X127264953Y-108946998D01*
X127225916Y-108901946D01*
X127221450Y-108893182D01*
X127096509Y-108721213D01*
X127047946Y-108672650D01*
X127014461Y-108611327D01*
X127019445Y-108541635D01*
X127047946Y-108497288D01*
X127294734Y-108250500D01*
X127587106Y-107958128D01*
X127587111Y-107958124D01*
X127597314Y-107947920D01*
X127597316Y-107947920D01*
X127709120Y-107836116D01*
X127760980Y-107746291D01*
X127788177Y-107699185D01*
X127829101Y-107546457D01*
X127829101Y-107388343D01*
X127829101Y-107380748D01*
X127829100Y-107380730D01*
X127829100Y-98751698D01*
X127835338Y-98730452D01*
X127836918Y-98708365D01*
X127844990Y-98697581D01*
X127848785Y-98684659D01*
X127865516Y-98670160D01*
X127878789Y-98652431D01*
X127891411Y-98647723D01*
X127901589Y-98638904D01*
X127923504Y-98635752D01*
X127944253Y-98628014D01*
X127957414Y-98630877D01*
X127970747Y-98628960D01*
X127990891Y-98638159D01*
X128012526Y-98642866D01*
X128030251Y-98656134D01*
X128034303Y-98657985D01*
X128040781Y-98664016D01*
X128043478Y-98666713D01*
X128043480Y-98666716D01*
X128155284Y-98778520D01*
X128155286Y-98778521D01*
X128162356Y-98785591D01*
X132713181Y-103336416D01*
X132746666Y-103397739D01*
X132749500Y-103424097D01*
X132749500Y-119841902D01*
X132729815Y-119908941D01*
X132713181Y-119929583D01*
X126011481Y-126631282D01*
X126011479Y-126631284D01*
X125990185Y-126668167D01*
X125981185Y-126683757D01*
X125932423Y-126768215D01*
X125891499Y-126920943D01*
X125891499Y-126920945D01*
X125891499Y-127089046D01*
X125891500Y-127089059D01*
X125891500Y-133278164D01*
X125871815Y-133345203D01*
X125823796Y-133388648D01*
X125757976Y-133422185D01*
X125579641Y-133551752D01*
X125579636Y-133551756D01*
X125423756Y-133707636D01*
X125322008Y-133847681D01*
X125266678Y-133890346D01*
X125197065Y-133896325D01*
X125135270Y-133863719D01*
X125121371Y-133847680D01*
X125103066Y-133822485D01*
X125103065Y-133822485D01*
X124434962Y-134490589D01*
X124417925Y-134427007D01*
X124352099Y-134312993D01*
X124259007Y-134219901D01*
X124144993Y-134154075D01*
X124081407Y-134137037D01*
X124749513Y-133468932D01*
X124685756Y-133422611D01*
X124489410Y-133322567D01*
X124279835Y-133254473D01*
X124062181Y-133220000D01*
X123841819Y-133220000D01*
X123624164Y-133254473D01*
X123414589Y-133322567D01*
X123218233Y-133422616D01*
X123154485Y-133468931D01*
X123154485Y-133468932D01*
X123822590Y-134137037D01*
X123759007Y-134154075D01*
X123644993Y-134219901D01*
X123551901Y-134312993D01*
X123486075Y-134427007D01*
X123469037Y-134490590D01*
X122848818Y-133870371D01*
X122815333Y-133809048D01*
X122812499Y-133782690D01*
X122812499Y-133672129D01*
X122812498Y-133672123D01*
X122812497Y-133672116D01*
X122806091Y-133612517D01*
X122755796Y-133477669D01*
X122755795Y-133477668D01*
X122755793Y-133477664D01*
X122669547Y-133362455D01*
X122669544Y-133362452D01*
X122554335Y-133276206D01*
X122554328Y-133276202D01*
X122419482Y-133225908D01*
X122419483Y-133225908D01*
X122359883Y-133219501D01*
X122359881Y-133219500D01*
X122359873Y-133219500D01*
X122359864Y-133219500D01*
X120464129Y-133219500D01*
X120464123Y-133219501D01*
X120404516Y-133225908D01*
X120269671Y-133276202D01*
X120269664Y-133276206D01*
X120154455Y-133362452D01*
X120154452Y-133362455D01*
X120068206Y-133477664D01*
X120068202Y-133477671D01*
X120017908Y-133612517D01*
X120011501Y-133672116D01*
X120011501Y-133672123D01*
X120011500Y-133672135D01*
X120011500Y-135567870D01*
X120011501Y-135567876D01*
X120017908Y-135627483D01*
X120068202Y-135762328D01*
X120068206Y-135762335D01*
X120154452Y-135877544D01*
X120154455Y-135877547D01*
X120269664Y-135963793D01*
X120269671Y-135963797D01*
X120404517Y-136014091D01*
X120404516Y-136014091D01*
X120411444Y-136014835D01*
X120464127Y-136020500D01*
X122359872Y-136020499D01*
X122419483Y-136014091D01*
X122554331Y-135963796D01*
X122669546Y-135877546D01*
X122755796Y-135762331D01*
X122763629Y-135741328D01*
X122786327Y-135680474D01*
X122797654Y-135650104D01*
X122806091Y-135627483D01*
X122812500Y-135567873D01*
X122812499Y-135457304D01*
X122832183Y-135390268D01*
X122848818Y-135369626D01*
X123469037Y-134749408D01*
X123486075Y-134812993D01*
X123551901Y-134927007D01*
X123644993Y-135020099D01*
X123759007Y-135085925D01*
X123822590Y-135102962D01*
X123154485Y-135771065D01*
X123154485Y-135771066D01*
X123218243Y-135817388D01*
X123414589Y-135917432D01*
X123624164Y-135985526D01*
X123841819Y-136020000D01*
X124062181Y-136020000D01*
X124279835Y-135985526D01*
X124489410Y-135917432D01*
X124685760Y-135817386D01*
X124749513Y-135771066D01*
X124749514Y-135771066D01*
X124081409Y-135102962D01*
X124144993Y-135085925D01*
X124259007Y-135020099D01*
X124352099Y-134927007D01*
X124417925Y-134812993D01*
X124434962Y-134749410D01*
X125103066Y-135417514D01*
X125103066Y-135417513D01*
X125121372Y-135392319D01*
X125176701Y-135349653D01*
X125246315Y-135343674D01*
X125308110Y-135376279D01*
X125322008Y-135392319D01*
X125423752Y-135532358D01*
X125423756Y-135532363D01*
X125579636Y-135688243D01*
X125579641Y-135688247D01*
X125681606Y-135762328D01*
X125757978Y-135817815D01*
X125886375Y-135883237D01*
X125954393Y-135917895D01*
X125954396Y-135917896D01*
X126013951Y-135937246D01*
X126164049Y-135986015D01*
X126381778Y-136020500D01*
X126381779Y-136020500D01*
X126602221Y-136020500D01*
X126602222Y-136020500D01*
X126819951Y-135986015D01*
X127029606Y-135917895D01*
X127226022Y-135817815D01*
X127404365Y-135688242D01*
X127560242Y-135532365D01*
X127643686Y-135417514D01*
X127661682Y-135392745D01*
X127717011Y-135350079D01*
X127786625Y-135344100D01*
X127848420Y-135376705D01*
X127862318Y-135392745D01*
X127963752Y-135532358D01*
X127963756Y-135532363D01*
X128119636Y-135688243D01*
X128119641Y-135688247D01*
X128221606Y-135762328D01*
X128297978Y-135817815D01*
X128426375Y-135883237D01*
X128494393Y-135917895D01*
X128494396Y-135917896D01*
X128553951Y-135937246D01*
X128704049Y-135986015D01*
X128921778Y-136020500D01*
X128921779Y-136020500D01*
X129142221Y-136020500D01*
X129142222Y-136020500D01*
X129359951Y-135986015D01*
X129569606Y-135917895D01*
X129766022Y-135817815D01*
X129944365Y-135688242D01*
X130100242Y-135532365D01*
X130183686Y-135417514D01*
X130201682Y-135392745D01*
X130257011Y-135350079D01*
X130326625Y-135344100D01*
X130388420Y-135376705D01*
X130402318Y-135392745D01*
X130503752Y-135532358D01*
X130503756Y-135532363D01*
X130659636Y-135688243D01*
X130659641Y-135688247D01*
X130761606Y-135762328D01*
X130837978Y-135817815D01*
X130966375Y-135883237D01*
X131034393Y-135917895D01*
X131034396Y-135917896D01*
X131093951Y-135937246D01*
X131244049Y-135986015D01*
X131461778Y-136020500D01*
X131461779Y-136020500D01*
X131682221Y-136020500D01*
X131682222Y-136020500D01*
X131899951Y-135986015D01*
X132109606Y-135917895D01*
X132306022Y-135817815D01*
X132484365Y-135688242D01*
X132640242Y-135532365D01*
X132723686Y-135417514D01*
X132741682Y-135392745D01*
X132797011Y-135350079D01*
X132866625Y-135344100D01*
X132928420Y-135376705D01*
X132942318Y-135392745D01*
X133043752Y-135532358D01*
X133043756Y-135532363D01*
X133199636Y-135688243D01*
X133199641Y-135688247D01*
X133301606Y-135762328D01*
X133377978Y-135817815D01*
X133506375Y-135883237D01*
X133574393Y-135917895D01*
X133574396Y-135917896D01*
X133633951Y-135937246D01*
X133784049Y-135986015D01*
X134001778Y-136020500D01*
X134001779Y-136020500D01*
X134222221Y-136020500D01*
X134222222Y-136020500D01*
X134439951Y-135986015D01*
X134649606Y-135917895D01*
X134846022Y-135817815D01*
X135024365Y-135688242D01*
X135180242Y-135532365D01*
X135180244Y-135532361D01*
X135180247Y-135532359D01*
X135291121Y-135379753D01*
X135298656Y-135369381D01*
X135309815Y-135354022D01*
X135409895Y-135157606D01*
X135478015Y-134947951D01*
X135512500Y-134730222D01*
X135512500Y-134509778D01*
X135480249Y-134306155D01*
X157858000Y-134306155D01*
X157858000Y-135004000D01*
X158824988Y-135004000D01*
X158792075Y-135061007D01*
X158758000Y-135188174D01*
X158758000Y-135319826D01*
X158792075Y-135446993D01*
X158824988Y-135504000D01*
X157858000Y-135504000D01*
X157858000Y-136201844D01*
X157864401Y-136261372D01*
X157864403Y-136261379D01*
X157914645Y-136396086D01*
X157914649Y-136396093D01*
X158000809Y-136511187D01*
X158000812Y-136511190D01*
X158115906Y-136597350D01*
X158115913Y-136597354D01*
X158250620Y-136647596D01*
X158250627Y-136647598D01*
X158310155Y-136653999D01*
X158310172Y-136654000D01*
X159008000Y-136654000D01*
X159008000Y-135687012D01*
X159065007Y-135719925D01*
X159192174Y-135754000D01*
X159323826Y-135754000D01*
X159450993Y-135719925D01*
X159508000Y-135687012D01*
X159508000Y-136654000D01*
X160205828Y-136654000D01*
X160205844Y-136653999D01*
X160265372Y-136647598D01*
X160265379Y-136647596D01*
X160400086Y-136597354D01*
X160400093Y-136597350D01*
X160515187Y-136511190D01*
X160515190Y-136511187D01*
X160601350Y-136396093D01*
X160601354Y-136396086D01*
X160651596Y-136261379D01*
X160651598Y-136261372D01*
X160657999Y-136201844D01*
X160658000Y-136201827D01*
X160658000Y-135504000D01*
X159691012Y-135504000D01*
X159723925Y-135446993D01*
X159758000Y-135319826D01*
X159758000Y-135188174D01*
X159723925Y-135061007D01*
X159691012Y-135004000D01*
X160658000Y-135004000D01*
X160658000Y-134306172D01*
X160657999Y-134306155D01*
X160651598Y-134246627D01*
X160651596Y-134246620D01*
X160601354Y-134111913D01*
X160601350Y-134111906D01*
X160515190Y-133996812D01*
X160515187Y-133996809D01*
X160400093Y-133910649D01*
X160400086Y-133910645D01*
X160265379Y-133860403D01*
X160265372Y-133860401D01*
X160205844Y-133854000D01*
X159508000Y-133854000D01*
X159508000Y-134820988D01*
X159450993Y-134788075D01*
X159323826Y-134754000D01*
X159192174Y-134754000D01*
X159065007Y-134788075D01*
X159008000Y-134820988D01*
X159008000Y-133854000D01*
X158310155Y-133854000D01*
X158250627Y-133860401D01*
X158250620Y-133860403D01*
X158115913Y-133910645D01*
X158115906Y-133910649D01*
X158000812Y-133996809D01*
X158000809Y-133996812D01*
X157914649Y-134111906D01*
X157914645Y-134111913D01*
X157864403Y-134246620D01*
X157864401Y-134246627D01*
X157858000Y-134306155D01*
X135480249Y-134306155D01*
X135478015Y-134292049D01*
X135463257Y-134246627D01*
X135409896Y-134082396D01*
X135409895Y-134082393D01*
X135363418Y-133991179D01*
X135309815Y-133885978D01*
X135263685Y-133822485D01*
X135180247Y-133707641D01*
X135180243Y-133707636D01*
X135024363Y-133551756D01*
X135024358Y-133551752D01*
X134846025Y-133422187D01*
X134846024Y-133422186D01*
X134846022Y-133422185D01*
X134780203Y-133388648D01*
X134649606Y-133322104D01*
X134649603Y-133322103D01*
X134439952Y-133253985D01*
X134331086Y-133236742D01*
X134222222Y-133219500D01*
X134001778Y-133219500D01*
X133929201Y-133230995D01*
X133784047Y-133253985D01*
X133574396Y-133322103D01*
X133574393Y-133322104D01*
X133377974Y-133422187D01*
X133199641Y-133551752D01*
X133199636Y-133551756D01*
X133043756Y-133707636D01*
X133043752Y-133707641D01*
X132942318Y-133847254D01*
X132886988Y-133889920D01*
X132817375Y-133895899D01*
X132755580Y-133863293D01*
X132741682Y-133847254D01*
X132640247Y-133707641D01*
X132640243Y-133707636D01*
X132484363Y-133551756D01*
X132484358Y-133551752D01*
X132306025Y-133422187D01*
X132306024Y-133422186D01*
X132306022Y-133422185D01*
X132240203Y-133388648D01*
X132109606Y-133322104D01*
X132109603Y-133322103D01*
X131899952Y-133253985D01*
X131791086Y-133236742D01*
X131682222Y-133219500D01*
X131461778Y-133219500D01*
X131389201Y-133230995D01*
X131244047Y-133253985D01*
X131034396Y-133322103D01*
X131034393Y-133322104D01*
X130837974Y-133422187D01*
X130659641Y-133551752D01*
X130659636Y-133551756D01*
X130503756Y-133707636D01*
X130503752Y-133707641D01*
X130402318Y-133847254D01*
X130346988Y-133889920D01*
X130277375Y-133895899D01*
X130215580Y-133863293D01*
X130201682Y-133847254D01*
X130100247Y-133707641D01*
X130100243Y-133707636D01*
X129944363Y-133551756D01*
X129944358Y-133551752D01*
X129766023Y-133422185D01*
X129700204Y-133388648D01*
X129649409Y-133340674D01*
X129632500Y-133278164D01*
X129632500Y-128062096D01*
X129652185Y-127995057D01*
X129668814Y-127974420D01*
X135994506Y-121648727D01*
X135994511Y-121648724D01*
X136004714Y-121638520D01*
X136004716Y-121638520D01*
X136116520Y-121526716D01*
X136195577Y-121389784D01*
X136236500Y-121237057D01*
X136236500Y-118178135D01*
X140839500Y-118178135D01*
X140839500Y-120073870D01*
X140839501Y-120073876D01*
X140845908Y-120133483D01*
X140896202Y-120268328D01*
X140896206Y-120268335D01*
X140982452Y-120383544D01*
X140982455Y-120383547D01*
X141097664Y-120469793D01*
X141097671Y-120469797D01*
X141232517Y-120520091D01*
X141232516Y-120520091D01*
X141239444Y-120520835D01*
X141292127Y-120526500D01*
X143187872Y-120526499D01*
X143247483Y-120520091D01*
X143272619Y-120510716D01*
X143362167Y-120477317D01*
X143431859Y-120472333D01*
X143493182Y-120505818D01*
X143526666Y-120567142D01*
X143529500Y-120593499D01*
X143529500Y-121452264D01*
X143509815Y-121519303D01*
X143493181Y-121539945D01*
X142302174Y-122730951D01*
X142302174Y-122730952D01*
X142302172Y-122730954D01*
X142252485Y-122799341D01*
X142186476Y-122890194D01*
X142097117Y-123065571D01*
X142097116Y-123065573D01*
X142097116Y-123065574D01*
X142040016Y-123241309D01*
X142037594Y-123248761D01*
X142036290Y-123252776D01*
X142005500Y-123447177D01*
X142005500Y-126458696D01*
X141999431Y-126497012D01*
X141938754Y-126683757D01*
X141928262Y-126750000D01*
X141905500Y-126893713D01*
X141905500Y-127106286D01*
X141936196Y-127300097D01*
X141938754Y-127316243D01*
X141989984Y-127473913D01*
X142004444Y-127518414D01*
X142100951Y-127707820D01*
X142225890Y-127879786D01*
X142376213Y-128030109D01*
X142548179Y-128155048D01*
X142548181Y-128155049D01*
X142548184Y-128155051D01*
X142737588Y-128251557D01*
X142939757Y-128317246D01*
X143149713Y-128350500D01*
X143149714Y-128350500D01*
X143362286Y-128350500D01*
X143362287Y-128350500D01*
X143572243Y-128317246D01*
X143774412Y-128251557D01*
X143963816Y-128155051D01*
X144050478Y-128092088D01*
X144135786Y-128030109D01*
X144135788Y-128030106D01*
X144135792Y-128030104D01*
X144286104Y-127879792D01*
X144286106Y-127879788D01*
X144286109Y-127879786D01*
X144411048Y-127707820D01*
X144411047Y-127707820D01*
X144411051Y-127707816D01*
X144415514Y-127699054D01*
X144463488Y-127648259D01*
X144531308Y-127631463D01*
X144597444Y-127653999D01*
X144636486Y-127699056D01*
X144640951Y-127707820D01*
X144765890Y-127879786D01*
X144916213Y-128030109D01*
X145088179Y-128155048D01*
X145088181Y-128155049D01*
X145088184Y-128155051D01*
X145277588Y-128251557D01*
X145479757Y-128317246D01*
X145689713Y-128350500D01*
X145689714Y-128350500D01*
X145902286Y-128350500D01*
X145902287Y-128350500D01*
X146112243Y-128317246D01*
X146314412Y-128251557D01*
X146503816Y-128155051D01*
X146590478Y-128092088D01*
X146675784Y-128030110D01*
X146675784Y-128030109D01*
X146675792Y-128030104D01*
X146789717Y-127916178D01*
X146851036Y-127882696D01*
X146920728Y-127887680D01*
X146976662Y-127929551D01*
X146993577Y-127960528D01*
X147042646Y-128092088D01*
X147042649Y-128092093D01*
X147128809Y-128207187D01*
X147128812Y-128207190D01*
X147243906Y-128293350D01*
X147243913Y-128293354D01*
X147378620Y-128343596D01*
X147378627Y-128343598D01*
X147438155Y-128349999D01*
X147438172Y-128350000D01*
X148086000Y-128350000D01*
X148086000Y-127433012D01*
X148143007Y-127465925D01*
X148270174Y-127500000D01*
X148401826Y-127500000D01*
X148528993Y-127465925D01*
X148586000Y-127433012D01*
X148586000Y-128350000D01*
X149233828Y-128350000D01*
X149233844Y-128349999D01*
X149293372Y-128343598D01*
X149293379Y-128343596D01*
X149428086Y-128293354D01*
X149428093Y-128293350D01*
X149543187Y-128207190D01*
X149543190Y-128207187D01*
X149629350Y-128092093D01*
X149629354Y-128092086D01*
X149679596Y-127957379D01*
X149679598Y-127957372D01*
X149685999Y-127897844D01*
X149686000Y-127897827D01*
X149686000Y-127250000D01*
X148769012Y-127250000D01*
X148801925Y-127192993D01*
X148836000Y-127065826D01*
X148836000Y-126934174D01*
X148801925Y-126807007D01*
X148769012Y-126750000D01*
X149686000Y-126750000D01*
X149686000Y-126102172D01*
X149685999Y-126102155D01*
X149679598Y-126042627D01*
X149679596Y-126042620D01*
X149629354Y-125907913D01*
X149629350Y-125907906D01*
X149543190Y-125792812D01*
X149543187Y-125792809D01*
X149428093Y-125706649D01*
X149428086Y-125706645D01*
X149293379Y-125656403D01*
X149293372Y-125656401D01*
X149233844Y-125650000D01*
X148586000Y-125650000D01*
X148586000Y-126566988D01*
X148528993Y-126534075D01*
X148401826Y-126500000D01*
X148270174Y-126500000D01*
X148143007Y-126534075D01*
X148086000Y-126566988D01*
X148086000Y-125650000D01*
X147438155Y-125650000D01*
X147378627Y-125656401D01*
X147378620Y-125656403D01*
X147243913Y-125706645D01*
X147243906Y-125706649D01*
X147128812Y-125792809D01*
X147128809Y-125792812D01*
X147042649Y-125907906D01*
X147042646Y-125907912D01*
X146993577Y-126039471D01*
X146951705Y-126095404D01*
X146886241Y-126119821D01*
X146817968Y-126104969D01*
X146789714Y-126083818D01*
X146675786Y-125969890D01*
X146503820Y-125844951D01*
X146314414Y-125748444D01*
X146314413Y-125748443D01*
X146314412Y-125748443D01*
X146112243Y-125682754D01*
X146112241Y-125682753D01*
X146112240Y-125682753D01*
X145950957Y-125657208D01*
X145902287Y-125649500D01*
X145689713Y-125649500D01*
X145641042Y-125657208D01*
X145479760Y-125682753D01*
X145277585Y-125748444D01*
X145088179Y-125844951D01*
X144916213Y-125969890D01*
X144765894Y-126120209D01*
X144730818Y-126168488D01*
X144675488Y-126211153D01*
X144605874Y-126217132D01*
X144544079Y-126184526D01*
X144509722Y-126123687D01*
X144506500Y-126095602D01*
X144506500Y-124114936D01*
X144526185Y-124047897D01*
X144542819Y-124027255D01*
X145122897Y-123447177D01*
X145733828Y-122836246D01*
X145849524Y-122677005D01*
X145938884Y-122501625D01*
X145999709Y-122314426D01*
X146030500Y-122120022D01*
X146030500Y-120046761D01*
X146050185Y-119979722D01*
X146102989Y-119933967D01*
X146164231Y-119923143D01*
X146168932Y-119923513D01*
X146837037Y-119255408D01*
X146854075Y-119318993D01*
X146919901Y-119433007D01*
X147012993Y-119526099D01*
X147127007Y-119591925D01*
X147190590Y-119608962D01*
X146522485Y-120277065D01*
X146522485Y-120277066D01*
X146586243Y-120323388D01*
X146782589Y-120423432D01*
X146992164Y-120491526D01*
X147209819Y-120526000D01*
X147430181Y-120526000D01*
X147647835Y-120491526D01*
X147857410Y-120423432D01*
X148053760Y-120323386D01*
X148117513Y-120277066D01*
X148117514Y-120277066D01*
X147449409Y-119608962D01*
X147512993Y-119591925D01*
X147627007Y-119526099D01*
X147720099Y-119433007D01*
X147785925Y-119318993D01*
X147802962Y-119255410D01*
X148471066Y-119923514D01*
X148471066Y-119923513D01*
X148489372Y-119898319D01*
X148544701Y-119855653D01*
X148614315Y-119849674D01*
X148676110Y-119882279D01*
X148690008Y-119898319D01*
X148791752Y-120038358D01*
X148791756Y-120038363D01*
X148947636Y-120194243D01*
X148947641Y-120194247D01*
X149049606Y-120268328D01*
X149125978Y-120323815D01*
X149254375Y-120389237D01*
X149322393Y-120423895D01*
X149322396Y-120423896D01*
X149427221Y-120457955D01*
X149532049Y-120492015D01*
X149749778Y-120526500D01*
X149749779Y-120526500D01*
X149970221Y-120526500D01*
X149970222Y-120526500D01*
X150187951Y-120492015D01*
X150397606Y-120423895D01*
X150594022Y-120323815D01*
X150772365Y-120194242D01*
X150928242Y-120038365D01*
X151057815Y-119860022D01*
X151157895Y-119663606D01*
X151226015Y-119453951D01*
X151260500Y-119236222D01*
X151260500Y-119015778D01*
X151226015Y-118798049D01*
X151157895Y-118588394D01*
X151157895Y-118588393D01*
X151110500Y-118495377D01*
X151057815Y-118391978D01*
X151011684Y-118328484D01*
X150928247Y-118213641D01*
X150928243Y-118213636D01*
X150772363Y-118057756D01*
X150772358Y-118057752D01*
X150594025Y-117928187D01*
X150594024Y-117928186D01*
X150594022Y-117928185D01*
X150476791Y-117868452D01*
X150397606Y-117828104D01*
X150397603Y-117828103D01*
X150187952Y-117759985D01*
X150079086Y-117742742D01*
X149970222Y-117725500D01*
X149749778Y-117725500D01*
X149677201Y-117736995D01*
X149532047Y-117759985D01*
X149322396Y-117828103D01*
X149322393Y-117828104D01*
X149125974Y-117928187D01*
X148947641Y-118057752D01*
X148947636Y-118057756D01*
X148791756Y-118213636D01*
X148690008Y-118353681D01*
X148634678Y-118396346D01*
X148565065Y-118402325D01*
X148503270Y-118369719D01*
X148489371Y-118353680D01*
X148471066Y-118328485D01*
X148471065Y-118328485D01*
X147802962Y-118996589D01*
X147785925Y-118933007D01*
X147720099Y-118818993D01*
X147627007Y-118725901D01*
X147512993Y-118660075D01*
X147449407Y-118643037D01*
X148117513Y-117974932D01*
X148053756Y-117928611D01*
X147857410Y-117828567D01*
X147647835Y-117760473D01*
X147430181Y-117726000D01*
X147209819Y-117726000D01*
X146992164Y-117760473D01*
X146782589Y-117828567D01*
X146586233Y-117928616D01*
X146522485Y-117974931D01*
X146522485Y-117974932D01*
X147190590Y-118643037D01*
X147127007Y-118660075D01*
X147012993Y-118725901D01*
X146919901Y-118818993D01*
X146854075Y-118933007D01*
X146837037Y-118996590D01*
X146168931Y-118328484D01*
X146164229Y-118328855D01*
X146150618Y-118325995D01*
X146136853Y-118327975D01*
X146117102Y-118318955D01*
X146095851Y-118314491D01*
X146085946Y-118304726D01*
X146073297Y-118298950D01*
X146061557Y-118280682D01*
X146046095Y-118265439D01*
X146042268Y-118250668D01*
X146035523Y-118240172D01*
X146030500Y-118205237D01*
X146030500Y-117637936D01*
X146050185Y-117570897D01*
X146066819Y-117550255D01*
X155864256Y-107752819D01*
X155925579Y-107719334D01*
X155951937Y-107716500D01*
X167866678Y-107716500D01*
X167933717Y-107736185D01*
X167979472Y-107788989D01*
X167989416Y-107858147D01*
X167960391Y-107921703D01*
X167939564Y-107940817D01*
X167916738Y-107957401D01*
X167841352Y-108012173D01*
X163384174Y-112469351D01*
X163384174Y-112469352D01*
X163384172Y-112469354D01*
X163334485Y-112537741D01*
X163268476Y-112628594D01*
X163178669Y-112804851D01*
X163177608Y-112808612D01*
X163118291Y-112991169D01*
X163118291Y-112991172D01*
X163087500Y-113185577D01*
X163087500Y-133945769D01*
X163067815Y-134012808D01*
X163062767Y-134020080D01*
X162994204Y-134111668D01*
X162994202Y-134111671D01*
X162943908Y-134246517D01*
X162937755Y-134303757D01*
X162937501Y-134306123D01*
X162937500Y-134306135D01*
X162937500Y-136201870D01*
X162937501Y-136201876D01*
X162943908Y-136261483D01*
X162994202Y-136396328D01*
X162994206Y-136396335D01*
X163080452Y-136511544D01*
X163080455Y-136511547D01*
X163195664Y-136597793D01*
X163195671Y-136597797D01*
X163330517Y-136648091D01*
X163330516Y-136648091D01*
X163337444Y-136648835D01*
X163390127Y-136654500D01*
X165285872Y-136654499D01*
X165345483Y-136648091D01*
X165480331Y-136597796D01*
X165595546Y-136511546D01*
X165681796Y-136396331D01*
X165732091Y-136261483D01*
X165738500Y-136201873D01*
X165738499Y-134513713D01*
X173909500Y-134513713D01*
X173909500Y-134726287D01*
X173942754Y-134936243D01*
X173983292Y-135061007D01*
X174008444Y-135138414D01*
X174104951Y-135327820D01*
X174229890Y-135499786D01*
X174380213Y-135650109D01*
X174552179Y-135775048D01*
X174552181Y-135775049D01*
X174552184Y-135775051D01*
X174741588Y-135871557D01*
X174943757Y-135937246D01*
X175153713Y-135970500D01*
X175153714Y-135970500D01*
X175366286Y-135970500D01*
X175366287Y-135970500D01*
X175576243Y-135937246D01*
X175778412Y-135871557D01*
X175967816Y-135775051D01*
X176043691Y-135719925D01*
X176139786Y-135650109D01*
X176139788Y-135650106D01*
X176139792Y-135650104D01*
X176290104Y-135499792D01*
X176290106Y-135499788D01*
X176290109Y-135499786D01*
X176415048Y-135327820D01*
X176415047Y-135327820D01*
X176415051Y-135327816D01*
X176511557Y-135138412D01*
X176577246Y-134936243D01*
X176610500Y-134726287D01*
X176610500Y-134513713D01*
X176577246Y-134303757D01*
X176511557Y-134101588D01*
X176415051Y-133912184D01*
X176415049Y-133912181D01*
X176415048Y-133912179D01*
X176290109Y-133740213D01*
X176139786Y-133589890D01*
X175967820Y-133464951D01*
X175778414Y-133368444D01*
X175778413Y-133368443D01*
X175778412Y-133368443D01*
X175576243Y-133302754D01*
X175576241Y-133302753D01*
X175576240Y-133302753D01*
X175408601Y-133276202D01*
X175366287Y-133269500D01*
X175153713Y-133269500D01*
X175111399Y-133276202D01*
X174943760Y-133302753D01*
X174741585Y-133368444D01*
X174552179Y-133464951D01*
X174380213Y-133589890D01*
X174229890Y-133740213D01*
X174104951Y-133912179D01*
X174008444Y-134101585D01*
X173942753Y-134303760D01*
X173923233Y-134427007D01*
X173909500Y-134513713D01*
X165738499Y-134513713D01*
X165738499Y-134306128D01*
X165732091Y-134246517D01*
X165697612Y-134154075D01*
X165681797Y-134111671D01*
X165681795Y-134111668D01*
X165613233Y-134020080D01*
X165588816Y-133954615D01*
X165588500Y-133945769D01*
X165588500Y-125155713D01*
X173276500Y-125155713D01*
X173276500Y-125368287D01*
X173309754Y-125578243D01*
X173355814Y-125720001D01*
X173375444Y-125780414D01*
X173471951Y-125969820D01*
X173596890Y-126141786D01*
X173736068Y-126280964D01*
X173769553Y-126342287D01*
X173764569Y-126411979D01*
X173722697Y-126467912D01*
X173713484Y-126474183D01*
X173558659Y-126569680D01*
X173558655Y-126569683D01*
X173434684Y-126693654D01*
X173342643Y-126842875D01*
X173342641Y-126842880D01*
X173287494Y-127009302D01*
X173287493Y-127009309D01*
X173277000Y-127112013D01*
X173277000Y-127512000D01*
X174347854Y-127512000D01*
X174309370Y-127578657D01*
X174277000Y-127699465D01*
X174277000Y-127824535D01*
X174309370Y-127945343D01*
X174347854Y-128012000D01*
X173277001Y-128012000D01*
X173277001Y-128411986D01*
X173287494Y-128514697D01*
X173342641Y-128681119D01*
X173342643Y-128681124D01*
X173434684Y-128830345D01*
X173558654Y-128954315D01*
X173707875Y-129046356D01*
X173707880Y-129046358D01*
X173874302Y-129101505D01*
X173874309Y-129101506D01*
X173977019Y-129111999D01*
X174501999Y-129111999D01*
X174502000Y-129111998D01*
X174502000Y-128166145D01*
X174568657Y-128204630D01*
X174689465Y-128237000D01*
X174814535Y-128237000D01*
X174935343Y-128204630D01*
X175002000Y-128166145D01*
X175002000Y-129111999D01*
X175526972Y-129111999D01*
X175526986Y-129111998D01*
X175629697Y-129101505D01*
X175796119Y-129046358D01*
X175796124Y-129046356D01*
X175945345Y-128954315D01*
X176069315Y-128830345D01*
X176161356Y-128681124D01*
X176161358Y-128681119D01*
X176216505Y-128514697D01*
X176216506Y-128514690D01*
X176226999Y-128411986D01*
X176227000Y-128411973D01*
X176227000Y-128012000D01*
X175156146Y-128012000D01*
X175194630Y-127945343D01*
X175227000Y-127824535D01*
X175227000Y-127699465D01*
X175194630Y-127578657D01*
X175156146Y-127512000D01*
X176226999Y-127512000D01*
X176226999Y-127112028D01*
X176226998Y-127112013D01*
X176216505Y-127009302D01*
X176161358Y-126842880D01*
X176161356Y-126842875D01*
X176069315Y-126693654D01*
X175945345Y-126569684D01*
X175790515Y-126474184D01*
X175743791Y-126422236D01*
X175732568Y-126353273D01*
X175760412Y-126289191D01*
X175767909Y-126280986D01*
X175907104Y-126141792D01*
X175935890Y-126102172D01*
X176032048Y-125969820D01*
X176032047Y-125969820D01*
X176032051Y-125969816D01*
X176128557Y-125780412D01*
X176194246Y-125578243D01*
X176227500Y-125368287D01*
X176227500Y-125155713D01*
X176194246Y-124945757D01*
X176128557Y-124743588D01*
X176032051Y-124554184D01*
X176032049Y-124554181D01*
X176032048Y-124554179D01*
X175907109Y-124382213D01*
X175756786Y-124231890D01*
X175584820Y-124106951D01*
X175395414Y-124010444D01*
X175395413Y-124010443D01*
X175395412Y-124010443D01*
X175193243Y-123944754D01*
X175193241Y-123944753D01*
X175193240Y-123944753D01*
X175031957Y-123919208D01*
X174983287Y-123911500D01*
X174520713Y-123911500D01*
X174472042Y-123919208D01*
X174310760Y-123944753D01*
X174108585Y-124010444D01*
X173919179Y-124106951D01*
X173747213Y-124231890D01*
X173596890Y-124382213D01*
X173471951Y-124554179D01*
X173375444Y-124743585D01*
X173309753Y-124945760D01*
X173278324Y-125144197D01*
X173276500Y-125155713D01*
X165588500Y-125155713D01*
X165588500Y-117713983D01*
X173276500Y-117713983D01*
X173276500Y-119014001D01*
X173276501Y-119014018D01*
X173287000Y-119116796D01*
X173287001Y-119116799D01*
X173342185Y-119283331D01*
X173342187Y-119283336D01*
X173377069Y-119339888D01*
X173434288Y-119432656D01*
X173558344Y-119556712D01*
X173707666Y-119648814D01*
X173874203Y-119703999D01*
X173976991Y-119714500D01*
X175527008Y-119714499D01*
X175629797Y-119703999D01*
X175796334Y-119648814D01*
X175945656Y-119556712D01*
X176069712Y-119432656D01*
X176161814Y-119283334D01*
X176216999Y-119116797D01*
X176227500Y-119014009D01*
X176227499Y-117713992D01*
X176216999Y-117611203D01*
X176161814Y-117444666D01*
X176069712Y-117295344D01*
X175945656Y-117171288D01*
X175796334Y-117079186D01*
X175796332Y-117079185D01*
X175790440Y-117075551D01*
X175743716Y-117023603D01*
X175732493Y-116954641D01*
X175760337Y-116890558D01*
X175767856Y-116882330D01*
X175906728Y-116743458D01*
X176031620Y-116571557D01*
X176128095Y-116382217D01*
X176193757Y-116180129D01*
X176193757Y-116180126D01*
X176204231Y-116114000D01*
X175156146Y-116114000D01*
X175194630Y-116047343D01*
X175227000Y-115926535D01*
X175227000Y-115801465D01*
X175194630Y-115680657D01*
X175156146Y-115614000D01*
X176204231Y-115614000D01*
X176193757Y-115547873D01*
X176193757Y-115547870D01*
X176128095Y-115345782D01*
X176031620Y-115156442D01*
X175906727Y-114984540D01*
X175906723Y-114984535D01*
X175756464Y-114834276D01*
X175756459Y-114834272D01*
X175584557Y-114709379D01*
X175395217Y-114612904D01*
X175193128Y-114547242D01*
X175002000Y-114516969D01*
X175002000Y-115459854D01*
X174935343Y-115421370D01*
X174814535Y-115389000D01*
X174689465Y-115389000D01*
X174568657Y-115421370D01*
X174502000Y-115459854D01*
X174502000Y-114516969D01*
X174310872Y-114547242D01*
X174310869Y-114547242D01*
X174108782Y-114612904D01*
X173919442Y-114709379D01*
X173747540Y-114834272D01*
X173747535Y-114834276D01*
X173597276Y-114984535D01*
X173597272Y-114984540D01*
X173472379Y-115156442D01*
X173375904Y-115345782D01*
X173310242Y-115547870D01*
X173310242Y-115547873D01*
X173299769Y-115614000D01*
X174347854Y-115614000D01*
X174309370Y-115680657D01*
X174277000Y-115801465D01*
X174277000Y-115926535D01*
X174309370Y-116047343D01*
X174347854Y-116114000D01*
X173299769Y-116114000D01*
X173310242Y-116180126D01*
X173310242Y-116180129D01*
X173375904Y-116382217D01*
X173472379Y-116571557D01*
X173597272Y-116743459D01*
X173597276Y-116743464D01*
X173736143Y-116882331D01*
X173769628Y-116943654D01*
X173764644Y-117013346D01*
X173722772Y-117069279D01*
X173713559Y-117075551D01*
X173558342Y-117171289D01*
X173434289Y-117295342D01*
X173342187Y-117444663D01*
X173342186Y-117444666D01*
X173287001Y-117611203D01*
X173287001Y-117611204D01*
X173287000Y-117611204D01*
X173276500Y-117713983D01*
X165588500Y-117713983D01*
X165588500Y-113853336D01*
X165608185Y-113786297D01*
X165624819Y-113765655D01*
X169137655Y-110252819D01*
X169198978Y-110219334D01*
X169225336Y-110216500D01*
X173616868Y-110216500D01*
X173681963Y-110234960D01*
X173707666Y-110250814D01*
X173874203Y-110305999D01*
X173976991Y-110316500D01*
X175527008Y-110316499D01*
X175629797Y-110305999D01*
X175796334Y-110250814D01*
X175945656Y-110158712D01*
X176069712Y-110034656D01*
X176161814Y-109885334D01*
X176216999Y-109718797D01*
X176227500Y-109616009D01*
X176227499Y-108315992D01*
X176221869Y-108260882D01*
X176216999Y-108213203D01*
X176216998Y-108213200D01*
X176161814Y-108046666D01*
X176069712Y-107897344D01*
X175945656Y-107773288D01*
X175796334Y-107681186D01*
X175796333Y-107681185D01*
X175790878Y-107677821D01*
X175744154Y-107625873D01*
X175732931Y-107556910D01*
X175760775Y-107492828D01*
X175768272Y-107484623D01*
X175907104Y-107345792D01*
X176032051Y-107173816D01*
X176128557Y-106984412D01*
X176194246Y-106782243D01*
X176227500Y-106572287D01*
X176227500Y-106359713D01*
X176194246Y-106149757D01*
X176128557Y-105947588D01*
X176032051Y-105758184D01*
X176032049Y-105758181D01*
X176032048Y-105758179D01*
X175907109Y-105586213D01*
X175756786Y-105435890D01*
X175584820Y-105310951D01*
X175395414Y-105214444D01*
X175395413Y-105214443D01*
X175395412Y-105214443D01*
X175193243Y-105148754D01*
X175193241Y-105148753D01*
X175193240Y-105148753D01*
X175031957Y-105123208D01*
X174983287Y-105115500D01*
X174520713Y-105115500D01*
X174481202Y-105121757D01*
X174310759Y-105148753D01*
X174124012Y-105209431D01*
X174085694Y-105215500D01*
X155284178Y-105215500D01*
X155089773Y-105246290D01*
X154902569Y-105307117D01*
X154727191Y-105396478D01*
X154567960Y-105512165D01*
X154567955Y-105512169D01*
X143826174Y-116253951D01*
X143826172Y-116253954D01*
X143776485Y-116322341D01*
X143710476Y-116413194D01*
X143620669Y-116589451D01*
X143619608Y-116593212D01*
X143560291Y-116775769D01*
X143560291Y-116775772D01*
X143529500Y-116970177D01*
X143529500Y-117658500D01*
X143509815Y-117725539D01*
X143457011Y-117771294D01*
X143387853Y-117781238D01*
X143362168Y-117774682D01*
X143247485Y-117731909D01*
X143247483Y-117731908D01*
X143187883Y-117725501D01*
X143187881Y-117725500D01*
X143187873Y-117725500D01*
X143187864Y-117725500D01*
X141292129Y-117725500D01*
X141292123Y-117725501D01*
X141232516Y-117731908D01*
X141097671Y-117782202D01*
X141097664Y-117782206D01*
X140982455Y-117868452D01*
X140982452Y-117868455D01*
X140896206Y-117983664D01*
X140896202Y-117983671D01*
X140845908Y-118118517D01*
X140839501Y-118178116D01*
X140839500Y-118178135D01*
X136236500Y-118178135D01*
X136236500Y-102028943D01*
X136195577Y-101876216D01*
X136195573Y-101876209D01*
X136116524Y-101739290D01*
X136116521Y-101739286D01*
X136116520Y-101739284D01*
X136004716Y-101627480D01*
X136004715Y-101627479D01*
X136000385Y-101623149D01*
X136000374Y-101623139D01*
X135283370Y-100906135D01*
X152777500Y-100906135D01*
X152777500Y-102801870D01*
X152777501Y-102801876D01*
X152783908Y-102861483D01*
X152834202Y-102996328D01*
X152834206Y-102996335D01*
X152920452Y-103111544D01*
X152920455Y-103111547D01*
X153035664Y-103197793D01*
X153035671Y-103197797D01*
X153170517Y-103248091D01*
X153170516Y-103248091D01*
X153177444Y-103248835D01*
X153230127Y-103254500D01*
X155125872Y-103254499D01*
X155185483Y-103248091D01*
X155320331Y-103197796D01*
X155435546Y-103111546D01*
X155521796Y-102996331D01*
X155572091Y-102861483D01*
X155578500Y-102801873D01*
X155578499Y-101788174D01*
X155578499Y-100906155D01*
X168018000Y-100906155D01*
X168018000Y-101604000D01*
X168984988Y-101604000D01*
X168952075Y-101661007D01*
X168918000Y-101788174D01*
X168918000Y-101919826D01*
X168952075Y-102046993D01*
X168984988Y-102104000D01*
X168018000Y-102104000D01*
X168018000Y-102801844D01*
X168024401Y-102861372D01*
X168024403Y-102861379D01*
X168074645Y-102996086D01*
X168074649Y-102996093D01*
X168160809Y-103111187D01*
X168160812Y-103111190D01*
X168275906Y-103197350D01*
X168275913Y-103197354D01*
X168410620Y-103247596D01*
X168410627Y-103247598D01*
X168470155Y-103253999D01*
X168470172Y-103254000D01*
X169168000Y-103254000D01*
X169168000Y-102287012D01*
X169225007Y-102319925D01*
X169352174Y-102354000D01*
X169483826Y-102354000D01*
X169610993Y-102319925D01*
X169668000Y-102287012D01*
X169668000Y-103254000D01*
X170365828Y-103254000D01*
X170365844Y-103253999D01*
X170425372Y-103247598D01*
X170425379Y-103247596D01*
X170560086Y-103197354D01*
X170560093Y-103197350D01*
X170675187Y-103111190D01*
X170675190Y-103111187D01*
X170761350Y-102996093D01*
X170761354Y-102996086D01*
X170811596Y-102861379D01*
X170811598Y-102861372D01*
X170817999Y-102801844D01*
X170818000Y-102801827D01*
X170818000Y-102104000D01*
X169851012Y-102104000D01*
X169883925Y-102046993D01*
X169918000Y-101919826D01*
X169918000Y-101788174D01*
X169883925Y-101661007D01*
X169851012Y-101604000D01*
X170818000Y-101604000D01*
X170818000Y-100906172D01*
X170817999Y-100906155D01*
X170811598Y-100846627D01*
X170811596Y-100846620D01*
X170761354Y-100711913D01*
X170761350Y-100711906D01*
X170675190Y-100596812D01*
X170675187Y-100596809D01*
X170560093Y-100510649D01*
X170560086Y-100510645D01*
X170425379Y-100460403D01*
X170425372Y-100460401D01*
X170365844Y-100454000D01*
X169668000Y-100454000D01*
X169668000Y-101420988D01*
X169610993Y-101388075D01*
X169483826Y-101354000D01*
X169352174Y-101354000D01*
X169225007Y-101388075D01*
X169168000Y-101420988D01*
X169168000Y-100454000D01*
X168470155Y-100454000D01*
X168410627Y-100460401D01*
X168410620Y-100460403D01*
X168275913Y-100510645D01*
X168275906Y-100510649D01*
X168160812Y-100596809D01*
X168160809Y-100596812D01*
X168074649Y-100711906D01*
X168074645Y-100711913D01*
X168024403Y-100846620D01*
X168024401Y-100846627D01*
X168018000Y-100906155D01*
X155578499Y-100906155D01*
X155578499Y-100906129D01*
X155578498Y-100906123D01*
X155578497Y-100906116D01*
X155572091Y-100846517D01*
X155521884Y-100711906D01*
X155521797Y-100711671D01*
X155521793Y-100711664D01*
X155435547Y-100596455D01*
X155435544Y-100596452D01*
X155320335Y-100510206D01*
X155320328Y-100510202D01*
X155185482Y-100459908D01*
X155185483Y-100459908D01*
X155125883Y-100453501D01*
X155125881Y-100453500D01*
X155125873Y-100453500D01*
X155125864Y-100453500D01*
X153230129Y-100453500D01*
X153230123Y-100453501D01*
X153170516Y-100459908D01*
X153035671Y-100510202D01*
X153035664Y-100510206D01*
X152920455Y-100596452D01*
X152920452Y-100596455D01*
X152834206Y-100711664D01*
X152834202Y-100711671D01*
X152783908Y-100846517D01*
X152777501Y-100906116D01*
X152777501Y-100906123D01*
X152777500Y-100906135D01*
X135283370Y-100906135D01*
X131700819Y-97323584D01*
X131667334Y-97262261D01*
X131664500Y-97235903D01*
X131664500Y-96163682D01*
X165070000Y-96163682D01*
X165070000Y-96368317D01*
X165102009Y-96570417D01*
X165165244Y-96765031D01*
X165258141Y-96947350D01*
X165258147Y-96947359D01*
X165290523Y-96991921D01*
X165290524Y-96991922D01*
X165970000Y-96312446D01*
X165970000Y-96318661D01*
X165997259Y-96420394D01*
X166049920Y-96511606D01*
X166124394Y-96586080D01*
X166215606Y-96638741D01*
X166317339Y-96666000D01*
X166323553Y-96666000D01*
X165644076Y-97345474D01*
X165688650Y-97377859D01*
X165870968Y-97470755D01*
X166065582Y-97533990D01*
X166267683Y-97566000D01*
X166472317Y-97566000D01*
X166674417Y-97533990D01*
X166869031Y-97470755D01*
X167051349Y-97377859D01*
X167095921Y-97345474D01*
X166416447Y-96666000D01*
X166422661Y-96666000D01*
X166524394Y-96638741D01*
X166615606Y-96586080D01*
X166690080Y-96511606D01*
X166742741Y-96420394D01*
X166770000Y-96318661D01*
X166770000Y-96312447D01*
X167449474Y-96991921D01*
X167481859Y-96947349D01*
X167574755Y-96765031D01*
X167637990Y-96570417D01*
X167670000Y-96368317D01*
X167670000Y-96163682D01*
X167637990Y-95961582D01*
X167574755Y-95766968D01*
X167481859Y-95584650D01*
X167449474Y-95540077D01*
X167449474Y-95540076D01*
X166770000Y-96219551D01*
X166770000Y-96213339D01*
X166742741Y-96111606D01*
X166690080Y-96020394D01*
X166615606Y-95945920D01*
X166524394Y-95893259D01*
X166422661Y-95866000D01*
X166416446Y-95866000D01*
X167095922Y-95186524D01*
X167095921Y-95186523D01*
X167051359Y-95154147D01*
X167051350Y-95154141D01*
X166869031Y-95061244D01*
X166674417Y-94998009D01*
X166472317Y-94966000D01*
X166267683Y-94966000D01*
X166065582Y-94998009D01*
X165870968Y-95061244D01*
X165688644Y-95154143D01*
X165644077Y-95186523D01*
X165644077Y-95186524D01*
X166323554Y-95866000D01*
X166317339Y-95866000D01*
X166215606Y-95893259D01*
X166124394Y-95945920D01*
X166049920Y-96020394D01*
X165997259Y-96111606D01*
X165970000Y-96213339D01*
X165970000Y-96219553D01*
X165290524Y-95540077D01*
X165290523Y-95540077D01*
X165258143Y-95584644D01*
X165165244Y-95766968D01*
X165102009Y-95961582D01*
X165070000Y-96163682D01*
X131664500Y-96163682D01*
X131664500Y-95688703D01*
X131684185Y-95621664D01*
X131732206Y-95578218D01*
X131743405Y-95572512D01*
X131854216Y-95516051D01*
X131908972Y-95476269D01*
X132026186Y-95391109D01*
X132026188Y-95391106D01*
X132026192Y-95391104D01*
X132176504Y-95240792D01*
X132215932Y-95186524D01*
X132234548Y-95160901D01*
X132234550Y-95160898D01*
X132262290Y-95122717D01*
X132301451Y-95068816D01*
X132397957Y-94879412D01*
X132463646Y-94677243D01*
X132496900Y-94467287D01*
X132496900Y-94254713D01*
X132463646Y-94044757D01*
X132397957Y-93842588D01*
X132301451Y-93653184D01*
X132301449Y-93653181D01*
X132301448Y-93653179D01*
X132176509Y-93481213D01*
X132026186Y-93330890D01*
X131854215Y-93205948D01*
X131854214Y-93205947D01*
X131814605Y-93185765D01*
X131803542Y-93175316D01*
X131789697Y-93168994D01*
X131778655Y-93151812D01*
X131763809Y-93137791D01*
X131759567Y-93122111D01*
X131751923Y-93110216D01*
X131746900Y-93075281D01*
X131746900Y-92927697D01*
X131766585Y-92860658D01*
X131783219Y-92840016D01*
X132851216Y-91772019D01*
X132912539Y-91738534D01*
X132938897Y-91735700D01*
X136448872Y-91735700D01*
X136515911Y-91755385D01*
X136561666Y-91808189D01*
X136571610Y-91877347D01*
X136542585Y-91940903D01*
X136505167Y-91970184D01*
X136402587Y-92022452D01*
X136368174Y-92039987D01*
X136189841Y-92169552D01*
X136189836Y-92169556D01*
X136033956Y-92325436D01*
X136033952Y-92325441D01*
X135904387Y-92503774D01*
X135804304Y-92700193D01*
X135804303Y-92700196D01*
X135736185Y-92909847D01*
X135701700Y-93127578D01*
X135701700Y-93348021D01*
X135736185Y-93565752D01*
X135804303Y-93775403D01*
X135804304Y-93775406D01*
X135865280Y-93895075D01*
X135899329Y-93961900D01*
X135904387Y-93971825D01*
X136033952Y-94150158D01*
X136033956Y-94150163D01*
X136189836Y-94306043D01*
X136189841Y-94306047D01*
X136265480Y-94361001D01*
X136368178Y-94435615D01*
X136496575Y-94501037D01*
X136564593Y-94535695D01*
X136564596Y-94535696D01*
X136620910Y-94553993D01*
X136774249Y-94603815D01*
X136991978Y-94638300D01*
X136991979Y-94638300D01*
X137212421Y-94638300D01*
X137212422Y-94638300D01*
X137430151Y-94603815D01*
X137639806Y-94535695D01*
X137836222Y-94435615D01*
X138014565Y-94306042D01*
X138170442Y-94150165D01*
X138231229Y-94066499D01*
X138271882Y-94010545D01*
X138327211Y-93967879D01*
X138396825Y-93961900D01*
X138458620Y-93994505D01*
X138472518Y-94010545D01*
X138573952Y-94150158D01*
X138573956Y-94150163D01*
X138729836Y-94306043D01*
X138729841Y-94306047D01*
X138805480Y-94361001D01*
X138908178Y-94435615D01*
X139036575Y-94501037D01*
X139104593Y-94535695D01*
X139104596Y-94535696D01*
X139160910Y-94553993D01*
X139314249Y-94603815D01*
X139531978Y-94638300D01*
X139531979Y-94638300D01*
X139752421Y-94638300D01*
X139752422Y-94638300D01*
X139970151Y-94603815D01*
X140179806Y-94535695D01*
X140376222Y-94435615D01*
X140554565Y-94306042D01*
X140710442Y-94150165D01*
X140771229Y-94066499D01*
X140811882Y-94010545D01*
X140867211Y-93967879D01*
X140936825Y-93961900D01*
X140998620Y-93994505D01*
X141012518Y-94010545D01*
X141113952Y-94150158D01*
X141113956Y-94150163D01*
X141269836Y-94306043D01*
X141269841Y-94306047D01*
X141345480Y-94361001D01*
X141448178Y-94435615D01*
X141576575Y-94501037D01*
X141644593Y-94535695D01*
X141644596Y-94535696D01*
X141700910Y-94553993D01*
X141854249Y-94603815D01*
X142071978Y-94638300D01*
X142071979Y-94638300D01*
X142292421Y-94638300D01*
X142292422Y-94638300D01*
X142510151Y-94603815D01*
X142719806Y-94535695D01*
X142916222Y-94435615D01*
X143094565Y-94306042D01*
X143250442Y-94150165D01*
X143311229Y-94066499D01*
X143351882Y-94010545D01*
X143407211Y-93967879D01*
X143476825Y-93961900D01*
X143538620Y-93994505D01*
X143552518Y-94010545D01*
X143653952Y-94150158D01*
X143653956Y-94150163D01*
X143809836Y-94306043D01*
X143809841Y-94306047D01*
X143885480Y-94361001D01*
X143988178Y-94435615D01*
X144116575Y-94501037D01*
X144184593Y-94535695D01*
X144184596Y-94535696D01*
X144240910Y-94553993D01*
X144394249Y-94603815D01*
X144611978Y-94638300D01*
X144611979Y-94638300D01*
X144832421Y-94638300D01*
X144832422Y-94638300D01*
X145050151Y-94603815D01*
X145259806Y-94535695D01*
X145456222Y-94435615D01*
X145634565Y-94306042D01*
X145790442Y-94150165D01*
X145892191Y-94010117D01*
X145947520Y-93967453D01*
X146017133Y-93961474D01*
X146078929Y-93994079D01*
X146092828Y-94010119D01*
X146111132Y-94035313D01*
X146779237Y-93367208D01*
X146796275Y-93430793D01*
X146862101Y-93544807D01*
X146955193Y-93637899D01*
X147069207Y-93703725D01*
X147132790Y-93720762D01*
X146464685Y-94388865D01*
X146464685Y-94388866D01*
X146528443Y-94435188D01*
X146724789Y-94535232D01*
X146934364Y-94603326D01*
X147152019Y-94637800D01*
X147372381Y-94637800D01*
X147590035Y-94603326D01*
X147799610Y-94535232D01*
X147995960Y-94435186D01*
X148059713Y-94388866D01*
X148059714Y-94388866D01*
X147391609Y-93720762D01*
X147455193Y-93703725D01*
X147569207Y-93637899D01*
X147662299Y-93544807D01*
X147728125Y-93430793D01*
X147745162Y-93367209D01*
X148365381Y-93987428D01*
X148398866Y-94048751D01*
X148401700Y-94075108D01*
X148401700Y-94185669D01*
X148401701Y-94185676D01*
X148408108Y-94245283D01*
X148458402Y-94380128D01*
X148458406Y-94380135D01*
X148544652Y-94495344D01*
X148544655Y-94495347D01*
X148659864Y-94581593D01*
X148659871Y-94581597D01*
X148794717Y-94631891D01*
X148794716Y-94631891D01*
X148801644Y-94632635D01*
X148854327Y-94638300D01*
X150750072Y-94638299D01*
X150809683Y-94631891D01*
X150944531Y-94581596D01*
X151059746Y-94495346D01*
X151145996Y-94380131D01*
X151196291Y-94245283D01*
X151202700Y-94185673D01*
X151202699Y-92289928D01*
X151196291Y-92230317D01*
X151173629Y-92169558D01*
X151172296Y-92165983D01*
X165069500Y-92165983D01*
X165069500Y-93366001D01*
X165069501Y-93366018D01*
X165080000Y-93468796D01*
X165080001Y-93468799D01*
X165135185Y-93635331D01*
X165135187Y-93635336D01*
X165146361Y-93653452D01*
X165227288Y-93784656D01*
X165351344Y-93908712D01*
X165500666Y-94000814D01*
X165667203Y-94055999D01*
X165769991Y-94066500D01*
X166970008Y-94066499D01*
X167072797Y-94055999D01*
X167239334Y-94000814D01*
X167388656Y-93908712D01*
X167512712Y-93784656D01*
X167604814Y-93635334D01*
X167659999Y-93468797D01*
X167670500Y-93366009D01*
X167670499Y-92165992D01*
X167663294Y-92095464D01*
X167659999Y-92063203D01*
X167659998Y-92063200D01*
X167652305Y-92039985D01*
X167604814Y-91896666D01*
X167512712Y-91747344D01*
X167388656Y-91623288D01*
X167239334Y-91531186D01*
X167072797Y-91476001D01*
X167072795Y-91476000D01*
X166970010Y-91465500D01*
X165769998Y-91465500D01*
X165769981Y-91465501D01*
X165667203Y-91476000D01*
X165667200Y-91476001D01*
X165500668Y-91531185D01*
X165500663Y-91531187D01*
X165351342Y-91623289D01*
X165227289Y-91747342D01*
X165135187Y-91896663D01*
X165135185Y-91896668D01*
X165120858Y-91939904D01*
X165080001Y-92063203D01*
X165080001Y-92063204D01*
X165080000Y-92063204D01*
X165069500Y-92165983D01*
X151172296Y-92165983D01*
X151145997Y-92095471D01*
X151145993Y-92095464D01*
X151059747Y-91980255D01*
X151059744Y-91980252D01*
X150944535Y-91894006D01*
X150944528Y-91894002D01*
X150809682Y-91843708D01*
X150809683Y-91843708D01*
X150750083Y-91837301D01*
X150750081Y-91837300D01*
X150750073Y-91837300D01*
X150750064Y-91837300D01*
X148854329Y-91837300D01*
X148854323Y-91837301D01*
X148794716Y-91843708D01*
X148659871Y-91894002D01*
X148659864Y-91894006D01*
X148544655Y-91980252D01*
X148544652Y-91980255D01*
X148458406Y-92095464D01*
X148458402Y-92095471D01*
X148408108Y-92230317D01*
X148405037Y-92258887D01*
X148401701Y-92289923D01*
X148401700Y-92289935D01*
X148401700Y-92400491D01*
X148382015Y-92467530D01*
X148365381Y-92488172D01*
X147745162Y-93108390D01*
X147728125Y-93044807D01*
X147662299Y-92930793D01*
X147569207Y-92837701D01*
X147455193Y-92771875D01*
X147391607Y-92754837D01*
X148059713Y-92086732D01*
X147995956Y-92040411D01*
X147799610Y-91940367D01*
X147590035Y-91872273D01*
X147372381Y-91837800D01*
X147152019Y-91837800D01*
X146934364Y-91872273D01*
X146724789Y-91940367D01*
X146528433Y-92040416D01*
X146464685Y-92086731D01*
X146464685Y-92086732D01*
X147132790Y-92754837D01*
X147069207Y-92771875D01*
X146955193Y-92837701D01*
X146862101Y-92930793D01*
X146796275Y-93044807D01*
X146779237Y-93108390D01*
X146111132Y-92440285D01*
X146111130Y-92440285D01*
X146092826Y-92465479D01*
X146037496Y-92508145D01*
X145967883Y-92514124D01*
X145906088Y-92481518D01*
X145892190Y-92465479D01*
X145790447Y-92325440D01*
X145634563Y-92169556D01*
X145634558Y-92169552D01*
X145456225Y-92039987D01*
X145456224Y-92039986D01*
X145456222Y-92039985D01*
X145338991Y-91980252D01*
X145259806Y-91939904D01*
X145259803Y-91939903D01*
X145050152Y-91871785D01*
X144940317Y-91854389D01*
X144832422Y-91837300D01*
X144611978Y-91837300D01*
X144582208Y-91842014D01*
X144394249Y-91871784D01*
X144325049Y-91894268D01*
X144255208Y-91896262D01*
X144199052Y-91864017D01*
X141766421Y-89431386D01*
X174626901Y-89431386D01*
X174637394Y-89534097D01*
X174692541Y-89700519D01*
X174692543Y-89700524D01*
X174784584Y-89849745D01*
X174908554Y-89973715D01*
X175057775Y-90065756D01*
X175057780Y-90065758D01*
X175224202Y-90120905D01*
X175224209Y-90120906D01*
X175326919Y-90131399D01*
X176726899Y-90131399D01*
X177226900Y-90131399D01*
X178626872Y-90131399D01*
X178626886Y-90131398D01*
X178729597Y-90120905D01*
X178896019Y-90065758D01*
X178896024Y-90065756D01*
X179045245Y-89973715D01*
X179169215Y-89849745D01*
X179261256Y-89700524D01*
X179261258Y-89700519D01*
X179316405Y-89534097D01*
X179316406Y-89534090D01*
X179326899Y-89431386D01*
X179326900Y-89431373D01*
X179326900Y-89206400D01*
X177226900Y-89206400D01*
X177226900Y-90131399D01*
X176726899Y-90131399D01*
X176726900Y-90131398D01*
X176726900Y-89206400D01*
X174626901Y-89206400D01*
X174626901Y-89431386D01*
X141766421Y-89431386D01*
X141432190Y-89097155D01*
X141432188Y-89097152D01*
X141313317Y-88978281D01*
X141313316Y-88978280D01*
X141226504Y-88928160D01*
X141226504Y-88928159D01*
X141226500Y-88928158D01*
X141176385Y-88899223D01*
X141023657Y-88858299D01*
X140865543Y-88858299D01*
X140857947Y-88858299D01*
X140857931Y-88858300D01*
X132082857Y-88858300D01*
X131924743Y-88858300D01*
X131772015Y-88899223D01*
X131772014Y-88899223D01*
X131772012Y-88899224D01*
X131772009Y-88899225D01*
X131721896Y-88928159D01*
X131721895Y-88928160D01*
X131678489Y-88953220D01*
X131635085Y-88978279D01*
X131635082Y-88978281D01*
X131380781Y-89232583D01*
X131319458Y-89266068D01*
X131249766Y-89261084D01*
X131193833Y-89219212D01*
X131169416Y-89153748D01*
X131169100Y-89144902D01*
X131169100Y-88992978D01*
X131158834Y-88928160D01*
X131134615Y-88775249D01*
X131066495Y-88565594D01*
X131066495Y-88565593D01*
X131050682Y-88534559D01*
X131050681Y-88534557D01*
X131023602Y-88481413D01*
X174626900Y-88481413D01*
X174626900Y-88706400D01*
X176726900Y-88706400D01*
X177226900Y-88706400D01*
X179326899Y-88706400D01*
X179326899Y-88481428D01*
X179326898Y-88481413D01*
X179316405Y-88378702D01*
X179261258Y-88212280D01*
X179261256Y-88212275D01*
X179169215Y-88063054D01*
X179045245Y-87939084D01*
X178896024Y-87847043D01*
X178896019Y-87847041D01*
X178729597Y-87791894D01*
X178729590Y-87791893D01*
X178626886Y-87781400D01*
X177226900Y-87781400D01*
X177226900Y-88706400D01*
X176726900Y-88706400D01*
X176726900Y-87781400D01*
X175326928Y-87781400D01*
X175326912Y-87781401D01*
X175224202Y-87791894D01*
X175057780Y-87847041D01*
X175057775Y-87847043D01*
X174908554Y-87939084D01*
X174784584Y-88063054D01*
X174692543Y-88212275D01*
X174692541Y-88212280D01*
X174637394Y-88378702D01*
X174637393Y-88378709D01*
X174626900Y-88481413D01*
X131023602Y-88481413D01*
X130966414Y-88369176D01*
X130836847Y-88190841D01*
X130836843Y-88190836D01*
X130680963Y-88034956D01*
X130680958Y-88034952D01*
X130502625Y-87905387D01*
X130502624Y-87905386D01*
X130502622Y-87905385D01*
X130385391Y-87845652D01*
X130306206Y-87805304D01*
X130306203Y-87805303D01*
X130096552Y-87737185D01*
X129987686Y-87719942D01*
X129878822Y-87702700D01*
X129658378Y-87702700D01*
X129585801Y-87714195D01*
X129440647Y-87737185D01*
X129230996Y-87805303D01*
X129230993Y-87805304D01*
X129034574Y-87905387D01*
X128856241Y-88034952D01*
X128856236Y-88034956D01*
X128700356Y-88190836D01*
X128700352Y-88190841D01*
X128598918Y-88330454D01*
X128543588Y-88373120D01*
X128473975Y-88379099D01*
X128412180Y-88346493D01*
X128398282Y-88330454D01*
X128296847Y-88190841D01*
X128296843Y-88190836D01*
X128140963Y-88034956D01*
X128140958Y-88034952D01*
X127962625Y-87905387D01*
X127962624Y-87905386D01*
X127962622Y-87905385D01*
X127845391Y-87845652D01*
X127766206Y-87805304D01*
X127766203Y-87805303D01*
X127556552Y-87737185D01*
X127447686Y-87719942D01*
X127338822Y-87702700D01*
X127118378Y-87702700D01*
X127045801Y-87714195D01*
X126900647Y-87737185D01*
X126690996Y-87805303D01*
X126690993Y-87805304D01*
X126494574Y-87905387D01*
X126316241Y-88034952D01*
X126316236Y-88034956D01*
X126160356Y-88190836D01*
X126160352Y-88190841D01*
X126058918Y-88330454D01*
X126003588Y-88373120D01*
X125933975Y-88379099D01*
X125872180Y-88346493D01*
X125858282Y-88330454D01*
X125756847Y-88190841D01*
X125756843Y-88190836D01*
X125600963Y-88034956D01*
X125600958Y-88034952D01*
X125422625Y-87905387D01*
X125422624Y-87905386D01*
X125422622Y-87905385D01*
X125305391Y-87845652D01*
X125226206Y-87805304D01*
X125226203Y-87805303D01*
X125016552Y-87737185D01*
X124907686Y-87719942D01*
X124798822Y-87702700D01*
X124578378Y-87702700D01*
X124505801Y-87714195D01*
X124360647Y-87737185D01*
X124150996Y-87805303D01*
X124150993Y-87805304D01*
X123954574Y-87905387D01*
X123776241Y-88034952D01*
X123776236Y-88034956D01*
X123620356Y-88190836D01*
X123518608Y-88330881D01*
X123463278Y-88373546D01*
X123393665Y-88379525D01*
X123331870Y-88346919D01*
X123317971Y-88330880D01*
X123299666Y-88305685D01*
X123299665Y-88305685D01*
X122631562Y-88973789D01*
X122614525Y-88910207D01*
X122548699Y-88796193D01*
X122455607Y-88703101D01*
X122341593Y-88637275D01*
X122278007Y-88620237D01*
X122946113Y-87952132D01*
X122882356Y-87905811D01*
X122686010Y-87805767D01*
X122476435Y-87737673D01*
X122258781Y-87703200D01*
X122038419Y-87703200D01*
X121820764Y-87737673D01*
X121611189Y-87805767D01*
X121414833Y-87905816D01*
X121351085Y-87952131D01*
X121351085Y-87952132D01*
X122019190Y-88620237D01*
X121955607Y-88637275D01*
X121841593Y-88703101D01*
X121748501Y-88796193D01*
X121682675Y-88910207D01*
X121665637Y-88973790D01*
X121045418Y-88353571D01*
X121011933Y-88292248D01*
X121009099Y-88265890D01*
X121009099Y-88155329D01*
X121009098Y-88155323D01*
X121009097Y-88155316D01*
X121002691Y-88095717D01*
X120952396Y-87960869D01*
X120952395Y-87960868D01*
X120952393Y-87960864D01*
X120866147Y-87845655D01*
X120866144Y-87845652D01*
X120750935Y-87759406D01*
X120750928Y-87759402D01*
X120616082Y-87709108D01*
X120616083Y-87709108D01*
X120556483Y-87702701D01*
X120556481Y-87702700D01*
X120556473Y-87702700D01*
X120556464Y-87702700D01*
X118660729Y-87702700D01*
X118660723Y-87702701D01*
X118601116Y-87709108D01*
X118466271Y-87759402D01*
X118466264Y-87759406D01*
X118351055Y-87845652D01*
X118351052Y-87845655D01*
X118264806Y-87960864D01*
X118264802Y-87960871D01*
X118214508Y-88095717D01*
X118208101Y-88155316D01*
X118208101Y-88155323D01*
X118208100Y-88155335D01*
X118208100Y-90051070D01*
X118208101Y-90051076D01*
X118214508Y-90110683D01*
X118264802Y-90245528D01*
X118264806Y-90245535D01*
X118351052Y-90360744D01*
X118351055Y-90360747D01*
X118466264Y-90446993D01*
X118466271Y-90446997D01*
X118601117Y-90497291D01*
X118601116Y-90497291D01*
X118608044Y-90498035D01*
X118660727Y-90503700D01*
X120556472Y-90503699D01*
X120616083Y-90497291D01*
X120750931Y-90446996D01*
X120866146Y-90360746D01*
X120952396Y-90245531D01*
X120980029Y-90171443D01*
X120982927Y-90163674D01*
X120994964Y-90131399D01*
X121002691Y-90110683D01*
X121009100Y-90051073D01*
X121009099Y-89940504D01*
X121028783Y-89873468D01*
X121045418Y-89852826D01*
X121665637Y-89232608D01*
X121682675Y-89296193D01*
X121748501Y-89410207D01*
X121841593Y-89503299D01*
X121955607Y-89569125D01*
X122019190Y-89586162D01*
X121351085Y-90254265D01*
X121351085Y-90254266D01*
X121414843Y-90300588D01*
X121611189Y-90400632D01*
X121820764Y-90468726D01*
X122038419Y-90503200D01*
X122258781Y-90503200D01*
X122476435Y-90468726D01*
X122686010Y-90400632D01*
X122882360Y-90300586D01*
X122946113Y-90254266D01*
X122946114Y-90254266D01*
X122278009Y-89586162D01*
X122341593Y-89569125D01*
X122455607Y-89503299D01*
X122548699Y-89410207D01*
X122614525Y-89296193D01*
X122631562Y-89232610D01*
X123299666Y-89900714D01*
X123299666Y-89900713D01*
X123317972Y-89875519D01*
X123373301Y-89832853D01*
X123442915Y-89826874D01*
X123504710Y-89859479D01*
X123518608Y-89875519D01*
X123620352Y-90015558D01*
X123620356Y-90015563D01*
X123776236Y-90171443D01*
X123776241Y-90171447D01*
X123954576Y-90301014D01*
X124020394Y-90334550D01*
X124071191Y-90382524D01*
X124088100Y-90445035D01*
X124088100Y-92952836D01*
X124068415Y-93019875D01*
X124015611Y-93065630D01*
X123946453Y-93075574D01*
X123925783Y-93070767D01*
X123842644Y-93043754D01*
X123842640Y-93043753D01*
X123665013Y-93015620D01*
X123632687Y-93010500D01*
X123420113Y-93010500D01*
X123387787Y-93015620D01*
X123210160Y-93043753D01*
X123007985Y-93109444D01*
X122818579Y-93205951D01*
X122646613Y-93330890D01*
X122496290Y-93481213D01*
X122371349Y-93653182D01*
X122366884Y-93661946D01*
X122318909Y-93712742D01*
X122251088Y-93729536D01*
X122184953Y-93706998D01*
X122145916Y-93661946D01*
X122141450Y-93653182D01*
X122016509Y-93481213D01*
X121866186Y-93330890D01*
X121694220Y-93205951D01*
X121504814Y-93109444D01*
X121504813Y-93109443D01*
X121504812Y-93109443D01*
X121302643Y-93043754D01*
X121302641Y-93043753D01*
X121302640Y-93043753D01*
X121125013Y-93015620D01*
X121092687Y-93010500D01*
X120880113Y-93010500D01*
X120847787Y-93015620D01*
X120670160Y-93043753D01*
X120467985Y-93109444D01*
X120278579Y-93205951D01*
X120106613Y-93330890D01*
X119956290Y-93481213D01*
X119831349Y-93653182D01*
X119826884Y-93661946D01*
X119778909Y-93712742D01*
X119711088Y-93729536D01*
X119644953Y-93706998D01*
X119605916Y-93661946D01*
X119601450Y-93653182D01*
X119476509Y-93481213D01*
X119326186Y-93330890D01*
X119154220Y-93205951D01*
X118964814Y-93109444D01*
X118964813Y-93109443D01*
X118964812Y-93109443D01*
X118762643Y-93043754D01*
X118762641Y-93043753D01*
X118762640Y-93043753D01*
X118585013Y-93015620D01*
X118552687Y-93010500D01*
X118340113Y-93010500D01*
X118307787Y-93015620D01*
X118130160Y-93043753D01*
X117927985Y-93109444D01*
X117738579Y-93205951D01*
X117566613Y-93330890D01*
X117416290Y-93481213D01*
X117291349Y-93653182D01*
X117286884Y-93661946D01*
X117238909Y-93712742D01*
X117171088Y-93729536D01*
X117104953Y-93706998D01*
X117065916Y-93661946D01*
X117061450Y-93653182D01*
X116936509Y-93481213D01*
X116786186Y-93330890D01*
X116614220Y-93205951D01*
X116424814Y-93109444D01*
X116424813Y-93109443D01*
X116424812Y-93109443D01*
X116222643Y-93043754D01*
X116222641Y-93043753D01*
X116222640Y-93043753D01*
X116045013Y-93015620D01*
X116012687Y-93010500D01*
X115800113Y-93010500D01*
X115767787Y-93015620D01*
X115590160Y-93043753D01*
X115387985Y-93109444D01*
X115198579Y-93205951D01*
X115026613Y-93330890D01*
X114876290Y-93481213D01*
X114751349Y-93653182D01*
X114746602Y-93662499D01*
X114698627Y-93713293D01*
X114630805Y-93730087D01*
X114564671Y-93707548D01*
X114525634Y-93662495D01*
X114521026Y-93653452D01*
X114481670Y-93599282D01*
X114481669Y-93599282D01*
X113849362Y-94231590D01*
X113832325Y-94168007D01*
X113766499Y-94053993D01*
X113673407Y-93960901D01*
X113559393Y-93895075D01*
X113495809Y-93878037D01*
X114128116Y-93245728D01*
X114073950Y-93206375D01*
X113884617Y-93109904D01*
X113682529Y-93044242D01*
X113472646Y-93011000D01*
X113260154Y-93011000D01*
X113050272Y-93044242D01*
X113050269Y-93044242D01*
X112848182Y-93109904D01*
X112658839Y-93206380D01*
X112604682Y-93245727D01*
X112604682Y-93245728D01*
X113236991Y-93878037D01*
X113173407Y-93895075D01*
X113059393Y-93960901D01*
X112966301Y-94053993D01*
X112900475Y-94168007D01*
X112883437Y-94231591D01*
X112251128Y-93599282D01*
X112251127Y-93599282D01*
X112211780Y-93653440D01*
X112211776Y-93653446D01*
X112207160Y-93662505D01*
X112159181Y-93713297D01*
X112091359Y-93730087D01*
X112025226Y-93707543D01*
X111986194Y-93662493D01*
X111981451Y-93653184D01*
X111981449Y-93653181D01*
X111981448Y-93653179D01*
X111856509Y-93481213D01*
X111706186Y-93330890D01*
X111534220Y-93205951D01*
X111344814Y-93109444D01*
X111344813Y-93109443D01*
X111344812Y-93109443D01*
X111142643Y-93043754D01*
X111142641Y-93043753D01*
X111142640Y-93043753D01*
X110965013Y-93015620D01*
X110932687Y-93010500D01*
X110720113Y-93010500D01*
X110687787Y-93015620D01*
X110510160Y-93043753D01*
X110307985Y-93109444D01*
X110118579Y-93205951D01*
X109946613Y-93330890D01*
X109796290Y-93481213D01*
X109671351Y-93653179D01*
X109574844Y-93842585D01*
X109509153Y-94044760D01*
X109475900Y-94254713D01*
X107180500Y-94254713D01*
X107180500Y-83781386D01*
X174626901Y-83781386D01*
X174637394Y-83884097D01*
X174692541Y-84050519D01*
X174692543Y-84050524D01*
X174784584Y-84199745D01*
X174908554Y-84323715D01*
X175057775Y-84415756D01*
X175057780Y-84415758D01*
X175224202Y-84470905D01*
X175224209Y-84470906D01*
X175326919Y-84481399D01*
X176726899Y-84481399D01*
X177226900Y-84481399D01*
X178626872Y-84481399D01*
X178626886Y-84481398D01*
X178729597Y-84470905D01*
X178896019Y-84415758D01*
X178896024Y-84415756D01*
X179045245Y-84323715D01*
X179169215Y-84199745D01*
X179261256Y-84050524D01*
X179261258Y-84050519D01*
X179316405Y-83884097D01*
X179316406Y-83884090D01*
X179326899Y-83781386D01*
X179326900Y-83781373D01*
X179326900Y-83556400D01*
X177226900Y-83556400D01*
X177226900Y-84481399D01*
X176726899Y-84481399D01*
X176726900Y-84481398D01*
X176726900Y-83556400D01*
X174626901Y-83556400D01*
X174626901Y-83781386D01*
X107180500Y-83781386D01*
X107180500Y-82831413D01*
X174626900Y-82831413D01*
X174626900Y-83056400D01*
X176726900Y-83056400D01*
X177226900Y-83056400D01*
X179326899Y-83056400D01*
X179326899Y-82831428D01*
X179326898Y-82831413D01*
X179316405Y-82728702D01*
X179261258Y-82562280D01*
X179261256Y-82562275D01*
X179169215Y-82413054D01*
X179045245Y-82289084D01*
X178896024Y-82197043D01*
X178896019Y-82197041D01*
X178729597Y-82141894D01*
X178729590Y-82141893D01*
X178626886Y-82131400D01*
X177226900Y-82131400D01*
X177226900Y-83056400D01*
X176726900Y-83056400D01*
X176726900Y-82131400D01*
X175326928Y-82131400D01*
X175326912Y-82131401D01*
X175224202Y-82141894D01*
X175057780Y-82197041D01*
X175057775Y-82197043D01*
X174908554Y-82289084D01*
X174784584Y-82413054D01*
X174692543Y-82562275D01*
X174692541Y-82562280D01*
X174637394Y-82728702D01*
X174637393Y-82728709D01*
X174626900Y-82831413D01*
X107180500Y-82831413D01*
X107180500Y-71013713D01*
X110409500Y-71013713D01*
X110409500Y-71226286D01*
X110442753Y-71436239D01*
X110508444Y-71638414D01*
X110604951Y-71827820D01*
X110729890Y-71999786D01*
X110880213Y-72150109D01*
X111052179Y-72275048D01*
X111052181Y-72275049D01*
X111052184Y-72275051D01*
X111241588Y-72371557D01*
X111443757Y-72437246D01*
X111653713Y-72470500D01*
X111653714Y-72470500D01*
X111866286Y-72470500D01*
X111866287Y-72470500D01*
X112076243Y-72437246D01*
X112278412Y-72371557D01*
X112467816Y-72275051D01*
X112489789Y-72259086D01*
X112639786Y-72150109D01*
X112639788Y-72150106D01*
X112639792Y-72150104D01*
X112790104Y-71999792D01*
X112790106Y-71999788D01*
X112790109Y-71999786D01*
X112915048Y-71827820D01*
X112915047Y-71827820D01*
X112915051Y-71827816D01*
X113011557Y-71638412D01*
X113077246Y-71436243D01*
X113110500Y-71226287D01*
X113110500Y-71013713D01*
X173909500Y-71013713D01*
X173909500Y-71226286D01*
X173942753Y-71436239D01*
X174008444Y-71638414D01*
X174104951Y-71827820D01*
X174229890Y-71999786D01*
X174380213Y-72150109D01*
X174552179Y-72275048D01*
X174552181Y-72275049D01*
X174552184Y-72275051D01*
X174741588Y-72371557D01*
X174943757Y-72437246D01*
X175153713Y-72470500D01*
X175153714Y-72470500D01*
X175366286Y-72470500D01*
X175366287Y-72470500D01*
X175576243Y-72437246D01*
X175778412Y-72371557D01*
X175967816Y-72275051D01*
X175989789Y-72259086D01*
X176139786Y-72150109D01*
X176139788Y-72150106D01*
X176139792Y-72150104D01*
X176290104Y-71999792D01*
X176290106Y-71999788D01*
X176290109Y-71999786D01*
X176415048Y-71827820D01*
X176415047Y-71827820D01*
X176415051Y-71827816D01*
X176511557Y-71638412D01*
X176577246Y-71436243D01*
X176610500Y-71226287D01*
X176610500Y-71013713D01*
X176577246Y-70803757D01*
X176511557Y-70601588D01*
X176415051Y-70412184D01*
X176415049Y-70412181D01*
X176415048Y-70412179D01*
X176290109Y-70240213D01*
X176139786Y-70089890D01*
X175967820Y-69964951D01*
X175778414Y-69868444D01*
X175778413Y-69868443D01*
X175778412Y-69868443D01*
X175576243Y-69802754D01*
X175576241Y-69802753D01*
X175576240Y-69802753D01*
X175414957Y-69777208D01*
X175366287Y-69769500D01*
X175153713Y-69769500D01*
X175105042Y-69777208D01*
X174943760Y-69802753D01*
X174741585Y-69868444D01*
X174552179Y-69964951D01*
X174380213Y-70089890D01*
X174229890Y-70240213D01*
X174104951Y-70412179D01*
X174008444Y-70601585D01*
X173942753Y-70803760D01*
X173909500Y-71013713D01*
X113110500Y-71013713D01*
X113077246Y-70803757D01*
X113011557Y-70601588D01*
X112915051Y-70412184D01*
X112915049Y-70412181D01*
X112915048Y-70412179D01*
X112790109Y-70240213D01*
X112639786Y-70089890D01*
X112467820Y-69964951D01*
X112278414Y-69868444D01*
X112278413Y-69868443D01*
X112278412Y-69868443D01*
X112076243Y-69802754D01*
X112076241Y-69802753D01*
X112076240Y-69802753D01*
X111914957Y-69777208D01*
X111866287Y-69769500D01*
X111653713Y-69769500D01*
X111605042Y-69777208D01*
X111443760Y-69802753D01*
X111241585Y-69868444D01*
X111052179Y-69964951D01*
X110880213Y-70089890D01*
X110729890Y-70240213D01*
X110604951Y-70412179D01*
X110508444Y-70601585D01*
X110442753Y-70803760D01*
X110409500Y-71013713D01*
X107180500Y-71013713D01*
X107180500Y-66664500D01*
X107200185Y-66597461D01*
X107252989Y-66551706D01*
X107304500Y-66540500D01*
X179715500Y-66540500D01*
X179782539Y-66560185D01*
G37*
%TD.AperFunction*%
%TD*%
M02*
