%TF.GenerationSoftware,KiCad,Pcbnew,9.0.7*%
%TF.CreationDate,2026-02-27T14:44:34+08:00*%
%TF.ProjectId,Base2.0,42617365-322e-4302-9e6b-696361645f70,rev?*%
%TF.SameCoordinates,Original*%
%TF.FileFunction,Soldermask,Bot*%
%TF.FilePolarity,Negative*%
%FSLAX46Y46*%
G04 Gerber Fmt 4.6, Leading zero omitted, Abs format (unit mm)*
G04 Created by KiCad (PCBNEW 9.0.7) date 2026-02-27 14:44:34*
%MOMM*%
%LPD*%
G01*
G04 APERTURE LIST*
G04 Aperture macros list*
%AMRoundRect*
0 Rectangle with rounded corners*
0 $1 Rounding radius*
0 $2 $3 $4 $5 $6 $7 $8 $9 X,Y pos of 4 corners*
0 Add a 4 corners polygon primitive as box body*
4,1,4,$2,$3,$4,$5,$6,$7,$8,$9,$2,$3,0*
0 Add four circle primitives for the rounded corners*
1,1,$1+$1,$2,$3*
1,1,$1+$1,$4,$5*
1,1,$1+$1,$6,$7*
1,1,$1+$1,$8,$9*
0 Add four rect primitives between the rounded corners*
20,1,$1+$1,$2,$3,$4,$5,0*
20,1,$1+$1,$4,$5,$6,$7,0*
20,1,$1+$1,$6,$7,$8,$9,0*
20,1,$1+$1,$8,$9,$2,$3,0*%
G04 Aperture macros list end*
%ADD10O,1.950000X1.700000*%
%ADD11RoundRect,0.250000X0.725000X-0.600000X0.725000X0.600000X-0.725000X0.600000X-0.725000X-0.600000X0*%
%ADD12C,1.700000*%
%ADD13R,1.700000X1.700000*%
%ADD14C,2.200000*%
%ADD15R,1.800000X1.800000*%
%ADD16C,1.800000*%
%ADD17RoundRect,0.250000X1.600000X-0.425000X1.600000X0.425000X-1.600000X0.425000X-1.600000X-0.425000X0*%
%ADD18C,1.600000*%
%ADD19RoundRect,0.250000X-0.550000X0.550000X-0.550000X-0.550000X0.550000X-0.550000X0.550000X0.550000X0*%
%ADD20R,2.000000X2.000000*%
%ADD21C,2.000000*%
G04 APERTURE END LIST*
D10*
%TO.C,USBC1*%
X174752000Y-115864000D03*
D11*
X174752000Y-118364000D03*
%TD*%
D12*
%TO.C,J1*%
X143256000Y-127000000D03*
X145796000Y-127000000D03*
D13*
X148336000Y-127000000D03*
%TD*%
D14*
%TO.C,H4*%
X111760000Y-71120000D03*
%TD*%
%TO.C,H3*%
X175260000Y-71120000D03*
%TD*%
%TO.C,H2*%
X111760000Y-134620000D03*
%TD*%
%TO.C,H1*%
X175260000Y-134620000D03*
%TD*%
D10*
%TO.C,BATTERY1*%
X174752000Y-125262000D03*
D11*
X174752000Y-127762000D03*
%TD*%
D10*
%TO.C,J4*%
X174752000Y-106466000D03*
D11*
X174752000Y-108966000D03*
%TD*%
D15*
%TO.C,CN1*%
X154178000Y-101854000D03*
X169418000Y-101854000D03*
X159258000Y-135254000D03*
X164338000Y-135254000D03*
%TD*%
D16*
%TO.C,BUCK-CONVERTER1*%
X149860000Y-119126000D03*
X147320000Y-119126000D03*
X144780000Y-119126000D03*
D15*
X142240000Y-119126000D03*
%TD*%
D17*
%TO.C,ANT1*%
X176976900Y-83306400D03*
X176976900Y-88956400D03*
%TD*%
D18*
%TO.C,C3*%
X166370000Y-96266000D03*
D19*
X166370000Y-92766000D03*
%TD*%
D16*
%TO.C,NEO-M8N1*%
X129768600Y-89103200D03*
X127228600Y-89103200D03*
X124688600Y-89103200D03*
X122148600Y-89103200D03*
D15*
X119608600Y-89103200D03*
%TD*%
%TO.C,BMP280\u002A5V1*%
X149802200Y-93237800D03*
D16*
X147262200Y-93237800D03*
X144722200Y-93237800D03*
X142182200Y-93237800D03*
X139642200Y-93237800D03*
X137102200Y-93237800D03*
%TD*%
D15*
%TO.C,INA1*%
X121412000Y-134620000D03*
D16*
X123952000Y-134620000D03*
X126492000Y-134620000D03*
X129032000Y-134620000D03*
X131572000Y-134620000D03*
X134112000Y-134620000D03*
%TD*%
D13*
%TO.C,ESP32S3SUPERMINI1*%
X110826400Y-109601000D03*
D12*
X113366400Y-109601000D03*
X115906400Y-109601000D03*
X118446400Y-109601000D03*
X120986400Y-109601000D03*
X123526400Y-109601000D03*
X126066400Y-109601000D03*
X128606400Y-109601000D03*
X131146400Y-109601000D03*
X110826400Y-94361000D03*
X113366400Y-94361000D03*
X115906400Y-94361000D03*
X118446400Y-94361000D03*
X120986400Y-94361000D03*
X123526400Y-94361000D03*
X126066400Y-94361000D03*
X128606400Y-94361000D03*
X131146400Y-94361000D03*
%TD*%
D20*
%TO.C,BZ1*%
X114554000Y-118120000D03*
D21*
X114554000Y-125720000D03*
%TD*%
M02*
